<svg width="20" height="20" viewBox="0 0 20 20" fill="none" xmlns="http://www.w3.org/2000/svg">
<path fill-rule="evenodd" clip-rule="evenodd" d="M10 3.4375C7.75634 3.4375 5.9375 5.25634 5.9375 7.5C5.9375 9.74366 7.75634 11.5625 10 11.5625C12.2437 11.5625 14.0625 9.74366 14.0625 7.5C14.0625 5.25634 12.2437 3.4375 10 3.4375ZM4.0625 7.5C4.0625 4.22081 6.72081 1.5625 10 1.5625C13.2792 1.5625 15.9375 4.22081 15.9375 7.5C15.9375 10.7792 13.2792 13.4375 10 13.4375C6.72081 13.4375 4.0625 10.7792 4.0625 7.5Z" fill="#0033CC"/>
<path fill-rule="evenodd" clip-rule="evenodd" d="M10.0001 13.4375C8.62859 13.4375 7.28122 13.7984 6.09334 14.484C4.90547 15.1696 3.91892 16.1557 3.23282 17.3433C2.97381 17.7916 2.40039 17.945 1.95207 17.686C1.50375 17.427 1.35028 16.8536 1.60929 16.4053C2.46 14.9328 3.68322 13.7101 5.15609 12.86C6.62895 12.01 8.29957 11.5625 10.0001 11.5625C11.7007 11.5625 13.3713 12.0101 14.8442 12.8601C16.317 13.7102 17.5402 14.933 18.3909 16.4055C18.6499 16.8538 18.4964 17.4272 18.0481 17.6862C17.5997 17.9452 17.0263 17.7917 16.7673 17.3434C16.0813 16.1558 15.0947 15.1697 13.9069 14.4841C12.719 13.7985 11.3716 13.4375 10.0001 13.4375Z" fill="#0033CC"/>
</svg>
