<svg width="56" height="56" viewBox="0 0 56 56" fill="none" xmlns="http://www.w3.org/2000/svg">
<path fill-rule="evenodd" clip-rule="evenodd" d="M28 21.4375C25.7563 21.4375 23.9375 23.2563 23.9375 25.5C23.9375 27.7437 25.7563 29.5625 28 29.5625C30.2437 29.5625 32.0625 27.7437 32.0625 25.5C32.0625 23.2563 30.2437 21.4375 28 21.4375ZM22.0625 25.5C22.0625 22.2208 24.7208 19.5625 28 19.5625C31.2792 19.5625 33.9375 22.2208 33.9375 25.5C33.9375 28.7792 31.2792 31.4375 28 31.4375C24.7208 31.4375 22.0625 28.7792 22.0625 25.5Z" fill="#5B34EA"/>
<path fill-rule="evenodd" clip-rule="evenodd" d="M28.0001 31.4375C26.6286 31.4375 25.2812 31.7984 24.0933 32.484C22.9055 33.1696 21.9189 34.1557 21.2328 35.3433C20.9738 35.7916 20.4004 35.945 19.9521 35.686C19.5037 35.427 19.3503 34.8536 19.6093 34.4053C20.46 32.9328 21.6832 31.7101 23.1561 30.86C24.6289 30.01 26.2996 29.5625 28.0001 29.5625C29.7007 29.5625 31.3713 30.0101 32.8442 30.8601C34.317 31.7102 35.5402 32.933 36.3909 34.4055C36.6499 34.8538 36.4964 35.4272 36.0481 35.6862C35.5997 35.9452 35.0263 35.7917 34.7673 35.3434C34.0813 34.1558 33.0947 33.1697 31.9069 32.4841C30.719 31.7985 29.3716 31.4375 28.0001 31.4375Z" fill="#5B34EA"/>
</svg>
