<svg width="40" height="40" viewBox="0 0 40 40" fill="none" xmlns="http://www.w3.org/2000/svg">
<path fill-rule="evenodd" clip-rule="evenodd" d="M23.2925 17.9821C23.5785 18.2818 23.5675 18.7565 23.2679 19.0425L19.6012 22.5425C19.3113 22.8192 18.8553 22.8192 18.5655 22.5425L16.7321 20.7925C16.4325 20.5065 16.4215 20.0318 16.7075 19.7321C16.9935 19.4325 17.4682 19.4215 17.7679 19.7075L19.0833 20.9632L22.2321 17.9575C22.5318 17.6715 23.0065 17.6825 23.2925 17.9821Z" fill="#5B34EA"/>
<path fill-rule="evenodd" clip-rule="evenodd" d="M15.25 15.25V24.75H24.75V15.25H15.25ZM13.75 15C13.75 14.3096 14.3096 13.75 15 13.75H25C25.6904 13.75 26.25 14.3096 26.25 15V25C26.25 25.6904 25.6904 26.25 25 26.25H15C14.3096 26.25 13.75 25.6904 13.75 25V15Z" fill="#5B34EA"/>
</svg>
