<svg width="120" height="48" viewBox="0 0 120 48" fill="none" xmlns="http://www.w3.org/2000/svg">
<ellipse cx="23.85" cy="35.4" rx="3.6" ry="3.6" transform="rotate(90 23.85 35.4)" fill="#A5A3AD"/>
<ellipse cx="23.85" cy="12.6" rx="3.6" ry="3.6" transform="rotate(90 23.85 12.6)" fill="#A5A3AD"/>
<path d="M10.35 18C10.35 18.9919 10.7511 19.89 11.4 20.5412C12.0489 21.1923 12.0489 26.8077 11.4 27.4588C10.7511 28.11 10.35 29.0081 10.35 30C10.35 31.9882 11.9618 33.6 13.95 33.6C15.9382 33.6 17.55 31.9882 17.55 30C17.55 28.8631 17.023 27.8493 16.2 27.1896C15.377 26.5298 14.1778 21.2207 16.2 21.653C18.2222 22.0854 20.0493 23.4609 20.3314 24.7648C20.6821 26.3856 22.1242 27.6 23.85 27.6C25.6081 27.6 27.0719 26.3397 27.3871 24.6733C27.6438 23.3167 29.4865 21.9878 31.5 21.6022C33.5135 21.2166 32.323 26.5298 31.5 27.1896C30.677 27.8493 30.15 28.8631 30.15 30C30.15 31.9882 31.7618 33.6 33.75 33.6C35.7382 33.6 37.35 31.9882 37.35 30C37.35 29.0081 36.9489 28.11 36.3 27.4588C35.6511 26.8077 35.6511 21.1923 36.3 20.5412C36.9489 19.89 37.35 18.9919 37.35 18C37.35 16.0118 35.7382 14.4 33.75 14.4C31.9255 14.4 30.4181 15.7572 30.1821 17.517C29.9461 19.2769 27.2855 20.6842 24.9126 20.5594C24.1202 20.5177 23.4881 20.545 22.6976 20.5884C20.3702 20.7163 17.7256 19.4059 17.5285 17.604C17.3313 15.8021 15.8044 14.4 13.95 14.4C11.9618 14.4 10.35 16.0118 10.35 18Z" fill="#A5A3AD"/>
<path d="M46.452 36.096V11.904H50.5511L58.5479 27.9648L66.5447 11.904H70.6439V36.096H66.3767V21.648L59.3544 36.096H57.7415L50.7192 21.648V36.096H46.452Z" fill="#A5A3AD"/>
<path d="M75.0958 15.432V11.4H79.6654V15.432H75.0958ZM75.0958 36.096V17.952H79.6654V36.096H75.0958Z" fill="#A5A3AD"/>
<path d="M84.1019 36.096V17.952H88.1339V22.3872L87.6972 21.816C87.9324 21.1888 88.246 20.6176 88.638 20.1024C89.0299 19.5872 89.5115 19.1616 90.0827 18.8256C90.5196 18.5568 90.9955 18.3496 91.5107 18.204C92.0259 18.0472 92.5579 17.952 93.1068 17.9184C93.6555 17.8736 94.2043 17.8848 94.7532 17.952V22.2192C94.2491 22.0624 93.6611 22.012 92.9892 22.068C92.3284 22.1128 91.7291 22.264 91.1915 22.5216C90.6539 22.768 90.2003 23.0984 89.8307 23.5128C89.4612 23.916 89.1811 24.3976 88.9907 24.9576C88.8004 25.5064 88.7052 26.128 88.7052 26.8224V36.096H84.1019Z" fill="#A5A3AD"/>
<path d="M104.102 36.6336C102.68 36.6336 101.521 36.3928 100.625 35.9112C99.7288 35.4296 99.0288 34.8192 98.5248 34.08C98.032 33.3408 97.6792 32.5736 97.4664 31.7784C97.2536 30.972 97.1248 30.2384 97.08 29.5776C97.0352 28.9168 97.0128 28.4352 97.0128 28.1328V17.952H101.65V26.52C101.65 26.9344 101.672 27.4664 101.717 28.116C101.762 28.7544 101.902 29.3984 102.137 30.048C102.372 30.6976 102.753 31.2408 103.279 31.6776C103.817 32.1144 104.573 32.3328 105.547 32.3328C105.939 32.3328 106.359 32.2712 106.807 32.148C107.255 32.0248 107.675 31.7896 108.067 31.4424C108.459 31.084 108.778 30.5632 109.025 29.88C109.282 29.1856 109.411 28.2784 109.411 27.1584L112.032 28.4016C112.032 29.8352 111.741 31.1792 111.158 32.4336C110.576 33.688 109.697 34.7016 108.521 35.4744C107.356 36.2472 105.883 36.6336 104.102 36.6336ZM109.982 36.096V30.0816H109.411V17.952H114.014V36.096H109.982Z" fill="#A5A3AD"/>
</svg>
