<svg width="80" height="80" viewBox="0 0 80 80" fill="none" xmlns="http://www.w3.org/2000/svg">
<g clip-path="url(#clip0_15786_224147)">
<rect width="80" height="80" rx="40" fill="#5B34EA"/>
<path fill-rule="evenodd" clip-rule="evenodd" d="M17.375 32.5C17.375 30.3599 19.1099 28.625 21.25 28.625H58.75C60.8901 28.625 62.625 30.3599 62.625 32.5V58.75C62.625 60.8901 60.8901 62.625 58.75 62.625H21.25C19.1099 62.625 17.375 60.8901 17.375 58.75V32.5Z" fill="#DED6FB"/>
<path fill-rule="evenodd" clip-rule="evenodd" d="M21.375 32.625V58.625H58.625V32.625H21.375Z" fill="#5B34EA"/>
<path d="M40 48.4375C41.5533 48.4375 42.8125 47.1783 42.8125 45.625C42.8125 44.0717 41.5533 42.8125 40 42.8125C38.4467 42.8125 37.1875 44.0717 37.1875 45.625C37.1875 47.1783 38.4467 48.4375 40 48.4375Z" fill="#DED6FB"/>
<path fill-rule="evenodd" clip-rule="evenodd" d="M31.9567 15.0817C34.0899 12.9484 36.9832 11.75 40 11.75C43.0168 11.75 45.9101 12.9484 48.0433 15.0817C50.1766 17.2149 51.375 20.1082 51.375 23.125V30.625C51.375 31.7296 50.4796 32.625 49.375 32.625H30.625C29.5204 32.625 28.625 31.7296 28.625 30.625V23.125C28.625 20.1082 29.8234 17.2149 31.9567 15.0817Z" fill="#DED6FB"/>
<path fill-rule="evenodd" clip-rule="evenodd" d="M40 15.75C38.044 15.75 36.1682 16.527 34.7851 17.9101C33.402 19.2932 32.625 21.169 32.625 23.125V28.625H47.375V23.125C47.375 21.169 46.598 19.2932 45.2149 17.9101C43.8318 16.527 41.956 15.75 40 15.75Z" fill="#5B34EA"/>
</g>
<defs>
<clipPath id="clip0_15786_224147">
<rect width="80" height="80" rx="40" fill="white"/>
</clipPath>
</defs>
</svg>
