<svg width="40" height="40" viewBox="0 0 40 40" fill="none" xmlns="http://www.w3.org/2000/svg">
<g clip-path="url(#clip0_9734_19127)">
<path fill-rule="evenodd" clip-rule="evenodd" d="M11.875 6.875V11.5625L19.9951 17.6526L28.125 11.5016V6.875H11.875ZM9.0403 4.04029C9.62635 3.45424 10.4212 3.125 11.25 3.125H28.75C29.5788 3.125 30.3737 3.45424 30.9597 4.04029C31.5458 4.62635 31.875 5.4212 31.875 6.25V11.8241C31.872 12.3051 31.7586 12.779 31.5435 13.2092C31.3283 13.6395 31.0173 14.0146 30.6342 14.3055L21.1313 21.4953C20.4644 21.9998 19.544 22.0017 18.875 21.5L9.36576 14.3681C8.98272 14.0771 8.67167 13.702 8.45655 13.2717C8.24142 12.8415 8.12801 12.3676 8.12504 11.8866L8.12497 11.875L8.12501 6.25C8.12501 5.4212 8.45425 4.62634 9.0403 4.04029Z" fill="#5B34EA"/>
<path fill-rule="evenodd" clip-rule="evenodd" d="M18.875 18.5C19.544 17.9983 20.4644 18.0002 21.1313 18.5047L30.6342 25.6945C31.0173 25.9854 31.3283 26.3605 31.5435 26.7908C31.7586 27.221 31.872 27.6949 31.875 28.1759L31.875 28.1875L31.875 33.75C31.875 34.5788 31.5458 35.3737 30.9597 35.9597C30.3737 36.5458 29.5788 36.875 28.75 36.875H11.25C10.4212 36.875 9.62635 36.5458 9.04029 35.9597C8.45424 35.3737 8.125 34.5788 8.125 33.75V28.1134C8.12796 27.6324 8.24142 27.1585 8.45654 26.7283C8.67166 26.298 8.98274 25.9229 9.36578 25.632L9.37498 25.625L18.875 18.5ZM11.875 28.4375L19.9951 22.3474L28.125 28.4984V33.125H11.875V28.4375Z" fill="#5B34EA"/>
<path fill-rule="evenodd" clip-rule="evenodd" d="M9.79688 13.75C9.79688 12.7145 10.6363 11.875 11.6719 11.875H28.2656C29.3012 11.875 30.1406 12.7145 30.1406 13.75C30.1406 14.7855 29.3012 15.625 28.2656 15.625H11.6719C10.6363 15.625 9.79688 14.7855 9.79688 13.75Z" fill="#5B34EA"/>
<path fill-rule="evenodd" clip-rule="evenodd" d="M20 18.125C21.0355 18.125 21.875 18.9645 21.875 20V26.25C21.875 27.2855 21.0355 28.125 20 28.125C18.9645 28.125 18.125 27.2855 18.125 26.25V20C18.125 18.9645 18.9645 18.125 20 18.125Z" fill="#5B34EA"/>
</g>
<defs>
<clipPath id="clip0_9734_19127">
<rect width="40" height="40" fill="white"/>
</clipPath>
</defs>
</svg>
