<svg width="120" height="120" viewBox="0 0 120 120" fill="none" xmlns="http://www.w3.org/2000/svg">
<g clip-path="url(#clip0_10498_25457)">
<rect width="120" height="120" rx="8" fill="url(#paint0_linear_10498_25457)"/>
<path fill-rule="evenodd" clip-rule="evenodd" d="M32.5 44C31.9477 44 31.5 44.4477 31.5 45V85C31.5 85.5523 31.9477 86 32.5 86H76C76.8284 86 77.5 86.6716 77.5 87.5C77.5 88.3284 76.8284 89 76 89H32.5C30.2909 89 28.5 87.2091 28.5 85V45C28.5 42.7909 30.2909 41 32.5 41H87.5C89.7091 41 91.5 42.7909 91.5 45V68C91.5 68.8284 90.8284 69.5 90 69.5C89.1716 69.5 88.5 68.8284 88.5 68V45C88.5 44.4477 88.0523 44 87.5 44H32.5Z" fill="#DED6FB"/>
<path fill-rule="evenodd" clip-rule="evenodd" d="M47.9038 32.9038C49.1228 31.6848 50.7761 31 52.5 31H67.5C69.2239 31 70.8772 31.6848 72.0962 32.9038C73.3152 34.1228 74 35.7761 74 37.5V42.5C74 43.3284 73.3284 44 72.5 44C71.6716 44 71 43.3284 71 42.5V37.5C71 36.5717 70.6313 35.6815 69.9749 35.0251C69.3185 34.3687 68.4283 34 67.5 34H52.5C51.5717 34 50.6815 34.3687 50.0251 35.0251C49.3688 35.6815 49 36.5717 49 37.5V42.5C49 43.3284 48.3284 44 47.5 44C46.6716 44 46 43.3284 46 42.5V37.5C46 35.7761 46.6848 34.1228 47.9038 32.9038Z" fill="#DED6FB"/>
<path fill-rule="evenodd" clip-rule="evenodd" d="M91.2985 58.7178C91.7132 59.4349 91.4681 60.3525 90.751 60.7672C81.4051 66.1723 70.7971 69.0124 60.0009 69C49.2013 69.0276 38.5883 66.1861 29.2472 60.7662C28.5307 60.3504 28.2868 59.4325 28.7026 58.716C29.1183 57.9994 30.0363 57.7556 30.7528 58.1713C39.6351 63.3251 49.727 66.0267 59.9961 66L60.0018 66C70.2704 66.0122 80.36 63.3112 89.249 58.1703C89.9662 57.7555 90.8837 58.0007 91.2985 58.7178Z" fill="#DED6FB"/>
<path fill-rule="evenodd" clip-rule="evenodd" d="M54.75 57.5C54.75 56.6716 55.4216 56 56.25 56H63.75C64.5784 56 65.25 56.6716 65.25 57.5C65.25 58.3284 64.5784 59 63.75 59H56.25C55.4216 59 54.75 58.3284 54.75 57.5Z" fill="#DED6FB"/>
<path fill-rule="evenodd" clip-rule="evenodd" d="M84.5 77V80L89.9961 84.122L95.5 79.9579V77H84.5ZM82.1956 74.6956C82.641 74.2502 83.2451 74 83.875 74H96.125C96.7549 74 97.359 74.2502 97.8044 74.6956C98.2498 75.141 98.5 75.7451 98.5 76.375V80.278C98.4978 80.6434 98.4116 81.0035 98.2481 81.3303C98.0847 81.6572 97.8484 81.9421 97.5574 82.1632L90.905 87.1962C90.3715 87.5999 89.6352 87.6014 89.1 87.2L82.4426 82.207C82.1516 81.9859 81.9153 81.7009 81.7519 81.3741C81.5884 81.0472 81.5023 80.6872 81.5 80.3217L81.5 80.3125L81.5 76.375C81.5 75.7451 81.7502 75.141 82.1956 74.6956Z" fill="#DED6FB"/>
<path fill-rule="evenodd" clip-rule="evenodd" d="M89.1 84.8C89.6352 84.3986 90.3715 84.4001 90.905 84.8038L97.5574 89.8368C97.8484 90.0579 98.0847 90.3428 98.2481 90.6697C98.4116 90.9965 98.4977 91.3566 98.5 91.722L98.5 91.7313L98.5 95.625C98.5 96.2549 98.2498 96.859 97.8044 97.3044C97.359 97.7498 96.7549 98 96.125 98H83.875C83.2451 98 82.641 97.7498 82.1956 97.3044C81.7502 96.859 81.5 96.2549 81.5 95.625V91.6783C81.5023 91.3128 81.5884 90.9528 81.7519 90.6259C81.9153 90.2991 82.1516 90.0141 82.4426 89.7931L82.45 89.7875L89.1 84.8ZM84.5 92L89.9961 87.878L95.5 92.0421V95H84.5V92Z" fill="#DED6FB"/>
<path fill-rule="evenodd" clip-rule="evenodd" d="M81.5 91.6828C81.5026 90.8544 82.1763 90.1849 83.0047 90.1875L97.0047 90.2313C97.8331 90.2338 98.5026 90.9075 98.5 91.7359C98.4974 92.5644 97.8237 93.2338 96.9953 93.2312L82.9953 93.1875C82.1669 93.1849 81.4974 92.5112 81.5 91.6828Z" fill="#DED6FB"/>
</g>
<defs>
<linearGradient id="paint0_linear_10498_25457" x1="60" y1="0" x2="60" y2="120" gradientUnits="userSpaceOnUse">
<stop stop-color="#8062EF"/>
<stop offset="1" stop-color="#3111A6"/>
</linearGradient>
<clipPath id="clip0_10498_25457">
<rect width="120" height="120" fill="white"/>
</clipPath>
</defs>
</svg>
