<svg width="24" height="24" viewBox="0 0 24 24" fill="none" xmlns="http://www.w3.org/2000/svg">
<g clip-path="url(#clip0_5444_45949)">
<path d="M0 0H23.9404V12.9559L22.7554 14.8121L23.9404 16.464V24H0V11.7865L0.740616 10.9327L0 10.116V0Z" fill="#016FD0"/>
<path d="M4.64844 16.7231V12.9551H8.62812L9.0551 13.5131L9.4962 12.9551H23.9415V16.4632C23.9415 16.4632 23.5637 16.7193 23.1268 16.7231H15.1282L14.6468 16.1291V16.7231H13.0692V15.7091C13.0692 15.7091 12.8537 15.8507 12.3879 15.8507H11.8509V16.7231H9.46244L9.03607 16.1531L8.60316 16.7231H4.64844Z" fill="white"/>
<path d="M0 10.115L0.897435 8.01758H2.44946L2.95876 9.19248V8.01758H4.88806L5.19125 8.86676L5.48519 8.01758H14.1458V8.44449C14.1458 8.44449 14.601 8.01758 15.3493 8.01758L18.1593 8.02742L18.6598 9.18695V8.01758H20.2744L20.7187 8.68363V8.01758H22.3481V11.7856H20.7187L20.2929 11.1173V11.7856H17.9208L17.6822 11.1916H17.0445L16.8098 11.7856H15.2011C14.5573 11.7856 14.1458 11.3674 14.1458 11.3674V11.7856H11.7202L11.2388 11.1916V11.7856H2.21953L1.98115 11.1916H1.34547L1.10877 11.7856H0V10.115Z" fill="white"/>
<path d="M1.21435 8.48242L0.00390625 11.3038H0.791968L1.01531 10.7388H2.3137L2.53589 11.3038H3.34131L2.13202 8.48242H1.21435ZM1.66219 9.13903L2.05796 10.1263H1.26527L1.66219 9.13903Z" fill="#016FD0"/>
<path d="M3.42578 11.3038V8.48242L4.54566 8.48659L5.19702 10.3056L5.83278 8.48242H6.94371V11.3038H6.24012V9.22488L5.49431 11.3038H4.87726L4.12937 9.22488V11.3038H3.42578Z" fill="#016FD0"/>
<path d="M7.42578 11.3038V8.48242H9.72169V9.11351H8.13677V9.59611H9.68466V10.1901H8.13677V10.6912H9.72169V11.3038H7.42578Z" fill="#016FD0"/>
<path d="M10.1289 8.48242V11.3038H10.8325V10.3014H11.1287L11.9723 11.3038H12.8322L11.9064 10.2643C12.2863 10.2322 12.6782 9.90527 12.6782 9.39774C12.6782 8.80403 12.2134 8.48242 11.6946 8.48242H10.1289ZM10.8325 9.11351H11.6368C11.8297 9.11351 11.97 9.2648 11.97 9.4105C11.97 9.59793 11.7882 9.70748 11.6472 9.70748H10.8325V9.11351Z" fill="#016FD0"/>
<path d="M13.6832 11.3038H12.9648V8.48242H13.6832V11.3038Z" fill="#016FD0"/>
<path d="M15.3882 11.3038H15.2332C14.4829 11.3038 14.0273 10.7112 14.0273 9.9047C14.0273 9.07827 14.4778 8.48242 15.4253 8.48242H16.2029V9.15063H15.3968C15.0122 9.15063 14.7402 9.45154 14.7402 9.91166C14.7402 10.458 15.0512 10.6875 15.4993 10.6875H15.6845L15.3882 11.3038Z" fill="#016FD0"/>
<path d="M16.9175 8.48242L15.707 11.3038H16.4951L16.7184 10.7388H18.0168L18.239 11.3038H19.0444L17.8351 8.48242H16.9175ZM17.3653 9.13903L17.7611 10.1263H16.9684L17.3653 9.13903Z" fill="#016FD0"/>
<path d="M19.125 11.3038V8.48242H20.0195L21.1617 10.255V8.48242H21.8653V11.3038H20.9997L19.8286 9.48474V11.3038H19.125Z" fill="#016FD0"/>
<path d="M5.12891 16.2413V13.4199H7.42482V14.051H5.8399V14.5336H7.38779V15.1276H5.8399V15.6287H7.42482V16.2413H5.12891Z" fill="#016FD0"/>
<path d="M16.3789 16.2413V13.4199H18.6748V14.051H17.0899V14.5336H18.6304V15.1276H17.0899V15.6287H18.6748V16.2413H16.3789Z" fill="#016FD0"/>
<path d="M7.5149 16.2413L8.63276 14.848L7.48828 13.4199H8.37471L9.0563 14.3028L9.74022 13.4199H10.5919L9.46249 14.8306L10.5824 16.2413H9.69613L9.03432 15.3724L8.38859 16.2413H7.5149Z" fill="#016FD0"/>
<path d="M10.6641 13.4199V16.2413H11.3862V15.3503H12.1268C12.7534 15.3503 13.2284 15.017 13.2284 14.3689C13.2284 13.832 12.8559 13.4199 12.2182 13.4199H10.6641ZM11.3862 14.058H12.1661C12.3686 14.058 12.5133 14.1824 12.5133 14.3828C12.5133 14.5711 12.3693 14.7076 12.1638 14.7076H11.3862V14.058Z" fill="#016FD0"/>
<path d="M13.5352 13.4199V16.2413H14.2387V15.2389H14.535L15.3786 16.2413H16.2384L15.3126 15.2018C15.6926 15.1697 16.0845 14.8428 16.0845 14.3352C16.0845 13.7415 15.6197 13.4199 15.1009 13.4199H13.5352ZM14.2387 14.051H15.043C15.2359 14.051 15.3763 14.2023 15.3763 14.348C15.3763 14.5354 15.1944 14.645 15.0534 14.645H14.2387V14.051Z" fill="#016FD0"/>
<path d="M18.9995 16.2413V15.6287H20.4076C20.6159 15.6287 20.7061 15.5159 20.7061 15.3921C20.7061 15.2735 20.6162 15.1536 20.4076 15.1536H19.7713C19.2182 15.1536 18.9102 14.8157 18.9102 14.3086C18.9102 13.8562 19.1922 13.4199 20.0141 13.4199H21.3843L21.088 14.0547H19.903C19.6765 14.0547 19.6068 14.1739 19.6068 14.2877C19.6068 14.4046 19.693 14.5336 19.866 14.5336H20.5326C21.1491 14.5336 21.4167 14.8842 21.4167 15.3434C21.4167 15.837 21.1185 16.2413 20.499 16.2413H18.9995Z" fill="#016FD0"/>
<path d="M21.5815 16.2413V15.6287H22.9896C23.198 15.6287 23.2882 15.5159 23.2882 15.3921C23.2882 15.2735 23.1983 15.1536 22.9896 15.1536H22.3533C21.8002 15.1536 21.4922 14.8157 21.4922 14.3086C21.4922 13.8562 21.7743 13.4199 22.5962 13.4199H23.9663L23.6701 14.0547H22.4851C22.2586 14.0547 22.1888 14.1739 22.1888 14.2877C22.1888 14.4046 22.275 14.5336 22.448 14.5336H23.1146C23.7312 14.5336 23.9987 14.8842 23.9987 15.3434C23.9987 15.837 23.7006 16.2413 23.081 16.2413H21.5815Z" fill="#016FD0"/>
</g>
<defs>
<clipPath id="clip0_5444_45949">
<rect width="24" height="24" fill="white"/>
</clipPath>
</defs>
</svg>
