<svg width="16" height="16" viewBox="0 0 16 16" fill="none" xmlns="http://www.w3.org/2000/svg">
<g clip-path="url(#clip0_1060_143)">
<path d="M12.6774 15.3557C11.8528 16.1979 10.943 16.0666 10.0759 15.6695C9.15394 15.2644 8.31111 15.2388 7.33745 15.6695C6.12493 16.2203 5.4814 16.0602 4.75115 15.3557C0.628289 10.8883 1.23683 4.08311 5.92259 3.82691C7.05904 3.89096 7.8547 4.48821 8.5241 4.53785C9.51906 4.32489 10.4714 3.71483 11.5364 3.79489C12.8158 3.90377 13.7728 4.43538 14.4117 5.3913C11.7798 7.05657 12.4035 10.7073 14.821 11.7321C14.3372 13.0691 13.7165 14.3902 12.6759 15.3669L12.6774 15.3557ZM8.43282 3.77888C8.30959 1.79336 9.83855 0.160122 11.5972 0C11.8391 2.28974 9.61947 4.00305 8.43282 3.77888Z" fill="white"/>
</g>
<defs>
<clipPath id="clip0_1060_143">
<rect width="16" height="16" fill="white"/>
</clipPath>
</defs>
</svg>
