<svg width="49" height="20" viewBox="0 0 49 20" fill="none" xmlns="http://www.w3.org/2000/svg">
<g clip-path="url(#clip0_5444_45969)">
<path d="M8.95611 2.5785C8.38189 3.25404 7.46314 3.78687 6.54439 3.71075C6.42954 2.79734 6.87935 1.82683 7.40571 1.2274C7.97993 0.532826 8.98482 0.038059 9.79829 0C9.894 0.951475 9.52075 1.88392 8.95611 2.5785ZM9.78872 3.89153C8.45845 3.81541 7.31958 4.6432 6.68794 4.6432C6.04673 4.6432 5.08013 3.92959 4.02739 3.94862C2.65884 3.96765 1.38599 4.73834 0.687355 5.96575C-0.748191 8.42055 0.314113 12.0552 1.70181 14.0533C2.3813 15.0428 3.19478 16.1275 4.26665 16.0894C5.28111 16.0514 5.68306 15.4329 6.90806 15.4329C8.14263 15.4329 8.49673 16.0894 9.56861 16.0704C10.6788 16.0514 11.3774 15.0809 12.0569 14.0913C12.8321 12.9686 13.1479 11.8744 13.167 11.8173C13.1479 11.7983 11.0233 10.9895 11.0042 8.55376C10.985 6.5176 12.679 5.5471 12.7555 5.49001C11.7985 4.08183 10.3055 3.92959 9.78872 3.89153ZM17.4737 1.13225V15.9657H19.7897V10.8944H22.9958C25.9243 10.8944 27.9819 8.89629 27.9819 6.00381C27.9819 3.11132 25.9626 1.13225 23.0723 1.13225H17.4737ZM19.7897 3.07326H22.4598C24.4696 3.07326 25.618 4.13892 25.618 6.01332C25.618 7.88773 24.4696 8.96289 22.4502 8.96289H19.7897V3.07326ZM32.212 16.0799C33.6667 16.0799 35.0161 15.3473 35.6286 14.1865H35.6764V15.9657H37.8202V8.5823C37.8202 6.44148 36.0975 5.06185 33.4465 5.06185C30.987 5.06185 29.1686 6.46051 29.1016 8.38249H31.1879C31.3602 7.46908 32.212 6.86965 33.3795 6.86965C34.7959 6.86965 35.5903 7.52617 35.5903 8.73454V9.55281L32.7001 9.72407C30.0108 9.88582 28.5561 10.98 28.5561 12.883C28.5561 14.8049 30.0586 16.0799 32.212 16.0799ZM32.834 14.3197C31.5995 14.3197 30.8147 13.7298 30.8147 12.8259C30.8147 11.8934 31.5708 11.3511 33.0159 11.2655L35.5903 11.1037V11.941C35.5903 13.3302 34.4036 14.3197 32.834 14.3197ZM40.6817 20C42.9403 20 44.0026 19.1437 44.9309 16.5461L48.9983 5.20457H46.644L43.9165 13.9677H43.8686L41.1411 5.20457H38.7198L42.6436 16.0038L42.4331 16.6603C42.079 17.7736 41.5047 18.2017 40.4807 18.2017C40.2989 18.2017 39.9448 18.1827 39.8012 18.1637V19.9429C39.9352 19.981 40.5094 20 40.6817 20Z" fill="black"/>
</g>
<defs>
<clipPath id="clip0_5444_45969">
<rect width="49" height="20" fill="white"/>
</clipPath>
</defs>
</svg>
