<svg width="40" height="40" viewBox="0 0 40 40" fill="none" xmlns="http://www.w3.org/2000/svg">
<circle cx="20" cy="20" r="20" fill="#7C5DEE"/>
<path fill-rule="evenodd" clip-rule="evenodd" d="M20.0005 12.127C17.3081 12.127 15.1255 14.3096 15.1255 17.002C15.1255 19.6943 17.3081 21.877 20.0005 21.877C22.6929 21.877 24.8755 19.6943 24.8755 17.002C24.8755 14.3096 22.6929 12.127 20.0005 12.127ZM12.8755 17.002C12.8755 13.0669 16.0655 9.87695 20.0005 9.87695C23.9355 9.87695 27.1255 13.0669 27.1255 17.002C27.1255 20.937 23.9355 24.127 20.0005 24.127C16.0655 24.127 12.8755 20.937 12.8755 17.002Z" fill="#F5F7F9"/>
<path fill-rule="evenodd" clip-rule="evenodd" d="M20.0008 24.127C18.355 24.1269 16.7381 24.56 15.3127 25.3827C13.8872 26.2054 12.7034 27.3888 11.8801 28.8139C11.5692 29.3518 10.8812 29.536 10.3432 29.2252C9.80518 28.9144 9.62102 28.2263 9.93183 27.6883C10.9527 25.9213 12.4206 24.4541 14.188 23.434C15.9554 22.4139 17.9602 21.8769 20.0008 21.877C22.0415 21.877 24.0463 22.414 25.8137 23.4341C27.5811 24.4542 29.0489 25.9215 30.0697 27.6885C30.3805 28.2265 30.1964 28.9146 29.6584 29.2254C29.1204 29.5362 28.4323 29.352 28.1215 28.814C27.2982 27.3889 26.1144 26.2056 24.6889 25.3828C23.2635 24.5601 21.6467 24.127 20.0008 24.127Z" fill="#F5F7F9"/>
</svg>
