<svg width="640" height="80" viewBox="0 0 640 80" fill="none" xmlns="http://www.w3.org/2000/svg">
<g opacity="0.04">
<ellipse cx="36.1" cy="47.6002" rx="2.4" ry="2.4" transform="rotate(90 36.1 47.6002)" fill="white"/>
<circle cx="36.1" cy="32.4" r="2.4" transform="rotate(90 36.1 32.4)" fill="white"/>
<path d="M27.1 35.9996C27.1 36.6609 27.3674 37.2596 27.8 37.6937C28.2326 38.1278 28.2326 41.8714 27.8 42.3055C27.3674 42.7396 27.1 43.3384 27.1 43.9996C27.1 45.3251 28.1745 46.3996 29.5 46.3996C30.8255 46.3996 31.9 45.3251 31.9 43.9996C31.9 43.2417 31.5487 42.5658 31 42.126C30.4513 41.6862 29.6518 38.1468 31 38.435C32.3481 38.7232 33.5662 39.6402 33.7542 40.5095C33.988 41.59 34.9495 42.3996 36.1 42.3996C37.2721 42.3996 38.2479 41.5594 38.4581 40.4485C38.6292 39.5441 39.8576 38.6582 41.2 38.4011C42.5423 38.144 41.7487 41.6862 41.2 42.126C40.6513 42.5658 40.3 43.2417 40.3 43.9996C40.3 45.3251 41.3745 46.3996 42.7 46.3996C44.0255 46.3996 45.1 45.3251 45.1 43.9996C45.1 43.3384 44.8326 42.7396 44.4 42.3055C43.9674 41.8714 43.9674 38.1278 44.4 37.6937C44.8326 37.2596 45.1 36.6609 45.1 35.9996C45.1 34.6741 44.0255 33.5996 42.7 33.5996C41.4837 33.5996 40.4787 34.5044 40.3214 35.6776C40.1641 36.8509 38.3903 37.7891 36.8084 37.7059C36.2801 37.6781 35.8587 37.6963 35.3317 37.7252C33.7801 37.8104 32.0171 36.9368 31.8856 35.7356C31.7542 34.5343 30.7362 33.5996 29.5 33.5996C28.1745 33.5996 27.1 34.6741 27.1 35.9996Z" fill="white"/>
</g>
<g opacity="0.2">
<ellipse cx="412.1" cy="47.6002" rx="2.4" ry="2.4" transform="rotate(90 412.1 47.6002)" fill="white"/>
<circle cx="412.1" cy="32.4" r="2.4" transform="rotate(90 412.1 32.4)" fill="white"/>
<path d="M403.1 35.9996C403.1 36.6609 403.367 37.2596 403.8 37.6937C404.233 38.1278 404.233 41.8714 403.8 42.3055C403.367 42.7396 403.1 43.3384 403.1 43.9996C403.1 45.3251 404.175 46.3996 405.5 46.3996C406.825 46.3996 407.9 45.3251 407.9 43.9996C407.9 43.2417 407.549 42.5658 407 42.126C406.451 41.6862 405.652 38.1468 407 38.435C408.348 38.7232 409.566 39.6402 409.754 40.5095C409.988 41.59 410.949 42.3996 412.1 42.3996C413.272 42.3996 414.248 41.5594 414.458 40.4485C414.629 39.5441 415.858 38.6582 417.2 38.4011C418.542 38.144 417.749 41.6862 417.2 42.126C416.651 42.5658 416.3 43.2417 416.3 43.9996C416.3 45.3251 417.375 46.3996 418.7 46.3996C420.025 46.3996 421.1 45.3251 421.1 43.9996C421.1 43.3384 420.833 42.7396 420.4 42.3055C419.967 41.8714 419.967 38.1278 420.4 37.6937C420.833 37.2596 421.1 36.6609 421.1 35.9996C421.1 34.6741 420.025 33.5996 418.7 33.5996C417.484 33.5996 416.479 34.5044 416.321 35.6776C416.164 36.8509 414.39 37.7891 412.808 37.7059C412.28 37.6781 411.859 37.6963 411.332 37.7252C409.78 37.8104 408.017 36.9368 407.886 35.7356C407.754 34.5343 406.736 33.5996 405.5 33.5996C404.175 33.5996 403.1 34.6741 403.1 35.9996Z" fill="white"/>
</g>
<g opacity="0.08">
<ellipse cx="84.1" cy="47.6002" rx="2.4" ry="2.4" transform="rotate(90 84.1 47.6002)" fill="white"/>
<circle cx="84.1" cy="32.4" r="2.4" transform="rotate(90 84.1 32.4)" fill="white"/>
<path d="M75.1 35.9996C75.1 36.6609 75.3674 37.2596 75.8 37.6937C76.2326 38.1278 76.2326 41.8714 75.8 42.3055C75.3674 42.7396 75.1 43.3384 75.1 43.9996C75.1 45.3251 76.1745 46.3996 77.5 46.3996C78.8255 46.3996 79.9 45.3251 79.9 43.9996C79.9 43.2417 79.5487 42.5658 79 42.126C78.4513 41.6862 77.6519 38.1468 79 38.435C80.3481 38.7232 81.5662 39.6402 81.7543 40.5095C81.988 41.59 82.9495 42.3996 84.1 42.3996C85.2721 42.3996 86.2479 41.5594 86.4581 40.4485C86.6292 39.5441 87.8577 38.6582 89.2 38.4011C90.5424 38.144 89.7487 41.6862 89.2 42.126C88.6513 42.5658 88.3 43.2417 88.3 43.9996C88.3 45.3251 89.3745 46.3996 90.7 46.3996C92.0255 46.3996 93.1 45.3251 93.1 43.9996C93.1 43.3384 92.8326 42.7396 92.4 42.3055C91.9674 41.8714 91.9674 38.1278 92.4 37.6937C92.8326 37.2596 93.1 36.6609 93.1 35.9996C93.1 34.6741 92.0255 33.5996 90.7 33.5996C89.4837 33.5996 88.4787 34.5044 88.3214 35.6776C88.1641 36.8509 86.3904 37.7891 84.8084 37.7059C84.2801 37.6781 83.8587 37.6963 83.3318 37.7252C81.7801 37.8104 80.0171 36.9368 79.8856 35.7356C79.7542 34.5343 78.7363 33.5996 77.5 33.5996C76.1745 33.5996 75.1 34.6741 75.1 35.9996Z" fill="white"/>
</g>
<g opacity="0.16">
<ellipse cx="460.1" cy="47.6002" rx="2.4" ry="2.4" transform="rotate(90 460.1 47.6002)" fill="white"/>
<circle cx="460.1" cy="32.4" r="2.4" transform="rotate(90 460.1 32.4)" fill="white"/>
<path d="M451.1 35.9996C451.1 36.6609 451.367 37.2596 451.8 37.6937C452.233 38.1278 452.233 41.8714 451.8 42.3055C451.367 42.7396 451.1 43.3384 451.1 43.9996C451.1 45.3251 452.175 46.3996 453.5 46.3996C454.825 46.3996 455.9 45.3251 455.9 43.9996C455.9 43.2417 455.549 42.5658 455 42.126C454.451 41.6862 453.652 38.1468 455 38.435C456.348 38.7232 457.566 39.6402 457.754 40.5095C457.988 41.59 458.949 42.3996 460.1 42.3996C461.272 42.3996 462.248 41.5594 462.458 40.4485C462.629 39.5441 463.858 38.6582 465.2 38.4011C466.542 38.144 465.749 41.6862 465.2 42.126C464.651 42.5658 464.3 43.2417 464.3 43.9996C464.3 45.3251 465.375 46.3996 466.7 46.3996C468.025 46.3996 469.1 45.3251 469.1 43.9996C469.1 43.3384 468.833 42.7396 468.4 42.3055C467.967 41.8714 467.967 38.1278 468.4 37.6937C468.833 37.2596 469.1 36.6609 469.1 35.9996C469.1 34.6741 468.025 33.5996 466.7 33.5996C465.484 33.5996 464.479 34.5044 464.321 35.6776C464.164 36.8509 462.39 37.7891 460.808 37.7059C460.28 37.6781 459.859 37.6963 459.332 37.7252C457.78 37.8104 456.017 36.9368 455.886 35.7356C455.754 34.5343 454.736 33.5996 453.5 33.5996C452.175 33.5996 451.1 34.6741 451.1 35.9996Z" fill="white"/>
</g>
<g opacity="0.12">
<ellipse cx="132.1" cy="47.6002" rx="2.4" ry="2.4" transform="rotate(90 132.1 47.6002)" fill="white"/>
<circle cx="132.1" cy="32.4" r="2.4" transform="rotate(90 132.1 32.4)" fill="white"/>
<path d="M123.1 35.9996C123.1 36.6609 123.367 37.2596 123.8 37.6937C124.233 38.1278 124.233 41.8714 123.8 42.3055C123.367 42.7396 123.1 43.3384 123.1 43.9996C123.1 45.3251 124.175 46.3996 125.5 46.3996C126.825 46.3996 127.9 45.3251 127.9 43.9996C127.9 43.2417 127.549 42.5658 127 42.126C126.451 41.6862 125.652 38.1468 127 38.435C128.348 38.7232 129.566 39.6402 129.754 40.5095C129.988 41.59 130.949 42.3996 132.1 42.3996C133.272 42.3996 134.248 41.5594 134.458 40.4485C134.629 39.5441 135.858 38.6582 137.2 38.4011C138.542 38.144 137.749 41.6862 137.2 42.126C136.651 42.5658 136.3 43.2417 136.3 43.9996C136.3 45.3251 137.375 46.3996 138.7 46.3996C140.025 46.3996 141.1 45.3251 141.1 43.9996C141.1 43.3384 140.833 42.7396 140.4 42.3055C139.967 41.8714 139.967 38.1278 140.4 37.6937C140.833 37.2596 141.1 36.6609 141.1 35.9996C141.1 34.6741 140.025 33.5996 138.7 33.5996C137.484 33.5996 136.479 34.5044 136.321 35.6776C136.164 36.8509 134.39 37.7891 132.808 37.7059C132.28 37.6781 131.859 37.6963 131.332 37.7252C129.78 37.8104 128.017 36.9368 127.886 35.7356C127.754 34.5343 126.736 33.5996 125.5 33.5996C124.175 33.5996 123.1 34.6741 123.1 35.9996Z" fill="white"/>
</g>
<g opacity="0.12">
<ellipse cx="508.1" cy="47.6002" rx="2.4" ry="2.4" transform="rotate(90 508.1 47.6002)" fill="white"/>
<circle cx="508.1" cy="32.4" r="2.4" transform="rotate(90 508.1 32.4)" fill="white"/>
<path d="M499.1 35.9996C499.1 36.6609 499.367 37.2596 499.8 37.6937C500.233 38.1278 500.233 41.8714 499.8 42.3055C499.367 42.7396 499.1 43.3384 499.1 43.9996C499.1 45.3251 500.175 46.3996 501.5 46.3996C502.825 46.3996 503.9 45.3251 503.9 43.9996C503.9 43.2417 503.549 42.5658 503 42.126C502.451 41.6862 501.652 38.1468 503 38.435C504.348 38.7232 505.566 39.6402 505.754 40.5095C505.988 41.59 506.949 42.3996 508.1 42.3996C509.272 42.3996 510.248 41.5594 510.458 40.4485C510.629 39.5441 511.858 38.6582 513.2 38.4011C514.542 38.144 513.749 41.6862 513.2 42.126C512.651 42.5658 512.3 43.2417 512.3 43.9996C512.3 45.3251 513.375 46.3996 514.7 46.3996C516.025 46.3996 517.1 45.3251 517.1 43.9996C517.1 43.3384 516.833 42.7396 516.4 42.3055C515.967 41.8714 515.967 38.1278 516.4 37.6937C516.833 37.2596 517.1 36.6609 517.1 35.9996C517.1 34.6741 516.025 33.5996 514.7 33.5996C513.484 33.5996 512.479 34.5044 512.321 35.6776C512.164 36.8509 510.39 37.7891 508.808 37.7059C508.28 37.6781 507.859 37.6963 507.332 37.7252C505.78 37.8104 504.017 36.9368 503.886 35.7356C503.754 34.5343 502.736 33.5996 501.5 33.5996C500.175 33.5996 499.1 34.6741 499.1 35.9996Z" fill="white"/>
</g>
<g opacity="0.16">
<ellipse cx="180.1" cy="47.6002" rx="2.4" ry="2.4" transform="rotate(90 180.1 47.6002)" fill="white"/>
<circle cx="180.1" cy="32.4" r="2.4" transform="rotate(90 180.1 32.4)" fill="white"/>
<path d="M171.1 35.9996C171.1 36.6609 171.367 37.2596 171.8 37.6937C172.233 38.1278 172.233 41.8714 171.8 42.3055C171.367 42.7396 171.1 43.3384 171.1 43.9996C171.1 45.3251 172.175 46.3996 173.5 46.3996C174.825 46.3996 175.9 45.3251 175.9 43.9996C175.9 43.2417 175.549 42.5658 175 42.126C174.451 41.6862 173.652 38.1468 175 38.435C176.348 38.7232 177.566 39.6402 177.754 40.5095C177.988 41.59 178.949 42.3996 180.1 42.3996C181.272 42.3996 182.248 41.5594 182.458 40.4485C182.629 39.5441 183.858 38.6582 185.2 38.4011C186.542 38.144 185.749 41.6862 185.2 42.126C184.651 42.5658 184.3 43.2417 184.3 43.9996C184.3 45.3251 185.375 46.3996 186.7 46.3996C188.025 46.3996 189.1 45.3251 189.1 43.9996C189.1 43.3384 188.833 42.7396 188.4 42.3055C187.967 41.8714 187.967 38.1278 188.4 37.6937C188.833 37.2596 189.1 36.6609 189.1 35.9996C189.1 34.6741 188.025 33.5996 186.7 33.5996C185.484 33.5996 184.479 34.5044 184.321 35.6776C184.164 36.8509 182.39 37.7891 180.808 37.7059C180.28 37.6781 179.859 37.6963 179.332 37.7252C177.78 37.8104 176.017 36.9368 175.886 35.7356C175.754 34.5343 174.736 33.5996 173.5 33.5996C172.175 33.5996 171.1 34.6741 171.1 35.9996Z" fill="white"/>
</g>
<g opacity="0.08">
<ellipse cx="556.1" cy="47.6002" rx="2.4" ry="2.4" transform="rotate(90 556.1 47.6002)" fill="white"/>
<circle cx="556.1" cy="32.4" r="2.4" transform="rotate(90 556.1 32.4)" fill="white"/>
<path d="M547.1 35.9996C547.1 36.6609 547.367 37.2596 547.8 37.6937C548.233 38.1278 548.233 41.8714 547.8 42.3055C547.367 42.7396 547.1 43.3384 547.1 43.9996C547.1 45.3251 548.175 46.3996 549.5 46.3996C550.825 46.3996 551.9 45.3251 551.9 43.9996C551.9 43.2417 551.549 42.5658 551 42.126C550.451 41.6862 549.652 38.1468 551 38.435C552.348 38.7232 553.566 39.6402 553.754 40.5095C553.988 41.59 554.949 42.3996 556.1 42.3996C557.272 42.3996 558.248 41.5594 558.458 40.4485C558.629 39.5441 559.858 38.6582 561.2 38.4011C562.542 38.144 561.749 41.6862 561.2 42.126C560.651 42.5658 560.3 43.2417 560.3 43.9996C560.3 45.3251 561.375 46.3996 562.7 46.3996C564.025 46.3996 565.1 45.3251 565.1 43.9996C565.1 43.3384 564.833 42.7396 564.4 42.3055C563.967 41.8714 563.967 38.1278 564.4 37.6937C564.833 37.2596 565.1 36.6609 565.1 35.9996C565.1 34.6741 564.025 33.5996 562.7 33.5996C561.484 33.5996 560.479 34.5044 560.321 35.6776C560.164 36.8509 558.39 37.7891 556.808 37.7059C556.28 37.6781 555.859 37.6963 555.332 37.7252C553.78 37.8104 552.017 36.9368 551.886 35.7356C551.754 34.5343 550.736 33.5996 549.5 33.5996C548.175 33.5996 547.1 34.6741 547.1 35.9996Z" fill="white"/>
</g>
<g opacity="0.2">
<ellipse cx="228.1" cy="47.6002" rx="2.4" ry="2.4" transform="rotate(90 228.1 47.6002)" fill="white"/>
<circle cx="228.1" cy="32.4" r="2.4" transform="rotate(90 228.1 32.4)" fill="white"/>
<path d="M219.1 35.9996C219.1 36.6609 219.367 37.2596 219.8 37.6937C220.233 38.1278 220.233 41.8714 219.8 42.3055C219.367 42.7396 219.1 43.3384 219.1 43.9996C219.1 45.3251 220.175 46.3996 221.5 46.3996C222.825 46.3996 223.9 45.3251 223.9 43.9996C223.9 43.2417 223.549 42.5658 223 42.126C222.451 41.6862 221.652 38.1468 223 38.435C224.348 38.7232 225.566 39.6402 225.754 40.5095C225.988 41.59 226.949 42.3996 228.1 42.3996C229.272 42.3996 230.248 41.5594 230.458 40.4485C230.629 39.5441 231.858 38.6582 233.2 38.4011C234.542 38.144 233.749 41.6862 233.2 42.126C232.651 42.5658 232.3 43.2417 232.3 43.9996C232.3 45.3251 233.375 46.3996 234.7 46.3996C236.025 46.3996 237.1 45.3251 237.1 43.9996C237.1 43.3384 236.833 42.7396 236.4 42.3055C235.967 41.8714 235.967 38.1278 236.4 37.6937C236.833 37.2596 237.1 36.6609 237.1 35.9996C237.1 34.6741 236.025 33.5996 234.7 33.5996C233.484 33.5996 232.479 34.5044 232.321 35.6776C232.164 36.8509 230.39 37.7891 228.808 37.7059C228.28 37.6781 227.859 37.6963 227.332 37.7252C225.78 37.8104 224.017 36.9368 223.886 35.7356C223.754 34.5343 222.736 33.5996 221.5 33.5996C220.175 33.5996 219.1 34.6741 219.1 35.9996Z" fill="white"/>
</g>
<g opacity="0.04">
<ellipse cx="604.1" cy="47.6002" rx="2.4" ry="2.4" transform="rotate(90 604.1 47.6002)" fill="white"/>
<circle cx="604.1" cy="32.4" r="2.4" transform="rotate(90 604.1 32.4)" fill="white"/>
<path d="M595.1 35.9996C595.1 36.6609 595.367 37.2596 595.8 37.6937C596.233 38.1278 596.233 41.8714 595.8 42.3055C595.367 42.7396 595.1 43.3384 595.1 43.9996C595.1 45.3251 596.175 46.3996 597.5 46.3996C598.825 46.3996 599.9 45.3251 599.9 43.9996C599.9 43.2417 599.549 42.5658 599 42.126C598.451 41.6862 597.652 38.1468 599 38.435C600.348 38.7232 601.566 39.6402 601.754 40.5095C601.988 41.59 602.949 42.3996 604.1 42.3996C605.272 42.3996 606.248 41.5594 606.458 40.4485C606.629 39.5441 607.858 38.6582 609.2 38.4011C610.542 38.144 609.749 41.6862 609.2 42.126C608.651 42.5658 608.3 43.2417 608.3 43.9996C608.3 45.3251 609.375 46.3996 610.7 46.3996C612.025 46.3996 613.1 45.3251 613.1 43.9996C613.1 43.3384 612.833 42.7396 612.4 42.3055C611.967 41.8714 611.967 38.1278 612.4 37.6937C612.833 37.2596 613.1 36.6609 613.1 35.9996C613.1 34.6741 612.025 33.5996 610.7 33.5996C609.484 33.5996 608.479 34.5044 608.321 35.6776C608.164 36.8509 606.39 37.7891 604.808 37.7059C604.28 37.6781 603.859 37.6963 603.332 37.7252C601.78 37.8104 600.017 36.9368 599.886 35.7356C599.754 34.5343 598.736 33.5996 597.5 33.5996C596.175 33.5996 595.1 34.6741 595.1 35.9996Z" fill="white"/>
</g>
<g opacity="0.02">
<path d="M12.1 25.5002C11.0507 25.5002 10.2 24.6495 10.2 23.6002C10.2 22.5509 11.0507 21.7002 12.1 21.7002C13.1493 21.7002 14 22.5509 14 23.6002C14 24.6495 13.1493 25.5002 12.1 25.5002Z" fill="white" stroke="white"/>
<circle cx="12.1" cy="8.4" r="1.9" transform="rotate(90 12.1 8.4)" fill="white" stroke="white"/>
<path d="M4.15414 13.3408C3.81114 12.9966 3.59998 12.5232 3.59998 11.9996C3.59998 10.9503 4.45063 10.0996 5.49998 10.0996C6.47835 10.0996 7.28458 10.8395 7.38859 11.79C7.47983 12.6238 8.11834 13.2569 8.83526 13.651C9.56698 14.0532 10.4884 14.2723 11.3592 14.2244C11.8828 14.1957 12.282 14.1789 12.7821 14.2052C13.6729 14.252 14.6053 14.0134 15.3438 13.599C16.0654 13.1941 16.708 12.5565 16.817 11.7441C16.9414 10.8158 17.7375 10.0996 18.7 10.0996C19.7493 10.0996 20.6 10.9503 20.6 11.9996C20.6 12.5232 20.3888 12.9966 20.0458 13.3408C19.8931 13.4941 19.8189 13.7127 19.7766 13.8638C19.727 14.0407 19.6894 14.2504 19.6608 14.4724C19.6032 14.9184 19.5755 15.463 19.5755 15.9996C19.5755 16.5362 19.6032 17.0808 19.6608 17.5269C19.6894 17.7488 19.727 17.9585 19.7766 18.1354C19.8189 18.2865 19.8931 18.5052 20.0458 18.6584C20.3888 19.0026 20.6 19.476 20.6 19.9996C20.6 21.049 19.7493 21.8996 18.7 21.8996C17.6506 21.8996 16.8 21.049 16.8 19.9996C16.8 19.3998 17.0773 18.8651 17.5127 18.5161C17.666 18.3933 17.7775 18.212 17.8567 18.0588C17.9434 17.8911 18.0236 17.6924 18.0943 17.4811C18.2359 17.0584 18.3525 16.5475 18.4062 16.0565C18.4581 15.5808 18.4587 15.0579 18.3155 14.6479C18.2419 14.4373 18.1148 14.212 17.8923 14.0581C17.657 13.8953 17.3805 13.8574 17.1059 13.91C16.363 14.0523 15.6506 14.3677 15.0927 14.7799C14.5466 15.1833 14.0855 15.7282 13.9668 16.3555C13.8005 17.2347 13.0273 17.8996 12.1 17.8996C11.1898 17.8996 10.428 17.2591 10.2429 16.4038C10.1127 15.8018 9.65447 15.2627 9.11293 14.8549C8.55847 14.4374 7.84999 14.1054 7.10451 13.946C6.83271 13.8879 6.55466 13.9172 6.31488 14.0755C6.0873 14.2258 5.9576 14.4509 5.88299 14.6607C5.73808 15.068 5.73942 15.5896 5.7917 16.0624C5.84575 16.5513 5.96304 17.061 6.10506 17.4827C6.17608 17.6937 6.25644 17.892 6.3433 18.0595C6.42267 18.2125 6.53423 18.3935 6.68724 18.5161C7.12263 18.8651 7.39998 19.3998 7.39998 19.9996C7.39998 21.049 6.54932 21.8996 5.49998 21.8996C4.45063 21.8996 3.59998 21.049 3.59998 19.9996C3.59998 19.476 3.81114 19.0026 4.15414 18.6584C4.30689 18.5052 4.38106 18.2865 4.42338 18.1354C4.47294 17.9585 4.51053 17.7488 4.53919 17.5269C4.59678 17.0808 4.62441 16.5362 4.62441 15.9996C4.62441 15.463 4.59678 14.9184 4.53919 14.4724C4.51053 14.2504 4.47294 14.0407 4.42338 13.8638C4.38106 13.7127 4.30689 13.4941 4.15414 13.3408Z" fill="white" stroke="white"/>
</g>
<g opacity="0.22">
<path d="M388.1 25.5002C387.051 25.5002 386.2 24.6495 386.2 23.6002C386.2 22.5509 387.051 21.7002 388.1 21.7002C389.149 21.7002 390 22.5509 390 23.6002C390 24.6495 389.149 25.5002 388.1 25.5002Z" fill="white" stroke="white"/>
<circle cx="388.1" cy="8.4" r="1.9" transform="rotate(90 388.1 8.4)" fill="white" stroke="white"/>
<path d="M380.154 13.3408C379.811 12.9966 379.6 12.5232 379.6 11.9996C379.6 10.9503 380.451 10.0996 381.5 10.0996C382.478 10.0996 383.285 10.8395 383.389 11.79C383.48 12.6238 384.118 13.2569 384.835 13.651C385.567 14.0532 386.488 14.2723 387.359 14.2244C387.883 14.1957 388.282 14.1789 388.782 14.2052C389.673 14.252 390.605 14.0134 391.344 13.599C392.065 13.1941 392.708 12.5565 392.817 11.7441C392.941 10.8158 393.738 10.0996 394.7 10.0996C395.749 10.0996 396.6 10.9503 396.6 11.9996C396.6 12.5232 396.389 12.9966 396.046 13.3408C395.893 13.4941 395.819 13.7127 395.777 13.8638C395.727 14.0407 395.689 14.2504 395.661 14.4724C395.603 14.9184 395.576 15.463 395.576 15.9996C395.576 16.5362 395.603 17.0808 395.661 17.5269C395.689 17.7488 395.727 17.9585 395.777 18.1354C395.819 18.2865 395.893 18.5052 396.046 18.6584C396.389 19.0026 396.6 19.476 396.6 19.9996C396.6 21.049 395.749 21.8996 394.7 21.8996C393.651 21.8996 392.8 21.049 392.8 19.9996C392.8 19.3998 393.077 18.8651 393.513 18.5161C393.666 18.3933 393.778 18.212 393.857 18.0588C393.943 17.8911 394.024 17.6924 394.094 17.4811C394.236 17.0584 394.353 16.5475 394.406 16.0565C394.458 15.5808 394.459 15.0579 394.315 14.6479C394.242 14.4373 394.115 14.212 393.892 14.0581C393.657 13.8953 393.381 13.8574 393.106 13.91C392.363 14.0523 391.651 14.3677 391.093 14.7799C390.547 15.1833 390.085 15.7282 389.967 16.3555C389.8 17.2347 389.027 17.8996 388.1 17.8996C387.19 17.8996 386.428 17.2591 386.243 16.4038C386.113 15.8018 385.655 15.2627 385.113 14.8549C384.559 14.4374 383.85 14.1054 383.105 13.946C382.833 13.8879 382.555 13.9172 382.315 14.0755C382.087 14.2258 381.958 14.4509 381.883 14.6607C381.738 15.068 381.739 15.5896 381.792 16.0624C381.846 16.5513 381.963 17.061 382.105 17.4827C382.176 17.6937 382.256 17.892 382.343 18.0595C382.423 18.2125 382.534 18.3935 382.687 18.5161C383.123 18.8651 383.4 19.3998 383.4 19.9996C383.4 21.049 382.549 21.8996 381.5 21.8996C380.451 21.8996 379.6 21.049 379.6 19.9996C379.6 19.476 379.811 19.0026 380.154 18.6584C380.307 18.5052 380.381 18.2865 380.423 18.1354C380.473 17.9585 380.511 17.7488 380.539 17.5269C380.597 17.0808 380.624 16.5362 380.624 15.9996C380.624 15.463 380.597 14.9184 380.539 14.4724C380.511 14.2504 380.473 14.0407 380.423 13.8638C380.381 13.7127 380.307 13.4941 380.154 13.3408Z" fill="white" stroke="white"/>
</g>
<g opacity="0.06">
<path d="M60.1 25.5002C59.0507 25.5002 58.2 24.6495 58.2 23.6002C58.2 22.5509 59.0507 21.7002 60.1 21.7002C61.1493 21.7002 62 22.5509 62 23.6002C62 24.6495 61.1493 25.5002 60.1 25.5002Z" fill="white" stroke="white"/>
<circle cx="60.1" cy="8.4" r="1.9" transform="rotate(90 60.1 8.4)" fill="white" stroke="white"/>
<path d="M52.1542 13.3408C51.8112 12.9966 51.6 12.5232 51.6 11.9996C51.6 10.9503 52.4507 10.0996 53.5 10.0996C54.4784 10.0996 55.2846 10.8395 55.3886 11.79C55.4799 12.6238 56.1184 13.2569 56.8353 13.651C57.567 14.0532 58.4884 14.2723 59.3592 14.2244C59.8828 14.1957 60.282 14.1789 60.7821 14.2052C61.673 14.252 62.6053 14.0134 63.3438 13.599C64.0654 13.1941 64.708 12.5565 64.817 11.7441C64.9415 10.8158 65.7375 10.0996 66.7 10.0996C67.7493 10.0996 68.6 10.9503 68.6 11.9996C68.6 12.5232 68.3888 12.9966 68.0458 13.3408C67.8931 13.4941 67.8189 13.7127 67.7766 13.8638C67.727 14.0407 67.6895 14.2504 67.6608 14.4724C67.6032 14.9184 67.5756 15.463 67.5756 15.9996C67.5756 16.5362 67.6032 17.0808 67.6608 17.5269C67.6895 17.7488 67.727 17.9585 67.7766 18.1354C67.8189 18.2865 67.8931 18.5052 68.0458 18.6584C68.3888 19.0026 68.6 19.476 68.6 19.9996C68.6 21.049 67.7493 21.8996 66.7 21.8996C65.6507 21.8996 64.8 21.049 64.8 19.9996C64.8 19.3998 65.0774 18.8651 65.5127 18.5161C65.666 18.3933 65.7775 18.212 65.8567 18.0588C65.9434 17.8911 66.0236 17.6924 66.0944 17.4811C66.2359 17.0584 66.3526 16.5475 66.4062 16.0565C66.4581 15.5808 66.4587 15.0579 66.3155 14.6479C66.2419 14.4373 66.1149 14.212 65.8924 14.0581C65.6571 13.8953 65.3806 13.8574 65.106 13.91C64.363 14.0523 63.6506 14.3677 63.0927 14.7799C62.5467 15.1833 62.0855 15.7282 61.9668 16.3555C61.8005 17.2347 61.0274 17.8996 60.1 17.8996C59.1898 17.8996 58.428 17.2591 58.243 16.4038C58.1127 15.8018 57.6545 15.2627 57.113 14.8549C56.5585 14.4374 55.85 14.1054 55.1045 13.946C54.8327 13.8879 54.5547 13.9172 54.3149 14.0755C54.0873 14.2258 53.9576 14.4509 53.883 14.6607C53.7381 15.068 53.7394 15.5896 53.7917 16.0624C53.8458 16.5513 53.9631 17.061 54.1051 17.4827C54.1761 17.6937 54.2565 17.892 54.3433 18.0595C54.4227 18.2125 54.5343 18.3935 54.6873 18.5161C55.1227 18.8651 55.4 19.3998 55.4 19.9996C55.4 21.049 54.5493 21.8996 53.5 21.8996C52.4507 21.8996 51.6 21.049 51.6 19.9996C51.6 19.476 51.8112 19.0026 52.1542 18.6584C52.3069 18.5052 52.3811 18.2865 52.4234 18.1354C52.473 17.9585 52.5106 17.7488 52.5392 17.5269C52.5968 17.0808 52.6244 16.5362 52.6244 15.9996C52.6244 15.463 52.5968 14.9184 52.5392 14.4724C52.5106 14.2504 52.473 14.0407 52.4234 13.8638C52.3811 13.7127 52.3069 13.4941 52.1542 13.3408Z" fill="white" stroke="white"/>
</g>
<g opacity="0.18">
<path d="M436.1 25.5002C435.051 25.5002 434.2 24.6495 434.2 23.6002C434.2 22.5509 435.051 21.7002 436.1 21.7002C437.149 21.7002 438 22.5509 438 23.6002C438 24.6495 437.149 25.5002 436.1 25.5002Z" fill="white" stroke="white"/>
<circle cx="436.1" cy="8.4" r="1.9" transform="rotate(90 436.1 8.4)" fill="white" stroke="white"/>
<path d="M428.154 13.3408C427.811 12.9966 427.6 12.5232 427.6 11.9996C427.6 10.9503 428.451 10.0996 429.5 10.0996C430.478 10.0996 431.285 10.8395 431.389 11.79C431.48 12.6238 432.118 13.2569 432.835 13.651C433.567 14.0532 434.488 14.2723 435.359 14.2244C435.883 14.1957 436.282 14.1789 436.782 14.2052C437.673 14.252 438.605 14.0134 439.344 13.599C440.065 13.1941 440.708 12.5565 440.817 11.7441C440.941 10.8158 441.737 10.0996 442.7 10.0996C443.749 10.0996 444.6 10.9503 444.6 11.9996C444.6 12.5232 444.389 12.9966 444.046 13.3408C443.893 13.4941 443.819 13.7127 443.777 13.8638C443.727 14.0407 443.689 14.2504 443.661 14.4724C443.603 14.9184 443.576 15.463 443.576 15.9996C443.576 16.5362 443.603 17.0808 443.661 17.5269C443.689 17.7488 443.727 17.9585 443.777 18.1354C443.819 18.2865 443.893 18.5052 444.046 18.6584C444.389 19.0026 444.6 19.476 444.6 19.9996C444.6 21.049 443.749 21.8996 442.7 21.8996C441.651 21.8996 440.8 21.049 440.8 19.9996C440.8 19.3998 441.077 18.8651 441.513 18.5161C441.666 18.3933 441.777 18.212 441.857 18.0588C441.943 17.8911 442.024 17.6924 442.094 17.4811C442.236 17.0584 442.353 16.5475 442.406 16.0565C442.458 15.5808 442.459 15.0579 442.315 14.6479C442.242 14.4373 442.115 14.212 441.892 14.0581C441.657 13.8953 441.381 13.8574 441.106 13.91C440.363 14.0523 439.651 14.3677 439.093 14.7799C438.547 15.1833 438.085 15.7282 437.967 16.3555C437.8 17.2347 437.027 17.8996 436.1 17.8996C435.19 17.8996 434.428 17.2591 434.243 16.4038C434.113 15.8018 433.654 15.2627 433.113 14.8549C432.558 14.4374 431.85 14.1054 431.105 13.946C430.833 13.8879 430.555 13.9172 430.315 14.0755C430.087 14.2258 429.958 14.4509 429.883 14.6607C429.738 15.068 429.739 15.5896 429.792 16.0624C429.846 16.5513 429.963 17.061 430.105 17.4827C430.176 17.6937 430.256 17.892 430.343 18.0595C430.423 18.2125 430.534 18.3935 430.687 18.5161C431.123 18.8651 431.4 19.3998 431.4 19.9996C431.4 21.049 430.549 21.8996 429.5 21.8996C428.451 21.8996 427.6 21.049 427.6 19.9996C427.6 19.476 427.811 19.0026 428.154 18.6584C428.307 18.5052 428.381 18.2865 428.423 18.1354C428.473 17.9585 428.511 17.7488 428.539 17.5269C428.597 17.0808 428.624 16.5362 428.624 15.9996C428.624 15.463 428.597 14.9184 428.539 14.4724C428.511 14.2504 428.473 14.0407 428.423 13.8638C428.381 13.7127 428.307 13.4941 428.154 13.3408Z" fill="white" stroke="white"/>
</g>
<g opacity="0.1">
<path d="M108.1 25.5002C107.051 25.5002 106.2 24.6495 106.2 23.6002C106.2 22.5509 107.051 21.7002 108.1 21.7002C109.149 21.7002 110 22.5509 110 23.6002C110 24.6495 109.149 25.5002 108.1 25.5002Z" fill="white" stroke="white"/>
<circle cx="108.1" cy="8.4" r="1.9" transform="rotate(90 108.1 8.4)" fill="white" stroke="white"/>
<path d="M100.154 13.3408C99.8112 12.9966 99.6 12.5232 99.6 11.9996C99.6 10.9503 100.451 10.0996 101.5 10.0996C102.478 10.0996 103.285 10.8395 103.389 11.79C103.48 12.6238 104.118 13.2569 104.835 13.651C105.567 14.0532 106.488 14.2723 107.359 14.2244C107.883 14.1957 108.282 14.1789 108.782 14.2052C109.673 14.252 110.605 14.0134 111.344 13.599C112.065 13.1941 112.708 12.5565 112.817 11.7441C112.941 10.8158 113.738 10.0996 114.7 10.0996C115.749 10.0996 116.6 10.9503 116.6 11.9996C116.6 12.5232 116.389 12.9966 116.046 13.3408C115.893 13.4941 115.819 13.7127 115.777 13.8638C115.727 14.0407 115.689 14.2504 115.661 14.4724C115.603 14.9184 115.576 15.463 115.576 15.9996C115.576 16.5362 115.603 17.0808 115.661 17.5269C115.689 17.7488 115.727 17.9585 115.777 18.1354C115.819 18.2865 115.893 18.5052 116.046 18.6584C116.389 19.0026 116.6 19.476 116.6 19.9996C116.6 21.049 115.749 21.8996 114.7 21.8996C113.651 21.8996 112.8 21.049 112.8 19.9996C112.8 19.3998 113.077 18.8651 113.513 18.5161C113.666 18.3933 113.778 18.212 113.857 18.0588C113.943 17.8911 114.024 17.6924 114.094 17.4811C114.236 17.0584 114.353 16.5475 114.406 16.0565C114.458 15.5808 114.459 15.0579 114.315 14.6479C114.242 14.4373 114.115 14.212 113.892 14.0581C113.657 13.8953 113.381 13.8574 113.106 13.91C112.363 14.0523 111.651 14.3677 111.093 14.7799C110.547 15.1833 110.085 15.7282 109.967 16.3555C109.8 17.2347 109.027 17.8996 108.1 17.8996C107.19 17.8996 106.428 17.2591 106.243 16.4038C106.113 15.8018 105.655 15.2627 105.113 14.8549C104.559 14.4374 103.85 14.1054 103.105 13.946C102.833 13.8879 102.555 13.9172 102.315 14.0755C102.087 14.2258 101.958 14.4509 101.883 14.6607C101.738 15.068 101.739 15.5896 101.792 16.0624C101.846 16.5513 101.963 17.061 102.105 17.4827C102.176 17.6937 102.256 17.892 102.343 18.0595C102.423 18.2125 102.534 18.3935 102.687 18.5161C103.123 18.8651 103.4 19.3998 103.4 19.9996C103.4 21.049 102.549 21.8996 101.5 21.8996C100.451 21.8996 99.6 21.049 99.6 19.9996C99.6 19.476 99.8112 19.0026 100.154 18.6584C100.307 18.5052 100.381 18.2865 100.423 18.1354C100.473 17.9585 100.511 17.7488 100.539 17.5269C100.597 17.0808 100.624 16.5362 100.624 15.9996C100.624 15.463 100.597 14.9184 100.539 14.4724C100.511 14.2504 100.473 14.0407 100.423 13.8638C100.381 13.7127 100.307 13.4941 100.154 13.3408Z" fill="white" stroke="white"/>
</g>
<g opacity="0.14">
<path d="M484.1 25.5002C483.051 25.5002 482.2 24.6495 482.2 23.6002C482.2 22.5509 483.051 21.7002 484.1 21.7002C485.149 21.7002 486 22.5509 486 23.6002C486 24.6495 485.149 25.5002 484.1 25.5002Z" fill="white" stroke="white"/>
<circle cx="484.1" cy="8.4" r="1.9" transform="rotate(90 484.1 8.4)" fill="white" stroke="white"/>
<path d="M476.154 13.3408C475.811 12.9966 475.6 12.5232 475.6 11.9996C475.6 10.9503 476.451 10.0996 477.5 10.0996C478.478 10.0996 479.285 10.8395 479.389 11.79C479.48 12.6238 480.118 13.2569 480.835 13.651C481.567 14.0532 482.488 14.2723 483.359 14.2244C483.883 14.1957 484.282 14.1789 484.782 14.2052C485.673 14.252 486.605 14.0134 487.344 13.599C488.065 13.1941 488.708 12.5565 488.817 11.7441C488.941 10.8158 489.737 10.0996 490.7 10.0996C491.749 10.0996 492.6 10.9503 492.6 11.9996C492.6 12.5232 492.389 12.9966 492.046 13.3408C491.893 13.4941 491.819 13.7127 491.777 13.8638C491.727 14.0407 491.689 14.2504 491.661 14.4724C491.603 14.9184 491.576 15.463 491.576 15.9996C491.576 16.5362 491.603 17.0808 491.661 17.5269C491.689 17.7488 491.727 17.9585 491.777 18.1354C491.819 18.2865 491.893 18.5052 492.046 18.6584C492.389 19.0026 492.6 19.476 492.6 19.9996C492.6 21.049 491.749 21.8996 490.7 21.8996C489.651 21.8996 488.8 21.049 488.8 19.9996C488.8 19.3998 489.077 18.8651 489.513 18.5161C489.666 18.3933 489.777 18.212 489.857 18.0588C489.943 17.8911 490.024 17.6924 490.094 17.4811C490.236 17.0584 490.353 16.5475 490.406 16.0565C490.458 15.5808 490.459 15.0579 490.315 14.6479C490.242 14.4373 490.115 14.212 489.892 14.0581C489.657 13.8953 489.381 13.8574 489.106 13.91C488.363 14.0523 487.651 14.3677 487.093 14.7799C486.547 15.1833 486.085 15.7282 485.967 16.3555C485.8 17.2347 485.027 17.8996 484.1 17.8996C483.19 17.8996 482.428 17.2591 482.243 16.4038C482.113 15.8018 481.654 15.2627 481.113 14.8549C480.558 14.4374 479.85 14.1054 479.105 13.946C478.833 13.8879 478.555 13.9172 478.315 14.0755C478.087 14.2258 477.958 14.4509 477.883 14.6607C477.738 15.068 477.739 15.5896 477.792 16.0624C477.846 16.5513 477.963 17.061 478.105 17.4827C478.176 17.6937 478.256 17.892 478.343 18.0595C478.423 18.2125 478.534 18.3935 478.687 18.5161C479.123 18.8651 479.4 19.3998 479.4 19.9996C479.4 21.049 478.549 21.8996 477.5 21.8996C476.451 21.8996 475.6 21.049 475.6 19.9996C475.6 19.476 475.811 19.0026 476.154 18.6584C476.307 18.5052 476.381 18.2865 476.423 18.1354C476.473 17.9585 476.511 17.7488 476.539 17.5269C476.597 17.0808 476.624 16.5362 476.624 15.9996C476.624 15.463 476.597 14.9184 476.539 14.4724C476.511 14.2504 476.473 14.0407 476.423 13.8638C476.381 13.7127 476.307 13.4941 476.154 13.3408Z" fill="white" stroke="white"/>
</g>
<g opacity="0.14">
<path d="M156.1 25.5002C155.051 25.5002 154.2 24.6495 154.2 23.6002C154.2 22.5509 155.051 21.7002 156.1 21.7002C157.149 21.7002 158 22.5509 158 23.6002C158 24.6495 157.149 25.5002 156.1 25.5002Z" fill="white" stroke="white"/>
<circle cx="156.1" cy="8.4" r="1.9" transform="rotate(90 156.1 8.4)" fill="white" stroke="white"/>
<path d="M148.154 13.3408C147.811 12.9966 147.6 12.5232 147.6 11.9996C147.6 10.9503 148.451 10.0996 149.5 10.0996C150.478 10.0996 151.285 10.8395 151.389 11.79C151.48 12.6238 152.118 13.2569 152.835 13.651C153.567 14.0532 154.488 14.2723 155.359 14.2244C155.883 14.1957 156.282 14.1789 156.782 14.2052C157.673 14.252 158.605 14.0134 159.344 13.599C160.065 13.1941 160.708 12.5565 160.817 11.7441C160.941 10.8158 161.738 10.0996 162.7 10.0996C163.749 10.0996 164.6 10.9503 164.6 11.9996C164.6 12.5232 164.389 12.9966 164.046 13.3408C163.893 13.4941 163.819 13.7127 163.777 13.8638C163.727 14.0407 163.689 14.2504 163.661 14.4724C163.603 14.9184 163.576 15.463 163.576 15.9996C163.576 16.5362 163.603 17.0808 163.661 17.5269C163.689 17.7488 163.727 17.9585 163.777 18.1354C163.819 18.2865 163.893 18.5052 164.046 18.6584C164.389 19.0026 164.6 19.476 164.6 19.9996C164.6 21.049 163.749 21.8996 162.7 21.8996C161.651 21.8996 160.8 21.049 160.8 19.9996C160.8 19.3998 161.077 18.8651 161.513 18.5161C161.666 18.3933 161.778 18.212 161.857 18.0588C161.943 17.8911 162.024 17.6924 162.094 17.4811C162.236 17.0584 162.353 16.5475 162.406 16.0565C162.458 15.5808 162.459 15.0579 162.315 14.6479C162.242 14.4373 162.115 14.212 161.892 14.0581C161.657 13.8953 161.381 13.8574 161.106 13.91C160.363 14.0523 159.651 14.3677 159.093 14.7799C158.547 15.1833 158.085 15.7282 157.967 16.3555C157.8 17.2347 157.027 17.8996 156.1 17.8996C155.19 17.8996 154.428 17.2591 154.243 16.4038C154.113 15.8018 153.655 15.2627 153.113 14.8549C152.559 14.4374 151.85 14.1054 151.105 13.946C150.833 13.8879 150.555 13.9172 150.315 14.0755C150.087 14.2258 149.958 14.4509 149.883 14.6607C149.738 15.068 149.739 15.5896 149.792 16.0624C149.846 16.5513 149.963 17.061 150.105 17.4827C150.176 17.6937 150.256 17.892 150.343 18.0595C150.423 18.2125 150.534 18.3935 150.687 18.5161C151.123 18.8651 151.4 19.3998 151.4 19.9996C151.4 21.049 150.549 21.8996 149.5 21.8996C148.451 21.8996 147.6 21.049 147.6 19.9996C147.6 19.476 147.811 19.0026 148.154 18.6584C148.307 18.5052 148.381 18.2865 148.423 18.1354C148.473 17.9585 148.511 17.7488 148.539 17.5269C148.597 17.0808 148.624 16.5362 148.624 15.9996C148.624 15.463 148.597 14.9184 148.539 14.4724C148.511 14.2504 148.473 14.0407 148.423 13.8638C148.381 13.7127 148.307 13.4941 148.154 13.3408Z" fill="white" stroke="white"/>
</g>
<g opacity="0.1">
<path d="M532.1 25.5002C531.051 25.5002 530.2 24.6495 530.2 23.6002C530.2 22.5509 531.051 21.7002 532.1 21.7002C533.149 21.7002 534 22.5509 534 23.6002C534 24.6495 533.149 25.5002 532.1 25.5002Z" fill="white" stroke="white"/>
<circle cx="532.1" cy="8.4" r="1.9" transform="rotate(90 532.1 8.4)" fill="white" stroke="white"/>
<path d="M524.154 13.3408C523.811 12.9966 523.6 12.5232 523.6 11.9996C523.6 10.9503 524.451 10.0996 525.5 10.0996C526.478 10.0996 527.285 10.8395 527.389 11.79C527.48 12.6238 528.118 13.2569 528.835 13.651C529.567 14.0532 530.488 14.2723 531.359 14.2244C531.883 14.1957 532.282 14.1789 532.782 14.2052C533.673 14.252 534.605 14.0134 535.344 13.599C536.065 13.1941 536.708 12.5565 536.817 11.7441C536.941 10.8158 537.738 10.0996 538.7 10.0996C539.749 10.0996 540.6 10.9503 540.6 11.9996C540.6 12.5232 540.389 12.9966 540.046 13.3408C539.893 13.4941 539.819 13.7127 539.777 13.8638C539.727 14.0407 539.689 14.2504 539.661 14.4724C539.603 14.9184 539.576 15.463 539.576 15.9996C539.576 16.5362 539.603 17.0808 539.661 17.5269C539.689 17.7488 539.727 17.9585 539.777 18.1354C539.819 18.2865 539.893 18.5052 540.046 18.6584C540.389 19.0026 540.6 19.476 540.6 19.9996C540.6 21.049 539.749 21.8996 538.7 21.8996C537.651 21.8996 536.8 21.049 536.8 19.9996C536.8 19.3998 537.077 18.8651 537.513 18.5161C537.666 18.3933 537.777 18.212 537.857 18.0588C537.943 17.8911 538.024 17.6924 538.094 17.4811C538.236 17.0584 538.353 16.5475 538.406 16.0565C538.458 15.5808 538.459 15.0579 538.315 14.6479C538.242 14.4373 538.115 14.212 537.892 14.0581C537.657 13.8953 537.381 13.8574 537.106 13.91C536.363 14.0523 535.651 14.3677 535.093 14.7799C534.547 15.1833 534.085 15.7282 533.967 16.3555C533.8 17.2347 533.027 17.8996 532.1 17.8996C531.19 17.8996 530.428 17.2591 530.243 16.4038C530.113 15.8018 529.654 15.2627 529.113 14.8549C528.558 14.4374 527.85 14.1054 527.105 13.946C526.833 13.8879 526.555 13.9172 526.315 14.0755C526.087 14.2258 525.958 14.4509 525.883 14.6607C525.738 15.068 525.739 15.5896 525.792 16.0624C525.846 16.5513 525.963 17.061 526.105 17.4827C526.176 17.6937 526.256 17.892 526.343 18.0595C526.423 18.2125 526.534 18.3935 526.687 18.5161C527.123 18.8651 527.4 19.3998 527.4 19.9996C527.4 21.049 526.549 21.8996 525.5 21.8996C524.451 21.8996 523.6 21.049 523.6 19.9996C523.6 19.476 523.811 19.0026 524.154 18.6584C524.307 18.5052 524.381 18.2865 524.423 18.1354C524.473 17.9585 524.511 17.7488 524.539 17.5269C524.597 17.0808 524.624 16.5362 524.624 15.9996C524.624 15.463 524.597 14.9184 524.539 14.4724C524.511 14.2504 524.473 14.0407 524.423 13.8638C524.381 13.7127 524.307 13.4941 524.154 13.3408Z" fill="white" stroke="white"/>
</g>
<g opacity="0.18">
<path d="M204.1 25.5002C203.051 25.5002 202.2 24.6495 202.2 23.6002C202.2 22.5509 203.051 21.7002 204.1 21.7002C205.149 21.7002 206 22.5509 206 23.6002C206 24.6495 205.149 25.5002 204.1 25.5002Z" fill="white" stroke="white"/>
<circle cx="204.1" cy="8.4" r="1.9" transform="rotate(90 204.1 8.4)" fill="white" stroke="white"/>
<path d="M196.154 13.3408C195.811 12.9966 195.6 12.5232 195.6 11.9996C195.6 10.9503 196.451 10.0996 197.5 10.0996C198.478 10.0996 199.285 10.8395 199.389 11.79C199.48 12.6238 200.118 13.2569 200.835 13.651C201.567 14.0532 202.488 14.2723 203.359 14.2244C203.883 14.1957 204.282 14.1789 204.782 14.2052C205.673 14.252 206.605 14.0134 207.344 13.599C208.065 13.1941 208.708 12.5565 208.817 11.7441C208.941 10.8158 209.738 10.0996 210.7 10.0996C211.749 10.0996 212.6 10.9503 212.6 11.9996C212.6 12.5232 212.389 12.9966 212.046 13.3408C211.893 13.4941 211.819 13.7127 211.777 13.8638C211.727 14.0407 211.689 14.2504 211.661 14.4724C211.603 14.9184 211.576 15.463 211.576 15.9996C211.576 16.5362 211.603 17.0808 211.661 17.5269C211.689 17.7488 211.727 17.9585 211.777 18.1354C211.819 18.2865 211.893 18.5052 212.046 18.6584C212.389 19.0026 212.6 19.476 212.6 19.9996C212.6 21.049 211.749 21.8996 210.7 21.8996C209.651 21.8996 208.8 21.049 208.8 19.9996C208.8 19.3998 209.077 18.8651 209.513 18.5161C209.666 18.3933 209.778 18.212 209.857 18.0588C209.943 17.8911 210.024 17.6924 210.094 17.4811C210.236 17.0584 210.353 16.5475 210.406 16.0565C210.458 15.5808 210.459 15.0579 210.315 14.6479C210.242 14.4373 210.115 14.212 209.892 14.0581C209.657 13.8953 209.381 13.8574 209.106 13.91C208.363 14.0523 207.651 14.3677 207.093 14.7799C206.547 15.1833 206.085 15.7282 205.967 16.3555C205.8 17.2347 205.027 17.8996 204.1 17.8996C203.19 17.8996 202.428 17.2591 202.243 16.4038C202.113 15.8018 201.655 15.2627 201.113 14.8549C200.559 14.4374 199.85 14.1054 199.105 13.946C198.833 13.8879 198.555 13.9172 198.315 14.0755C198.087 14.2258 197.958 14.4509 197.883 14.6607C197.738 15.068 197.739 15.5896 197.792 16.0624C197.846 16.5513 197.963 17.061 198.105 17.4827C198.176 17.6937 198.256 17.892 198.343 18.0595C198.423 18.2125 198.534 18.3935 198.687 18.5161C199.123 18.8651 199.4 19.3998 199.4 19.9996C199.4 21.049 198.549 21.8996 197.5 21.8996C196.451 21.8996 195.6 21.049 195.6 19.9996C195.6 19.476 195.811 19.0026 196.154 18.6584C196.307 18.5052 196.381 18.2865 196.423 18.1354C196.473 17.9585 196.511 17.7488 196.539 17.5269C196.597 17.0808 196.624 16.5362 196.624 15.9996C196.624 15.463 196.597 14.9184 196.539 14.4724C196.511 14.2504 196.473 14.0407 196.423 13.8638C196.381 13.7127 196.307 13.4941 196.154 13.3408Z" fill="white" stroke="white"/>
</g>
<g opacity="0.06">
<path d="M580.1 25.5002C579.051 25.5002 578.2 24.6495 578.2 23.6002C578.2 22.5509 579.051 21.7002 580.1 21.7002C581.149 21.7002 582 22.5509 582 23.6002C582 24.6495 581.149 25.5002 580.1 25.5002Z" fill="white" stroke="white"/>
<circle cx="580.1" cy="8.4" r="1.9" transform="rotate(90 580.1 8.4)" fill="white" stroke="white"/>
<path d="M572.154 13.3408C571.811 12.9966 571.6 12.5232 571.6 11.9996C571.6 10.9503 572.451 10.0996 573.5 10.0996C574.478 10.0996 575.285 10.8395 575.389 11.79C575.48 12.6238 576.118 13.2569 576.835 13.651C577.567 14.0532 578.488 14.2723 579.359 14.2244C579.883 14.1957 580.282 14.1789 580.782 14.2052C581.673 14.252 582.605 14.0134 583.344 13.599C584.065 13.1941 584.708 12.5565 584.817 11.7441C584.941 10.8158 585.738 10.0996 586.7 10.0996C587.749 10.0996 588.6 10.9503 588.6 11.9996C588.6 12.5232 588.389 12.9966 588.046 13.3408C587.893 13.4941 587.819 13.7127 587.777 13.8638C587.727 14.0407 587.689 14.2504 587.661 14.4724C587.603 14.9184 587.576 15.463 587.576 15.9996C587.576 16.5362 587.603 17.0808 587.661 17.5269C587.689 17.7488 587.727 17.9585 587.777 18.1354C587.819 18.2865 587.893 18.5052 588.046 18.6584C588.389 19.0026 588.6 19.476 588.6 19.9996C588.6 21.049 587.749 21.8996 586.7 21.8996C585.651 21.8996 584.8 21.049 584.8 19.9996C584.8 19.3998 585.077 18.8651 585.513 18.5161C585.666 18.3933 585.777 18.212 585.857 18.0588C585.943 17.8911 586.024 17.6924 586.094 17.4811C586.236 17.0584 586.353 16.5475 586.406 16.0565C586.458 15.5808 586.459 15.0579 586.315 14.6479C586.242 14.4373 586.115 14.212 585.892 14.0581C585.657 13.8953 585.381 13.8574 585.106 13.91C584.363 14.0523 583.651 14.3677 583.093 14.7799C582.547 15.1833 582.085 15.7282 581.967 16.3555C581.8 17.2347 581.027 17.8996 580.1 17.8996C579.19 17.8996 578.428 17.2591 578.243 16.4038C578.113 15.8018 577.654 15.2627 577.113 14.8549C576.558 14.4374 575.85 14.1054 575.105 13.946C574.833 13.8879 574.555 13.9172 574.315 14.0755C574.087 14.2258 573.958 14.4509 573.883 14.6607C573.738 15.068 573.739 15.5896 573.792 16.0624C573.846 16.5513 573.963 17.061 574.105 17.4827C574.176 17.6937 574.256 17.892 574.343 18.0595C574.423 18.2125 574.534 18.3935 574.687 18.5161C575.123 18.8651 575.4 19.3998 575.4 19.9996C575.4 21.049 574.549 21.8996 573.5 21.8996C572.451 21.8996 571.6 21.049 571.6 19.9996C571.6 19.476 571.811 19.0026 572.154 18.6584C572.307 18.5052 572.381 18.2865 572.423 18.1354C572.473 17.9585 572.511 17.7488 572.539 17.5269C572.597 17.0808 572.624 16.5362 572.624 15.9996C572.624 15.463 572.597 14.9184 572.539 14.4724C572.511 14.2504 572.473 14.0407 572.423 13.8638C572.381 13.7127 572.307 13.4941 572.154 13.3408Z" fill="white" stroke="white"/>
</g>
<g opacity="0.22">
<path d="M252.1 25.5002C251.051 25.5002 250.2 24.6495 250.2 23.6002C250.2 22.5509 251.051 21.7002 252.1 21.7002C253.149 21.7002 254 22.5509 254 23.6002C254 24.6495 253.149 25.5002 252.1 25.5002Z" fill="white" stroke="white"/>
<circle cx="252.1" cy="8.4" r="1.9" transform="rotate(90 252.1 8.4)" fill="white" stroke="white"/>
<path d="M244.154 13.3408C243.811 12.9966 243.6 12.5232 243.6 11.9996C243.6 10.9503 244.451 10.0996 245.5 10.0996C246.478 10.0996 247.285 10.8395 247.389 11.79C247.48 12.6238 248.118 13.2569 248.835 13.651C249.567 14.0532 250.488 14.2723 251.359 14.2244C251.883 14.1957 252.282 14.1789 252.782 14.2052C253.673 14.252 254.605 14.0134 255.344 13.599C256.065 13.1941 256.708 12.5565 256.817 11.7441C256.941 10.8158 257.738 10.0996 258.7 10.0996C259.749 10.0996 260.6 10.9503 260.6 11.9996C260.6 12.5232 260.389 12.9966 260.046 13.3408C259.893 13.4941 259.819 13.7127 259.777 13.8638C259.727 14.0407 259.689 14.2504 259.661 14.4724C259.603 14.9184 259.576 15.463 259.576 15.9996C259.576 16.5362 259.603 17.0808 259.661 17.5269C259.689 17.7488 259.727 17.9585 259.777 18.1354C259.819 18.2865 259.893 18.5052 260.046 18.6584C260.389 19.0026 260.6 19.476 260.6 19.9996C260.6 21.049 259.749 21.8996 258.7 21.8996C257.651 21.8996 256.8 21.049 256.8 19.9996C256.8 19.3998 257.077 18.8651 257.513 18.5161C257.666 18.3933 257.778 18.212 257.857 18.0588C257.943 17.8911 258.024 17.6924 258.094 17.4811C258.236 17.0584 258.353 16.5475 258.406 16.0565C258.458 15.5808 258.459 15.0579 258.315 14.6479C258.242 14.4373 258.115 14.212 257.892 14.0581C257.657 13.8953 257.381 13.8574 257.106 13.91C256.363 14.0523 255.651 14.3677 255.093 14.7799C254.547 15.1833 254.085 15.7282 253.967 16.3555C253.8 17.2347 253.027 17.8996 252.1 17.8996C251.19 17.8996 250.428 17.2591 250.243 16.4038C250.113 15.8018 249.655 15.2627 249.113 14.8549C248.559 14.4374 247.85 14.1054 247.105 13.946C246.833 13.8879 246.555 13.9172 246.315 14.0755C246.087 14.2258 245.958 14.4509 245.883 14.6607C245.738 15.068 245.739 15.5896 245.792 16.0624C245.846 16.5513 245.963 17.061 246.105 17.4827C246.176 17.6937 246.256 17.892 246.343 18.0595C246.423 18.2125 246.534 18.3935 246.687 18.5161C247.123 18.8651 247.4 19.3998 247.4 19.9996C247.4 21.049 246.549 21.8996 245.5 21.8996C244.451 21.8996 243.6 21.049 243.6 19.9996C243.6 19.476 243.811 19.0026 244.154 18.6584C244.307 18.5052 244.381 18.2865 244.423 18.1354C244.473 17.9585 244.511 17.7488 244.539 17.5269C244.597 17.0808 244.624 16.5362 244.624 15.9996C244.624 15.463 244.597 14.9184 244.539 14.4724C244.511 14.2504 244.473 14.0407 244.423 13.8638C244.381 13.7127 244.307 13.4941 244.154 13.3408Z" fill="white" stroke="white"/>
</g>
<g opacity="0.02">
<path d="M628.1 25.5002C627.051 25.5002 626.2 24.6495 626.2 23.6002C626.2 22.5509 627.051 21.7002 628.1 21.7002C629.149 21.7002 630 22.5509 630 23.6002C630 24.6495 629.149 25.5002 628.1 25.5002Z" fill="white" stroke="white"/>
<circle cx="628.1" cy="8.4" r="1.9" transform="rotate(90 628.1 8.4)" fill="white" stroke="white"/>
<path d="M620.154 13.3408C619.811 12.9966 619.6 12.5232 619.6 11.9996C619.6 10.9503 620.451 10.0996 621.5 10.0996C622.478 10.0996 623.285 10.8395 623.389 11.79C623.48 12.6238 624.118 13.2569 624.835 13.651C625.567 14.0532 626.488 14.2723 627.359 14.2244C627.883 14.1957 628.282 14.1789 628.782 14.2052C629.673 14.252 630.605 14.0134 631.344 13.599C632.065 13.1941 632.708 12.5565 632.817 11.7441C632.941 10.8158 633.737 10.0996 634.7 10.0996C635.749 10.0996 636.6 10.9503 636.6 11.9996C636.6 12.5232 636.389 12.9966 636.046 13.3408C635.893 13.4941 635.819 13.7127 635.777 13.8638C635.727 14.0407 635.689 14.2504 635.661 14.4724C635.603 14.9184 635.576 15.463 635.576 15.9996C635.576 16.5362 635.603 17.0808 635.661 17.5269C635.689 17.7488 635.727 17.9585 635.777 18.1354C635.819 18.2865 635.893 18.5052 636.046 18.6584C636.389 19.0026 636.6 19.476 636.6 19.9996C636.6 21.049 635.749 21.8996 634.7 21.8996C633.651 21.8996 632.8 21.049 632.8 19.9996C632.8 19.3998 633.077 18.8651 633.513 18.5161C633.666 18.3933 633.777 18.212 633.857 18.0588C633.943 17.8911 634.024 17.6924 634.094 17.4811C634.236 17.0584 634.353 16.5475 634.406 16.0565C634.458 15.5808 634.459 15.0579 634.315 14.6479C634.242 14.4373 634.115 14.212 633.892 14.0581C633.657 13.8953 633.381 13.8574 633.106 13.91C632.363 14.0523 631.651 14.3677 631.093 14.7799C630.547 15.1833 630.085 15.7282 629.967 16.3555C629.8 17.2347 629.027 17.8996 628.1 17.8996C627.19 17.8996 626.428 17.2591 626.243 16.4038C626.113 15.8018 625.654 15.2627 625.113 14.8549C624.558 14.4374 623.85 14.1054 623.105 13.946C622.833 13.8879 622.555 13.9172 622.315 14.0755C622.087 14.2258 621.958 14.4509 621.883 14.6607C621.738 15.068 621.739 15.5896 621.792 16.0624C621.846 16.5513 621.963 17.061 622.105 17.4827C622.176 17.6937 622.256 17.892 622.343 18.0595C622.423 18.2125 622.534 18.3935 622.687 18.5161C623.123 18.8651 623.4 19.3998 623.4 19.9996C623.4 21.049 622.549 21.8996 621.5 21.8996C620.451 21.8996 619.6 21.049 619.6 19.9996C619.6 19.476 619.811 19.0026 620.154 18.6584C620.307 18.5052 620.381 18.2865 620.423 18.1354C620.473 17.9585 620.511 17.7488 620.539 17.5269C620.597 17.0808 620.624 16.5362 620.624 15.9996C620.624 15.463 620.597 14.9184 620.539 14.4724C620.511 14.2504 620.473 14.0407 620.423 13.8638C620.381 13.7127 620.307 13.4941 620.154 13.3408Z" fill="white" stroke="white"/>
</g>
<g opacity="0.02">
<ellipse cx="12.1" cy="71.6002" rx="2.4" ry="2.4" transform="rotate(90 12.1 71.6002)" fill="white"/>
<circle cx="12.1" cy="56.4" r="2.4" transform="rotate(90 12.1 56.4)" fill="white"/>
<path d="M3.09998 59.9996C3.09998 60.6609 3.36739 61.2596 3.79998 61.6937C4.23256 62.1278 4.23256 65.8714 3.79998 66.3055C3.36739 66.7396 3.09998 67.3384 3.09998 67.9996C3.09998 69.3251 4.17449 70.3996 5.49998 70.3996C6.82546 70.3996 7.89998 69.3251 7.89998 67.9996C7.89998 67.2417 7.54865 66.5658 6.99998 66.126C6.4513 65.6862 5.65183 62.1468 6.99998 62.435C8.34812 62.7232 9.56618 63.6402 9.75425 64.5095C9.98802 65.59 10.9495 66.3996 12.1 66.3996C13.2721 66.3996 14.2479 65.5594 14.4581 64.4485C14.6292 63.5441 15.8576 62.6582 17.2 62.4011C18.5423 62.144 17.7487 65.6862 17.2 66.126C16.6513 66.5658 16.3 67.2417 16.3 67.9996C16.3 69.3251 17.3745 70.3996 18.7 70.3996C20.0255 70.3996 21.1 69.3251 21.1 67.9996C21.1 67.3384 20.8326 66.7396 20.4 66.3055C19.9674 65.8714 19.9674 62.1278 20.4 61.6937C20.8326 61.2596 21.1 60.6609 21.1 59.9996C21.1 58.6741 20.0255 57.5996 18.7 57.5996C17.4837 57.5996 16.4787 58.5044 16.3214 59.6776C16.1641 60.8509 14.3903 61.7891 12.8084 61.7059C12.2801 61.6781 11.8587 61.6963 11.3317 61.7252C9.78008 61.8104 8.01707 60.9368 7.88562 59.7356C7.75417 58.5343 6.73623 57.5996 5.49998 57.5996C4.17449 57.5996 3.09998 58.6741 3.09998 59.9996Z" fill="white"/>
</g>
<g opacity="0.22">
<ellipse cx="388.1" cy="71.6002" rx="2.4" ry="2.4" transform="rotate(90 388.1 71.6002)" fill="white"/>
<circle cx="388.1" cy="56.4" r="2.4" transform="rotate(90 388.1 56.4)" fill="white"/>
<path d="M379.1 59.9996C379.1 60.6609 379.367 61.2596 379.8 61.6937C380.233 62.1278 380.233 65.8714 379.8 66.3055C379.367 66.7396 379.1 67.3384 379.1 67.9996C379.1 69.3251 380.175 70.3996 381.5 70.3996C382.825 70.3996 383.9 69.3251 383.9 67.9996C383.9 67.2417 383.549 66.5658 383 66.126C382.451 65.6862 381.652 62.1468 383 62.435C384.348 62.7232 385.566 63.6402 385.754 64.5095C385.988 65.59 386.949 66.3996 388.1 66.3996C389.272 66.3996 390.248 65.5594 390.458 64.4485C390.629 63.5441 391.858 62.6582 393.2 62.4011C394.542 62.144 393.749 65.6862 393.2 66.126C392.651 66.5658 392.3 67.2417 392.3 67.9996C392.3 69.3251 393.375 70.3996 394.7 70.3996C396.025 70.3996 397.1 69.3251 397.1 67.9996C397.1 67.3384 396.833 66.7396 396.4 66.3055C395.967 65.8714 395.967 62.1278 396.4 61.6937C396.833 61.2596 397.1 60.6609 397.1 59.9996C397.1 58.6741 396.025 57.5996 394.7 57.5996C393.484 57.5996 392.479 58.5044 392.321 59.6776C392.164 60.8509 390.39 61.7891 388.808 61.7059C388.28 61.6781 387.859 61.6963 387.332 61.7252C385.78 61.8104 384.017 60.9368 383.886 59.7356C383.754 58.5343 382.736 57.5996 381.5 57.5996C380.175 57.5996 379.1 58.6741 379.1 59.9996Z" fill="white"/>
</g>
<g opacity="0.06">
<ellipse cx="60.1" cy="71.6002" rx="2.4" ry="2.4" transform="rotate(90 60.1 71.6002)" fill="white"/>
<circle cx="60.1" cy="56.4" r="2.4" transform="rotate(90 60.1 56.4)" fill="white"/>
<path d="M51.1 59.9996C51.1 60.6609 51.3674 61.2596 51.8 61.6937C52.2326 62.1278 52.2326 65.8714 51.8 66.3055C51.3674 66.7396 51.1 67.3384 51.1 67.9996C51.1 69.3251 52.1745 70.3996 53.5 70.3996C54.8255 70.3996 55.9 69.3251 55.9 67.9996C55.9 67.2417 55.5487 66.5658 55 66.126C54.4513 65.6862 53.6519 62.1468 55 62.435C56.3481 62.7232 57.5662 63.6402 57.7543 64.5095C57.988 65.59 58.9495 66.3996 60.1 66.3996C61.2721 66.3996 62.2479 65.5594 62.4581 64.4485C62.6292 63.5441 63.8577 62.6582 65.2 62.4011C66.5424 62.144 65.7487 65.6862 65.2 66.126C64.6513 66.5658 64.3 67.2417 64.3 67.9996C64.3 69.3251 65.3745 70.3996 66.7 70.3996C68.0255 70.3996 69.1 69.3251 69.1 67.9996C69.1 67.3384 68.8326 66.7396 68.4 66.3055C67.9674 65.8714 67.9674 62.1278 68.4 61.6937C68.8326 61.2596 69.1 60.6609 69.1 59.9996C69.1 58.6741 68.0255 57.5996 66.7 57.5996C65.4837 57.5996 64.4787 58.5044 64.3214 59.6776C64.1641 60.8509 62.3904 61.7891 60.8084 61.7059C60.2801 61.6781 59.8587 61.6963 59.3318 61.7252C57.7801 61.8104 56.0171 60.9368 55.8856 59.7356C55.7542 58.5343 54.7363 57.5996 53.5 57.5996C52.1745 57.5996 51.1 58.6741 51.1 59.9996Z" fill="white"/>
</g>
<g opacity="0.18">
<ellipse cx="436.1" cy="71.6002" rx="2.4" ry="2.4" transform="rotate(90 436.1 71.6002)" fill="white"/>
<circle cx="436.1" cy="56.4" r="2.4" transform="rotate(90 436.1 56.4)" fill="white"/>
<path d="M427.1 59.9996C427.1 60.6609 427.367 61.2596 427.8 61.6937C428.233 62.1278 428.233 65.8714 427.8 66.3055C427.367 66.7396 427.1 67.3384 427.1 67.9996C427.1 69.3251 428.175 70.3996 429.5 70.3996C430.825 70.3996 431.9 69.3251 431.9 67.9996C431.9 67.2417 431.549 66.5658 431 66.126C430.451 65.6862 429.652 62.1468 431 62.435C432.348 62.7232 433.566 63.6402 433.754 64.5095C433.988 65.59 434.949 66.3996 436.1 66.3996C437.272 66.3996 438.248 65.5594 438.458 64.4485C438.629 63.5441 439.858 62.6582 441.2 62.4011C442.542 62.144 441.749 65.6862 441.2 66.126C440.651 66.5658 440.3 67.2417 440.3 67.9996C440.3 69.3251 441.375 70.3996 442.7 70.3996C444.025 70.3996 445.1 69.3251 445.1 67.9996C445.1 67.3384 444.833 66.7396 444.4 66.3055C443.967 65.8714 443.967 62.1278 444.4 61.6937C444.833 61.2596 445.1 60.6609 445.1 59.9996C445.1 58.6741 444.025 57.5996 442.7 57.5996C441.484 57.5996 440.479 58.5044 440.321 59.6776C440.164 60.8509 438.39 61.7891 436.808 61.7059C436.28 61.6781 435.859 61.6963 435.332 61.7252C433.78 61.8104 432.017 60.9368 431.886 59.7356C431.754 58.5343 430.736 57.5996 429.5 57.5996C428.175 57.5996 427.1 58.6741 427.1 59.9996Z" fill="white"/>
</g>
<g opacity="0.1">
<ellipse cx="108.1" cy="71.6002" rx="2.4" ry="2.4" transform="rotate(90 108.1 71.6002)" fill="white"/>
<circle cx="108.1" cy="56.4" r="2.4" transform="rotate(90 108.1 56.4)" fill="white"/>
<path d="M99.1 59.9996C99.1 60.6609 99.3674 61.2596 99.8 61.6937C100.233 62.1278 100.233 65.8714 99.8 66.3055C99.3674 66.7396 99.1 67.3384 99.1 67.9996C99.1 69.3251 100.175 70.3996 101.5 70.3996C102.825 70.3996 103.9 69.3251 103.9 67.9996C103.9 67.2417 103.549 66.5658 103 66.126C102.451 65.6862 101.652 62.1468 103 62.435C104.348 62.7232 105.566 63.6402 105.754 64.5095C105.988 65.59 106.949 66.3996 108.1 66.3996C109.272 66.3996 110.248 65.5594 110.458 64.4485C110.629 63.5441 111.858 62.6582 113.2 62.4011C114.542 62.144 113.749 65.6862 113.2 66.126C112.651 66.5658 112.3 67.2417 112.3 67.9996C112.3 69.3251 113.375 70.3996 114.7 70.3996C116.025 70.3996 117.1 69.3251 117.1 67.9996C117.1 67.3384 116.833 66.7396 116.4 66.3055C115.967 65.8714 115.967 62.1278 116.4 61.6937C116.833 61.2596 117.1 60.6609 117.1 59.9996C117.1 58.6741 116.025 57.5996 114.7 57.5996C113.484 57.5996 112.479 58.5044 112.321 59.6776C112.164 60.8509 110.39 61.7891 108.808 61.7059C108.28 61.6781 107.859 61.6963 107.332 61.7252C105.78 61.8104 104.017 60.9368 103.886 59.7356C103.754 58.5343 102.736 57.5996 101.5 57.5996C100.175 57.5996 99.1 58.6741 99.1 59.9996Z" fill="white"/>
</g>
<g opacity="0.14">
<ellipse cx="484.1" cy="71.6002" rx="2.4" ry="2.4" transform="rotate(90 484.1 71.6002)" fill="white"/>
<circle cx="484.1" cy="56.4" r="2.4" transform="rotate(90 484.1 56.4)" fill="white"/>
<path d="M475.1 59.9996C475.1 60.6609 475.367 61.2596 475.8 61.6937C476.233 62.1278 476.233 65.8714 475.8 66.3055C475.367 66.7396 475.1 67.3384 475.1 67.9996C475.1 69.3251 476.175 70.3996 477.5 70.3996C478.825 70.3996 479.9 69.3251 479.9 67.9996C479.9 67.2417 479.549 66.5658 479 66.126C478.451 65.6862 477.652 62.1468 479 62.435C480.348 62.7232 481.566 63.6402 481.754 64.5095C481.988 65.59 482.949 66.3996 484.1 66.3996C485.272 66.3996 486.248 65.5594 486.458 64.4485C486.629 63.5441 487.858 62.6582 489.2 62.4011C490.542 62.144 489.749 65.6862 489.2 66.126C488.651 66.5658 488.3 67.2417 488.3 67.9996C488.3 69.3251 489.375 70.3996 490.7 70.3996C492.025 70.3996 493.1 69.3251 493.1 67.9996C493.1 67.3384 492.833 66.7396 492.4 66.3055C491.967 65.8714 491.967 62.1278 492.4 61.6937C492.833 61.2596 493.1 60.6609 493.1 59.9996C493.1 58.6741 492.025 57.5996 490.7 57.5996C489.484 57.5996 488.479 58.5044 488.321 59.6776C488.164 60.8509 486.39 61.7891 484.808 61.7059C484.28 61.6781 483.859 61.6963 483.332 61.7252C481.78 61.8104 480.017 60.9368 479.886 59.7356C479.754 58.5343 478.736 57.5996 477.5 57.5996C476.175 57.5996 475.1 58.6741 475.1 59.9996Z" fill="white"/>
</g>
<g opacity="0.14">
<ellipse cx="156.1" cy="71.6002" rx="2.4" ry="2.4" transform="rotate(90 156.1 71.6002)" fill="white"/>
<circle cx="156.1" cy="56.4" r="2.4" transform="rotate(90 156.1 56.4)" fill="white"/>
<path d="M147.1 59.9996C147.1 60.6609 147.367 61.2596 147.8 61.6937C148.233 62.1278 148.233 65.8714 147.8 66.3055C147.367 66.7396 147.1 67.3384 147.1 67.9996C147.1 69.3251 148.175 70.3996 149.5 70.3996C150.825 70.3996 151.9 69.3251 151.9 67.9996C151.9 67.2417 151.549 66.5658 151 66.126C150.451 65.6862 149.652 62.1468 151 62.435C152.348 62.7232 153.566 63.6402 153.754 64.5095C153.988 65.59 154.949 66.3996 156.1 66.3996C157.272 66.3996 158.248 65.5594 158.458 64.4485C158.629 63.5441 159.858 62.6582 161.2 62.4011C162.542 62.144 161.749 65.6862 161.2 66.126C160.651 66.5658 160.3 67.2417 160.3 67.9996C160.3 69.3251 161.375 70.3996 162.7 70.3996C164.025 70.3996 165.1 69.3251 165.1 67.9996C165.1 67.3384 164.833 66.7396 164.4 66.3055C163.967 65.8714 163.967 62.1278 164.4 61.6937C164.833 61.2596 165.1 60.6609 165.1 59.9996C165.1 58.6741 164.025 57.5996 162.7 57.5996C161.484 57.5996 160.479 58.5044 160.321 59.6776C160.164 60.8509 158.39 61.7891 156.808 61.7059C156.28 61.6781 155.859 61.6963 155.332 61.7252C153.78 61.8104 152.017 60.9368 151.886 59.7356C151.754 58.5343 150.736 57.5996 149.5 57.5996C148.175 57.5996 147.1 58.6741 147.1 59.9996Z" fill="white"/>
</g>
<g opacity="0.1">
<ellipse cx="532.1" cy="71.6002" rx="2.4" ry="2.4" transform="rotate(90 532.1 71.6002)" fill="white"/>
<circle cx="532.1" cy="56.4" r="2.4" transform="rotate(90 532.1 56.4)" fill="white"/>
<path d="M523.1 59.9996C523.1 60.6609 523.367 61.2596 523.8 61.6937C524.233 62.1278 524.233 65.8714 523.8 66.3055C523.367 66.7396 523.1 67.3384 523.1 67.9996C523.1 69.3251 524.175 70.3996 525.5 70.3996C526.825 70.3996 527.9 69.3251 527.9 67.9996C527.9 67.2417 527.549 66.5658 527 66.126C526.451 65.6862 525.652 62.1468 527 62.435C528.348 62.7232 529.566 63.6402 529.754 64.5095C529.988 65.59 530.949 66.3996 532.1 66.3996C533.272 66.3996 534.248 65.5594 534.458 64.4485C534.629 63.5441 535.858 62.6582 537.2 62.4011C538.542 62.144 537.749 65.6862 537.2 66.126C536.651 66.5658 536.3 67.2417 536.3 67.9996C536.3 69.3251 537.375 70.3996 538.7 70.3996C540.025 70.3996 541.1 69.3251 541.1 67.9996C541.1 67.3384 540.833 66.7396 540.4 66.3055C539.967 65.8714 539.967 62.1278 540.4 61.6937C540.833 61.2596 541.1 60.6609 541.1 59.9996C541.1 58.6741 540.025 57.5996 538.7 57.5996C537.484 57.5996 536.479 58.5044 536.321 59.6776C536.164 60.8509 534.39 61.7891 532.808 61.7059C532.28 61.6781 531.859 61.6963 531.332 61.7252C529.78 61.8104 528.017 60.9368 527.886 59.7356C527.754 58.5343 526.736 57.5996 525.5 57.5996C524.175 57.5996 523.1 58.6741 523.1 59.9996Z" fill="white"/>
</g>
<g opacity="0.18">
<ellipse cx="204.1" cy="71.6002" rx="2.4" ry="2.4" transform="rotate(90 204.1 71.6002)" fill="white"/>
<circle cx="204.1" cy="56.4" r="2.4" transform="rotate(90 204.1 56.4)" fill="white"/>
<path d="M195.1 59.9996C195.1 60.6609 195.367 61.2596 195.8 61.6937C196.233 62.1278 196.233 65.8714 195.8 66.3055C195.367 66.7396 195.1 67.3384 195.1 67.9996C195.1 69.3251 196.175 70.3996 197.5 70.3996C198.825 70.3996 199.9 69.3251 199.9 67.9996C199.9 67.2417 199.549 66.5658 199 66.126C198.451 65.6862 197.652 62.1468 199 62.435C200.348 62.7232 201.566 63.6402 201.754 64.5095C201.988 65.59 202.949 66.3996 204.1 66.3996C205.272 66.3996 206.248 65.5594 206.458 64.4485C206.629 63.5441 207.858 62.6582 209.2 62.4011C210.542 62.144 209.749 65.6862 209.2 66.126C208.651 66.5658 208.3 67.2417 208.3 67.9996C208.3 69.3251 209.375 70.3996 210.7 70.3996C212.025 70.3996 213.1 69.3251 213.1 67.9996C213.1 67.3384 212.833 66.7396 212.4 66.3055C211.967 65.8714 211.967 62.1278 212.4 61.6937C212.833 61.2596 213.1 60.6609 213.1 59.9996C213.1 58.6741 212.025 57.5996 210.7 57.5996C209.484 57.5996 208.479 58.5044 208.321 59.6776C208.164 60.8509 206.39 61.7891 204.808 61.7059C204.28 61.6781 203.859 61.6963 203.332 61.7252C201.78 61.8104 200.017 60.9368 199.886 59.7356C199.754 58.5343 198.736 57.5996 197.5 57.5996C196.175 57.5996 195.1 58.6741 195.1 59.9996Z" fill="white"/>
</g>
<g opacity="0.06">
<ellipse cx="580.1" cy="71.6002" rx="2.4" ry="2.4" transform="rotate(90 580.1 71.6002)" fill="white"/>
<circle cx="580.1" cy="56.4" r="2.4" transform="rotate(90 580.1 56.4)" fill="white"/>
<path d="M571.1 59.9996C571.1 60.6609 571.367 61.2596 571.8 61.6937C572.233 62.1278 572.233 65.8714 571.8 66.3055C571.367 66.7396 571.1 67.3384 571.1 67.9996C571.1 69.3251 572.175 70.3996 573.5 70.3996C574.825 70.3996 575.9 69.3251 575.9 67.9996C575.9 67.2417 575.549 66.5658 575 66.126C574.451 65.6862 573.652 62.1468 575 62.435C576.348 62.7232 577.566 63.6402 577.754 64.5095C577.988 65.59 578.949 66.3996 580.1 66.3996C581.272 66.3996 582.248 65.5594 582.458 64.4485C582.629 63.5441 583.858 62.6582 585.2 62.4011C586.542 62.144 585.749 65.6862 585.2 66.126C584.651 66.5658 584.3 67.2417 584.3 67.9996C584.3 69.3251 585.375 70.3996 586.7 70.3996C588.025 70.3996 589.1 69.3251 589.1 67.9996C589.1 67.3384 588.833 66.7396 588.4 66.3055C587.967 65.8714 587.967 62.1278 588.4 61.6937C588.833 61.2596 589.1 60.6609 589.1 59.9996C589.1 58.6741 588.025 57.5996 586.7 57.5996C585.484 57.5996 584.479 58.5044 584.321 59.6776C584.164 60.8509 582.39 61.7891 580.808 61.7059C580.28 61.6781 579.859 61.6963 579.332 61.7252C577.78 61.8104 576.017 60.9368 575.886 59.7356C575.754 58.5343 574.736 57.5996 573.5 57.5996C572.175 57.5996 571.1 58.6741 571.1 59.9996Z" fill="white"/>
</g>
<g opacity="0.22">
<ellipse cx="252.1" cy="71.6002" rx="2.4" ry="2.4" transform="rotate(90 252.1 71.6002)" fill="white"/>
<circle cx="252.1" cy="56.4" r="2.4" transform="rotate(90 252.1 56.4)" fill="white"/>
<path d="M243.1 59.9996C243.1 60.6609 243.367 61.2596 243.8 61.6937C244.233 62.1278 244.233 65.8714 243.8 66.3055C243.367 66.7396 243.1 67.3384 243.1 67.9996C243.1 69.3251 244.175 70.3996 245.5 70.3996C246.825 70.3996 247.9 69.3251 247.9 67.9996C247.9 67.2417 247.549 66.5658 247 66.126C246.451 65.6862 245.652 62.1468 247 62.435C248.348 62.7232 249.566 63.6402 249.754 64.5095C249.988 65.59 250.949 66.3996 252.1 66.3996C253.272 66.3996 254.248 65.5594 254.458 64.4485C254.629 63.5441 255.858 62.6582 257.2 62.4011C258.542 62.144 257.749 65.6862 257.2 66.126C256.651 66.5658 256.3 67.2417 256.3 67.9996C256.3 69.3251 257.375 70.3996 258.7 70.3996C260.025 70.3996 261.1 69.3251 261.1 67.9996C261.1 67.3384 260.833 66.7396 260.4 66.3055C259.967 65.8714 259.967 62.1278 260.4 61.6937C260.833 61.2596 261.1 60.6609 261.1 59.9996C261.1 58.6741 260.025 57.5996 258.7 57.5996C257.484 57.5996 256.479 58.5044 256.321 59.6776C256.164 60.8509 254.39 61.7891 252.808 61.7059C252.28 61.6781 251.859 61.6963 251.332 61.7252C249.78 61.8104 248.017 60.9368 247.886 59.7356C247.754 58.5343 246.736 57.5996 245.5 57.5996C244.175 57.5996 243.1 58.6741 243.1 59.9996Z" fill="white"/>
</g>
<g opacity="0.02">
<ellipse cx="628.1" cy="71.6002" rx="2.4" ry="2.4" transform="rotate(90 628.1 71.6002)" fill="white"/>
<circle cx="628.1" cy="56.4" r="2.4" transform="rotate(90 628.1 56.4)" fill="white"/>
<path d="M619.1 59.9996C619.1 60.6609 619.367 61.2596 619.8 61.6937C620.233 62.1278 620.233 65.8714 619.8 66.3055C619.367 66.7396 619.1 67.3384 619.1 67.9996C619.1 69.3251 620.175 70.3996 621.5 70.3996C622.825 70.3996 623.9 69.3251 623.9 67.9996C623.9 67.2417 623.549 66.5658 623 66.126C622.451 65.6862 621.652 62.1468 623 62.435C624.348 62.7232 625.566 63.6402 625.754 64.5095C625.988 65.59 626.949 66.3996 628.1 66.3996C629.272 66.3996 630.248 65.5594 630.458 64.4485C630.629 63.5441 631.858 62.6582 633.2 62.4011C634.542 62.144 633.749 65.6862 633.2 66.126C632.651 66.5658 632.3 67.2417 632.3 67.9996C632.3 69.3251 633.375 70.3996 634.7 70.3996C636.025 70.3996 637.1 69.3251 637.1 67.9996C637.1 67.3384 636.833 66.7396 636.4 66.3055C635.967 65.8714 635.967 62.1278 636.4 61.6937C636.833 61.2596 637.1 60.6609 637.1 59.9996C637.1 58.6741 636.025 57.5996 634.7 57.5996C633.484 57.5996 632.479 58.5044 632.321 59.6776C632.164 60.8509 630.39 61.7891 628.808 61.7059C628.28 61.6781 627.859 61.6963 627.332 61.7252C625.78 61.8104 624.017 60.9368 623.886 59.7356C623.754 58.5343 622.736 57.5996 621.5 57.5996C620.175 57.5996 619.1 58.6741 619.1 59.9996Z" fill="white"/>
</g>
</svg>
