<svg width="64" height="64" viewBox="0 0 64 64" fill="none" xmlns="http://www.w3.org/2000/svg">
<ellipse cx="32.2666" cy="52.2667" rx="6.4" ry="6.4" transform="rotate(90 32.2666 52.2667)" fill="#9D85F2"/>
<circle cx="32.2666" cy="11.7333" r="6.4" transform="rotate(90 32.2666 11.7333)" fill="#9D85F2"/>
<path d="M8.26672 21.3333C8.26672 23.0966 8.97983 24.6934 10.1334 25.8509C11.2869 27.0085 11.2869 36.9915 10.1334 38.149C8.97983 39.3066 8.26672 40.9033 8.26672 42.6667C8.26672 46.2013 11.1321 49.0667 14.6667 49.0667C18.2013 49.0667 21.0667 46.2013 21.0667 42.6667C21.0667 40.6455 20.1299 38.8433 18.6667 37.6704C17.2036 36.4975 15.0717 27.0591 18.6667 27.8276C22.2618 28.5962 25.5099 31.0415 26.0115 33.3597C26.6348 36.2411 29.1987 38.4 32.2667 38.4C35.3923 38.4 37.9945 36.1595 38.555 33.1969C39.0113 30.7852 42.2871 28.4228 45.8667 27.7372C49.4463 27.0517 47.3299 36.4975 45.8667 37.6704C44.4036 38.8433 43.4667 40.6455 43.4667 42.6667C43.4667 46.2013 46.3321 49.0667 49.8667 49.0667C53.4013 49.0667 56.2667 46.2013 56.2667 42.6667C56.2667 40.9033 55.5536 39.3066 54.4001 38.149C53.2465 36.9915 53.2465 27.0085 54.4001 25.8509C55.5536 24.6934 56.2667 23.0966 56.2667 21.3333C56.2667 17.7987 53.4013 14.9333 49.8667 14.9333C46.6233 14.9333 43.9433 17.3461 43.5238 20.4747C43.1043 23.6033 38.3744 26.1052 34.1558 25.8833C32.7471 25.8093 31.6233 25.8577 30.2181 25.9349C26.0803 26.1622 21.379 23.8326 21.0284 20.6293C20.6779 17.4259 17.9634 14.9333 14.6667 14.9333C11.1321 14.9333 8.26672 17.7987 8.26672 21.3333Z" fill="#9D85F2"/>
</svg>
