<svg width="16" height="16" viewBox="0 0 16 16" fill="none" xmlns="http://www.w3.org/2000/svg">
<path fill-rule="evenodd" clip-rule="evenodd" d="M0.25 13.499C0.25 13.0847 0.585786 12.749 1 12.749H15C15.4142 12.749 15.75 13.0847 15.75 13.499C15.75 13.9132 15.4142 14.249 15 14.249H1C0.585786 14.249 0.25 13.9132 0.25 13.499Z" fill="#1D1A31"/>
<path fill-rule="evenodd" clip-rule="evenodd" d="M1.61575 1.61508C1.85017 1.38066 2.16811 1.24896 2.49963 1.24896H8.49963C8.83115 1.24896 9.1491 1.38066 9.38352 1.61508C9.61794 1.8495 9.74963 2.16744 9.74963 2.49896V13.499C9.74963 13.9132 9.41385 14.249 8.99963 14.249C8.58542 14.249 8.24963 13.9132 8.24963 13.499V2.74896H2.74963V13.499C2.74963 13.9132 2.41385 14.249 1.99963 14.249C1.58542 14.249 1.24963 13.9132 1.24963 13.499V2.49896C1.24963 2.16744 1.38133 1.8495 1.61575 1.61508Z" fill="#1D1A31"/>
<path fill-rule="evenodd" clip-rule="evenodd" d="M8.24963 5.99896C8.24963 5.58475 8.58542 5.24896 8.99963 5.24896H13.4996C13.8312 5.24896 14.1491 5.38066 14.3835 5.61508C14.6179 5.8495 14.7496 6.16744 14.7496 6.49896V13.499C14.7496 13.9132 14.4138 14.249 13.9996 14.249C13.5854 14.249 13.2496 13.9132 13.2496 13.499V6.74896H8.99963C8.58542 6.74896 8.24963 6.41318 8.24963 5.99896Z" fill="#1D1A31"/>
<path fill-rule="evenodd" clip-rule="evenodd" d="M3.24963 4.49896C3.24963 4.08475 3.58542 3.74896 3.99963 3.74896H5.99963C6.41385 3.74896 6.74963 4.08475 6.74963 4.49896C6.74963 4.91318 6.41385 5.24896 5.99963 5.24896H3.99963C3.58542 5.24896 3.24963 4.91318 3.24963 4.49896Z" fill="#1D1A31"/>
<path fill-rule="evenodd" clip-rule="evenodd" d="M4.24963 8.49896C4.24963 8.08475 4.58542 7.74896 4.99963 7.74896H6.99963C7.41385 7.74896 7.74963 8.08475 7.74963 8.49896C7.74963 8.91318 7.41385 9.24896 6.99963 9.24896H4.99963C4.58542 9.24896 4.24963 8.91318 4.24963 8.49896Z" fill="#1D1A31"/>
<path fill-rule="evenodd" clip-rule="evenodd" d="M3.24963 10.999C3.24963 10.5847 3.58542 10.249 3.99963 10.249H5.99963C6.41385 10.249 6.74963 10.5847 6.74963 10.999C6.74963 11.4132 6.41385 11.749 5.99963 11.749H3.99963C3.58542 11.749 3.24963 11.4132 3.24963 10.999Z" fill="#1D1A31"/>
<path fill-rule="evenodd" clip-rule="evenodd" d="M10.2496 10.999C10.2496 10.5847 10.5854 10.249 10.9996 10.249H11.9996C12.4138 10.249 12.7496 10.5847 12.7496 10.999C12.7496 11.4132 12.4138 11.749 11.9996 11.749H10.9996C10.5854 11.749 10.2496 11.4132 10.2496 10.999Z" fill="#1D1A31"/>
<path fill-rule="evenodd" clip-rule="evenodd" d="M10.2496 8.49896C10.2496 8.08475 10.5854 7.74896 10.9996 7.74896H11.9996C12.4138 7.74896 12.7496 8.08475 12.7496 8.49896C12.7496 8.91318 12.4138 9.24896 11.9996 9.24896H10.9996C10.5854 9.24896 10.2496 8.91318 10.2496 8.49896Z" fill="#1D1A31"/>
</svg>
