<svg width="24" height="24" viewBox="0 0 24 24" fill="none" xmlns="http://www.w3.org/2000/svg">
<path fill-rule="evenodd" clip-rule="evenodd" d="M16.9388 8.97322C17.3678 9.42266 17.3512 10.1348 16.9018 10.5638L11.4018 15.8138C10.967 16.2287 10.2829 16.2287 9.84818 15.8138L7.09821 13.1888C6.64878 12.7598 6.63222 12.0476 7.06123 11.5982C7.49024 11.1488 8.20236 11.1322 8.65179 11.5612L10.625 13.4447L15.3482 8.93622C15.7977 8.50722 16.5098 8.52378 16.9388 8.97322Z" fill="#10562C"/>
<path fill-rule="evenodd" clip-rule="evenodd" d="M12 4.125C7.65076 4.125 4.125 7.65076 4.125 12C4.125 16.3492 7.65076 19.875 12 19.875C16.3492 19.875 19.875 16.3492 19.875 12C19.875 7.65076 16.3492 4.125 12 4.125ZM1.875 12C1.875 6.40812 6.40812 1.875 12 1.875C17.5919 1.875 22.125 6.40812 22.125 12C22.125 17.5919 17.5919 22.125 12 22.125C6.40812 22.125 1.875 17.5919 1.875 12Z" fill="#10562C"/>
</svg>
