<svg width="180" height="38" viewBox="0 0 180 38" fill="none" xmlns="http://www.w3.org/2000/svg">
<path d="M4 0H176C178.2 0 180 1.8 180 4V34C180 36.2 178.2 38 176 38H4C1.8 38 0 36.2 0 34V4C0 1.8 1.8 0 4 0Z" fill="#00B9FF"/>
<path d="M22.494 24.18C21.63 24.18 20.89 23.992 20.274 23.616C19.658 23.236 19.184 22.708 18.852 22.032C18.524 21.356 18.36 20.572 18.36 19.68C18.36 18.788 18.524 18.004 18.852 17.328C19.184 16.652 19.658 16.126 20.274 15.75C20.89 15.37 21.63 15.18 22.494 15.18C23.49 15.18 24.32 15.43 24.984 15.93C25.648 16.426 26.114 17.096 26.382 17.94L24.924 18.342C24.756 17.778 24.47 17.338 24.066 17.022C23.662 16.702 23.138 16.542 22.494 16.542C21.914 16.542 21.43 16.672 21.042 16.932C20.658 17.192 20.368 17.558 20.172 18.03C19.98 18.498 19.882 19.048 19.878 19.68C19.878 20.312 19.974 20.864 20.166 21.336C20.362 21.804 20.654 22.168 21.042 22.428C21.43 22.688 21.914 22.818 22.494 22.818C23.138 22.818 23.662 22.658 24.066 22.338C24.47 22.018 24.756 21.578 24.924 21.018L26.382 21.42C26.114 22.264 25.648 22.936 24.984 23.436C24.32 23.932 23.49 24.18 22.494 24.18ZM30.5614 24.18C29.9134 24.18 29.3474 24.034 28.8634 23.742C28.3794 23.45 28.0034 23.048 27.7354 22.536C27.4714 22.02 27.3394 21.428 27.3394 20.76C27.3394 20.08 27.4754 19.484 27.7474 18.972C28.0194 18.46 28.3974 18.06 28.8814 17.772C29.3654 17.484 29.9254 17.34 30.5614 17.34C31.2134 17.34 31.7814 17.486 32.2654 17.778C32.7494 18.07 33.1254 18.474 33.3934 18.99C33.6614 19.502 33.7954 20.092 33.7954 20.76C33.7954 21.432 33.6594 22.026 33.3874 22.542C33.1194 23.054 32.7434 23.456 32.2594 23.748C31.7754 24.036 31.2094 24.18 30.5614 24.18ZM30.5614 22.824C31.1374 22.824 31.5654 22.632 31.8454 22.248C32.1254 21.864 32.2654 21.368 32.2654 20.76C32.2654 20.132 32.1234 19.632 31.8394 19.26C31.5554 18.884 31.1294 18.696 30.5614 18.696C30.1734 18.696 29.8534 18.784 29.6014 18.96C29.3534 19.132 29.1694 19.374 29.0494 19.686C28.9294 19.994 28.8694 20.352 28.8694 20.76C28.8694 21.388 29.0114 21.89 29.2954 22.266C29.5834 22.638 30.0054 22.824 30.5614 22.824ZM39.5993 24V20.88C39.5993 20.676 39.5853 20.45 39.5573 20.202C39.5293 19.954 39.4633 19.716 39.3593 19.488C39.2593 19.256 39.1073 19.066 38.9033 18.918C38.7033 18.77 38.4313 18.696 38.0873 18.696C37.9033 18.696 37.7213 18.726 37.5413 18.786C37.3613 18.846 37.1973 18.95 37.0493 19.098C36.9053 19.242 36.7893 19.442 36.7013 19.698C36.6133 19.95 36.5693 20.274 36.5693 20.67L35.7113 20.304C35.7113 19.752 35.8173 19.252 36.0293 18.804C36.2453 18.356 36.5613 18 36.9773 17.736C37.3933 17.468 37.9053 17.334 38.5133 17.334C38.9933 17.334 39.3893 17.414 39.7013 17.574C40.0133 17.734 40.2613 17.938 40.4453 18.186C40.6293 18.434 40.7653 18.698 40.8533 18.978C40.9413 19.258 40.9973 19.524 41.0213 19.776C41.0493 20.024 41.0633 20.226 41.0633 20.382V24H39.5993ZM35.1053 24V17.52H36.3953V19.53H36.5693V24H35.1053ZM47.1111 24V20.88C47.1111 20.676 47.0971 20.45 47.0691 20.202C47.0411 19.954 46.9751 19.716 46.8711 19.488C46.7711 19.256 46.6191 19.066 46.4151 18.918C46.2151 18.77 45.9431 18.696 45.5991 18.696C45.4151 18.696 45.2331 18.726 45.0531 18.786C44.8731 18.846 44.7091 18.95 44.5611 19.098C44.4171 19.242 44.3011 19.442 44.2131 19.698C44.1251 19.95 44.0811 20.274 44.0811 20.67L43.2231 20.304C43.2231 19.752 43.3291 19.252 43.5411 18.804C43.7571 18.356 44.0731 18 44.4891 17.736C44.9051 17.468 45.4171 17.334 46.0251 17.334C46.5051 17.334 46.9011 17.414 47.2131 17.574C47.5251 17.734 47.7731 17.938 47.9571 18.186C48.1411 18.434 48.2771 18.698 48.3651 18.978C48.4531 19.258 48.5091 19.524 48.5331 19.776C48.5611 20.024 48.5751 20.226 48.5751 20.382V24H47.1111ZM42.6171 24V17.52H43.9071V19.53H44.0811V24H42.6171ZM52.9813 24.18C52.3253 24.18 51.7493 24.038 51.2533 23.754C50.7573 23.47 50.3693 23.076 50.0893 22.572C49.8133 22.068 49.6753 21.488 49.6753 20.832C49.6753 20.124 49.8113 19.51 50.0833 18.99C50.3553 18.466 50.7333 18.06 51.2173 17.772C51.7013 17.484 52.2613 17.34 52.8973 17.34C53.5693 17.34 54.1393 17.498 54.6073 17.814C55.0793 18.126 55.4293 18.568 55.6573 19.14C55.8853 19.712 55.9713 20.386 55.9153 21.162H54.4813V20.634C54.4773 19.93 54.3533 19.416 54.1093 19.092C53.8653 18.768 53.4813 18.606 52.9573 18.606C52.3653 18.606 51.9253 18.79 51.6373 19.158C51.3493 19.522 51.2053 20.056 51.2053 20.76C51.2053 21.416 51.3493 21.924 51.6373 22.284C51.9253 22.644 52.3453 22.824 52.8973 22.824C53.2533 22.824 53.5593 22.746 53.8153 22.59C54.0753 22.43 54.2753 22.2 54.4153 21.9L55.8433 22.332C55.5953 22.916 55.2113 23.37 54.6913 23.694C54.1753 24.018 53.6053 24.18 52.9813 24.18ZM50.7493 21.162V20.07H55.2073V21.162H50.7493ZM60.0681 24.18C59.4001 24.18 58.8301 24.032 58.3581 23.736C57.8861 23.436 57.5241 23.028 57.2721 22.512C57.0241 21.996 56.8981 21.412 56.8941 20.76C56.8981 20.096 57.0281 19.508 57.2841 18.996C57.5441 18.48 57.9121 18.076 58.3881 17.784C58.8641 17.488 59.4301 17.34 60.0861 17.34C60.8221 17.34 61.4441 17.526 61.9521 17.898C62.4641 18.266 62.7981 18.77 62.9541 19.41L61.5141 19.8C61.4021 19.452 61.2161 19.182 60.9561 18.99C60.6961 18.794 60.4001 18.696 60.0681 18.696C59.6921 18.696 59.3821 18.786 59.1381 18.966C58.8941 19.142 58.7141 19.386 58.5981 19.698C58.4821 20.01 58.4241 20.364 58.4241 20.76C58.4241 21.376 58.5621 21.874 58.8381 22.254C59.1141 22.634 59.5241 22.824 60.0681 22.824C60.4521 22.824 60.7541 22.736 60.9741 22.56C61.1981 22.384 61.3661 22.13 61.4781 21.798L62.9541 22.128C62.7541 22.788 62.4041 23.296 61.9041 23.652C61.4041 24.004 60.7921 24.18 60.0681 24.18ZM67.9544 24C67.5264 24.08 67.1064 24.114 66.6944 24.102C66.2864 24.094 65.9204 24.02 65.5964 23.88C65.2724 23.736 65.0264 23.51 64.8584 23.202C64.7104 22.922 64.6324 22.636 64.6244 22.344C64.6164 22.052 64.6124 21.722 64.6124 21.354V15.72H66.0524V21.27C66.0524 21.53 66.0544 21.758 66.0584 21.954C66.0664 22.15 66.1084 22.31 66.1844 22.434C66.3284 22.674 66.5584 22.808 66.8744 22.836C67.1904 22.864 67.5504 22.848 67.9544 22.788V24ZM63.4364 18.654V17.52H67.9544V18.654H63.4364ZM73.1302 24L71.1502 17.508L72.5662 17.52L73.8322 21.678L75.1162 17.52H76.3342L77.6122 21.678L78.8842 17.52H80.3002L78.3202 24H77.1922L75.7222 19.542L74.2582 24H73.1302ZM81.503 16.536V15.21H82.949V16.536H81.503ZM81.503 24V17.52H82.949V24H81.503ZM88.5443 24C88.1163 24.08 87.6963 24.114 87.2843 24.102C86.8763 24.094 86.5103 24.02 86.1863 23.88C85.8623 23.736 85.6163 23.51 85.4482 23.202C85.3003 22.922 85.2223 22.636 85.2143 22.344C85.2063 22.052 85.2023 21.722 85.2023 21.354V15.72H86.6423V21.27C86.6423 21.53 86.6443 21.758 86.6483 21.954C86.6563 22.15 86.6983 22.31 86.7743 22.434C86.9183 22.674 87.1483 22.808 87.4643 22.836C87.7803 22.864 88.1403 22.848 88.5443 22.788V24ZM84.0263 18.654V17.52H88.5443V18.654H84.0263ZM94.4197 24V20.88C94.4197 20.676 94.4057 20.45 94.3777 20.202C94.3497 19.954 94.2837 19.716 94.1797 19.488C94.0797 19.256 93.9277 19.066 93.7237 18.918C93.5237 18.77 93.2517 18.696 92.9077 18.696C92.7237 18.696 92.5417 18.726 92.3617 18.786C92.1817 18.846 92.0177 18.95 91.8697 19.098C91.7257 19.242 91.6097 19.442 91.5217 19.698C91.4337 19.95 91.3897 20.274 91.3897 20.67L90.5317 20.304C90.5317 19.752 90.6377 19.252 90.8497 18.804C91.0657 18.356 91.3817 18 91.7977 17.736C92.2137 17.468 92.7257 17.334 93.3337 17.334C93.8137 17.334 94.2097 17.414 94.5217 17.574C94.8337 17.734 95.0817 17.938 95.2657 18.186C95.4497 18.434 95.5857 18.698 95.6737 18.978C95.7617 19.258 95.8177 19.524 95.8417 19.776C95.8697 20.024 95.8837 20.226 95.8837 20.382V24H94.4197ZM89.9257 24V15.36H91.2157V19.908H91.3897V24H89.9257Z" fill="#2E4369"/>
<path d="M160.352 18.2034C160.352 14.9273 157.976 12.623 154.645 12.623C150.405 12.623 147.563 15.5825 147.563 19.8087C147.563 23.1067 149.962 25.389 153.349 25.389C156.43 25.389 158.726 23.9585 159.67 21.6761H156.248C155.793 22.3859 154.827 22.8337 153.645 22.8337C151.826 22.8337 150.689 21.6761 150.587 20.038H160.159C160.284 19.4156 160.352 18.8805 160.352 18.2034ZM150.848 17.8212C151.155 16.3142 152.679 15.1129 154.52 15.1129C156.112 15.1129 157.317 16.2268 157.317 17.8212H150.848Z" fill="#2E4369"/>
<path d="M138.367 25.0936L138.981 21.9486C140.856 22.3089 141.14 21.2933 141.629 18.8471L141.868 17.635C142.55 14.2169 143.926 12.5133 147.859 12.9719L147.245 16.117C145.369 15.7567 145.04 17.1217 144.619 19.2403L144.38 20.4525C143.698 23.9142 142.277 25.5523 138.367 25.0936Z" fill="#2E4369"/>
<path d="M133.774 25.1052L136.093 12.918H139.151L136.843 25.1052H133.774Z" fill="#2E4369"/>
<path d="M116.256 12.918H119.223L120.189 21.7308L124.077 12.918H127.021L128.056 21.8181L131.807 12.918H134.763L129.386 25.1052H126.021L124.93 16.7183L121.212 25.1052H117.961L116.256 12.918Z" fill="#2E4369"/>
<path d="M105.172 16.1504L101.648 19.3829H107.639L108.264 17.9741H105.229L107.127 16.1504L106.025 14.3267H111.174L106.422 25.1052H108.207L113.584 12.918H103.194L105.172 16.1504Z" fill="#2E4369"/>
</svg>
