<svg width="180" height="38" viewBox="0 0 180 38" fill="none" xmlns="http://www.w3.org/2000/svg">
<path d="M4 0H176C178.2 0 180 1.8 180 4V34C180 36.2 178.2 38 176 38H4C1.8 38 0 36.2 0 34V4C0 1.8 1.8 0 4 0Z" fill="#FFC439"/>
<path d="M82.1057 14.4766H78.6862C78.4522 14.4766 78.2532 14.6517 78.2167 14.8897L76.8337 23.9239C76.8062 24.1022 76.9402 24.2629 77.1157 24.2629H78.7482C78.9822 24.2629 79.1812 24.0877 79.2177 23.8492L79.5907 21.4126C79.6267 21.174 79.8262 20.9989 80.0597 20.9989H81.1422C83.3947 20.9989 84.6947 19.8759 85.0342 17.6504C85.1872 16.6768 85.0407 15.9118 84.5982 15.376C84.1122 14.7877 83.2502 14.4766 82.1057 14.4766ZM82.5002 17.7761C82.3132 19.0403 81.3757 19.0403 80.4692 19.0403H79.9532L80.3152 16.6793C80.3367 16.5367 80.4567 16.4316 80.5967 16.4316H80.8332C81.4507 16.4316 82.0332 16.4316 82.3342 16.7942C82.5137 17.0106 82.5687 17.332 82.5002 17.7761Z" fill="#253B80"/>
<path d="M92.327 17.7348H90.6895C90.55 17.7348 90.4295 17.8399 90.408 17.9826L90.3355 18.4545L90.221 18.2835C89.8665 17.7534 89.076 17.5762 88.287 17.5762C86.4775 17.5762 84.932 18.9882 84.631 20.969C84.4745 21.957 84.697 22.9018 85.241 23.5607C85.74 24.1665 86.454 24.4189 87.3035 24.4189C88.7615 24.4189 89.57 23.453 89.57 23.453L89.497 23.9218C89.4695 24.1011 89.6035 24.2618 89.778 24.2618H91.253C91.4875 24.2618 91.6855 24.0867 91.7225 23.8481L92.6075 18.0738C92.6355 17.8961 92.502 17.7348 92.327 17.7348ZM90.0445 21.0184C89.8865 21.9823 89.144 22.6293 88.197 22.6293C87.7215 22.6293 87.3415 22.4722 87.0975 22.1744C86.8555 21.8787 86.7635 21.4578 86.8405 20.9891C86.988 20.0334 87.743 19.3653 88.6755 19.3653C89.1405 19.3653 89.5185 19.5245 89.7675 19.8248C90.017 20.1282 90.116 20.5517 90.0445 21.0184Z" fill="#253B80"/>
<path d="M101.048 17.7363H99.4023C99.2453 17.7363 99.0978 17.8167 99.0088 17.9511L96.7393 21.3954L95.7773 18.0856C95.7168 17.8785 95.5313 17.7363 95.3213 17.7363H93.7043C93.5078 17.7363 93.3713 17.9341 93.4338 18.1248L95.2463 23.6049L93.5423 26.0833C93.4083 26.2786 93.5433 26.547 93.7748 26.547H95.4183C95.5743 26.547 95.7203 26.4687 95.8088 26.3368L101.282 18.1974C101.413 18.0027 101.278 17.7363 101.048 17.7363Z" fill="#253B80"/>
<path d="M106.496 14.4766H103.076C102.842 14.4766 102.643 14.6517 102.607 14.8897L101.224 23.9239C101.196 24.1022 101.33 24.2629 101.505 24.2629H103.26C103.423 24.2629 103.562 24.1403 103.588 23.9734L103.98 21.4126C104.016 21.174 104.216 20.9989 104.449 20.9989H105.531C107.784 20.9989 109.084 19.8759 109.424 17.6504C109.577 16.6768 109.43 15.9118 108.987 15.376C108.502 14.7877 107.64 14.4766 106.496 14.4766ZM106.89 17.7761C106.704 19.0403 105.766 19.0403 104.859 19.0403H104.344L104.706 16.6793C104.728 16.5367 104.847 16.4316 104.987 16.4316H105.224C105.841 16.4316 106.424 16.4316 106.725 16.7942C106.904 17.0106 106.959 17.332 106.89 17.7761Z" fill="#179BD7"/>
<path d="M116.717 17.7348H115.08C114.94 17.7348 114.82 17.8399 114.799 17.9826L114.727 18.4545L114.612 18.2835C114.257 17.7534 113.467 17.5762 112.678 17.5762C110.869 17.5762 109.324 18.9882 109.023 20.969C108.867 21.957 109.088 22.9018 109.632 23.5607C110.132 24.1665 110.845 24.4189 111.695 24.4189C113.153 24.4189 113.961 23.453 113.961 23.453L113.888 23.9218C113.861 24.1011 113.995 24.2618 114.17 24.2618H115.645C115.878 24.2618 116.077 24.0867 116.114 23.8481L116.999 18.0738C117.026 17.8961 116.892 17.7348 116.717 17.7348ZM114.434 21.0184C114.277 21.9823 113.534 22.6293 112.587 22.6293C112.112 22.6293 111.731 22.4722 111.487 22.1744C111.245 21.8787 111.154 21.4578 111.23 20.9891C111.379 20.0334 112.133 19.3653 113.065 19.3653C113.53 19.3653 113.908 19.5245 114.157 19.8248C114.408 20.1282 114.507 20.5517 114.434 21.0184Z" fill="#179BD7"/>
<path d="M118.647 14.7249L117.244 23.9244C117.216 24.1027 117.35 24.2634 117.525 24.2634H118.936C119.17 24.2634 119.369 24.0883 119.405 23.8497L120.789 14.816C120.817 14.6378 120.683 14.4766 120.508 14.4766H118.928C118.789 14.4771 118.669 14.5822 118.647 14.7249Z" fill="#179BD7"/>
<path d="M62.6328 26.0186L62.8943 24.3072L62.3118 24.2933H59.5303L61.4633 11.6654C61.4693 11.6273 61.4888 11.5917 61.5173 11.5665C61.5458 11.5413 61.5823 11.5273 61.6203 11.5273H66.3103C67.8673 11.5273 68.9418 11.8612 69.5028 12.52C69.7658 12.8291 69.9333 13.1521 70.0143 13.5076C70.0993 13.8806 70.1008 14.3262 70.0178 14.8696L70.0118 14.9093V15.2576L70.2748 15.4111C70.4963 15.5321 70.6723 15.6707 70.8073 15.8294C71.0323 16.0936 71.1778 16.4295 71.2393 16.8277C71.3028 17.2373 71.2818 17.7246 71.1778 18.2763C71.0578 18.911 70.8638 19.4638 70.6018 19.9161C70.3608 20.3328 70.0538 20.6785 69.6893 20.9464C69.3413 21.2009 68.9278 21.394 68.4603 21.5177C68.0073 21.6393 67.4908 21.7006 66.9243 21.7006H66.5593C66.2983 21.7006 66.0448 21.7974 65.8458 21.971C65.6463 22.1482 65.5143 22.3903 65.4738 22.6551L65.4463 22.8092L64.9843 25.8254L64.9633 25.9361C64.9578 25.9712 64.9483 25.9887 64.9343 26.0005C64.9218 26.0113 64.9038 26.0186 64.8863 26.0186H62.6328Z" fill="#253B80"/>
<path d="M70.5241 14.9492C70.5101 15.0414 70.4941 15.1357 70.4761 15.2326C69.8576 18.5043 67.7416 19.6345 65.0391 19.6345H63.6631C63.3326 19.6345 63.0541 19.8818 63.0026 20.2177L62.2981 24.8211L62.0986 26.1259C62.0651 26.3464 62.2301 26.5453 62.4461 26.5453H64.8866C65.1756 26.5453 65.4211 26.3289 65.4666 26.0353L65.4906 25.9075L65.9501 22.9032L65.9796 22.7383C66.0246 22.4436 66.2706 22.2273 66.5596 22.2273H66.9246C69.2891 22.2273 71.1401 21.2382 71.6811 18.376C71.9071 17.1803 71.7901 16.182 71.1921 15.4798C71.0111 15.2681 70.7866 15.0924 70.5241 14.9492Z" fill="#179BD7"/>
<path d="M69.8769 14.6838C69.7824 14.6555 69.6849 14.6297 69.5849 14.6065C69.4844 14.5839 69.3814 14.5638 69.2754 14.5463C68.9044 14.4844 68.4979 14.4551 68.0624 14.4551H64.3864C64.2959 14.4551 64.2099 14.4762 64.1329 14.5143C63.9634 14.5983 63.8374 14.7637 63.8069 14.9661L63.0249 20.0692L63.0024 20.2181C63.0539 19.8822 63.3324 19.6349 63.6629 19.6349H65.0389C67.7414 19.6349 69.8574 18.5042 70.4759 15.233C70.4944 15.1361 70.5099 15.0418 70.5239 14.9496C70.3674 14.8641 70.1979 14.791 70.0154 14.7286C69.9704 14.7132 69.9239 14.6982 69.8769 14.6838Z" fill="#222D65"/>
<path d="M63.807 14.9662C63.8375 14.7637 63.9635 14.5983 64.133 14.5149C64.2105 14.4768 64.296 14.4556 64.3865 14.4556H68.0625C68.498 14.4556 68.9045 14.485 69.2755 14.5468C69.3815 14.5643 69.4845 14.5844 69.585 14.6071C69.685 14.6303 69.7825 14.656 69.877 14.6844C69.924 14.6988 69.9705 14.7137 70.016 14.7287C70.1985 14.791 70.368 14.8647 70.5245 14.9497C70.7085 13.7406 70.523 12.9174 69.8885 12.172C69.189 11.3513 67.9265 11 66.311 11H61.621C61.291 11 61.0095 11.2473 60.9585 11.5837L59.005 24.3414C58.9665 24.5938 59.1555 24.8215 59.4025 24.8215H62.298L63.025 20.0692L63.807 14.9662Z" fill="#253B80"/>
</svg>
