<svg width="180" height="38" viewBox="0 0 180 38" fill="none" xmlns="http://www.w3.org/2000/svg">
<path d="M4 0H176C178.2 0 180 1.8 180 4V34C180 36.2 178.2 38 176 38H4C1.8 38 0 36.2 0 34V4C0 1.8 1.8 0 4 0Z" fill="#635BFF"/>
<path d="M26.3999 18.6C26.3999 16.3 27.6999 14.7 29.3999 14.7C30.6999 14.7 31.5999 15.5 31.8999 16.7L33.6999 16.1C33.0999 14.2 31.5999 13 29.3999 13C26.4999 13 24.3999 15.3 24.3999 18.6C24.3999 21.9 26.4999 24.2 29.3999 24.2C31.5999 24.2 33.0999 23 33.6999 21.1L31.8999 20.5C31.5999 21.8 30.6999 22.5 29.3999 22.5C27.5999 22.5 26.3999 20.9 26.3999 18.6ZM41.9999 20.1C41.9999 17.7 40.3999 16 38.1999 16C35.9999 16 34.3999 17.6 34.3999 20.1C34.3999 22.6 35.9999 24.2 38.1999 24.2C40.4999 24.2 41.9999 22.5 41.9999 20.1ZM36.2999 20.1C36.2999 18.5 37.0999 17.5 38.2999 17.5C39.4999 17.5 40.2999 18.5 40.2999 20.1C40.2999 21.7 39.4999 22.7 38.2999 22.7C37.0999 22.7 36.2999 21.7 36.2999 20.1ZM43.3999 24H45.1999V19.4C45.1999 18.3 45.9999 17.7 46.7999 17.7C47.7999 17.7 48.1999 18.4 48.1999 19.4V24H49.9999V18.8C49.9999 17.1 48.9999 16 47.3999 16C46.3999 16 45.6999 16.5 45.1999 17V16.2H43.3999V24ZM51.8999 24H53.6999V19.4C53.6999 18.3 54.4999 17.7 55.2999 17.7C56.2999 17.7 56.6999 18.4 56.6999 19.4V24H58.4999V18.8C58.4999 17.1 57.4999 16 55.8999 16C54.8999 16 54.1999 16.5 53.6999 17V16.2H51.8999V24V24ZM63.6999 24.2C65.2999 24.2 66.4999 23.4 67.0999 22L65.5999 21.4C65.3999 22.2 64.6999 22.7 63.7999 22.7C62.5999 22.7 61.7999 21.9 61.6999 20.5H67.1999V19.9C67.1999 17.7 65.9999 16 63.6999 16C61.4999 16 59.8999 17.8 59.8999 20.1C59.8999 22.5 61.3999 24.2 63.6999 24.2ZM63.5999 17.5C64.6999 17.5 65.2999 18.3 65.2999 19.1H61.6999C61.8999 18 62.6999 17.5 63.5999 17.5ZM69.7999 20.1C69.7999 18.5 70.5999 17.6 71.8999 17.6C72.8999 17.6 73.3999 18.2 73.6999 19.1L75.1999 18.3C74.7999 17 73.5999 16.1 71.8999 16.1C69.6999 16.1 67.9999 17.8 67.9999 20.2C67.9999 22.6 69.5999 24.3 71.8999 24.3C73.5999 24.3 74.7999 23.3 75.1999 22L73.6999 21.2C73.4999 22.1 72.8999 22.7 71.8999 22.7C70.5999 22.6 69.7999 21.7 69.7999 20.1ZM76.3999 22C76.3999 23.6 77.1999 24.1 78.6999 24.1C79.1999 24.1 79.5999 24.1 79.8999 24V22.5C79.5999 22.5 79.4999 22.5 79.1999 22.5C78.5999 22.5 78.0999 22.4 78.0999 21.7V17.6H79.7999V16.1H78.0999V13.8H76.2999V16.1H75.1999V17.6H76.2999L76.3999 22ZM88.0999 16.1L86.6999 21.3L85.2999 16.1H83.4999L85.8999 24H87.4999L88.8999 18.8L90.2999 24H91.8999L94.2999 16.1H92.4999L90.9999 21.3L89.5999 16.1H88.0999ZM95.1999 15.1H96.9999V13.3H95.0999L95.1999 15.1ZM96.9999 16.1H95.1999V24H96.9999V16.1ZM98.9999 22C98.9999 23.6 99.7999 24.1 101.3 24.1C101.8 24.1 102.2 24.1 102.5 24V22.5C102.2 22.5 102.1 22.5 101.8 22.5C101.2 22.5 100.7 22.4 100.7 21.7V17.6H102.4V16.1H100.7V13.8H98.9999V16.1H97.8999V17.6H98.9999V22ZM103.9 24H105.7V19.4C105.7 18.3 106.5 17.7 107.3 17.7C108.3 17.7 108.7 18.4 108.7 19.4V24H110.5V18.8C110.5 17.1 109.5 16 107.9 16C106.9 16 106.2 16.5 105.7 17V13.3H103.9V24Z" fill="white"/>
<path d="M141.5 26.4004V23.4004C141.9 23.7004 142.4 24.1004 143.4 24.1004C145.3 24.1004 147 22.6004 147 19.2004C147 16.1004 145.3 14.4004 143.4 14.4004C142.4 14.4004 141.7 14.9004 141.3 15.3004L141.2 14.7004H138.9V27.0004L141.5 26.4004ZM142.7 16.7004C143.7 16.7004 144.3 17.8004 144.3 19.2004C144.3 20.7004 143.7 21.7004 142.7 21.7004C142.1 21.7004 141.7 21.5004 141.4 21.2004V17.2004C141.8 17.0004 142.1 16.7004 142.7 16.7004Z" fill="white"/>
<path d="M152.1 24.2008C153.4 24.2008 154.3 23.9008 155.1 23.5008V21.3008C154.4 21.7008 153.6 21.9008 152.5 21.9008C151.4 21.9008 150.6 21.5008 150.4 20.2008H155.6C155.6 20.0008 155.6 19.5008 155.6 19.2008C155.6 16.4008 154.3 14.3008 151.8 14.3008C149.3 14.3008 147.7 16.5008 147.7 19.2008C147.7 22.5008 149.5 24.2008 152.1 24.2008ZM151.8 16.5008C152.4 16.5008 153.1 17.0008 153.1 18.2008H150.3C150.4 17.1008 151.1 16.5008 151.8 16.5008Z" fill="white"/>
<path d="M132 17.5004C132.6 16.6004 133.7 16.8004 134 16.9004V14.4004C133.6 14.3004 132.4 14.0004 131.9 15.2004L131.7 14.4004H129.4V23.8004H132V17.5004Z" fill="white"/>
<path d="M120 21.2008C120 21.7008 119.6 21.8008 119 21.8008C118.1 21.8008 117 21.4008 116.1 20.9008V23.5008C117.1 23.9008 118.1 24.1008 119 24.1008C121.2 24.1008 122.7 23.0008 122.7 21.1008C122.7 17.9008 118.7 18.5008 118.7 17.3008C118.7 16.9008 119 16.7008 119.6 16.7008C120.4 16.7008 121.4 16.9008 122.2 17.4008V14.8008C121.3 14.4008 120.5 14.3008 119.6 14.3008C117.5 14.3008 116 15.4008 116 17.3008C116 20.4008 120 19.9008 120 21.2008Z" fill="white"/>
<path d="M126.4 24.1992C127.2 24.1992 127.9 23.9992 128.3 23.7992V21.5992C128 21.6992 126.3 22.1992 126.3 20.5992V16.7992H128.3V14.4992H126.3V12.1992L123.7 12.7992V21.3992C123.7 22.9992 124.8 24.1992 126.4 24.1992Z" fill="white"/>
<path d="M134.9 11.6V13.7L137.6 13.2V11L134.9 11.6Z" fill="white"/>
<path d="M137.5 14.5H134.9V23.8H137.5V14.5Z" fill="white"/>
</svg>
