<svg width="328" height="38" viewBox="0 0 328 38" fill="none" xmlns="http://www.w3.org/2000/svg">
<g clip-path="url(#clip0_13443_200342)">
<path d="M7.28889 0H320.711C324.72 0 328 1.8 328 4V34C328 36.2 324.72 38 320.711 38H7.28889C3.28 38 0 36.2 0 34V4C0 1.8 3.28 0 7.28889 0Z" fill="#635BFF"/>
<path d="M100.4 18.6C100.4 16.3 101.7 14.7 103.4 14.7C104.7 14.7 105.6 15.5 105.9 16.7L107.7 16.1C107.1 14.2 105.6 13 103.4 13C100.5 13 98.4 15.3 98.4 18.6C98.4 21.9 100.5 24.2 103.4 24.2C105.6 24.2 107.1 23 107.7 21.1L105.9 20.5C105.6 21.8 104.7 22.5 103.4 22.5C101.6 22.5 100.4 20.9 100.4 18.6ZM116 20.1C116 17.7 114.4 16 112.2 16C110 16 108.4 17.6 108.4 20.1C108.4 22.6 110 24.2 112.2 24.2C114.5 24.2 116 22.5 116 20.1ZM110.3 20.1C110.3 18.5 111.1 17.5 112.3 17.5C113.5 17.5 114.3 18.5 114.3 20.1C114.3 21.7 113.5 22.7 112.3 22.7C111.1 22.7 110.3 21.7 110.3 20.1ZM117.4 24H119.2V19.4C119.2 18.3 120 17.7 120.8 17.7C121.8 17.7 122.2 18.4 122.2 19.4V24H124V18.8C124 17.1 123 16 121.4 16C120.4 16 119.7 16.5 119.2 17V16.2H117.4V24ZM125.9 24H127.7V19.4C127.7 18.3 128.5 17.7 129.3 17.7C130.3 17.7 130.7 18.4 130.7 19.4V24H132.5V18.8C132.5 17.1 131.5 16 129.9 16C128.9 16 128.2 16.5 127.7 17V16.2H125.9V24ZM137.7 24.2C139.3 24.2 140.5 23.4 141.1 22L139.6 21.4C139.4 22.2 138.7 22.7 137.8 22.7C136.6 22.7 135.8 21.9 135.7 20.5H141.2V19.9C141.2 17.7 140 16 137.7 16C135.5 16 133.9 17.8 133.9 20.1C133.9 22.5 135.4 24.2 137.7 24.2ZM137.6 17.5C138.7 17.5 139.3 18.3 139.3 19.1H135.7C135.9 18 136.7 17.5 137.6 17.5ZM143.8 20.1C143.8 18.5 144.6 17.6 145.9 17.6C146.9 17.6 147.4 18.2 147.7 19.1L149.2 18.3C148.8 17 147.6 16.1 145.9 16.1C143.7 16.1 142 17.8 142 20.2C142 22.6 143.6 24.3 145.9 24.3C147.6 24.3 148.8 23.3 149.2 22L147.7 21.2C147.5 22.1 146.9 22.7 145.9 22.7C144.6 22.6 143.8 21.7 143.8 20.1ZM150.4 22C150.4 23.6 151.2 24.1 152.7 24.1C153.2 24.1 153.6 24.1 153.9 24V22.5C153.6 22.5 153.5 22.5 153.2 22.5C152.6 22.5 152.1 22.4 152.1 21.7V17.6H153.8V16.1H152.1V13.8H150.3V16.1H149.2V17.6H150.3L150.4 22ZM162.1 16.1L160.7 21.3L159.3 16.1H157.5L159.9 24H161.5L162.9 18.8L164.3 24H165.9L168.3 16.1H166.5L165 21.3L163.6 16.1H162.1ZM169.2 15.1H171V13.3H169.1L169.2 15.1ZM171 16.1H169.2V24H171V16.1ZM173 22C173 23.6 173.8 24.1 175.3 24.1C175.8 24.1 176.2 24.1 176.5 24V22.5C176.2 22.5 176.1 22.5 175.8 22.5C175.2 22.5 174.7 22.4 174.7 21.7V17.6H176.4V16.1H174.7V13.8H173V16.1H171.9V17.6H173V22ZM177.9 24H179.7V19.4C179.7 18.3 180.5 17.7 181.3 17.7C182.3 17.7 182.7 18.4 182.7 19.4V24H184.5V18.8C184.5 17.1 183.5 16 181.9 16C180.9 16 180.2 16.5 179.7 17V13.3H177.9V24Z" fill="white"/>
<path d="M215.5 26.3999V23.3999C215.9 23.6999 216.4 24.0999 217.4 24.0999C219.3 24.0999 221 22.5999 221 19.1999C221 16.0999 219.3 14.3999 217.4 14.3999C216.4 14.3999 215.7 14.8999 215.3 15.2999L215.2 14.6999H212.9V26.9999L215.5 26.3999ZM216.7 16.6999C217.7 16.6999 218.3 17.7999 218.3 19.1999C218.3 20.6999 217.7 21.6999 216.7 21.6999C216.1 21.6999 215.7 21.4999 215.4 21.1999V17.1999C215.8 16.9999 216.1 16.6999 216.7 16.6999Z" fill="white"/>
<path d="M226.1 24.2C227.4 24.2 228.3 23.9 229.1 23.5V21.3C228.4 21.7 227.6 21.9 226.5 21.9C225.4 21.9 224.6 21.5 224.4 20.2H229.6C229.6 20 229.6 19.5 229.6 19.2C229.6 16.4 228.3 14.3 225.8 14.3C223.3 14.3 221.7 16.5 221.7 19.2C221.7 22.5 223.5 24.2 226.1 24.2ZM225.8 16.5C226.4 16.5 227.1 17 227.1 18.2H224.3C224.4 17.1 225.1 16.5 225.8 16.5Z" fill="white"/>
<path d="M206 17.4999C206.6 16.5999 207.7 16.7999 208 16.8999V14.3999C207.6 14.2999 206.4 13.9999 205.9 15.1999L205.7 14.3999H203.4V23.7999H206V17.4999Z" fill="white"/>
<path d="M194 21.2C194 21.7 193.6 21.8 193 21.8C192.1 21.8 191 21.4 190.1 20.9V23.5C191.1 23.9 192.1 24.1 193 24.1C195.2 24.1 196.7 23 196.7 21.1C196.7 17.9 192.7 18.5 192.7 17.3C192.7 16.9 193 16.7 193.6 16.7C194.4 16.7 195.4 16.9 196.2 17.4V14.8C195.3 14.4 194.5 14.3 193.6 14.3C191.5 14.3 190 15.4 190 17.3C190 20.4 194 19.9 194 21.2Z" fill="white"/>
<path d="M200.4 24.2C201.2 24.2 201.9 24 202.3 23.8V21.6C202 21.7 200.3 22.2 200.3 20.6V16.8H202.3V14.5H200.3V12.2L197.7 12.8V21.4C197.7 23 198.8 24.2 200.4 24.2Z" fill="white"/>
<path d="M208.9 11.6V13.7L211.6 13.2V11L208.9 11.6Z" fill="white"/>
<path d="M211.5 14.5H208.9V23.8H211.5V14.5Z" fill="white"/>
</g>
<defs>
<clipPath id="clip0_13443_200342">
<rect width="328" height="38" fill="white"/>
</clipPath>
</defs>
</svg>
