<svg width="24" height="24" viewBox="0 0 24 24" fill="none" xmlns="http://www.w3.org/2000/svg">
<path fill-rule="evenodd" clip-rule="evenodd" d="M7.87476 8.25L16.1248 8.25C16.4354 8.25 16.6873 8.50184 16.6873 8.8125C16.6873 9.12316 16.4354 9.375 16.1248 9.375L7.87476 9.375C7.5641 9.375 7.31226 9.12316 7.31226 8.8125C7.31226 8.50184 7.5641 8.25 7.87476 8.25Z" fill="#5B34EA"/>
<path fill-rule="evenodd" clip-rule="evenodd" d="M10.875 10.3125C11.1857 10.3125 11.4375 10.5643 11.4375 10.875V13.875C11.4375 14.1857 11.1857 14.4375 10.875 14.4375C10.5643 14.4375 10.3125 14.1857 10.3125 13.875V10.875C10.3125 10.5643 10.5643 10.3125 10.875 10.3125Z" fill="#5B34EA"/>
<path fill-rule="evenodd" clip-rule="evenodd" d="M13.125 10.3125C13.4357 10.3125 13.6875 10.5643 13.6875 10.875V13.875C13.6875 14.1857 13.4357 14.4375 13.125 14.4375C12.8143 14.4375 12.5625 14.1857 12.5625 13.875V10.875C12.5625 10.5643 12.8143 10.3125 13.125 10.3125Z" fill="#5B34EA"/>
<path fill-rule="evenodd" clip-rule="evenodd" d="M8.625 8.25C8.93566 8.25 9.1875 8.50184 9.1875 8.8125V15.5625H14.8125V8.8125C14.8125 8.50184 15.0643 8.25 15.375 8.25C15.6857 8.25 15.9375 8.50184 15.9375 8.8125V15.75C15.9375 15.9986 15.8387 16.2371 15.6629 16.4129C15.4871 16.5887 15.2486 16.6875 15 16.6875H9C8.75136 16.6875 8.5129 16.5887 8.33709 16.4129C8.16127 16.2371 8.0625 15.9986 8.0625 15.75V8.8125C8.0625 8.50184 8.31434 8.25 8.625 8.25Z" fill="#5B34EA"/>
<path fill-rule="evenodd" clip-rule="evenodd" d="M9.94692 6.75942C10.1931 6.51328 10.5269 6.375 10.875 6.375H13.125C13.4731 6.375 13.8069 6.51328 14.0531 6.75942C14.2992 7.00556 14.4375 7.3394 14.4375 7.6875V8.8125C14.4375 9.12316 14.1857 9.375 13.875 9.375C13.5643 9.375 13.3125 9.12316 13.3125 8.8125V7.6875C13.3125 7.63777 13.2927 7.59008 13.2576 7.55492C13.2224 7.51975 13.1747 7.5 13.125 7.5H10.875C10.8253 7.5 10.7776 7.51975 10.7424 7.55492C10.7073 7.59008 10.6875 7.63777 10.6875 7.6875V8.8125C10.6875 9.12316 10.4357 9.375 10.125 9.375C9.81434 9.375 9.5625 9.12316 9.5625 8.8125V7.6875C9.5625 7.3394 9.70078 7.00556 9.94692 6.75942Z" fill="#5B34EA"/>
</svg>
