<svg width="13" height="12" viewBox="0 0 13 12" fill="none" xmlns="http://www.w3.org/2000/svg">
<g clip-path="url(#clip0_15876_2875)">
<path fill-rule="evenodd" clip-rule="evenodd" d="M6.6586 2.39517C7.11832 1.95116 7.73404 1.70548 8.37314 1.71103C9.01225 1.71658 9.6236 1.97293 10.0755 2.42486C10.5275 2.8768 10.7838 3.48815 10.7894 4.12726C10.7949 4.76636 10.5492 5.38208 10.1052 5.8418C10.0999 5.84729 10.0945 5.85267 10.089 5.85794L9.51336 6.40732C9.28863 6.6218 8.93257 6.61349 8.71808 6.38876C8.5036 6.16402 8.51191 5.80797 8.73664 5.59348L9.30325 5.05271C9.53777 4.806 9.66737 4.47769 9.66441 4.13703C9.66142 3.7929 9.52339 3.46371 9.28004 3.22036C9.03669 2.97701 8.7075 2.83898 8.36337 2.83599C8.02271 2.83303 7.6944 2.96263 7.44769 3.19715L6.90692 3.76376C6.69243 3.98849 6.33637 3.9968 6.11164 3.78231C5.88691 3.56783 5.8786 3.21177 6.09308 2.98704L6.64246 2.41141C6.64773 2.40589 6.65311 2.40048 6.6586 2.39517Z" fill="#E04646"/>
<path fill-rule="evenodd" clip-rule="evenodd" d="M4.28183 5.61164C4.49631 5.83637 4.488 6.19243 4.26327 6.40692L3.69666 6.94769C3.46214 7.1944 3.33254 7.52271 3.3355 7.86337C3.33849 8.2075 3.47652 8.53669 3.71987 8.78004C3.96322 9.02339 4.29241 9.16142 4.63654 9.16441C4.9772 9.16737 5.30551 9.03777 5.55222 8.80325L6.09299 8.23664C6.30748 8.01191 6.66354 8.0036 6.88827 8.21808C7.113 8.43257 7.12131 8.78863 6.90683 9.01336L6.35745 9.58899C6.35218 9.59451 6.3468 9.59992 6.34131 9.60523C5.88159 10.0492 5.26587 10.2949 4.62677 10.2894C3.98766 10.2838 3.37631 10.0275 2.92438 9.57553C2.47244 9.1236 2.2161 8.51225 2.21054 7.87314C2.20499 7.23404 2.45067 6.61832 2.89468 6.1586C2.89999 6.15311 2.9054 6.14773 2.91092 6.14246L3.48655 5.59308C3.71128 5.3786 4.06734 5.38691 4.28183 5.61164Z" fill="#E04646"/>
<path fill-rule="evenodd" clip-rule="evenodd" d="M8.5625 7.5C8.5625 7.18934 8.81434 6.9375 9.125 6.9375H10.25C10.5607 6.9375 10.8125 7.18934 10.8125 7.5C10.8125 7.81066 10.5607 8.0625 10.25 8.0625H9.125C8.81434 8.0625 8.5625 7.81066 8.5625 7.5Z" fill="#E04646"/>
<path fill-rule="evenodd" clip-rule="evenodd" d="M2.1875 4.5C2.1875 4.18934 2.43934 3.9375 2.75 3.9375H3.875C4.18566 3.9375 4.4375 4.18934 4.4375 4.5C4.4375 4.81066 4.18566 5.0625 3.875 5.0625H2.75C2.43934 5.0625 2.1875 4.81066 2.1875 4.5Z" fill="#E04646"/>
<path fill-rule="evenodd" clip-rule="evenodd" d="M8 8.0625C8.31066 8.0625 8.5625 8.31434 8.5625 8.625V9.75C8.5625 10.0607 8.31066 10.3125 8 10.3125C7.68934 10.3125 7.4375 10.0607 7.4375 9.75V8.625C7.4375 8.31434 7.68934 8.0625 8 8.0625Z" fill="#E04646"/>
<path fill-rule="evenodd" clip-rule="evenodd" d="M5 1.6875C5.31066 1.6875 5.5625 1.93934 5.5625 2.25V3.375C5.5625 3.68566 5.31066 3.9375 5 3.9375C4.68934 3.9375 4.4375 3.68566 4.4375 3.375V2.25C4.4375 1.93934 4.68934 1.6875 5 1.6875Z" fill="#E04646"/>
</g>
<defs>
<clipPath id="clip0_15876_2875">
<rect width="12" height="12" fill="white" transform="translate(0.5)"/>
</clipPath>
</defs>
</svg>
