<svg width="24" height="24" viewBox="0 0 24 24" fill="none" xmlns="http://www.w3.org/2000/svg">
<path fill-rule="evenodd" clip-rule="evenodd" d="M13.875 8.29544L8.4375 13.7329V15.5624H10.267L15.7045 10.1249L13.875 8.29544ZM10.2121 15.6174C10.2122 15.6173 10.2122 15.6172 10.2123 15.6171L10.2121 15.6174ZM8.38282 13.7876L8.38258 13.7879L8.25 13.6553L8.38258 13.7879C8.38266 13.7878 8.38274 13.7877 8.38282 13.7876ZM13.2121 7.36736C13.3879 7.19155 13.6264 7.09277 13.875 7.09277C14.1236 7.09277 14.3621 7.19155 14.5379 7.36736L16.6326 9.46203L16.2348 9.85978L16.6326 9.46203C16.8084 9.63785 16.9072 9.8763 16.9072 10.1249C16.9072 10.3736 16.8084 10.612 16.6326 10.7879L11.0076 16.4129C10.9205 16.4999 10.8172 16.569 10.7034 16.6161C10.5897 16.6632 10.4678 16.6874 10.3447 16.6874H8.25C8.00136 16.6874 7.7629 16.5887 7.58709 16.4129C7.41127 16.237 7.3125 15.9986 7.3125 15.7499V13.6553C7.3125 13.5322 7.33675 13.4103 7.38386 13.2965C7.43098 13.1828 7.50003 13.0794 7.58709 12.9924L13.2121 7.36736L13.6098 7.76511L13.2121 7.36736Z" fill="#5B34EA"/>
<path fill-rule="evenodd" clip-rule="evenodd" d="M11.9773 8.60225C12.1969 8.38258 12.5531 8.38258 12.7727 8.60225L15.3977 11.2273C15.6174 11.4469 15.6174 11.8031 15.3977 12.0227C15.1781 12.2424 14.8219 12.2424 14.6023 12.0227L11.9773 9.39775C11.7576 9.17808 11.7576 8.82192 11.9773 8.60225Z" fill="#5B34EA"/>
<path fill-rule="evenodd" clip-rule="evenodd" d="M7.66475 12.9148C7.88442 12.6951 8.24058 12.6951 8.46025 12.9148L11.0852 15.5398C11.3049 15.7594 11.3049 16.1156 11.0852 16.3352C10.8656 16.5549 10.5094 16.5549 10.2898 16.3352L7.66475 13.7102C7.44508 13.4906 7.44508 13.1344 7.66475 12.9148Z" fill="#1D1A31"/>
</svg>
