<svg width="16" height="16" viewBox="0 0 16 16" fill="none" xmlns="http://www.w3.org/2000/svg">
<path fill-rule="evenodd" clip-rule="evenodd" d="M8 4.25C8.41421 4.25 8.75 4.58579 8.75 5V8.5C8.75 8.91421 8.41421 9.25 8 9.25C7.58579 9.25 7.25 8.91421 7.25 8.5V5C7.25 4.58579 7.58579 4.25 8 4.25Z" fill="#561010"/>
<path fill-rule="evenodd" clip-rule="evenodd" d="M5.24347 1.34515C5.39513 1.28233 5.55767 1.25 5.72183 1.25H10.2782C10.4423 1.25 10.6049 1.28233 10.7565 1.34515C10.9082 1.40797 11.046 1.50005 11.1621 1.61612L14.3839 4.83794C14.5 4.95401 14.592 5.09181 14.6548 5.24347C14.7177 5.39513 14.75 5.55767 14.75 5.72183V10.2782C14.75 10.4423 14.7177 10.6049 14.6548 10.7565C14.592 10.9082 14.5 11.046 14.3839 11.1621L11.1621 14.3839C11.046 14.5 10.9082 14.592 10.7565 14.6548C10.6049 14.7177 10.4423 14.75 10.2782 14.75H5.72183C5.55767 14.75 5.39513 14.7177 5.24347 14.6548C5.09181 14.592 4.95401 14.5 4.83794 14.3839L1.61612 11.1621L2.14645 10.6317L1.61612 11.1621C1.50005 11.046 1.40797 10.9082 1.34515 10.7565C1.28233 10.6049 1.25 10.4423 1.25 10.2782V5.72183C1.25 5.55767 1.28233 5.39513 1.34515 5.24347C1.40797 5.09181 1.50004 4.95401 1.61612 4.83794L4.83794 1.61612C4.95401 1.50004 5.09181 1.40797 5.24347 1.34515ZM5.82538 2.75L2.75 5.82538V10.1746L5.82538 13.25H10.1746L13.25 10.1746V5.82538L10.1746 2.75H5.82538ZM10.1017 2.6771L10.1014 2.67678L10.2782 2.5L10.1014 2.67678C10.1015 2.67689 10.1016 2.67699 10.1017 2.6771ZM13.3232 10.1014L13.3228 10.1018L13.3232 10.1014ZM10.1014 13.3232C10.1015 13.3231 10.1017 13.3229 10.1018 13.3228L10.1014 13.3232ZM2.6771 10.1017C2.67699 10.1016 2.67689 10.1015 2.67678 10.1014L2.5 10.2782L2.67678 10.1014L2.6771 10.1017Z" fill="#561010"/>
<path d="M8 11.5C8.41421 11.5 8.75 11.1642 8.75 10.75C8.75 10.3358 8.41421 10 8 10C7.58579 10 7.25 10.3358 7.25 10.75C7.25 11.1642 7.58579 11.5 8 11.5Z" fill="#561010"/>
</svg>
