<svg width="14" height="13" viewBox="0 0 14 13" fill="none" xmlns="http://www.w3.org/2000/svg">
<path fill-rule="evenodd" clip-rule="evenodd" d="M1.63037 0.25H12.3698C12.612 0.25 12.8489 0.320341 13.0519 0.452476C13.2548 0.58461 13.415 0.772847 13.513 0.994308C13.6109 1.21577 13.6425 1.46092 13.6037 1.69996C13.565 1.93901 13.4576 2.16165 13.2947 2.34084L9.2501 6.78996V10.2324C9.2501 10.4382 9.19929 10.6408 9.10219 10.8222C9.00509 11.0037 8.8647 11.1583 8.69347 11.2725L6.69347 12.6058C6.50522 12.7313 6.28644 12.8034 6.06045 12.8143C5.83446 12.8252 5.60975 12.7746 5.41027 12.6678C5.2108 12.5611 5.04403 12.4022 4.92777 12.2081C4.8115 12.014 4.7501 11.792 4.7501 11.5657V6.78996L0.705447 2.34084L1.2604 1.83634L0.705446 2.34084C0.54255 2.16165 0.435209 1.93901 0.39647 1.69996C0.35773 1.46092 0.389261 1.21577 0.487229 0.994308C0.585197 0.772846 0.745384 0.58461 0.948322 0.452476C1.15126 0.320342 1.38821 0.25 1.63037 0.25ZM2.19551 1.75L5.92502 5.85246C6.13419 6.08255 6.2501 6.38235 6.2501 6.6933V11.0986L7.7501 10.0986V6.6933C7.7501 6.38235 7.866 6.08255 8.07517 5.85246L11.8047 1.75H2.19551Z" fill="#7C5DEE"/>
</svg>
