<svg width="16" height="16" viewBox="0 0 16 16" fill="none" xmlns="http://www.w3.org/2000/svg">
<path d="M15.83 8.18002C15.83 7.65335 15.7833 7.15335 15.7033 6.66669H8.16998V9.67336H12.4833C12.29 10.66 11.7233 11.4934 10.8833 12.06V14.06H13.4566C14.9633 12.6667 15.83 10.6134 15.83 8.18002Z" fill="#4285F4"/>
<path d="M8.16997 16C10.33 16 12.1366 15.28 13.4566 14.06L10.8833 12.06C10.1633 12.54 9.24997 12.8333 8.16997 12.8333C6.0833 12.8333 4.31664 11.4267 3.6833 9.52667H1.02997V11.5867C2.3433 14.2 5.0433 16 8.16997 16Z" fill="#34A853"/>
<path d="M3.68332 9.52666C3.51665 9.04666 3.42998 8.53333 3.42998 7.99999C3.42998 7.46666 3.52332 6.95333 3.68332 6.47333V4.41333H1.02998C0.483316 5.49333 0.169983 6.70666 0.169983 7.99999C0.169983 9.29333 0.483316 10.5067 1.02998 11.5867L3.68332 9.52666Z" fill="#FBBC05"/>
<path d="M8.16997 3.16667C9.34997 3.16667 10.4033 3.57334 11.2366 4.36667L13.5166 2.08667C12.1366 0.793334 10.33 0 8.16997 0C5.0433 0 2.3433 1.8 1.02997 4.41334L3.6833 6.47334C4.31664 4.57334 6.0833 3.16667 8.16997 3.16667Z" fill="#EA4335"/>
</svg>
