<svg width="64" height="64" viewBox="0 0 64 64" fill="none" xmlns="http://www.w3.org/2000/svg">
<path fill-rule="evenodd" clip-rule="evenodd" d="M45.1701 23.9286C46.3141 25.1271 46.2699 27.0261 45.0714 28.1701L30.4047 42.1701C29.2454 43.2767 27.4211 43.2766 26.2618 42.1701L18.9286 35.1701C17.7301 34.026 17.6859 32.1271 18.83 30.9286C19.974 29.7301 21.873 29.6859 23.0714 30.83L28.3333 35.8527L40.9286 23.8299C42.1271 22.6859 44.0261 22.7301 45.1701 23.9286Z" fill="#0DA163"/>
<path fill-rule="evenodd" clip-rule="evenodd" d="M32 11C20.402 11 11 20.402 11 32C11 43.598 20.402 53 32 53C43.598 53 53 43.598 53 32C53 20.402 43.598 11 32 11ZM5 32C5 17.0883 17.0883 5 32 5C46.9117 5 59 17.0883 59 32C59 46.9117 46.9117 59 32 59C17.0883 59 5 46.9117 5 32Z" fill="#0DA163"/>
</svg>
