<svg width="120" height="120" viewBox="0 0 120 120" fill="none" xmlns="http://www.w3.org/2000/svg">
<g clip-path="url(#clip0_10498_25466)">
<rect width="120" height="120" rx="8" fill="url(#paint0_linear_10498_25466)"/>
<path fill-rule="evenodd" clip-rule="evenodd" d="M60 34C45.6406 34 34 45.6406 34 60C34 74.3594 45.6406 86 60 86C62.2468 86 64.4248 85.7154 66.5011 85.181C67.3034 84.9745 68.1212 85.4575 68.3277 86.2597C68.5341 87.062 68.0512 87.8798 67.2489 88.0863C64.9304 88.683 62.5011 89 60 89C43.9837 89 31 76.0163 31 60C31 43.9837 43.9837 31 60 31C76.0163 31 89 43.9837 89 60C89 60.8284 88.3284 61.5 87.5 61.5C86.6716 61.5 86 60.8284 86 60C86 45.6406 74.3594 34 60 34Z" fill="#DED6FB"/>
<path fill-rule="evenodd" clip-rule="evenodd" d="M73.4357 46.5643C74.0214 47.1501 74.0214 48.0999 73.4357 48.6857L61.0607 61.0607C60.4749 61.6464 59.5251 61.6464 58.9393 61.0607C58.3536 60.4749 58.3536 59.5251 58.9393 58.9393L71.3143 46.5643C71.9001 45.9786 72.8499 45.9786 73.4357 46.5643Z" fill="#DED6FB"/>
<path fill-rule="evenodd" clip-rule="evenodd" d="M51 22.5C51 21.6716 51.6716 21 52.5 21H67.5C68.3284 21 69 21.6716 69 22.5C69 23.3284 68.3284 24 67.5 24H52.5C51.6716 24 51 23.3284 51 22.5Z" fill="#DED6FB"/>
<path fill-rule="evenodd" clip-rule="evenodd" d="M73.6071 70.6933C73.8348 70.1236 74.3865 69.75 75 69.75H90.625C91.4534 69.75 92.125 70.4216 92.125 71.25V75.462C92.125 76.2904 91.4534 76.962 90.625 76.962C89.7966 76.962 89.125 76.2904 89.125 75.462V72.75H78.7528L86.6589 80.272C86.9647 80.5629 87.1338 80.9692 87.1246 81.3912C87.1155 81.8131 86.929 82.2118 86.6109 82.4892L79.0021 89.125H89.125V86.413C89.125 85.5846 89.7966 84.913 90.625 84.913C91.4534 84.913 92.125 85.5846 92.125 86.413V90.625C92.125 91.4534 91.4534 92.125 90.625 92.125H75C74.3746 92.125 73.8149 91.737 73.5954 91.1514C73.3759 90.5659 73.5428 89.9056 74.0141 89.4945L83.3981 81.3105L73.9661 72.3367C73.5216 71.9139 73.3794 71.2629 73.6071 70.6933Z" fill="#DED6FB"/>
</g>
<defs>
<linearGradient id="paint0_linear_10498_25466" x1="60" y1="0" x2="60" y2="120" gradientUnits="userSpaceOnUse">
<stop stop-color="#8062EF"/>
<stop offset="1" stop-color="#3111A6"/>
</linearGradient>
<clipPath id="clip0_10498_25466">
<rect width="120" height="120" fill="white"/>
</clipPath>
</defs>
</svg>
