<svg width="16" height="16" viewBox="0 0 16 16" fill="none" xmlns="http://www.w3.org/2000/svg">
<g clip-path="url(#clip0_8136_13935)">
<path fill-rule="evenodd" clip-rule="evenodd" d="M8.41603 1.37596C8.1641 1.20801 7.8359 1.20801 7.58397 1.37596L1.59722 5.36713C1.53788 5.40488 1.48313 5.4515 1.43509 5.50665C1.40351 5.54282 1.37557 5.58183 1.35158 5.62311C1.28315 5.74053 1.25004 5.87035 1.25 5.99912C1.25 5.99941 1.25 5.99971 1.25 6V12.5C1.25 12.8315 1.3817 13.1495 1.61612 13.3839C1.85054 13.6183 2.16926 13.75 2.50078 13.75H9C9.41421 13.75 9.75 13.4142 9.75 13C9.75 12.5858 9.41421 12.25 9 12.25H2.75V7.45627L6.47075 10.1106C6.59788 10.2013 6.75015 10.25 6.90631 10.25H9.09381C9.24997 10.25 9.40224 10.2013 9.52937 10.1106L13.25 7.45635V9C13.25 9.41421 13.5858 9.75 14 9.75C14.4142 9.75 14.75 9.41421 14.75 9V6.01261C14.7527 5.85758 14.7076 5.70035 14.6106 5.56444C14.5523 5.48267 14.4806 5.41612 14.4006 5.36565L8.41603 1.37596ZM12.6793 6.02092L8 2.90139L3.32077 6.02088L7.14641 8.75H8.85371L12.6793 6.02092Z" fill="#CDD6DF"/>
<path fill-rule="evenodd" clip-rule="evenodd" d="M15.5303 10.4697C15.8232 10.7626 15.8232 11.2374 15.5303 11.5303L11.5303 15.5303C11.2374 15.8232 10.7626 15.8232 10.4697 15.5303C10.1768 15.2374 10.1768 14.7626 10.4697 14.4697L14.4697 10.4697C14.7626 10.1768 15.2374 10.1768 15.5303 10.4697Z" fill="#CDD6DF"/>
<path fill-rule="evenodd" clip-rule="evenodd" d="M10.4697 10.4697C10.7626 10.1768 11.2374 10.1768 11.5303 10.4697L15.5303 14.4697C15.8232 14.7626 15.8232 15.2374 15.5303 15.5303C15.2374 15.8232 14.7626 15.8232 14.4697 15.5303L10.4697 11.5303C10.1768 11.2374 10.1768 10.7626 10.4697 10.4697Z" fill="#CDD6DF"/>
</g>
<defs>
<clipPath id="clip0_8136_13935">
<rect width="16" height="16" fill="white"/>
</clipPath>
</defs>
</svg>
