<svg width="16" height="16" viewBox="0 0 16 16" fill="none" xmlns="http://www.w3.org/2000/svg">
<g clip-path="url(#clip0_8136_13701)">
<path fill-rule="evenodd" clip-rule="evenodd" d="M7.58397 1.37596C7.8359 1.20801 8.1641 1.20801 8.41603 1.37596L14.4006 5.36565C14.4806 5.41612 14.5523 5.48267 14.6106 5.56444C14.7076 5.70035 14.7527 5.85758 14.75 6.01261V9C14.75 9.41421 14.4142 9.75 14 9.75C13.5858 9.75 13.25 9.41421 13.25 9V7.45635L9.52937 10.1106C9.40224 10.2013 9.24997 10.25 9.09381 10.25H6.90631C6.75015 10.25 6.59788 10.2013 6.47075 10.1106L2.75 7.45627V12.25H7C7.41421 12.25 7.75 12.5858 7.75 13C7.75 13.4142 7.41421 13.75 7 13.75H2.50078C2.16926 13.75 1.85054 13.6183 1.61612 13.3839C1.3817 13.1495 1.25 12.8315 1.25 12.5V6V5.99912C1.25004 5.87035 1.28315 5.74053 1.35158 5.62311C1.37557 5.58183 1.40351 5.54282 1.43509 5.50665C1.48313 5.4515 1.53788 5.40488 1.59722 5.36713L7.58397 1.37596ZM8 2.90139L12.6793 6.02092L8.85371 8.75H7.14641L3.32077 6.02088L8 2.90139ZM15.7679 11.7925C16.0675 11.5065 16.0785 11.0318 15.7925 10.7321C15.5065 10.4325 15.0318 10.4215 14.7321 10.7075L11.5833 13.7132L10.2679 12.4575C9.96824 12.1715 9.49349 12.1825 9.20749 12.4821C8.92148 12.7818 8.93252 13.2565 9.23214 13.5425L11.0655 15.2925C11.3553 15.5692 11.8113 15.5692 12.1012 15.2925L15.7679 11.7925Z" fill="#CDD6DF"/>
</g>
<defs>
<clipPath id="clip0_8136_13701">
<rect width="16" height="16" fill="white"/>
</clipPath>
</defs>
</svg>
