<svg width="120" height="120" viewBox="0 0 120 120" fill="none" xmlns="http://www.w3.org/2000/svg">
<g clip-path="url(#clip0_10498_25426)">
<rect width="120" height="120" rx="8" fill="url(#paint0_linear_10498_25426)"/>
<path fill-rule="evenodd" clip-rule="evenodd" d="M74.997 31.0001C76.18 30.9955 77.3522 31.2251 78.4461 31.6755C79.5411 32.1264 80.5359 32.7896 81.3732 33.6269C82.2105 34.4642 82.8737 35.459 83.3245 36.5539C83.775 37.648 84.0046 38.8204 84 40.0035V61.5001C84 62.3285 83.3284 63.0001 82.5 63.0001C81.6716 63.0001 81 62.3285 81 61.5001V40.0001L81 39.9938C81.0033 39.2057 80.8505 38.4249 80.5505 37.6962C80.2505 36.9675 79.8091 36.3054 79.2519 35.7482C78.6946 35.191 78.0326 34.7496 77.3039 34.4496C76.5752 34.1495 75.7943 33.9967 75.0063 34.0001L75 34.0001H32.5C31.6716 34.0001 31 33.3285 31 32.5001C31 31.6716 31.6716 31.0001 32.5 31.0001H74.997Z" fill="#DED6FB"/>
<path fill-rule="evenodd" clip-rule="evenodd" d="M33.2122 34.0465C32.2468 33.9311 31.2679 34.052 30.3596 34.3988C29.4513 34.7457 28.6409 35.3081 27.9981 36.0376C27.3554 36.7671 26.8995 37.6418 26.6698 38.5866C26.4402 39.5313 26.4435 40.5177 26.6795 41.4609C26.9156 42.404 27.3773 43.2757 28.025 44.0009C28.5768 44.6187 28.5233 45.567 27.9054 46.1188C27.2876 46.6707 26.3393 46.6171 25.7875 45.9993C24.816 44.9115 24.1234 43.604 23.7693 42.1893C23.4152 40.7745 23.4102 39.2949 23.7548 37.8778C24.0993 36.4607 24.7831 35.1485 25.7472 34.0543C26.7113 32.9601 27.9269 32.1165 29.2894 31.5962C30.6518 31.076 32.1203 30.8946 33.5683 31.0677C35.0164 31.2408 36.4008 31.7633 37.6022 32.59C38.8036 33.4168 39.786 34.5231 40.465 35.8138C41.144 37.1045 41.4992 38.5409 41.5 39.9993V79.9993C41.5005 80.9715 41.7373 81.9291 42.19 82.7896C42.6426 83.65 43.2976 84.3876 44.0986 84.9388C44.8995 85.4899 45.8224 85.8382 46.7878 85.9536C47.7531 86.069 48.7321 85.9481 49.6404 85.6013C50.5487 85.2544 51.3591 84.6921 52.0019 83.9626C52.6446 83.2331 53.1004 82.3583 53.3301 81.4136C53.5598 80.4688 53.5565 79.4824 53.3205 78.5392C53.0844 77.5961 52.6227 76.7244 51.975 75.9993C51.5811 75.5582 51.4831 74.9269 51.7247 74.3872C51.9663 73.8475 52.5024 73.5001 53.0937 73.5001H66.5937C67.4222 73.5001 68.0937 74.1716 68.0937 75.0001C68.0937 75.8285 67.4222 76.5001 66.5937 76.5001H55.7933C55.9719 76.9238 56.1183 77.3619 56.2307 77.8108C56.5848 79.2256 56.5898 80.7052 56.2452 82.1223C55.9007 83.5394 55.2169 84.8516 54.2528 85.9458C54.2368 85.964 54.2207 85.9821 54.2046 86.0001H65C65.8284 86.0001 66.5 86.6716 66.5 87.5001C66.5 88.3285 65.8284 89.0001 65 89.0001H47.5C47.4592 89.0001 47.4188 88.9984 47.3789 88.9952C47.0631 88.991 46.7469 88.9701 46.4316 88.9324C44.9836 88.7593 43.5992 88.2369 42.3978 87.4101C41.1964 86.5833 40.214 85.477 39.535 84.1863C38.856 82.8956 38.5008 81.4593 38.5 80.0009V40.0009C38.4995 39.0286 38.2627 38.071 37.81 37.2106C37.3574 36.3501 36.7024 35.6126 35.9014 35.0614C35.1005 34.5102 34.1776 34.1619 33.2122 34.0465Z" fill="#DED6FB"/>
<path fill-rule="evenodd" clip-rule="evenodd" d="M62.5 38.5001C63.3284 38.5001 64 39.1716 64 40.0001V65.0001C64 65.8285 63.3284 66.5001 62.5 66.5001C61.6716 66.5001 61 65.8285 61 65.0001V40.0001C61 39.1716 61.6716 38.5001 62.5 38.5001Z" fill="#DED6FB"/>
<path fill-rule="evenodd" clip-rule="evenodd" d="M54.6928 42.8957C55.9281 41.6793 57.5988 41.0001 59.3359 41.0001H63.9062C64.7669 41.0001 65.6197 41.1669 66.416 41.4917C67.2124 41.8165 67.9376 42.2932 68.5494 42.8957C69.1613 43.4982 69.648 44.2147 69.9805 45.005C70.3129 45.7953 70.4844 46.6432 70.4844 47.5001C70.4844 48.3285 69.8128 49.0001 68.9844 49.0001C68.1559 49.0001 67.4844 48.3285 67.4844 47.5001C67.4844 47.0437 67.3931 46.5912 67.2152 46.1683C67.0373 45.7453 66.7758 45.3595 66.4446 45.0334C66.1134 44.7072 65.7189 44.4473 65.2831 44.2696C64.8473 44.0918 64.3793 44.0001 63.9062 44.0001H59.3359C58.3795 44.0001 57.4669 44.3744 56.7976 45.0334C56.129 45.6916 55.7578 46.5794 55.7578 47.5001C55.7578 48.4208 56.129 49.3085 56.7976 49.9667C57.4669 50.6258 58.3795 51.0001 59.3359 51.0001H64.9219C66.6591 51.0001 68.3297 51.6793 69.5651 52.8957C70.8012 54.1128 71.5 55.7686 71.5 57.5001C71.5 59.2315 70.8012 60.8873 69.5651 62.1044C68.3297 63.3208 66.6591 64.0001 64.9219 64.0001H58.8281C57.0909 64.0001 55.4203 63.3208 54.1849 62.1044C52.9488 60.8873 52.25 59.2315 52.25 57.5001C52.25 56.6716 52.9216 56.0001 53.75 56.0001C54.5784 56.0001 55.25 56.6716 55.25 57.5001C55.25 58.4208 55.6212 59.3085 56.2898 59.9667C56.9591 60.6258 57.8717 61.0001 58.8281 61.0001H64.9219C65.8783 61.0001 66.7909 60.6258 67.4602 59.9667C68.1288 59.3085 68.5 58.4208 68.5 57.5001C68.5 56.5794 68.1288 55.6916 67.4602 55.0334C66.7909 54.3744 65.8783 54.0001 64.9219 54.0001H59.3359C57.5988 54.0001 55.9281 53.3208 54.6928 52.1044C53.4566 50.8873 52.7578 49.2315 52.7578 47.5001C52.7578 45.7686 53.4566 44.1128 54.6928 42.8957Z" fill="#DED6FB"/>
<path fill-rule="evenodd" clip-rule="evenodd" d="M84.5 71.5001C78.701 71.5001 74 76.2011 74 82.0001C74 87.7991 78.701 92.5001 84.5 92.5001C90.299 92.5001 95 87.7991 95 82.0001C95 76.2011 90.299 71.5001 84.5 71.5001ZM71 82.0001C71 74.5442 77.0442 68.5001 84.5 68.5001C91.9559 68.5001 98 74.5442 98 82.0001C98 89.4559 91.9559 95.5001 84.5 95.5001C77.0442 95.5001 71 89.4559 71 82.0001Z" fill="#DED6FB"/>
<path fill-rule="evenodd" clip-rule="evenodd" d="M85 74.5001C85.8284 74.5001 86.5 75.1716 86.5 76.0001V83.0001C86.5 83.8285 85.8284 84.5001 85 84.5001C84.1716 84.5001 83.5 83.8285 83.5 83.0001V76.0001C83.5 75.1716 84.1716 74.5001 85 74.5001Z" fill="#DED6FB"/>
<path d="M85 90.7496C86.0355 90.7496 86.875 89.9101 86.875 88.8746C86.875 87.839 86.0355 86.9996 85 86.9996C83.9645 86.9996 83.125 87.839 83.125 88.8746C83.125 89.9101 83.9645 90.7496 85 90.7496Z" fill="#DED6FB"/>
</g>
<defs>
<linearGradient id="paint0_linear_10498_25426" x1="60" y1="0" x2="60" y2="120" gradientUnits="userSpaceOnUse">
<stop stop-color="#8062EF"/>
<stop offset="1" stop-color="#3111A6"/>
</linearGradient>
<clipPath id="clip0_10498_25426">
<rect width="120" height="120" fill="white"/>
</clipPath>
</defs>
</svg>
