<svg width="16" height="16" viewBox="0 0 16 16" fill="none" xmlns="http://www.w3.org/2000/svg">
<path fill-rule="evenodd" clip-rule="evenodd" d="M4.25 6.5C4.25 6.08579 4.58579 5.75 5 5.75H6.6C7.01421 5.75 7.35 6.08579 7.35 6.5C7.35 6.91421 7.01421 7.25 6.6 7.25H5C4.58579 7.25 4.25 6.91421 4.25 6.5Z" fill="#5B34EA"/>
<path fill-rule="evenodd" clip-rule="evenodd" d="M8.94922 6.5C8.94922 6.08579 9.28501 5.75 9.69922 5.75H11.2992C11.7134 5.75 12.0492 6.08579 12.0492 6.5C12.0492 6.91421 11.7134 7.25 11.2992 7.25H9.69922C9.28501 7.25 8.94922 6.91421 8.94922 6.5Z" fill="#5B34EA"/>
<path fill-rule="evenodd" clip-rule="evenodd" d="M4.25 9.5C4.25 9.08579 4.58579 8.75 5 8.75H9C9.41421 8.75 9.75 9.08579 9.75 9.5C9.75 9.91421 9.41421 10.25 9 10.25H5C4.58579 10.25 4.25 9.91421 4.25 9.5Z" fill="#5B34EA"/>
<path fill-rule="evenodd" clip-rule="evenodd" d="M2.75 3.70732C3.0413 3.60436 3.25 3.32655 3.25 3C3.25 2.58579 2.91421 2.25 2.5 2.25C2.16848 2.25 1.85054 2.3817 1.61612 2.61612C1.3817 2.85054 1.25 3.16848 1.25 3.5V13C1.25 13.2599 1.38459 13.5013 1.6057 13.638C1.82681 13.7746 2.10292 13.7871 2.33541 13.6708L4 12.8385L5.66459 13.6708C5.87574 13.7764 6.12426 13.7764 6.33541 13.6708L8 12.8385L9.66459 13.6708C9.86368 13.7704 10.0967 13.7763 10.3006 13.6871L11.9006 12.9871C12.2801 12.8211 12.4531 12.3789 12.2871 11.9994C12.1211 11.6199 11.6789 11.4469 11.2994 11.6129L10.0212 12.1721L8.33541 11.3292C8.12426 11.2236 7.87574 11.2236 7.66459 11.3292L6 12.1615L4.33541 11.3292C4.12426 11.2236 3.87574 11.2236 3.66459 11.3292L2.75 11.7865V3.70732Z" fill="#5B34EA"/>
<path fill-rule="evenodd" clip-rule="evenodd" d="M6.25 3C6.25 2.58579 6.58579 2.25 7 2.25H13.5C13.8315 2.25 14.1495 2.3817 14.3839 2.61612C14.6183 2.85054 14.75 3.16848 14.75 3.5V11C14.75 11.4142 14.4142 11.75 14 11.75C13.5858 11.75 13.25 11.4142 13.25 11V3.75H7C6.58579 3.75 6.25 3.41421 6.25 3Z" fill="#5B34EA"/>
<path fill-rule="evenodd" clip-rule="evenodd" d="M1.9955 1.44505C2.30199 1.16642 2.77633 1.18901 3.05496 1.4955L13.055 12.4955C13.3336 12.802 13.311 13.2763 13.0045 13.555C12.698 13.8336 12.2237 13.811 11.9451 13.5045L1.94505 2.50451C1.66642 2.19802 1.68901 1.72368 1.9955 1.44505Z" fill="#5B34EA"/>
</svg>
