<svg width="16" height="16" viewBox="0 0 16 16" fill="none" xmlns="http://www.w3.org/2000/svg">
<path fill-rule="evenodd" clip-rule="evenodd" d="M10.3447 4.84467C10.6376 4.55178 11.1124 4.55178 11.4053 4.84467L14.0303 7.46967C14.3232 7.76256 14.3232 8.23744 14.0303 8.53033L11.4053 11.1553C11.1124 11.4482 10.6376 11.4482 10.3447 11.1553C10.0518 10.8624 10.0518 10.3876 10.3447 10.0947L12.4393 8L10.3447 5.90533C10.0518 5.61244 10.0518 5.13756 10.3447 4.84467Z" fill="#0033CC"/>
<path fill-rule="evenodd" clip-rule="evenodd" d="M5.75 8C5.75 7.58579 6.08579 7.25 6.5 7.25H13.5C13.9142 7.25 14.25 7.58579 14.25 8C14.25 8.41421 13.9142 8.75 13.5 8.75H6.5C6.08579 8.75 5.75 8.41421 5.75 8Z" fill="#0033CC"/>
<path fill-rule="evenodd" clip-rule="evenodd" d="M3.25 3.25H6.5C6.91421 3.25 7.25 2.91421 7.25 2.5C7.25 2.08579 6.91421 1.75 6.5 1.75H3C2.66848 1.75 2.35054 1.8817 2.11612 2.11612C1.8817 2.35054 1.75 2.66848 1.75 3V13C1.75 13.3315 1.8817 13.6495 2.11612 13.8839C2.35054 14.1183 2.66848 14.25 3 14.25H6.5C6.91421 14.25 7.25 13.9142 7.25 13.5C7.25 13.0858 6.91421 12.75 6.5 12.75H3.25V3.25Z" fill="#0033CC"/>
</svg>
