<svg width="32" height="25" viewBox="0 0 32 25" fill="none" xmlns="http://www.w3.org/2000/svg">
<path d="M5.79871 24.9451V23.286C5.79871 22.6513 5.41441 22.2357 4.75468 22.2357C4.42482 22.2357 4.06613 22.3453 3.81953 22.7061C3.62738 22.4032 3.35196 22.2357 2.93883 22.2357C2.66341 22.2357 2.38799 22.3195 2.17021 22.6223V22.2905H1.59375V24.9451H2.17021V23.4793C2.17021 23.0089 2.41681 22.7866 2.80112 22.7866C3.18542 22.7866 3.37758 23.0347 3.37758 23.4793V24.9451H3.95404V23.4793C3.95404 23.0089 4.22946 22.7866 4.58494 22.7866C4.96925 22.7866 5.1614 23.0347 5.1614 23.4793V24.9451H5.79871ZM14.3496 22.2905H13.4144V21.4883H12.8379V22.2905H12.3159V22.8156H12.8379V24.0334C12.8379 24.6423 13.0845 24.9999 13.7443 24.9999C13.9909 24.9999 14.2663 24.9161 14.4584 24.8066L14.2919 24.3072C14.1254 24.4168 13.9332 24.4458 13.7955 24.4458C13.5201 24.4458 13.4112 24.2782 13.4112 24.0044V22.8156H14.3464V22.2905H14.3496ZM19.2431 22.2325C18.9132 22.2325 18.6922 22.4 18.5545 22.6191V22.2873H17.9781V24.9419H18.5545V23.4471C18.5545 23.0057 18.7467 22.7544 19.1054 22.7544C19.2142 22.7544 19.352 22.7834 19.464 22.8092L19.6306 22.2551C19.5153 22.2325 19.352 22.2325 19.2431 22.2325ZM11.8484 22.5096C11.5729 22.3163 11.1886 22.2325 10.7755 22.2325C10.1158 22.2325 9.67702 22.5643 9.67702 23.0895C9.67702 23.5308 10.0069 23.7821 10.5833 23.8627L10.8588 23.8916C11.1598 23.9464 11.3263 24.0302 11.3263 24.1687C11.3263 24.362 11.1054 24.5005 10.7211 24.5005C10.3367 24.5005 10.0325 24.362 9.84035 24.2235L9.56493 24.6648C9.86597 24.8871 10.2791 24.9967 10.6922 24.9967C11.4608 24.9967 11.9028 24.6359 11.9028 24.1397C11.9028 23.6694 11.5441 23.4213 10.9965 23.3375L10.7211 23.3085C10.4745 23.2795 10.2823 23.2248 10.2823 23.0605C10.2823 22.8672 10.4745 22.7576 10.7787 22.7576C11.1086 22.7576 11.4384 22.8962 11.605 22.9799L11.8484 22.5096ZM27.1854 22.2325C26.8556 22.2325 26.6346 22.4 26.4969 22.6191V22.2873H25.9204V24.9419H26.4969V23.4471C26.4969 23.0057 26.689 22.7544 27.0477 22.7544C27.1566 22.7544 27.2943 22.7834 27.4064 22.8092L27.5729 22.2615C27.4608 22.2325 27.2975 22.2325 27.1854 22.2325ZM19.8195 23.6178C19.8195 24.42 20.3704 24.9999 21.2223 24.9999C21.6066 24.9999 21.882 24.9161 22.1574 24.6971L21.882 24.2267C21.661 24.3942 21.4432 24.4748 21.1934 24.4748C20.7259 24.4748 20.396 24.1429 20.396 23.6178C20.396 23.1185 20.7259 22.7866 21.1934 22.7609C21.44 22.7609 21.661 22.8446 21.882 23.0089L22.1574 22.5386C21.882 22.3163 21.6066 22.2357 21.2223 22.2357C20.3704 22.2325 19.8195 22.8156 19.8195 23.6178ZM25.1518 23.6178V22.2905H24.5753V22.6223C24.3832 22.3743 24.1078 22.2357 23.7491 22.2357C23.0061 22.2357 22.4296 22.8156 22.4296 23.6178C22.4296 24.42 23.0061 24.9999 23.7491 24.9999C24.1334 24.9999 24.4088 24.8614 24.5753 24.6133V24.9451H25.1518V23.6178ZM23.0349 23.6178C23.0349 23.1474 23.3359 22.7609 23.8323 22.7609C24.2999 22.7609 24.6298 23.1217 24.6298 23.6178C24.6298 24.0882 24.2999 24.4748 23.8323 24.4748C23.3391 24.4458 23.0349 24.0849 23.0349 23.6178ZM16.1366 22.2325C15.368 22.2325 14.8171 22.7866 14.8171 23.6146C14.8171 24.4458 15.368 24.9967 16.1654 24.9967C16.5497 24.9967 16.934 24.8871 17.2383 24.6359L16.9628 24.2203C16.7419 24.3878 16.4665 24.4973 16.1942 24.4973C15.8355 24.4973 15.4801 24.3298 15.3968 23.8627H17.3472C17.3472 23.7789 17.3472 23.7241 17.3472 23.6404C17.3728 22.7866 16.8764 22.2325 16.1366 22.2325ZM16.1366 22.7319C16.4953 22.7319 16.7419 22.9542 16.7963 23.3665H15.4224C15.4769 23.0089 15.7235 22.7319 16.1366 22.7319ZM30.4584 23.6178V21.2402H29.882V22.6223C29.6898 22.3743 29.4144 22.2357 29.0557 22.2357C28.3127 22.2357 27.7363 22.8156 27.7363 23.6178C27.7363 24.42 28.3127 24.9999 29.0557 24.9999C29.44 24.9999 29.7155 24.8614 29.882 24.6133V24.9451H30.4584V23.6178ZM28.3416 23.6178C28.3416 23.1474 28.6426 22.7609 29.139 22.7609C29.6066 22.7609 29.9364 23.1217 29.9364 23.6178C29.9364 24.0882 29.6066 24.4748 29.139 24.4748C28.6426 24.4458 28.3416 24.0849 28.3416 23.6178ZM9.04291 23.6178V22.2905H8.46645V22.6223C8.27429 22.3743 7.99888 22.2357 7.64019 22.2357C6.89719 22.2357 6.32073 22.8156 6.32073 23.6178C6.32073 24.42 6.89719 24.9999 7.64019 24.9999C8.0245 24.9999 8.29992 24.8614 8.46645 24.6133V24.9451H9.04291V23.6178ZM6.9004 23.6178C6.9004 23.1474 7.20144 22.7609 7.69783 22.7609C8.16541 22.7609 8.49527 23.1217 8.49527 23.6178C8.49527 24.0882 8.16541 24.4748 7.69783 24.4748C7.20144 24.4458 6.9004 24.0849 6.9004 23.6178Z" fill="black"/>
<path d="M20.316 2.12891H11.6562V17.7797H20.316V2.12891Z" fill="#FF5A00"/>
<path d="M12.2338 9.9549C12.2338 6.77513 13.7198 3.95296 16 2.12951C14.3219 0.802191 12.205 0 9.89592 0C4.42594 0 0 4.45232 0 9.9549C0 15.4575 4.42594 19.9098 9.89592 19.9098C12.205 19.9098 14.3219 19.1076 16 17.7803C13.7166 15.9826 12.2338 13.1347 12.2338 9.9549Z" fill="#EB001B"/>
<path d="M32 9.9549C32 15.4575 27.5741 19.9098 22.1041 19.9098C19.795 19.9098 17.6781 19.1076 16 17.7803C18.309 15.9536 19.7662 13.1347 19.7662 9.9549C19.7662 6.77513 18.2802 3.95296 16 2.12951C17.6749 0.802191 19.7918 0 22.1009 0C27.5741 0 32 4.48131 32 9.9549Z" fill="#F79E1B"/>
</svg>
