<svg width="234" height="326" viewBox="0 0 234 326" fill="none" xmlns="http://www.w3.org/2000/svg">
<g opacity="0.05">
<ellipse cx="156.65" cy="251.4" rx="15.6" ry="15.6" transform="rotate(90 156.65 251.4)" fill="#5B34EA"/>
<circle cx="156.65" cy="152.6" r="15.6" transform="rotate(90 156.65 152.6)" fill="#5B34EA"/>
<path d="M98.15 176C98.15 180.298 99.8882 184.19 102.7 187.012C105.512 189.833 105.512 214.167 102.7 216.988C99.8882 219.81 98.15 223.702 98.15 228C98.15 236.616 105.134 243.6 113.75 243.6C122.366 243.6 129.35 236.616 129.35 228C129.35 223.074 127.066 218.68 123.5 215.822C119.934 212.963 114.737 189.957 123.5 191.83C132.263 193.703 140.18 199.664 141.403 205.314C142.922 212.338 149.172 217.6 156.65 217.6C164.269 217.6 170.612 212.139 171.978 204.918C173.09 199.039 181.075 193.281 189.8 191.61C198.525 189.939 193.366 212.963 189.8 215.822C186.234 218.68 183.95 223.074 183.95 228C183.95 236.616 190.934 243.6 199.55 243.6C208.166 243.6 215.15 236.616 215.15 228C215.15 223.702 213.412 219.81 210.6 216.988C207.788 214.167 207.788 189.833 210.6 187.012C213.412 184.19 215.15 180.298 215.15 176C215.15 167.384 208.166 160.4 199.55 160.4C191.644 160.4 185.112 166.281 184.089 173.907C183.067 181.533 171.537 187.631 161.255 187.091C157.821 186.91 155.082 187.028 151.656 187.216C141.571 187.77 130.111 182.092 129.257 174.284C128.402 166.476 121.786 160.4 113.75 160.4C105.134 160.4 98.15 167.384 98.15 176Z" fill="#5B34EA"/>
</g>
<g opacity="0.1">
<path d="M0.649999 142.5C-7.6895 142.5 -14.45 135.74 -14.45 127.4C-14.45 119.061 -7.6895 112.3 0.650001 112.3C8.9895 112.3 15.75 119.061 15.75 127.4C15.75 135.74 8.9895 142.5 0.649999 142.5Z" fill="#5B34EA" stroke="#5B34EA"/>
<circle cx="0.65" cy="28.6" r="15.1" transform="rotate(90 0.65 28.6)" fill="#5B34EA" stroke="#5B34EA"/>
<path d="M-52.9458 62.6588C-55.6681 59.9272 -57.35 56.1605 -57.35 52C-57.35 43.6605 -50.5895 36.9 -42.25 36.9C-34.4722 36.9 -28.0673 42.7809 -27.2404 50.3383C-26.7876 54.4756 -23.5442 57.9616 -19.246 60.3242C-14.933 62.6948 -9.45394 63.9979 -4.31617 63.7156C-0.894203 63.5276 1.82267 63.4109 5.22833 63.59C10.4696 63.8657 16.016 62.4514 20.3892 59.9975C24.7454 57.5532 28.0432 54.0124 28.5847 49.9736C29.5744 42.5925 35.8978 36.9 43.55 36.9C51.8895 36.9 58.65 43.6605 58.65 52C58.65 56.1605 56.968 59.9272 54.2458 62.6588C53.7957 63.1105 53.4613 63.912 53.1959 64.8593C52.9233 65.8323 52.6998 67.0515 52.5225 68.4251C52.1675 71.1744 51.9911 74.5913 51.9911 78C51.9911 81.4088 52.1675 84.8256 52.5225 87.575C52.6998 88.9486 52.9233 90.1677 53.1959 91.1408C53.4613 92.088 53.7957 92.8896 54.2458 93.3413C56.968 96.0729 58.65 99.8396 58.65 104C58.65 112.34 51.8895 119.1 43.55 119.1C35.2105 119.1 28.45 112.34 28.45 104C28.45 99.2317 30.6596 94.9798 34.1127 92.2117C34.6432 91.7864 35.153 91.0362 35.626 90.1215C36.1064 89.1923 36.5758 88.0397 37.0057 86.7561C37.8655 84.189 38.58 81.0602 38.9064 78.0711C39.2312 75.0974 39.1796 72.1962 38.4545 70.1208C38.09 69.0775 37.5396 68.1977 36.7358 67.6417C35.9192 67.0768 34.9034 66.8892 33.7059 67.1185C29.2715 67.9677 25.0243 69.8547 21.7368 72.2835C18.4611 74.7036 16.0756 77.7102 15.4864 80.8246C14.1641 87.8141 8.02378 93.1 0.649998 93.1C-6.58809 93.1 -12.6378 88.0069 -14.1085 81.2085C-14.7559 78.216 -17.1476 75.2208 -20.4201 72.7563C-23.7056 70.282 -27.9426 68.2929 -32.3955 67.3409C-33.5941 67.0847 -34.6144 67.2448 -35.4377 67.7884C-36.2488 68.324 -36.8032 69.1889 -37.1695 70.2186C-37.8977 72.2659 -37.9476 75.1478 -37.6205 78.106C-37.2916 81.0804 -36.5735 84.2007 -35.7107 86.7629C-35.2793 88.044 -34.8086 89.195 -34.3272 90.1232C-33.8533 91.0369 -33.343 91.7866 -32.8127 92.2117C-29.3596 94.9798 -27.15 99.2317 -27.15 104C-27.15 112.34 -33.9105 119.1 -42.25 119.1C-50.5895 119.1 -57.35 112.34 -57.35 104C-57.35 99.8396 -55.6681 96.0729 -52.9458 93.3413C-52.4957 92.8896 -52.1613 92.088 -51.8959 91.1408C-51.6233 90.1677 -51.3998 88.9486 -51.2225 87.575C-50.8675 84.8256 -50.6911 81.4088 -50.6911 78C-50.6911 74.5913 -50.8675 71.1744 -51.2225 68.4251C-51.3998 67.0515 -51.6233 65.8323 -51.8959 64.8593C-52.1613 63.912 -52.4957 63.1105 -52.9458 62.6588Z" fill="#5B34EA" stroke="#5B34EA"/>
</g>
<g opacity="0.15">
<circle cx="0.65" cy="276.6" r="15.6" transform="rotate(90 0.65 276.6)" fill="#5B34EA"/>
<path d="M-57.85 300C-57.85 304.298 -56.1118 308.19 -53.3 311.012C-50.4882 313.833 -50.4882 338.167 -53.3 340.988C-56.1118 343.81 -57.85 347.702 -57.85 352C-57.85 360.616 -50.8656 367.6 -42.25 367.6C-33.6344 367.6 -26.65 360.616 -26.65 352C-26.65 347.074 -28.9336 342.68 -32.5 339.822C-36.0664 336.963 -41.2629 313.957 -32.5 315.83C-23.7371 317.703 -15.8197 323.664 -14.5972 329.314C-13.0777 336.338 -6.82839 341.6 0.649998 341.6C8.26852 341.6 14.6115 336.139 15.9776 328.918C17.0898 323.039 25.0747 317.281 33.8 315.61C42.5253 313.939 37.3664 336.963 33.8 339.822C30.2336 342.68 27.95 347.074 27.95 352C27.95 360.616 34.9344 367.6 43.55 367.6C52.1656 367.6 59.15 360.616 59.15 352C59.15 347.702 57.4118 343.81 54.6 340.988C51.7882 338.167 51.7882 313.833 54.6 311.012C57.4118 308.19 59.15 304.298 59.15 300C59.15 291.384 52.1656 284.4 43.55 284.4C35.644 284.4 29.1117 290.281 28.0892 297.907C27.0667 305.533 15.5374 311.631 5.25459 311.091C1.82079 310.91 -0.918274 311.028 -4.3436 311.216C-14.4293 311.77 -25.8889 306.092 -26.7433 298.284C-27.5977 290.476 -34.2143 284.4 -42.25 284.4C-50.8656 284.4 -57.85 291.384 -57.85 300Z" fill="#5B34EA"/>
</g>
</svg>
