<svg width="120" height="48" viewBox="0 0 120 48" fill="none" xmlns="http://www.w3.org/2000/svg">
<ellipse cx="23.85" cy="35.4008" rx="3.6" ry="3.6" transform="rotate(90 23.85 35.4008)" fill="white"/>
<ellipse cx="23.85" cy="12.6" rx="3.6" ry="3.6" transform="rotate(90 23.85 12.6)" fill="white"/>
<path d="M10.35 18.0004C10.35 18.9923 10.7511 19.8904 11.4 20.5416C12.0489 21.1927 12.0489 26.8081 11.4 27.4592C10.7511 28.1103 10.35 29.0085 10.35 30.0004C10.35 31.9886 11.9618 33.6004 13.95 33.6004C15.9382 33.6004 17.55 31.9886 17.55 30.0004C17.55 28.8635 17.023 27.8497 16.2 27.19C15.377 26.5302 14.1778 21.2211 16.2 21.6534C18.2222 22.0858 20.0493 23.4613 20.3314 24.7652C20.6821 26.386 22.1242 27.6004 23.85 27.6004C25.6081 27.6004 27.0719 26.3401 27.3871 24.6737C27.6438 23.3171 29.4865 21.9882 31.5 21.6026C33.5135 21.217 32.323 26.5302 31.5 27.19C30.677 27.8497 30.15 28.8635 30.15 30.0004C30.15 31.9886 31.7618 33.6004 33.75 33.6004C35.7382 33.6004 37.35 31.9886 37.35 30.0004C37.35 29.0085 36.9489 28.1103 36.3 27.4592C35.6511 26.8081 35.6511 21.1927 36.3 20.5416C36.9489 19.8904 37.35 18.9923 37.35 18.0004C37.35 16.0122 35.7382 14.4004 33.75 14.4004C31.9255 14.4004 30.4181 15.7576 30.1821 17.5174C29.9461 19.2773 27.2855 20.6846 24.9126 20.5598C24.1202 20.5181 23.4881 20.5454 22.6976 20.5888C20.3702 20.7166 17.7256 19.4063 17.5285 17.6044C17.3313 15.8025 15.8044 14.4004 13.95 14.4004C11.9618 14.4004 10.35 16.0122 10.35 18.0004Z" fill="white"/>
<path d="M46.452 36.0964V11.9044H50.5511L58.5479 27.9652L66.5447 11.9044H70.6439V36.0964H66.3767V21.6484L59.3544 36.0964H57.7415L50.7192 21.6484V36.0964H46.452Z" fill="white"/>
<path d="M75.0958 15.4324V11.4004H79.6654V15.4324H75.0958ZM75.0958 36.0964V17.9524H79.6654V36.0964H75.0958Z" fill="white"/>
<path d="M84.1019 36.0964V17.9524H88.1339V22.3876L87.6972 21.8164C87.9324 21.1892 88.246 20.618 88.638 20.1028C89.0299 19.5876 89.5115 19.162 90.0827 18.826C90.5196 18.5572 90.9955 18.35 91.5107 18.2044C92.0259 18.0476 92.5579 17.9524 93.1068 17.9188C93.6555 17.874 94.2043 17.8852 94.7532 17.9524V22.2196C94.2491 22.0628 93.6611 22.0124 92.9892 22.0684C92.3284 22.1132 91.7291 22.2644 91.1915 22.522C90.6539 22.7684 90.2003 23.0988 89.8307 23.5132C89.4612 23.9164 89.1811 24.398 88.9907 24.958C88.8004 25.5068 88.7052 26.1284 88.7052 26.8228V36.0964H84.1019Z" fill="white"/>
<path d="M104.102 36.634C102.68 36.634 101.521 36.3932 100.625 35.9116C99.7288 35.43 99.0288 34.8196 98.5248 34.0804C98.032 33.3412 97.6792 32.574 97.4664 31.7788C97.2536 30.9724 97.1248 30.2388 97.08 29.578C97.0352 28.9172 97.0128 28.4356 97.0128 28.1332V17.9524H101.65V26.5204C101.65 26.9348 101.672 27.4668 101.717 28.1164C101.762 28.7548 101.902 29.3988 102.137 30.0484C102.372 30.698 102.753 31.2412 103.279 31.678C103.817 32.1148 104.573 32.3332 105.547 32.3332C105.939 32.3332 106.359 32.2716 106.807 32.1484C107.255 32.0252 107.675 31.79 108.067 31.4428C108.459 31.0844 108.778 30.5636 109.025 29.8804C109.282 29.186 109.411 28.2788 109.411 27.1588L112.032 28.402C112.032 29.8356 111.741 31.1796 111.158 32.434C110.576 33.6884 109.697 34.702 108.521 35.4748C107.356 36.2476 105.883 36.634 104.102 36.634ZM109.982 36.0964V30.082H109.411V17.9524H114.014V36.0964H109.982Z" fill="white"/>
</svg>
