<svg width="40" height="40" viewBox="0 0 40 40" fill="none" xmlns="http://www.w3.org/2000/svg">
<circle cx="20" cy="20" r="20" fill="#EBEFF2"/>
<path fill-rule="evenodd" clip-rule="evenodd" d="M20 12.125C17.3076 12.125 15.125 14.3076 15.125 17C15.125 19.6924 17.3076 21.875 20 21.875C22.6924 21.875 24.875 19.6924 24.875 17C24.875 14.3076 22.6924 12.125 20 12.125ZM12.875 17C12.875 13.065 16.065 9.875 20 9.875C23.935 9.875 27.125 13.065 27.125 17C27.125 20.935 23.935 24.125 20 24.125C16.065 24.125 12.875 20.935 12.875 17Z" fill="#1D1A31"/>
<path fill-rule="evenodd" clip-rule="evenodd" d="M20.0002 24.125C18.3544 24.125 16.7375 24.5581 15.3121 25.3808C13.8866 26.2035 12.7028 27.3868 11.8795 28.8119C11.5686 29.3499 10.8805 29.5341 10.3426 29.2232C9.80457 28.9124 9.62041 28.2243 9.93122 27.6863C10.9521 25.9194 12.4199 24.4521 14.1874 23.4321C15.9548 22.412 17.9596 21.875 20.0002 21.875C22.0409 21.875 24.0457 22.4121 25.8131 23.4322C27.5805 24.4523 29.0483 25.9195 30.0691 27.6865C30.3799 28.2245 30.1958 28.9126 29.6578 29.2234C29.1198 29.5342 28.4317 29.3501 28.1209 28.8121C27.2976 27.387 26.1138 26.2036 24.6883 25.3809C23.2629 24.5581 21.646 24.125 20.0002 24.125Z" fill="#1D1A31"/>
</svg>
