<svg width="138" height="66" viewBox="0 0 138 66" fill="none" xmlns="http://www.w3.org/2000/svg">
<path d="M53.2111 22.748H46.3721C45.9041 22.748 45.5061 23.088 45.4331 23.55L42.6671 41.087C42.6121 41.433 42.8801 41.745 43.2311 41.745H46.4961C46.9641 41.745 47.3621 41.405 47.4351 40.942L48.1811 36.212C48.2531 35.749 48.6521 35.409 49.1191 35.409H51.2841C55.7891 35.409 58.3891 33.229 59.0681 28.909C59.3741 27.019 59.0811 25.534 58.1961 24.494C57.2241 23.352 55.5001 22.748 53.2111 22.748ZM54.0001 29.153C53.6261 31.607 51.7511 31.607 49.9381 31.607H48.9061L49.6301 27.024C49.6731 26.747 49.9131 26.543 50.1931 26.543H50.6661C51.9011 26.543 53.0661 26.543 53.6681 27.247C54.0271 27.667 54.1371 28.291 54.0001 29.153Z" fill="#253B80"/>
<path d="M73.654 29.0756H70.379C70.1 29.0756 69.859 29.2796 69.816 29.5566L69.671 30.4726L69.442 30.1406C68.733 29.1116 67.152 28.7676 65.574 28.7676C61.955 28.7676 58.864 31.5086 58.262 35.3536C57.949 37.2716 58.394 39.1056 59.482 40.3846C60.48 41.5606 61.908 42.0506 63.607 42.0506C66.523 42.0506 68.14 40.1756 68.14 40.1756L67.994 41.0856C67.939 41.4336 68.207 41.7456 68.556 41.7456H71.506C71.975 41.7456 72.371 41.4056 72.445 40.9426L74.215 29.7336C74.271 29.3886 74.004 29.0756 73.654 29.0756ZM69.089 35.4496C68.773 37.3206 67.288 38.5766 65.394 38.5766C64.443 38.5766 63.683 38.2716 63.195 37.6936C62.711 37.1196 62.527 36.3026 62.681 35.3926C62.976 33.5376 64.486 32.2406 66.351 32.2406C67.281 32.2406 68.037 32.5496 68.535 33.1326C69.034 33.7216 69.232 34.5436 69.089 35.4496Z" fill="#253B80"/>
<path d="M91.096 29.0742H87.805C87.491 29.0742 87.196 29.2302 87.018 29.4912L82.479 36.1772L80.555 29.7522C80.434 29.3502 80.063 29.0742 79.643 29.0742H76.409C76.016 29.0742 75.743 29.4582 75.868 29.8282L79.493 40.4662L76.085 45.2772C75.817 45.6562 76.087 46.1772 76.55 46.1772H79.837C80.149 46.1772 80.441 46.0252 80.618 45.7692L91.564 29.9692C91.826 29.5912 91.557 29.0742 91.096 29.0742Z" fill="#253B80"/>
<path d="M101.992 22.748H95.1521C94.6851 22.748 94.2871 23.088 94.2141 23.55L91.4481 41.087C91.3931 41.433 91.6611 41.745 92.0101 41.745H95.5201C95.8461 41.745 96.1251 41.507 96.1761 41.183L96.9611 36.212C97.0331 35.749 97.4321 35.409 97.8991 35.409H100.063C104.569 35.409 107.168 33.229 107.848 28.909C108.155 27.019 107.86 25.534 106.975 24.494C106.004 23.352 104.281 22.748 101.992 22.748ZM102.781 29.153C102.408 31.607 100.533 31.607 98.7191 31.607H97.6881L98.4131 27.024C98.4561 26.747 98.6941 26.543 98.9751 26.543H99.4481C100.682 26.543 101.848 26.543 102.45 27.247C102.809 27.667 102.918 28.291 102.781 29.153Z" fill="#179BD7"/>
<path d="M122.434 29.0756H119.161C118.88 29.0756 118.641 29.2796 118.599 29.5566L118.454 30.4726L118.224 30.1406C117.515 29.1116 115.935 28.7676 114.357 28.7676C110.738 28.7676 107.648 31.5086 107.046 35.3536C106.734 37.2716 107.177 39.1056 108.265 40.3846C109.265 41.5606 110.691 42.0506 112.39 42.0506C115.306 42.0506 116.923 40.1756 116.923 40.1756L116.777 41.0856C116.722 41.4336 116.99 41.7456 117.341 41.7456H120.29C120.757 41.7456 121.155 41.4056 121.228 40.9426L122.999 29.7336C123.053 29.3886 122.785 29.0756 122.434 29.0756ZM117.869 35.4496C117.555 37.3206 116.068 38.5766 114.174 38.5766C113.225 38.5766 112.463 38.2716 111.975 37.6936C111.491 37.1196 111.309 36.3026 111.461 35.3926C111.758 33.5376 113.266 32.2406 115.131 32.2406C116.061 32.2406 116.817 32.5496 117.315 33.1326C117.816 33.7216 118.014 34.5436 117.869 35.4496Z" fill="#179BD7"/>
<path d="M126.295 23.23L123.488 41.088C123.433 41.434 123.701 41.746 124.05 41.746H126.872C127.341 41.746 127.739 41.406 127.811 40.943L130.579 23.407C130.634 23.061 130.366 22.748 130.017 22.748H126.857C126.578 22.749 126.338 22.953 126.295 23.23Z" fill="#179BD7"/>
<path d="M14.266 45.1534L14.789 41.8314L13.624 41.8044H8.06104L11.927 17.2914C11.939 17.2174 11.978 17.1484 12.035 17.0994C12.092 17.0504 12.165 17.0234 12.241 17.0234H21.621C24.735 17.0234 26.884 17.6714 28.006 18.9504C28.532 19.5504 28.867 20.1774 29.029 20.8674C29.199 21.5914 29.202 22.4564 29.036 23.5114L29.024 23.5884V24.2644L29.55 24.5624C29.993 24.7974 30.345 25.0664 30.615 25.3744C31.065 25.8874 31.356 26.5394 31.479 27.3124C31.606 28.1074 31.564 29.0534 31.356 30.1244C31.116 31.3564 30.728 32.4294 30.204 33.3074C29.722 34.1164 29.108 34.7874 28.379 35.3074C27.683 35.8014 26.856 36.1764 25.921 36.4164C25.015 36.6524 23.982 36.7714 22.849 36.7714H22.119C21.597 36.7714 21.09 36.9594 20.692 37.2964C20.293 37.6404 20.029 38.1104 19.948 38.6244L19.893 38.9234L18.969 44.7784L18.927 44.9934C18.916 45.0614 18.897 45.0954 18.869 45.1184C18.844 45.1394 18.808 45.1534 18.773 45.1534H14.266Z" fill="#253B80"/>
<path d="M30.0479 23.668C30.0199 23.847 29.9879 24.03 29.9519 24.218C28.7149 30.569 24.4829 32.763 19.0779 32.763H16.3259C15.6649 32.763 15.1079 33.243 15.0049 33.895L13.5959 42.831L13.1969 45.364C13.1299 45.792 13.4599 46.178 13.8919 46.178H18.7729C19.3509 46.178 19.8419 45.758 19.9329 45.188L19.9809 44.94L20.8999 39.108L20.9589 38.788C21.0489 38.216 21.5409 37.796 22.1189 37.796H22.8489C27.5779 37.796 31.2799 35.876 32.3619 30.32C32.8139 27.999 32.5799 26.061 31.3839 24.698C31.0219 24.287 30.5729 23.946 30.0479 23.668Z" fill="#179BD7"/>
<path d="M28.7539 23.151C28.5649 23.096 28.3699 23.046 28.1699 23.001C27.9689 22.957 27.7629 22.918 27.5509 22.884C26.8089 22.764 25.9959 22.707 25.1249 22.707H17.7729C17.5919 22.707 17.4199 22.748 17.2659 22.822C16.9269 22.985 16.6749 23.306 16.6139 23.699L15.0499 33.605L15.0049 33.894C15.1079 33.242 15.6649 32.762 16.3259 32.762H19.0779C24.4829 32.762 28.7149 30.567 29.9519 24.217C29.9889 24.029 30.0199 23.846 30.0479 23.667C29.7349 23.501 29.3959 23.359 29.0309 23.238C28.9409 23.208 28.8479 23.179 28.7539 23.151Z" fill="#222D65"/>
<path d="M16.614 23.699C16.675 23.306 16.927 22.985 17.266 22.823C17.421 22.749 17.592 22.708 17.773 22.708H25.125C25.996 22.708 26.809 22.765 27.551 22.885C27.763 22.919 27.969 22.958 28.17 23.002C28.37 23.047 28.565 23.097 28.754 23.152C28.848 23.18 28.941 23.209 29.032 23.238C29.397 23.359 29.736 23.502 30.049 23.667C30.417 21.32 30.046 19.722 28.777 18.275C27.378 16.682 24.853 16 21.622 16H12.242C11.582 16 11.019 16.48 10.917 17.133L7.00999 41.898C6.93299 42.388 7.31099 42.83 7.80499 42.83H13.596L15.05 33.605L16.614 23.699Z" fill="#253B80"/>
</svg>
