<svg width="16" height="16" viewBox="0 0 16 16" fill="none" xmlns="http://www.w3.org/2000/svg">
<path fill-rule="evenodd" clip-rule="evenodd" d="M12.3656 1.77202C11.6869 0.997682 10.4612 0.666016 8.89256 0.666016H4.34023C4.01989 0.666016 3.74689 0.899349 3.69689 1.21668L1.80123 13.2527C1.79236 13.3085 1.7957 13.3656 1.81102 13.42C1.82634 13.4744 1.85327 13.5248 1.88996 13.5678C1.92665 13.6108 1.97222 13.6453 2.02354 13.669C2.07486 13.6927 2.13071 13.705 2.18723 13.705H4.99789L4.80389 14.9367C4.79614 14.9855 4.79906 15.0355 4.81246 15.0831C4.82586 15.1307 4.84941 15.1748 4.8815 15.2125C4.91359 15.2501 4.95346 15.2803 4.99835 15.3011C5.04324 15.3218 5.0921 15.3326 5.14156 15.3327H7.51056C7.64635 15.3326 7.77764 15.284 7.88079 15.1957C7.98394 15.1074 8.05218 14.9852 8.07323 14.851L8.09656 14.7303L8.54256 11.897L8.57156 11.7403C8.5926 11.6062 8.66084 11.484 8.764 11.3957C8.86715 11.3074 8.99844 11.2588 9.13423 11.2587H9.48856C11.7836 11.2587 13.5806 10.3253 14.1059 7.62535C14.3249 6.49702 14.2119 5.55535 13.6316 4.89302C13.4559 4.69302 13.2379 4.52735 12.9832 4.39202C13.1616 3.25135 12.9819 2.47535 12.3656 1.77202Z" fill="#009CDE"/>
<path fill-rule="evenodd" clip-rule="evenodd" d="M12.3656 1.77202C11.6869 0.997682 10.4612 0.666016 8.89256 0.666016H4.34023C4.01989 0.666016 3.74689 0.899349 3.69689 1.21668L1.80123 13.2527C1.79236 13.3085 1.7957 13.3656 1.81102 13.42C1.82634 13.4744 1.85327 13.5248 1.88996 13.5678C1.92665 13.6108 1.97222 13.6453 2.02354 13.669C2.07486 13.6927 2.13071 13.705 2.18723 13.705H4.99789L5.70323 9.22268L5.68156 9.36335C5.70504 9.21014 5.78258 9.0704 5.90016 8.96939C6.01773 8.86839 6.16756 8.8128 6.32256 8.81268H7.65823C10.2816 8.81268 12.3359 7.74568 12.9362 4.65935C12.9533 4.57051 12.9689 4.48139 12.9829 4.39202C13.1612 3.25135 12.9816 2.47535 12.3652 1.77202H12.3656Z" fill="#012169"/>
<path fill-rule="evenodd" clip-rule="evenodd" d="M6.77889 3.98168C6.85389 3.94568 6.93723 3.92568 7.02523 3.92568H10.5932C11.0159 3.92568 11.4099 3.95335 11.7706 4.01168C11.8736 4.02835 11.9739 4.04735 12.0712 4.06868C12.2123 4.10025 12.3518 4.13863 12.4892 4.18368C12.6591 4.23937 12.8242 4.30905 12.9826 4.39202C13.1612 3.25135 12.9816 2.47535 12.3652 1.77202C11.6869 0.997682 10.4612 0.666016 8.89256 0.666016H4.34023C4.01989 0.666016 3.74689 0.899349 3.69689 1.21668L1.80123 13.2527C1.79236 13.3085 1.7957 13.3656 1.81102 13.42C1.82634 13.4744 1.85327 13.5248 1.88996 13.5678C1.92665 13.6108 1.97222 13.6453 2.02354 13.669C2.07486 13.6927 2.13071 13.705 2.18723 13.705H4.99789L6.46223 4.40702C6.49223 4.21635 6.61456 4.06035 6.77889 3.98135V3.98168Z" fill="#003087"/>
</svg>
