<svg width="280" height="38" viewBox="0 0 280 38" fill="none" xmlns="http://www.w3.org/2000/svg">
<path d="M6.22222 0H273.778C277.2 0 280 1.8 280 4V34C280 36.2 277.2 38 273.778 38H6.22222C2.8 38 0 36.2 0 34V4C0 1.8 2.8 0 6.22222 0Z" fill="#FFC439"/>
<path d="M132.104 14.4766H128.684C128.45 14.4766 128.251 14.6517 128.215 14.8897L126.832 23.9239C126.804 24.1022 126.938 24.2629 127.114 24.2629H128.746C128.98 24.2629 129.179 24.0877 129.216 23.8492L129.589 21.4126C129.625 21.174 129.824 20.9989 130.058 20.9989H131.14C133.393 20.9989 134.693 19.8759 135.032 17.6504C135.185 16.6768 135.039 15.9118 134.596 15.376C134.11 14.7877 133.248 14.4766 132.104 14.4766ZM132.498 17.7761C132.311 19.0403 131.374 19.0403 130.467 19.0403H129.951L130.313 16.6793C130.335 16.5367 130.455 16.4316 130.595 16.4316H130.831C131.449 16.4316 132.031 16.4316 132.332 16.7942C132.512 17.0106 132.567 17.332 132.498 17.7761Z" fill="#253B80"/>
<path d="M142.327 17.7348H140.69C140.55 17.7348 140.43 17.8399 140.408 17.9826L140.336 18.4545L140.221 18.2835C139.867 17.7534 139.076 17.5762 138.287 17.5762C136.478 17.5762 134.932 18.9882 134.631 20.969C134.475 21.957 134.697 22.9018 135.241 23.5607C135.74 24.1665 136.454 24.4189 137.304 24.4189C138.762 24.4189 139.57 23.453 139.57 23.453L139.497 23.9218C139.47 24.1011 139.604 24.2618 139.778 24.2618H141.253C141.488 24.2618 141.686 24.0867 141.723 23.8481L142.608 18.0738C142.636 17.8961 142.502 17.7348 142.327 17.7348ZM140.045 21.0184C139.887 21.9823 139.144 22.6293 138.197 22.6293C137.722 22.6293 137.342 22.4722 137.098 22.1744C136.856 21.8787 136.764 21.4578 136.841 20.9891C136.988 20.0334 137.743 19.3653 138.676 19.3653C139.141 19.3653 139.519 19.5245 139.768 19.8248C140.017 20.1282 140.116 20.5517 140.045 21.0184Z" fill="#253B80"/>
<path d="M151.047 17.7363H149.402C149.245 17.7363 149.097 17.8167 149.008 17.9511L146.739 21.3954L145.777 18.0856C145.716 17.8785 145.531 17.7363 145.321 17.7363H143.704C143.507 17.7363 143.371 17.9341 143.433 18.1248L145.246 23.6049L143.542 26.0833C143.408 26.2786 143.543 26.547 143.774 26.547H145.418C145.574 26.547 145.72 26.4687 145.808 26.3368L151.281 18.1974C151.412 18.0027 151.278 17.7363 151.047 17.7363Z" fill="#253B80"/>
<path d="M156.494 14.4766H153.074C152.841 14.4766 152.642 14.6517 152.605 14.8897L151.222 23.9239C151.195 24.1022 151.329 24.2629 151.503 24.2629H153.258C153.421 24.2629 153.561 24.1403 153.586 23.9734L153.979 21.4126C154.015 21.174 154.214 20.9989 154.448 20.9989H155.53C157.783 20.9989 159.082 19.8759 159.422 17.6504C159.576 16.6768 159.428 15.9118 158.986 15.376C158.5 14.7877 157.639 14.4766 156.494 14.4766ZM156.889 17.7761C156.702 19.0403 155.765 19.0403 154.858 19.0403H154.342L154.705 16.6793C154.726 16.5367 154.845 16.4316 154.986 16.4316H155.222C155.839 16.4316 156.422 16.4316 156.723 16.7942C156.903 17.0106 156.957 17.332 156.889 17.7761Z" fill="#179BD7"/>
<path d="M166.716 17.7348H165.079C164.939 17.7348 164.819 17.8399 164.798 17.9826L164.726 18.4545L164.611 18.2835C164.256 17.7534 163.466 17.5762 162.677 17.5762C160.868 17.5762 159.323 18.9882 159.022 20.969C158.866 21.957 159.087 22.9018 159.631 23.5607C160.131 24.1665 160.844 24.4189 161.694 24.4189C163.152 24.4189 163.96 23.453 163.96 23.453L163.887 23.9218C163.86 24.1011 163.994 24.2618 164.169 24.2618H165.644C165.877 24.2618 166.076 24.0867 166.113 23.8481L166.998 18.0738C167.025 17.8961 166.891 17.7348 166.716 17.7348ZM164.433 21.0184C164.276 21.9823 163.533 22.6293 162.586 22.6293C162.111 22.6293 161.73 22.4722 161.486 22.1744C161.244 21.8787 161.153 21.4578 161.229 20.9891C161.378 20.0334 162.132 19.3653 163.064 19.3653C163.529 19.3653 163.907 19.5245 164.156 19.8248C164.407 20.1282 164.506 20.5517 164.433 21.0184Z" fill="#179BD7"/>
<path d="M168.649 14.7249L167.246 23.9244C167.218 24.1027 167.352 24.2634 167.527 24.2634H168.938C169.172 24.2634 169.371 24.0883 169.407 23.8497L170.791 14.816C170.819 14.6378 170.685 14.4766 170.51 14.4766H168.93C168.791 14.4771 168.671 14.5822 168.649 14.7249Z" fill="#179BD7"/>
<path d="M112.634 26.0186L112.895 24.3072L112.313 24.2933H109.531L111.464 11.6654C111.47 11.6273 111.49 11.5917 111.518 11.5665C111.547 11.5413 111.583 11.5273 111.621 11.5273H116.311C117.868 11.5273 118.943 11.8612 119.504 12.52C119.767 12.8291 119.934 13.1521 120.015 13.5076C120.1 13.8806 120.102 14.3262 120.019 14.8696L120.013 14.9093V15.2576L120.276 15.4111C120.497 15.5321 120.673 15.6707 120.808 15.8294C121.033 16.0936 121.179 16.4295 121.24 16.8277C121.304 17.2373 121.283 17.7246 121.179 18.2763C121.059 18.911 120.865 19.4638 120.603 19.9161C120.362 20.3328 120.055 20.6785 119.69 20.9464C119.342 21.2009 118.929 21.394 118.461 21.5177C118.008 21.6393 117.492 21.7006 116.925 21.7006H116.56C116.299 21.7006 116.046 21.7974 115.847 21.971C115.647 22.1482 115.515 22.3903 115.475 22.6551L115.447 22.8092L114.985 25.8254L114.964 25.9361C114.959 25.9712 114.949 25.9887 114.935 26.0005C114.923 26.0113 114.905 26.0186 114.887 26.0186H112.634Z" fill="#253B80"/>
<path d="M120.524 14.9492C120.51 15.0414 120.494 15.1357 120.476 15.2326C119.857 18.5043 117.741 19.6345 115.039 19.6345H113.663C113.332 19.6345 113.054 19.8818 113.002 20.2177L112.298 24.8211L112.098 26.1259C112.065 26.3464 112.23 26.5453 112.446 26.5453H114.886C115.175 26.5453 115.421 26.3289 115.466 26.0353L115.49 25.9075L115.95 22.9032L115.979 22.7383C116.024 22.4436 116.27 22.2273 116.559 22.2273H116.924C119.289 22.2273 121.14 21.2382 121.681 18.376C121.907 17.1803 121.79 16.182 121.192 15.4798C121.011 15.2681 120.786 15.0924 120.524 14.9492Z" fill="#179BD7"/>
<path d="M119.878 14.6838C119.784 14.6555 119.686 14.6297 119.586 14.6065C119.486 14.5839 119.383 14.5638 119.277 14.5463C118.906 14.4844 118.499 14.4551 118.064 14.4551H114.388C114.297 14.4551 114.211 14.4762 114.134 14.5143C113.965 14.5983 113.839 14.7637 113.808 14.9661L113.026 20.0692L113.004 20.2181C113.055 19.8822 113.334 19.6349 113.664 19.6349H115.04C117.743 19.6349 119.859 18.5042 120.477 15.233C120.496 15.1361 120.511 15.0418 120.525 14.9496C120.369 14.8641 120.199 14.791 120.017 14.7286C119.972 14.7132 119.925 14.6982 119.878 14.6838Z" fill="#222D65"/>
<path d="M113.807 14.9662C113.837 14.7637 113.963 14.5983 114.133 14.5149C114.21 14.4768 114.296 14.4556 114.386 14.4556H118.062C118.498 14.4556 118.904 14.485 119.275 14.5468C119.381 14.5643 119.484 14.5844 119.585 14.6071C119.685 14.6303 119.782 14.656 119.877 14.6844C119.924 14.6988 119.97 14.7137 120.016 14.7287C120.198 14.791 120.368 14.8647 120.524 14.9497C120.708 13.7406 120.523 12.9174 119.888 12.172C119.189 11.3513 117.926 11 116.311 11H111.621C111.291 11 111.009 11.2473 110.958 11.5837L109.005 24.3414C108.966 24.5938 109.155 24.8215 109.402 24.8215H112.298L113.025 20.0692L113.807 14.9662Z" fill="#253B80"/>
</svg>
