<?xml version="1.0" encoding="iso-8859-1"?>
<!-- Generator: Adobe Illustrator 19.0.0, SVG Export Plug-In . SVG Version: 6.00 Build 0)  -->
<svg version="1.1" id="Layer_1" xmlns="http://www.w3.org/2000/svg" xmlns:xlink="http://www.w3.org/1999/xlink" x="0px" y="0px"
	 viewBox="0 0 318.188 318.188" style="enable-background:new 0 0 318.188 318.188;" xml:space="preserve">
<g>
	<g>
		<g>
			<path d="M283.149,52.722L232.625,2.197C231.218,0.79,229.311,0,227.321,0H40.342c-4.142,0-7.5,3.358-7.5,7.5v303.188
				c0,4.142,3.358,7.5,7.5,7.5h237.504c4.143,0,7.5-3.358,7.5-7.5V58.025C285.346,56.036,284.556,54.129,283.149,52.722z
				 M234.821,25.607l24.918,24.919h-24.918V25.607z M47.842,15h171.98v10.263H47.842V15z M270.346,303.188H47.842V40.263h171.98
				v17.763c0,4.142,3.357,7.5,7.5,7.5h43.024V303.188z"/>
			<path d="M201.704,147.048c-3.615-0.024-7.177,0.154-10.693,0.354c-1.296,0.087-2.579,0.199-3.861,0.31
				c-1.314-1.36-2.584-2.765-3.813-4.202c-7.82-9.257-14.134-19.755-19.279-30.664c1.366-5.271,2.459-10.772,3.119-16.485
				c1.205-10.427,1.619-22.31-2.288-32.251c-1.349-3.431-4.946-7.608-9.096-5.528c-4.771,2.392-6.113,9.169-6.502,13.973
				c-0.313,3.883-0.094,7.776,0.558,11.594c0.664,3.844,1.733,7.494,2.897,11.139c1.086,3.342,2.283,6.658,3.588,9.943
				c-0.828,2.586-1.707,5.127-2.63,7.603c-2.152,5.643-4.479,11.004-6.717,16.161c-1.18,2.557-2.335,5.06-3.465,7.507
				c-3.576,7.855-7.458,15.566-11.814,23.02c-10.163,3.585-19.283,7.741-26.857,12.625c-4.063,2.625-7.652,5.476-10.641,8.603
				c-2.822,2.952-5.69,6.783-5.941,11.024c-0.141,2.394,0.807,4.717,2.768,6.137c2.697,2.015,6.271,1.881,9.4,1.225
				c10.25-2.15,18.121-10.961,24.824-18.387c4.617-5.115,9.872-11.61,15.369-19.465c0.012-0.018,0.024-0.036,0.037-0.054
				c9.428-2.923,19.689-5.391,30.579-7.205c4.975-0.825,10.082-1.5,15.291-1.974c3.663,3.431,7.621,6.555,11.939,9.164
				c3.363,2.069,6.94,3.816,10.684,5.119c3.786,1.237,7.595,2.247,11.528,2.886c1.986,0.284,4.017,0.413,6.092,0.335
				c4.631-0.175,11.278-1.951,11.714-7.57c0.134-1.721-0.237-3.229-0.98-4.551c-3.643-6.493-16.231-8.533-22.006-9.451
				C210.955,147.26,206.308,147.044,201.704,147.048z M126.644,167.745c-2.169,3.36-4.261,6.382-6.232,9.041
				c-4.827,6.568-10.34,14.369-18.322,17.286c-1.516,0.554-3.512,1.126-5.616,1.002c-1.874-0.11-3.722-0.936-3.637-3.065
				c0.042-1.114,0.587-2.535,1.423-3.931c0.915-1.531,2.048-2.935,3.275-4.226c2.629-2.762,5.953-5.439,9.777-7.918
				c5.865-3.805,12.867-7.23,20.672-10.286C127.535,166.358,127.087,167.064,126.644,167.745z M153.866,83.485
				c-0.602-3.514-0.693-7.077-0.323-10.503c0.184-1.713,0.533-3.385,1.038-4.952c0.428-1.33,1.352-4.576,2.826-4.993
				c2.43-0.688,3.177,4.529,3.452,6.005c1.566,8.396,0.186,17.733-1.693,25.969c-0.299,1.31-0.632,2.599-0.973,3.883
				c-0.582-1.601-1.137-3.207-1.648-4.821C155.445,90.548,154.439,86.982,153.866,83.485z M170.549,149.765
				c-9.13,1.48-17.815,3.419-25.979,5.708c0.983-0.275,5.475-8.788,6.477-10.555c4.721-8.315,8.583-17.042,11.358-26.197
				c4.9,9.691,10.847,18.962,18.153,27.214c0.673,0.749,1.357,1.489,2.053,2.22C178.517,148.596,174.488,149.133,170.549,149.765z
				 M232.293,161.459c-0.334,1.805-4.189,2.837-5.988,3.121c-5.316,0.836-10.94,0.167-16.028-1.542
				c-3.491-1.172-6.858-2.768-10.057-4.688c-3.18-1.921-6.155-4.181-8.936-6.673c3.429-0.206,6.9-0.341,10.388-0.275
				c3.488,0.035,7.003,0.211,10.475,0.664c6.511,0.726,13.807,2.961,18.932,7.186C232.088,160.085,232.41,160.821,232.293,161.459z"
				/>
			<path d="M158.594,233.392h-16.606v47.979h15.523c7.985,0,14.183-2.166,18.591-6.498c4.408-4.332,6.613-10.501,6.613-18.509
				c0-7.438-2.096-13.127-6.285-17.065C172.24,235.361,166.295,233.392,158.594,233.392z M166.503,267.309
				c-1.838,2.287-4.726,3.43-8.664,3.43h-2.888v-26.877h3.773c3.545,0,6.187,1.061,7.926,3.183c1.739,2.123,2.609,5.382,2.609,9.78
				C169.26,261.528,168.341,265.023,166.503,267.309z"/>
			<path d="M129.78,237.363c-3.041-2.647-7.592-3.971-13.652-3.971H99.522v47.979h12.963v-15.917h3.643
				c5.819,0,10.309-1.46,13.472-4.381c3.161-2.92,4.742-7.061,4.742-12.421C134.341,243.773,132.821,240.01,129.78,237.363z
				 M119.492,253.247c-1.149,1.094-2.697,1.641-4.644,1.641h-2.363v-11.026h3.348c3.588,0,5.382,1.619,5.382,4.857
				C121.214,250.643,120.64,252.153,119.492,253.247z"/>
			<polygon points="191.314,281.371 204.08,281.371 204.08,263.354 218.454,263.354 218.454,252.951 204.08,252.951 204.08,243.795 
				219.669,243.795 219.669,233.392 191.314,233.392 			"/>
		</g>
	</g>
</g>
<g>
</g>
<g>
</g>
<g>
</g>
<g>
</g>
<g>
</g>
<g>
</g>
<g>
</g>
<g>
</g>
<g>
</g>
<g>
</g>
<g>
</g>
<g>
</g>
<g>
</g>
<g>
</g>
<g>
</g>
</svg>
