<svg width="100" height="40" viewBox="0 0 100 40" fill="none" xmlns="http://www.w3.org/2000/svg">
<circle cx="19.875" cy="29.5" r="3" transform="rotate(90 19.875 29.5)" fill="#5B34EA"/>
<circle cx="19.875" cy="10.5" r="3" transform="rotate(90 19.875 10.5)" fill="#5B34EA"/>
<path d="M8.625 15C8.625 15.8266 8.95927 16.575 9.5 17.1176C10.0407 17.6602 10.0407 22.3398 9.5 22.8824C8.95927 23.425 8.625 24.1734 8.625 25C8.625 26.6569 9.96815 28 11.625 28C13.2819 28 14.625 26.6569 14.625 25C14.625 24.0526 14.1858 23.2078 13.5 22.658C12.8142 22.1082 11.8148 17.6839 13.5 18.0442C15.1852 18.4045 16.7078 19.5507 16.9428 20.6373C17.2351 21.988 18.4368 23 19.875 23C21.3401 23 22.5599 21.9498 22.8226 20.5611C23.0365 19.4306 24.5721 18.3232 26.25 18.0018C27.9279 17.6805 26.9358 22.1082 26.25 22.658C25.5642 23.2078 25.125 24.0526 25.125 25C25.125 26.6569 26.4681 28 28.125 28C29.7819 28 31.125 26.6569 31.125 25C31.125 24.1734 30.7907 23.425 30.25 22.8824C29.7093 22.3398 29.7093 17.6602 30.25 17.1176C30.7907 16.575 31.125 15.8266 31.125 15C31.125 13.3431 29.7819 12 28.125 12C26.6046 12 25.3484 13.131 25.1518 14.5975C24.9551 16.0641 22.738 17.2368 20.7605 17.1328C20.1002 17.0981 19.5734 17.1208 18.9147 17.157C16.9751 17.2635 14.7714 16.1716 14.6071 14.67C14.4427 13.1684 13.1703 12 11.625 12C9.96815 12 8.625 13.3431 8.625 15Z" fill="#5B34EA"/>
<path d="M38.71 30.7519V10.5919H42.126L48.79 23.9759L55.454 10.5919H58.87V30.7519H55.314V18.7119L49.462 30.7519H48.118L42.266 18.7119V30.7519H38.71Z" fill="#5B34EA"/>
<path d="M62.5798 13.5319V10.1719H66.3878V13.5319H62.5798ZM62.5798 30.7519V15.6319H66.3878V30.7519H62.5798Z" fill="#5B34EA"/>
<path d="M70.085 30.7519V15.6319H73.445V19.3279L73.081 18.8519C73.277 18.3292 73.5383 17.8532 73.865 17.4239C74.1916 16.9945 74.593 16.6399 75.069 16.3599C75.433 16.1359 75.8296 15.9632 76.259 15.8419C76.6883 15.7112 77.1316 15.6319 77.589 15.6039C78.0463 15.5665 78.5036 15.5759 78.961 15.6319V19.1879C78.541 19.0572 78.051 19.0152 77.491 19.0619C76.9403 19.0992 76.441 19.2252 75.993 19.4399C75.545 19.6452 75.167 19.9205 74.859 20.2659C74.551 20.6019 74.3176 21.0032 74.159 21.4699C74.0003 21.9272 73.921 22.4452 73.921 23.0239V30.7519H70.085Z" fill="#5B34EA"/>
<path d="M86.752 31.1999C85.5667 31.1999 84.6007 30.9992 83.854 30.5979C83.1074 30.1965 82.524 29.6879 82.104 29.0719C81.6934 28.4559 81.3994 27.8165 81.222 27.1539C81.0447 26.4819 80.9374 25.8705 80.9 25.3199C80.8627 24.7692 80.844 24.3679 80.844 24.1159V15.6319H84.708V22.7719C84.708 23.1172 84.7267 23.5605 84.764 24.1019C84.8014 24.6339 84.918 25.1705 85.114 25.7119C85.31 26.2532 85.6274 26.7059 86.066 27.0699C86.514 27.4339 87.144 27.6159 87.956 27.6159C88.2827 27.6159 88.6327 27.5645 89.006 27.4619C89.3794 27.3592 89.7294 27.1632 90.056 26.8739C90.3827 26.5752 90.6487 26.1412 90.854 25.5719C91.0687 24.9932 91.176 24.2372 91.176 23.3039L93.36 24.3399C93.36 25.5345 93.1174 26.6545 92.632 27.6999C92.1467 28.7452 91.414 29.5899 90.434 30.2339C89.4634 30.8779 88.236 31.1999 86.752 31.1999ZM91.652 30.7519V25.7399H91.176V15.6319H95.012V30.7519H91.652Z" fill="#5B34EA"/>
</svg>
