<svg width="13" height="12" viewBox="0 0 13 12" fill="none" xmlns="http://www.w3.org/2000/svg">
<path fill-rule="evenodd" clip-rule="evenodd" d="M2.37476 2.25L10.6248 2.25C10.9354 2.25 11.1873 2.50184 11.1873 2.8125C11.1873 3.12316 10.9354 3.375 10.6248 3.375L2.37476 3.375C2.0641 3.375 1.81226 3.12316 1.81226 2.8125C1.81226 2.50184 2.0641 2.25 2.37476 2.25Z" fill="#E04646"/>
<path fill-rule="evenodd" clip-rule="evenodd" d="M5.375 4.3125C5.68566 4.3125 5.9375 4.56434 5.9375 4.875V7.875C5.9375 8.18566 5.68566 8.4375 5.375 8.4375C5.06434 8.4375 4.8125 8.18566 4.8125 7.875V4.875C4.8125 4.56434 5.06434 4.3125 5.375 4.3125Z" fill="#E04646"/>
<path fill-rule="evenodd" clip-rule="evenodd" d="M7.625 4.3125C7.93566 4.3125 8.1875 4.56434 8.1875 4.875V7.875C8.1875 8.18566 7.93566 8.4375 7.625 8.4375C7.31434 8.4375 7.0625 8.18566 7.0625 7.875V4.875C7.0625 4.56434 7.31434 4.3125 7.625 4.3125Z" fill="#E04646"/>
<path fill-rule="evenodd" clip-rule="evenodd" d="M3.125 2.25C3.43566 2.25 3.6875 2.50184 3.6875 2.8125V9.5625H9.3125V2.8125C9.3125 2.50184 9.56434 2.25 9.875 2.25C10.1857 2.25 10.4375 2.50184 10.4375 2.8125V9.75C10.4375 9.99864 10.3387 10.2371 10.1629 10.4129C9.9871 10.5887 9.74864 10.6875 9.5 10.6875H3.5C3.25136 10.6875 3.0129 10.5887 2.83709 10.4129C2.66127 10.2371 2.5625 9.99864 2.5625 9.75V2.8125C2.5625 2.50184 2.81434 2.25 3.125 2.25Z" fill="#E04646"/>
<path fill-rule="evenodd" clip-rule="evenodd" d="M4.44692 0.759422C4.69306 0.513281 5.0269 0.375 5.375 0.375H7.625C7.9731 0.375 8.30694 0.513281 8.55308 0.759422C8.79922 1.00556 8.9375 1.3394 8.9375 1.6875V2.8125C8.9375 3.12316 8.68566 3.375 8.375 3.375C8.06434 3.375 7.8125 3.12316 7.8125 2.8125V1.6875C7.8125 1.63777 7.79275 1.59008 7.75758 1.55492C7.72242 1.51975 7.67473 1.5 7.625 1.5H5.375C5.32527 1.5 5.27758 1.51975 5.24242 1.55492C5.20725 1.59008 5.1875 1.63777 5.1875 1.6875V2.8125C5.1875 3.12316 4.93566 3.375 4.625 3.375C4.31434 3.375 4.0625 3.12316 4.0625 2.8125V1.6875C4.0625 1.3394 4.20078 1.00556 4.44692 0.759422Z" fill="#E04646"/>
</svg>
