<svg width="120" height="120" viewBox="0 0 120 120" fill="none" xmlns="http://www.w3.org/2000/svg">
<g clip-path="url(#clip0_10498_24132)">
<rect width="120" height="120" rx="8" fill="url(#paint0_linear_10498_24132)"/>
<path fill-rule="evenodd" clip-rule="evenodd" d="M23.5 87.5C23.5 86.6716 24.1716 86 25 86H64C64.8284 86 65.5 86.6716 65.5 87.5C65.5 88.3284 64.8284 89 64 89H25C24.1716 89 23.5 88.3284 23.5 87.5Z" fill="#DED6FB"/>
<path fill-rule="evenodd" clip-rule="evenodd" d="M29.6716 29.6716C30.4217 28.9214 31.4391 28.5 32.5 28.5H62.5C63.5609 28.5 64.5783 28.9214 65.3284 29.6716C66.0786 30.4217 66.5 31.4391 66.5 32.5V87.5C66.5 88.3284 65.8284 89 65 89C64.1716 89 63.5 88.3284 63.5 87.5V32.5C63.5 32.2348 63.3946 31.9804 63.2071 31.7929C63.0196 31.6054 62.7652 31.5 62.5 31.5H32.5C32.2348 31.5 31.9804 31.6054 31.7929 31.7929C31.6054 31.9804 31.5 32.2348 31.5 32.5V87.5C31.5 88.3284 30.8284 89 30 89C29.1716 89 28.5 88.3284 28.5 87.5V32.5C28.5 31.4391 28.9214 30.4217 29.6716 29.6716Z" fill="#DED6FB"/>
<path fill-rule="evenodd" clip-rule="evenodd" d="M63.5 50C63.5 49.1716 64.1716 48.5 65 48.5H87.5C88.5609 48.5 89.5783 48.9214 90.3284 49.6716C91.0786 50.4217 91.5 51.4391 91.5 52.5V64.5C91.5 65.3284 90.8284 66 90 66C89.1716 66 88.5 65.3284 88.5 64.5V52.5C88.5 52.2348 88.3946 51.9804 88.2071 51.7929C88.0196 51.6054 87.7652 51.5 87.5 51.5H65C64.1716 51.5 63.5 50.8284 63.5 50Z" fill="#DED6FB"/>
<path fill-rule="evenodd" clip-rule="evenodd" d="M38.5 42.5C38.5 41.6716 39.1716 41 40 41H50C50.8284 41 51.5 41.6716 51.5 42.5C51.5 43.3284 50.8284 44 50 44H40C39.1716 44 38.5 43.3284 38.5 42.5Z" fill="#DED6FB"/>
<path fill-rule="evenodd" clip-rule="evenodd" d="M43.5 62.5C43.5 61.6716 44.1716 61 45 61H55C55.8284 61 56.5 61.6716 56.5 62.5C56.5 63.3284 55.8284 64 55 64H45C44.1716 64 43.5 63.3284 43.5 62.5Z" fill="#DED6FB"/>
<path fill-rule="evenodd" clip-rule="evenodd" d="M38.5 75C38.5 74.1716 39.1716 73.5 40 73.5H50C50.8284 73.5 51.5 74.1716 51.5 75C51.5 75.8284 50.8284 76.5 50 76.5H40C39.1716 76.5 38.5 75.8284 38.5 75Z" fill="#DED6FB"/>
<path fill-rule="evenodd" clip-rule="evenodd" d="M73.5 62.5C73.5 61.6716 74.1716 61 75 61H80C80.8284 61 81.5 61.6716 81.5 62.5C81.5 63.3284 80.8284 64 80 64H75C74.1716 64 73.5 63.3284 73.5 62.5Z" fill="#DED6FB"/>
<path fill-rule="evenodd" clip-rule="evenodd" d="M86 75.5C86.8284 75.5 87.5 76.1716 87.5 77V79C87.5 79.8284 86.8284 80.5 86 80.5C85.1716 80.5 84.5 79.8284 84.5 79V77C84.5 76.1716 85.1716 75.5 86 75.5Z" fill="#DED6FB"/>
<path fill-rule="evenodd" clip-rule="evenodd" d="M86 88.5C86.8284 88.5 87.5 89.1716 87.5 90V92C87.5 92.8284 86.8284 93.5 86 93.5C85.1716 93.5 84.5 92.8284 84.5 92V90C84.5 89.1716 85.1716 88.5 86 88.5Z" fill="#DED6FB"/>
<path fill-rule="evenodd" clip-rule="evenodd" d="M85.5 73.5C79.4249 73.5 74.5 78.4249 74.5 84.5C74.5 90.5751 79.4249 95.5 85.5 95.5C91.5751 95.5 96.5 90.5751 96.5 84.5C96.5 78.4249 91.5751 73.5 85.5 73.5ZM71.5 84.5C71.5 76.768 77.768 70.5 85.5 70.5C93.232 70.5 99.5 76.768 99.5 84.5C99.5 92.232 93.232 98.5 85.5 98.5C77.768 98.5 71.5 92.232 71.5 84.5Z" fill="#DED6FB"/>
<path fill-rule="evenodd" clip-rule="evenodd" d="M83.8125 80.5C83.4537 80.5 83.1161 80.6397 82.8724 80.878C82.6299 81.1151 82.5 81.4295 82.5 81.75C82.5 82.0705 82.6299 82.3849 82.8724 82.622C83.1161 82.8603 83.4537 83 83.8125 83H87.1875C88.3205 83 89.4137 83.4398 90.2249 84.2329C91.0373 85.0272 91.5 86.1118 91.5 87.25C91.5 88.3882 91.0373 89.4728 90.2249 90.2671C89.4137 91.0602 88.3205 91.5 87.1875 91.5H82.125C81.2966 91.5 80.625 90.8284 80.625 90C80.625 89.1716 81.2966 88.5 82.125 88.5H87.1875C87.5463 88.5 87.8839 88.3603 88.1276 88.122C88.3701 87.8849 88.5 87.5705 88.5 87.25C88.5 86.9295 88.3701 86.6151 88.1276 86.378C87.8839 86.1397 87.5463 86 87.1875 86H83.8125C82.6795 86 81.5863 85.5602 80.7751 84.7671C79.9627 83.9728 79.5 82.8882 79.5 81.75C79.5 80.6118 79.9627 79.5272 80.7751 78.7329C81.5863 77.9398 82.6795 77.5 83.8125 77.5H88.875C89.7034 77.5 90.375 78.1716 90.375 79C90.375 79.8284 89.7034 80.5 88.875 80.5H83.8125Z" fill="#DED6FB"/>
</g>
<defs>
<linearGradient id="paint0_linear_10498_24132" x1="60" y1="0" x2="60" y2="120" gradientUnits="userSpaceOnUse">
<stop stop-color="#8062EF"/>
<stop offset="1" stop-color="#3111A6"/>
</linearGradient>
<clipPath id="clip0_10498_24132">
<rect width="120" height="120" fill="white"/>
</clipPath>
</defs>
</svg>
