<svg width="16" height="16" viewBox="0 0 16 16" fill="none" xmlns="http://www.w3.org/2000/svg">
<path fill-rule="evenodd" clip-rule="evenodd" d="M3.25 3.25V12.75H12.75V5.81066L10.1893 3.25H3.25ZM12.8232 5.88388C12.8231 5.88379 12.823 5.88369 12.8229 5.88359L12.8232 5.88388ZM2.11612 2.11612C2.35054 1.8817 2.66848 1.75 3 1.75H10.2929C10.457 1.75 10.6196 1.78233 10.7712 1.84515C10.9229 1.90797 11.0607 2.00004 11.1768 2.11612L13.8839 4.82322C14 4.93929 14.092 5.07709 14.1548 5.22875C14.2177 5.38041 14.25 5.54296 14.25 5.70711V13C14.25 13.3315 14.1183 13.6495 13.8839 13.8839C13.6495 14.1183 13.3315 14.25 13 14.25H3C2.66848 14.25 2.35054 14.1183 2.11612 13.8839C1.8817 13.6495 1.75 13.3315 1.75 13V3C1.75 2.66848 1.8817 2.35054 2.11612 2.11612Z" fill="white"/>
<path fill-rule="evenodd" clip-rule="evenodd" d="M5.75 9.75049V13.5005C5.75 13.9147 5.41421 14.2505 5 14.2505C4.58579 14.2505 4.25 13.9147 4.25 13.5005V9.50049C4.25 9.16897 4.3817 8.85103 4.61612 8.6166C4.85054 8.38218 5.16848 8.25049 5.5 8.25049H10.5C10.8315 8.25049 11.1495 8.38218 11.3839 8.6166C11.6183 8.85103 11.75 9.16897 11.75 9.50049V13.5005C11.75 13.9147 11.4142 14.2505 11 14.2505C10.5858 14.2505 10.25 13.9147 10.25 13.5005V9.75049H5.75Z" fill="white"/>
<path fill-rule="evenodd" clip-rule="evenodd" d="M5.25 4.50049C5.25 4.08627 5.58579 3.75049 6 3.75049H9.5C9.91421 3.75049 10.25 4.08627 10.25 4.50049C10.25 4.9147 9.91421 5.25049 9.5 5.25049H6C5.58579 5.25049 5.25 4.9147 5.25 4.50049Z" fill="white"/>
</svg>
