<svg width="280" height="38" viewBox="0 0 280 38" fill="none" xmlns="http://www.w3.org/2000/svg">
<path d="M6.22222 0H273.778C277.2 0 280 1.8 280 4V34C280 36.2 277.2 38 273.778 38H6.22222C2.8 38 0 36.2 0 34V4C0 1.8 2.8 0 6.22222 0Z" fill="#635BFF"/>
<path d="M76.3984 18.6C76.3984 16.3 77.6984 14.7 79.3984 14.7C80.6984 14.7 81.5984 15.5 81.8984 16.7L83.6984 16.1C83.0984 14.2 81.5984 13 79.3984 13C76.4984 13 74.3984 15.3 74.3984 18.6C74.3984 21.9 76.4984 24.2 79.3984 24.2C81.5984 24.2 83.0984 23 83.6984 21.1L81.8984 20.5C81.5984 21.8 80.6984 22.5 79.3984 22.5C77.5984 22.5 76.3984 20.9 76.3984 18.6ZM91.9984 20.1C91.9984 17.7 90.3984 16 88.1984 16C85.9984 16 84.3984 17.6 84.3984 20.1C84.3984 22.6 85.9984 24.2 88.1984 24.2C90.4984 24.2 91.9984 22.5 91.9984 20.1ZM86.2984 20.1C86.2984 18.5 87.0984 17.5 88.2984 17.5C89.4984 17.5 90.2984 18.5 90.2984 20.1C90.2984 21.7 89.4984 22.7 88.2984 22.7C87.0984 22.7 86.2984 21.7 86.2984 20.1ZM93.3984 24H95.1984V19.4C95.1984 18.3 95.9984 17.7 96.7984 17.7C97.7984 17.7 98.1984 18.4 98.1984 19.4V24H99.9984V18.8C99.9984 17.1 98.9984 16 97.3984 16C96.3984 16 95.6984 16.5 95.1984 17V16.2H93.3984V24ZM101.898 24H103.698V19.4C103.698 18.3 104.498 17.7 105.298 17.7C106.298 17.7 106.698 18.4 106.698 19.4V24H108.498V18.8C108.498 17.1 107.498 16 105.898 16C104.898 16 104.198 16.5 103.698 17V16.2H101.898V24ZM113.698 24.2C115.298 24.2 116.498 23.4 117.098 22L115.598 21.4C115.398 22.2 114.698 22.7 113.798 22.7C112.598 22.7 111.798 21.9 111.698 20.5H117.198V19.9C117.198 17.7 115.998 16 113.698 16C111.498 16 109.898 17.8 109.898 20.1C109.898 22.5 111.398 24.2 113.698 24.2ZM113.598 17.5C114.698 17.5 115.298 18.3 115.298 19.1H111.698C111.898 18 112.698 17.5 113.598 17.5ZM119.798 20.1C119.798 18.5 120.598 17.6 121.898 17.6C122.898 17.6 123.398 18.2 123.698 19.1L125.198 18.3C124.798 17 123.598 16.1 121.898 16.1C119.698 16.1 117.998 17.8 117.998 20.2C117.998 22.6 119.598 24.3 121.898 24.3C123.598 24.3 124.798 23.3 125.198 22L123.698 21.2C123.498 22.1 122.898 22.7 121.898 22.7C120.598 22.6 119.798 21.7 119.798 20.1ZM126.398 22C126.398 23.6 127.198 24.1 128.698 24.1C129.198 24.1 129.598 24.1 129.898 24V22.5C129.598 22.5 129.498 22.5 129.198 22.5C128.598 22.5 128.098 22.4 128.098 21.7V17.6H129.798V16.1H128.098V13.8H126.298V16.1H125.198V17.6H126.298L126.398 22ZM138.098 16.1L136.698 21.3L135.298 16.1H133.498L135.898 24H137.498L138.898 18.8L140.298 24H141.898L144.298 16.1H142.498L140.998 21.3L139.598 16.1H138.098ZM145.198 15.1H146.998V13.3H145.098L145.198 15.1ZM146.998 16.1H145.198V24H146.998V16.1ZM148.998 22C148.998 23.6 149.798 24.1 151.298 24.1C151.798 24.1 152.198 24.1 152.498 24V22.5C152.198 22.5 152.098 22.5 151.798 22.5C151.198 22.5 150.698 22.4 150.698 21.7V17.6H152.398V16.1H150.698V13.8H148.998V16.1H147.898V17.6H148.998V22ZM153.898 24H155.698V19.4C155.698 18.3 156.498 17.7 157.298 17.7C158.298 17.7 158.698 18.4 158.698 19.4V24H160.498V18.8C160.498 17.1 159.498 16 157.898 16C156.898 16 156.198 16.5 155.698 17V13.3H153.898V24Z" fill="white"/>
<path d="M191.498 26.4004V23.4004C191.898 23.7004 192.398 24.1004 193.398 24.1004C195.298 24.1004 196.998 22.6004 196.998 19.2004C196.998 16.1004 195.298 14.4004 193.398 14.4004C192.398 14.4004 191.698 14.9004 191.298 15.3004L191.198 14.7004H188.898V27.0004L191.498 26.4004ZM192.698 16.7004C193.698 16.7004 194.298 17.8004 194.298 19.2004C194.298 20.7004 193.698 21.7004 192.698 21.7004C192.098 21.7004 191.698 21.5004 191.398 21.2004V17.2004C191.798 17.0004 192.098 16.7004 192.698 16.7004Z" fill="white"/>
<path d="M202.099 24.2008C203.399 24.2008 204.299 23.9008 205.099 23.5008V21.3008C204.399 21.7008 203.599 21.9008 202.499 21.9008C201.399 21.9008 200.599 21.5008 200.399 20.2008H205.599C205.599 20.0008 205.599 19.5008 205.599 19.2008C205.599 16.4008 204.299 14.3008 201.799 14.3008C199.299 14.3008 197.699 16.5008 197.699 19.2008C197.699 22.5008 199.499 24.2008 202.099 24.2008ZM201.799 16.5008C202.399 16.5008 203.099 17.0008 203.099 18.2008H200.299C200.399 17.1008 201.099 16.5008 201.799 16.5008Z" fill="white"/>
<path d="M181.998 17.5004C182.598 16.6004 183.698 16.8004 183.998 16.9004V14.4004C183.598 14.3004 182.398 14.0004 181.898 15.2004L181.698 14.4004H179.398V23.8004H181.998V17.5004Z" fill="white"/>
<path d="M170 21.2008C170 21.7008 169.6 21.8008 169 21.8008C168.1 21.8008 167 21.4008 166.1 20.9008V23.5008C167.1 23.9008 168.1 24.1008 169 24.1008C171.2 24.1008 172.7 23.0008 172.7 21.1008C172.7 17.9008 168.7 18.5008 168.7 17.3008C168.7 16.9008 169 16.7008 169.6 16.7008C170.4 16.7008 171.4 16.9008 172.2 17.4008V14.8008C171.3 14.4008 170.5 14.3008 169.6 14.3008C167.5 14.3008 166 15.4008 166 17.3008C166 20.4008 170 19.9008 170 21.2008Z" fill="white"/>
<path d="M176.399 24.1992C177.199 24.1992 177.899 23.9992 178.299 23.7992V21.5992C177.999 21.6992 176.299 22.1992 176.299 20.5992V16.7992H178.299V14.4992H176.299V12.1992L173.699 12.7992V21.3992C173.699 22.9992 174.799 24.1992 176.399 24.1992Z" fill="white"/>
<path d="M184.898 11.6V13.7L187.598 13.2V11L184.898 11.6Z" fill="white"/>
<path d="M187.498 14.5H184.898V23.8H187.498V14.5Z" fill="white"/>
</svg>
