<svg width="12" height="12" viewBox="0 0 12 12" fill="none" xmlns="http://www.w3.org/2000/svg">
<path fill-rule="evenodd" clip-rule="evenodd" d="M5.4375 2.0625C3.57354 2.0625 2.0625 3.57354 2.0625 5.4375C2.0625 7.30146 3.57354 8.8125 5.4375 8.8125C7.30146 8.8125 8.8125 7.30146 8.8125 5.4375C8.8125 3.57354 7.30146 2.0625 5.4375 2.0625ZM0.9375 5.4375C0.9375 2.95222 2.95222 0.9375 5.4375 0.9375C7.92278 0.9375 9.9375 2.95222 9.9375 5.4375C9.9375 7.92278 7.92278 9.9375 5.4375 9.9375C2.95222 9.9375 0.9375 7.92278 0.9375 5.4375Z" fill="#1D1A31"/>
<path fill-rule="evenodd" clip-rule="evenodd" d="M7.82381 7.82393C8.04348 7.60426 8.39964 7.60426 8.61931 7.82393L10.8975 10.1021C11.1171 10.3218 11.1171 10.6779 10.8975 10.8976C10.6778 11.1172 10.3216 11.1172 10.102 10.8976L7.82381 8.61943C7.60414 8.39976 7.60414 8.0436 7.82381 7.82393Z" fill="#1D1A31"/>
</svg>
