<svg width="16" height="16" viewBox="0 0 16 16" fill="none" xmlns="http://www.w3.org/2000/svg">
<path fill-rule="evenodd" clip-rule="evenodd" d="M8 5.75C6.75736 5.75 5.75 6.75736 5.75 8C5.75 9.24264 6.75736 10.25 8 10.25C9.24264 10.25 10.25 9.24264 10.25 8C10.25 6.75736 9.24264 5.75 8 5.75ZM4.25 8C4.25 5.92893 5.92893 4.25 8 4.25C10.0711 4.25 11.75 5.92893 11.75 8C11.75 10.0711 10.0711 11.75 8 11.75C5.92893 11.75 4.25 10.0711 4.25 8Z" fill="#0033CC"/>
<path d="M11.4812 4.06885C11.6396 4.21468 11.7896 4.36468 11.9312 4.51885L13.6375 4.7626C13.9155 5.24542 14.1298 5.76222 14.275 6.3001L13.2375 7.68135C13.2375 7.68135 13.2562 8.10635 13.2375 8.31885L14.275 9.7001C14.1304 10.2382 13.9161 10.7551 13.6375 11.2376L11.9312 11.4814C11.9312 11.4814 11.6375 11.7876 11.4812 11.9314L11.2375 13.6376C10.7547 13.9156 10.2379 14.1299 9.69998 14.2751L8.31873 13.2376C8.10664 13.2564 7.89331 13.2564 7.68123 13.2376L6.29998 14.2751C5.76187 14.1306 5.24498 13.9162 4.76248 13.6376L4.51873 11.9314C4.36456 11.7855 4.21456 11.6355 4.06873 11.4814L2.36248 11.2376C2.08446 10.7548 1.87018 10.238 1.72498 9.7001L2.76248 8.31885C2.76248 8.31885 2.74373 7.89385 2.76248 7.68135L1.72498 6.3001C1.86951 5.76199 2.08383 5.2451 2.36248 4.7626L4.06873 4.51885C4.21456 4.36468 4.36456 4.21468 4.51873 4.06885L4.76248 2.3626C5.24529 2.08459 5.7621 1.8703 6.29998 1.7251L7.68123 2.7626C7.89331 2.74384 8.10664 2.74384 8.31873 2.7626L9.69998 1.7251C10.2381 1.86963 10.755 2.08395 11.2375 2.3626L11.4812 4.06885Z" stroke="#0033CC" stroke-width="1.5" stroke-linecap="round" stroke-linejoin="round"/>
</svg>
