<svg width="16" height="16" viewBox="0 0 16 16" fill="none" xmlns="http://www.w3.org/2000/svg">
<path fill-rule="evenodd" clip-rule="evenodd" d="M3.25 3.75V7.16875C3.25 11.7496 7.00958 13.3658 8 13.711C8.99042 13.3658 12.75 11.7496 12.75 7.16875V3.75H3.25ZM2.11612 2.61612C2.35054 2.3817 2.66848 2.25 3 2.25H13C13.3315 2.25 13.6495 2.3817 13.8839 2.61612C14.1183 2.85054 14.25 3.16848 14.25 3.5V7.16875C14.25 12.9342 9.35387 14.8417 8.40177 15.1587C8.14189 15.2511 7.85811 15.2511 7.59823 15.1587C6.64613 14.8417 1.75 12.9342 1.75 7.16875V3.5C1.75 3.16848 1.8817 2.85054 2.11612 2.61612Z" fill="#0DA163"/>
<path fill-rule="evenodd" clip-rule="evenodd" d="M11.2927 5.9823C11.5786 6.282 11.5674 6.75675 11.2677 7.04266L7.59895 10.5427C7.309 10.8193 6.85281 10.8191 6.56309 10.5422L4.73184 8.79222C4.43238 8.50605 4.4216 8.0313 4.70778 7.73184C4.99395 7.43238 5.4687 7.4216 5.76817 7.70778L7.08169 8.96303L10.2323 5.95734C10.532 5.67142 11.0067 5.68259 11.2927 5.9823Z" fill="#0DA163"/>
</svg>
