<svg width="138" height="66" viewBox="0 0 138 66" fill="none" xmlns="http://www.w3.org/2000/svg">
<path fill-rule="evenodd" clip-rule="evenodd" d="M122.077 33.6364C122.077 26.0427 118.421 20.0508 111.432 20.0508C104.414 20.0508 100.168 26.0427 100.168 33.5771C100.168 42.5056 105.181 47.0144 112.376 47.0144C115.885 47.0144 118.538 46.2135 120.544 45.0863V39.1537C118.538 40.1622 116.238 40.7852 113.319 40.7852C110.459 40.7852 107.923 39.7766 107.599 36.2764H122.018C122.018 35.8908 122.077 34.3483 122.077 33.6364ZM107.51 30.8184C107.51 27.4665 109.545 26.0724 111.403 26.0724C113.201 26.0724 115.118 27.4665 115.118 30.8184H107.51Z" fill="#635BFF"/>
<path fill-rule="evenodd" clip-rule="evenodd" d="M88.7859 20.0508C85.8961 20.0508 84.0384 21.4153 83.0064 22.3645L82.623 20.5254H76.1359V55.1124L83.5077 53.5402L83.5371 45.1456C84.5987 45.9168 86.1615 47.0144 88.7564 47.0144C94.0346 47.0144 98.841 42.7429 98.841 33.3398C98.8115 24.7375 93.9461 20.0508 88.7859 20.0508ZM87.0166 40.4885C85.2769 40.4885 84.2448 39.8656 83.5371 39.0944L83.5077 28.0894C84.2743 27.2292 85.3359 26.636 87.0166 26.636C89.7 26.636 91.5577 29.6616 91.5577 33.5474C91.5577 37.5222 89.7294 40.4885 87.0166 40.4885Z" fill="#635BFF"/>
<path fill-rule="evenodd" clip-rule="evenodd" d="M65.9923 18.3011L73.3936 16.6993V10.6777L65.9923 12.2499V18.3011Z" fill="#635BFF"/>
<path d="M73.3936 20.5547H65.9923V46.5097H73.3936V20.5547Z" fill="#635BFF"/>
<path fill-rule="evenodd" clip-rule="evenodd" d="M58.0603 22.7497L57.5885 20.5547H51.2192V46.5097H58.591V28.9196C60.3308 26.6356 63.2795 27.0508 64.1936 27.3771V20.5547C63.25 20.1987 59.8 19.5461 58.0603 22.7497Z" fill="#635BFF"/>
<path fill-rule="evenodd" clip-rule="evenodd" d="M43.3166 14.1191L36.1218 15.6616L36.0923 39.4216C36.0923 43.8117 39.3654 47.045 43.7295 47.045C46.1474 47.045 47.9167 46.6 48.8897 46.0661V40.0445C47.9461 40.4302 43.2872 41.7946 43.2872 37.4045V26.8742H48.8897V20.556H43.2872L43.3166 14.1191Z" fill="#635BFF"/>
<path fill-rule="evenodd" clip-rule="evenodd" d="M23.3834 28.0894C23.3834 26.9326 24.3269 26.4876 25.8898 26.4876C28.1308 26.4876 30.9616 27.1699 33.2026 28.3861V21.4153C30.7551 20.4364 28.3372 20.0508 25.8898 20.0508C19.9039 20.0508 15.9231 23.1951 15.9231 28.4454C15.9231 36.6324 27.1282 35.3272 27.1282 38.8571C27.1282 40.2216 25.9487 40.6665 24.2975 40.6665C21.85 40.6665 18.7244 39.658 16.2475 38.2935V45.3532C18.9898 46.5398 21.7616 47.044 24.2975 47.044C30.4308 47.044 34.6475 43.9888 34.6475 38.6791C34.618 29.8395 23.3834 31.4117 23.3834 28.0894Z" fill="#635BFF"/>
</svg>
