<svg width="16" height="16" viewBox="0 0 16 16" fill="none" xmlns="http://www.w3.org/2000/svg">
<path d="M0 2C0 0.895431 0.895431 0 2 0H14C15.1046 0 16 0.895431 16 2V14C16 15.1046 15.1046 16 14 16H2C0.895431 16 0 15.1046 0 14V2Z" fill="#635BFF"/>
<path fill-rule="evenodd" clip-rule="evenodd" d="M7.46549 6.34739C7.46549 5.96882 7.77428 5.82322 8.2857 5.82322C9.01906 5.82322 9.94541 6.04648 10.6788 6.44446V4.16332C9.87786 3.84299 9.08661 3.7168 8.2857 3.7168C6.32685 3.7168 5.02417 4.74574 5.02417 6.46388C5.02417 9.14301 8.69098 8.7159 8.69098 9.87104C8.69098 10.3176 8.305 10.4632 7.76463 10.4632C6.96372 10.4632 5.94087 10.1331 5.13031 9.6866V11.9969C6.02772 12.3851 6.93477 12.5502 7.76463 12.5502C9.77172 12.5502 11.1516 11.5503 11.1516 9.81279C11.1419 6.92011 7.46549 7.43458 7.46549 6.34739Z" fill="white"/>
</svg>
