<svg width="16" height="16" viewBox="0 0 16 16" fill="none" xmlns="http://www.w3.org/2000/svg">
<path fill-rule="evenodd" clip-rule="evenodd" d="M11.2925 5.98215C11.5785 6.28177 11.5675 6.75652 11.2679 7.04252L7.60117 10.5425C7.31135 10.8192 6.85527 10.8192 6.56545 10.5425L4.73214 8.79251C4.43252 8.50651 4.42148 8.03176 4.70749 7.73214C4.99349 7.43252 5.46824 7.42148 5.76786 7.70749L7.08332 8.96317L10.2321 5.95748C10.5318 5.67148 11.0065 5.68252 11.2925 5.98215Z" fill="#1D1A31"/>
<path fill-rule="evenodd" clip-rule="evenodd" d="M8 2.75C5.10051 2.75 2.75 5.10051 2.75 8C2.75 10.8995 5.10051 13.25 8 13.25C10.8995 13.25 13.25 10.8995 13.25 8C13.25 5.10051 10.8995 2.75 8 2.75ZM1.25 8C1.25 4.27208 4.27208 1.25 8 1.25C11.7279 1.25 14.75 4.27208 14.75 8C14.75 11.7279 11.7279 14.75 8 14.75C4.27208 14.75 1.25 11.7279 1.25 8Z" fill="#1D1A31"/>
</svg>
