<svg width="40" height="40" viewBox="0 0 40 40" fill="none" xmlns="http://www.w3.org/2000/svg">
<g clip-path="url(#clip0_10273_18630)">
<rect x="0.5" y="0.5" width="39" height="39" rx="3.5" stroke="#5B34EA"/>
<g clip-path="url(#clip1_10273_18630)">
<path fill-rule="evenodd" clip-rule="evenodd" d="M22.4697 20.4697C22.7626 20.1768 23.2374 20.1768 23.5303 20.4697L25.5303 22.4697C25.8232 22.7626 25.8232 23.2374 25.5303 23.5303L23.5303 25.5303C23.2374 25.8232 22.7626 25.8232 22.4697 25.5303C22.1768 25.2374 22.1768 24.7626 22.4697 24.4697L23.9393 23L22.4697 21.5303C22.1768 21.2374 22.1768 20.7626 22.4697 20.4697Z" fill="#5B34EA"/>
<path fill-rule="evenodd" clip-rule="evenodd" d="M14.25 23C14.25 22.5858 14.5858 22.25 15 22.25H25C25.4142 22.25 25.75 22.5858 25.75 23C25.75 23.4142 25.4142 23.75 25 23.75H15C14.5858 23.75 14.25 23.4142 14.25 23Z" fill="#5B34EA"/>
<path fill-rule="evenodd" clip-rule="evenodd" d="M17.5303 14.4697C17.8232 14.7626 17.8232 15.2374 17.5303 15.5303L16.0607 17L17.5303 18.4697C17.8232 18.7626 17.8232 19.2374 17.5303 19.5303C17.2374 19.8232 16.7626 19.8232 16.4697 19.5303L14.4697 17.5303C14.1768 17.2374 14.1768 16.7626 14.4697 16.4697L16.4697 14.4697C16.7626 14.1768 17.2374 14.1768 17.5303 14.4697Z" fill="#5B34EA"/>
<path fill-rule="evenodd" clip-rule="evenodd" d="M14.25 17C14.25 16.5858 14.5858 16.25 15 16.25H25C25.4142 16.25 25.75 16.5858 25.75 17C25.75 17.4142 25.4142 17.75 25 17.75H15C14.5858 17.75 14.25 17.4142 14.25 17Z" fill="#5B34EA"/>
</g>
</g>
<defs>
<clipPath id="clip0_10273_18630">
<rect width="40" height="40" fill="white"/>
</clipPath>
<clipPath id="clip1_10273_18630">
<rect width="16" height="16" fill="white" transform="translate(12 12)"/>
</clipPath>
</defs>
</svg>
