<?xml version="1.0" encoding="utf-8"?>
<!-- Svg Vector Icons : http://www.onlinewebfonts.com/icon -->
<!DOCTYPE svg PUBLIC "-//W3C//DTD SVG 1.1//EN" "http://www.w3.org/Graphics/SVG/1.1/DTD/svg11.dtd">
<svg version="1.1" xmlns="http://www.w3.org/2000/svg" xmlns:xlink="http://www.w3.org/1999/xlink" x="0px" y="0px" viewBox="0 0 1000 1000" enable-background="new 0 0 1000 1000" xml:space="preserve" fill="#0033CC">
<metadata> Svg Vector Icons : http://www.onlinewebfonts.com/icon </metadata>
<g><g transform="translate(0.000000,511.000000) scale(0.100000,-0.100000)"><path d="M488.2,3561.8c-98-30.6-177.7-81.7-251.2-163.4C94,3241.2,100.1,3339.2,100.1,1027c0-2361.2-10.2-2218.2,163.4-2389.8c171.6-173.6,18.4-163.4,2483.7-163.4c1913.9,0,2171.2,4.1,2193.7,30.6c14.3,18.4,81.7,73.5,147.1,122.5l122.6,91.9H2894.3c-2163.1,0-2318.3,2.1-2383.6,36.8c-38.8,18.4-89.9,61.3-112.3,91.9c-42.9,57.2-42.9,65.4-42.9,2179.4c0,2114,0,2122.2,42.9,2179.4c22.5,30.6,73.5,73.5,112.3,91.9c65.4,34.7,277.8,36.8,3582.6,36.8c3304.9,0,3517.3-2,3584.7-36.8c136.9-69.5,153.2-126.6,157.3-576c0-218.6,4.1-459.6,4.1-533.1l2-134.8l108.3-49c57.2-24.5,114.4-51.1,122.5-55.1c10.2-4.1,14.3,269.6,10.2,610.7c-6.1,606.6-8.2,623-55.1,719c-26.6,53.1-83.7,128.7-128.7,167.5c-167.5,143,114.4,132.8-3813.4,130.7C2134.5,3578.2,516.8,3570,488.2,3561.8z"/><path d="M6952.9,1854.3c-384-85.8-549.5-214.5-704.7-543.3c-83.7-181.8-122.6-373.8-122.6-629.1c0-194-4.1-214.5-51.1-271.7c-36.8-44.9-51.1-85.8-53.1-155.2c-6.1-318.6,51.1-498.4,232.9-723.1c47-59.2,98-145,114.4-190c91.9-275.7,296.2-512.7,543.3-635.2c200.2-98,420.8-118.5,606.6-51.1c155.2,53.1,322.7,167.5,424.8,286c81.7,91.9,245.1,388.1,245.1,441.2c0,14.3,36.8,69.5,81.7,124.6c177.7,214.5,281.9,506.6,257.4,719c-14.3,114.4-61.3,228.8-94,228.8c-12.2,0-20.4,98-20.4,241c0,283.9-34.7,447.3-136.9,653.6c-136.9,279.8-302.3,406.5-649.5,494.3C7439,1891,7140.8,1897.2,6952.9,1854.3z"/><path d="M6054.1-1166.7c-647.5-267.6-864-398.3-1027.4-608.7c-112.3-147.1-236.9-404.4-298.2-616.8c-57.2-194-102.1-504.5-83.7-563.8c22.5-71.5,439.2-204.3,857.9-275.7c1037.6-173.6,2616.5-169.5,3594.9,10.2c257.4,49,547.4,126.6,690.4,187.9c118.5,51.1,128.7,81.7,96,314.6c-61.3,459.6-275.7,900.8-547.4,1123.4c-130.7,108.2-463.7,275.7-892.6,445.3L8160-1035.9l-51.1-65.4c-255.3-335-686.3-508.6-1037.6-418.7c-216.5,57.2-369.7,147.1-543.3,322.7c-87.8,89.9-161.4,161.3-163.4,159.3C6362.6-1038,6223.7-1095.2,6054.1-1166.7z"/><path d="M2918.8-1944.9v-316.6h-294.1c-286,0-296.2-2-355.4-51.1c-79.7-65.4-98.1-151.1-55.2-232.8c63.3-126.6,49-124.6,1170.4-124.6h1021.3l24.5,138.9c42.9,253.3,163.4,551.5,318.6,796.6l69.4,106.2h-949.8h-949.8V-1944.9z"/></g></g>
</svg>
