<?xml version="1.0" encoding="utf-8"?>
<!-- Svg Vector Icons : http://www.onlinewebfonts.com/icon -->
<!DOCTYPE svg PUBLIC "-//W3C//DTD SVG 1.1//EN" "http://www.w3.org/Graphics/SVG/1.1/DTD/svg11.dtd">
<svg version="1.1" xmlns="http://www.w3.org/2000/svg" xmlns:xlink="http://www.w3.org/1999/xlink" x="0px" y="0px" viewBox="0 0 1000 1000" enable-background="new 0 0 1000 1000" xml:space="preserve" fill="#0033CC">
<metadata> Svg Vector Icons : http://www.onlinewebfonts.com/icon </metadata>
<g><path d="M717,429.9c-8.3-6.1-18.7-9.3-30-9.3c-17.8,0-35,8.3-44.8,21.5L447.2,706L344.8,604.3c-5.7-5.6-14.8-8.8-25.2-8.8c-14.8,0-29.8,6.5-40.1,17.3c-19.6,20.5-18.7,52.2-4.9,65.9c38.5,37.5,140.7,137.1,150.2,145.5c19.3,17.6,52.1,11.2,69.5-11.7l229.2-310.1c9.1-12.3,13.1-27.8,11-42.5C733.1,451.2,729.1,438.9,717,429.9z M392.1,264.8h215.9c26.3,0,47.7-21.5,47.7-48v-41.2c0-23.7-17.1-43.4-39.5-47.3c0.4-3.9,0.6-7.8,0.6-11.7c0-57.8-49-106.6-107-106.6h-19.5c-59,0-107,48.9-107,109c0,3.2,0.1,6.3,0.4,9.4c-22.3,4-39.3,23.7-39.3,47.3v41.2C344.4,243.3,365.8,264.8,392.1,264.8z M772.3,166.8H675v87.6c0,16.5-13.4,30-29.8,30H354.7c-16.4,0-29.8-13.4-29.8-30v-87.6h-97.3c-73.8,0-136.1,62.8-136.1,137.2v548.8c0,74.4,62.4,137.2,136.1,137.2h544.6c73.8,0,136.2-62.8,136.2-137.2V304C908.5,229.6,846.1,166.8,772.3,166.8z M754.6,525.9L525.3,836.1c-17.9,23.7-45.3,37.8-73.3,37.8c-20.1,0-38.5-7.1-53.2-20.5c-11.9-10.6-145.7-141.1-151.4-146.7c-30.7-30.4-28.8-87,4-121.2c17.7-18.6,42.6-29.3,68.1-29.3c20.8,0,39.5,7.2,52.5,20.1l70.6,70.1L611,418.7c17.2-23.4,45.6-37.3,76-37.3c19.6,0,37.9,5.8,53,16.9c17.9,13.3,29.5,33.2,32.9,55.9C776.6,479.2,769.9,505.3,754.6,525.9z"/></g>
</svg>
