<svg width="120" height="120" viewBox="0 0 120 120" fill="none" xmlns="http://www.w3.org/2000/svg">
<g clip-path="url(#clip0_10498_25434)">
<rect width="120" height="120" rx="8" fill="url(#paint0_linear_10498_25434)"/>
<path fill-rule="evenodd" clip-rule="evenodd" d="M35 34C34.4477 34 34 34.4477 34 35V85C34 85.5523 34.4477 86 35 86H61C61.8284 86 62.5 86.6716 62.5 87.5C62.5 88.3284 61.8284 89 61 89H35C32.7909 89 31 87.2091 31 85V35C31 32.7909 32.7909 31 35 31H85C87.2091 31 89 32.7909 89 35V57C89 57.8284 88.3284 58.5 87.5 58.5C86.6716 58.5 86 57.8284 86 57V35C86 34.4477 85.5523 34 85 34H35Z" fill="#DED6FB"/>
<path fill-rule="evenodd" clip-rule="evenodd" d="M75 26C75.8284 26 76.5 26.6716 76.5 27.5V37.5C76.5 38.3284 75.8284 39 75 39C74.1716 39 73.5 38.3284 73.5 37.5V27.5C73.5 26.6716 74.1716 26 75 26Z" fill="#DED6FB"/>
<path fill-rule="evenodd" clip-rule="evenodd" d="M45 26C45.8284 26 46.5 26.6716 46.5 27.5V37.5C46.5 38.3284 45.8284 39 45 39C44.1716 39 43.5 38.3284 43.5 37.5V27.5C43.5 26.6716 44.1716 26 45 26Z" fill="#DED6FB"/>
<path fill-rule="evenodd" clip-rule="evenodd" d="M31 47.5C31 46.6716 31.6716 46 32.5 46H87.5C88.3284 46 89 46.6716 89 47.5C89 48.3284 88.3284 49 87.5 49H32.5C31.6716 49 31 48.3284 31 47.5Z" fill="#DED6FB"/>
<path fill-rule="evenodd" clip-rule="evenodd" d="M81 71.5C75.201 71.5 70.5 76.201 70.5 82C70.5 87.799 75.201 92.5 81 92.5C86.799 92.5 91.5 87.799 91.5 82C91.5 76.201 86.799 71.5 81 71.5ZM67.5 82C67.5 74.5442 73.5442 68.5 81 68.5C88.4558 68.5 94.5 74.5442 94.5 82C94.5 89.4558 88.4558 95.5 81 95.5C73.5442 95.5 67.5 89.4558 67.5 82Z" fill="#DED6FB"/>
<path fill-rule="evenodd" clip-rule="evenodd" d="M87.0607 75.9393C87.6464 76.5251 87.6464 77.4749 87.0607 78.0607L82.0607 83.0607C81.4749 83.6464 80.5251 83.6464 79.9393 83.0607C79.3536 82.4749 79.3536 81.5251 79.9393 80.9393L84.9393 75.9393C85.5251 75.3536 86.4749 75.3536 87.0607 75.9393Z" fill="#DED6FB"/>
<path fill-rule="evenodd" clip-rule="evenodd" d="M76.5 64C76.5 63.1716 77.1716 62.5 78 62.5H84C84.8284 62.5 85.5 63.1716 85.5 64C85.5 64.8284 84.8284 65.5 84 65.5H78C77.1716 65.5 76.5 64.8284 76.5 64Z" fill="#DED6FB"/>
</g>
<defs>
<linearGradient id="paint0_linear_10498_25434" x1="60" y1="0" x2="60" y2="120" gradientUnits="userSpaceOnUse">
<stop stop-color="#8062EF"/>
<stop offset="1" stop-color="#3111A6"/>
</linearGradient>
<clipPath id="clip0_10498_25434">
<rect width="120" height="120" fill="white"/>
</clipPath>
</defs>
</svg>
