<svg width="156" height="156" viewBox="0 0 156 156" fill="none" xmlns="http://www.w3.org/2000/svg">
<g opacity="0.05">
<ellipse cx="78.65" cy="127.4" rx="15.6" ry="15.6" transform="rotate(90 78.65 127.4)" fill="#5B34EA"/>
<circle cx="78.65" cy="28.6" r="15.6" transform="rotate(90 78.65 28.6)" fill="#5B34EA"/>
<path d="M20.15 52C20.15 56.2981 21.8882 60.1902 24.7 63.0117C27.5118 65.8332 27.5118 90.1668 24.7 92.9883C21.8882 95.8098 20.15 99.7019 20.15 104C20.15 112.616 27.1344 119.6 35.75 119.6C44.3656 119.6 51.35 112.616 51.35 104C51.35 99.0736 49.0664 94.6805 45.5 91.8215C41.9336 88.9626 36.7371 65.9565 45.5 67.8299C54.2629 69.7033 62.1803 75.6638 63.4028 81.3142C64.9223 88.3378 71.1716 93.6 78.65 93.6C86.2685 93.6 92.6115 88.1388 93.9776 80.9175C95.0898 75.0389 103.075 69.2806 111.8 67.6096C120.525 65.9386 115.366 88.9626 111.8 91.8215C108.234 94.6805 105.95 99.0736 105.95 104C105.95 112.616 112.934 119.6 121.55 119.6C130.166 119.6 137.15 112.616 137.15 104C137.15 99.7019 135.412 95.8098 132.6 92.9883C129.788 90.1668 129.788 65.8332 132.6 63.0117C135.412 60.1902 137.15 56.2981 137.15 52C137.15 43.3844 130.166 36.4 121.55 36.4C113.644 36.4 107.112 42.2811 106.089 49.9072C105.067 57.5332 93.5374 63.6315 83.2546 63.0907C79.8208 62.9101 77.0817 63.0282 73.6564 63.2164C63.5707 63.7704 52.1111 58.0921 51.2567 50.2839C50.4023 42.4757 43.7857 36.4 35.75 36.4C27.1344 36.4 20.15 43.3844 20.15 52Z" fill="#5B34EA"/>
</g>
</svg>
