<svg width="16" height="16" viewBox="0 0 16 16" fill="none" xmlns="http://www.w3.org/2000/svg">
<path d="M8 5.5C8 4.125 9.15625 2.98125 10.5312 3C11.0128 3.00556 11.4825 3.15007 11.8838 3.41617C12.2852 3.68227 12.6012 4.05863 12.7937 4.5H15L12.9812 6.51875C12.851 8.54661 11.9533 10.4487 10.4707 11.8384C8.98819 13.2281 7.03204 14.001 5 14C3 14 2.5 13.25 2.5 13.25C2.5 13.25 4.5 12.5 5.5 11C5.5 11 1.5 9 2.5 3.5C2.5 3.5 5 6 8 6.5V5.5Z" stroke="white" stroke-width="1.5" stroke-linecap="round" stroke-linejoin="round"/>
</svg>
