<svg width="88" height="88" viewBox="0 0 88 88" fill="none" xmlns="http://www.w3.org/2000/svg">
<circle cx="44" cy="44" r="44" fill="#CDD6DF"/>
<path fill-rule="evenodd" clip-rule="evenodd" d="M44 25.625C37.7178 25.625 32.625 30.7178 32.625 37C32.625 43.2822 37.7178 48.375 44 48.375C50.2822 48.375 55.375 43.2822 55.375 37C55.375 30.7178 50.2822 25.625 44 25.625ZM27.375 37C27.375 27.8183 34.8183 20.375 44 20.375C53.1817 20.375 60.625 27.8183 60.625 37C60.625 46.1817 53.1817 53.625 44 53.625C34.8183 53.625 27.375 46.1817 27.375 37Z" fill="#F5F7F9"/>
<path fill-rule="evenodd" clip-rule="evenodd" d="M44.0011 53.625C40.1608 53.625 36.3882 54.6355 33.0621 56.5552C29.7361 58.4748 26.9738 61.2359 25.0527 64.5611C24.3274 65.8164 22.7219 66.2461 21.4666 65.5209C20.2113 64.7957 19.7816 63.1901 20.5068 61.9348C22.8888 57.8118 26.3138 54.3883 30.4378 52.0081C34.5618 49.6279 39.2396 48.375 44.0012 48.375C48.7627 48.375 53.4405 49.6281 57.5644 52.0084C61.6884 54.3887 65.1134 57.8123 67.4953 61.9353C68.2205 63.1906 67.7907 64.7961 66.5354 65.5214C65.2801 66.2466 63.6745 65.8168 62.9493 64.5615C61.0283 61.2362 58.266 58.4751 54.94 56.5554C51.614 54.6357 47.8414 53.625 44.0011 53.625Z" fill="#F5F7F9"/>
</svg>
