<svg width="50" height="16" viewBox="0 0 50 16" fill="none" xmlns="http://www.w3.org/2000/svg">
<path d="M32.5577 0.0253906C29.0111 0.0253906 25.8416 1.83717 25.8416 5.18456C25.8416 9.02339 31.4627 9.28854 31.4627 11.2171C31.4627 12.0291 30.5185 12.756 28.9059 12.756C26.6172 12.756 24.9067 11.7403 24.9067 11.7403L24.1748 15.1182C24.1748 15.1182 26.1453 15.9761 28.7615 15.9761C32.6391 15.9761 35.6903 14.0754 35.6903 10.6707C35.6903 6.61433 30.0457 6.35707 30.0457 4.56708C30.0457 3.93098 30.8208 3.234 32.4289 3.234C34.2432 3.234 35.7235 3.97268 35.7235 3.97268L36.4398 0.710202C36.4398 0.710202 34.8291 0.0253906 32.5577 0.0253906ZM0.109316 0.271615L0.0234375 0.764064C0.0234375 0.764064 1.51552 1.0332 2.85938 1.57006C4.58971 2.18569 4.71297 2.54407 5.00438 3.6572L8.17993 15.7222H12.4368L18.9948 0.271615H14.7477L10.5338 10.7765L8.81426 1.87207C8.65657 0.852964 7.85779 0.271615 6.88005 0.271615H0.109316ZM20.7026 0.271615L17.3709 15.7222H21.4208L24.7408 0.271615H20.7026ZM43.2905 0.271615C42.3139 0.271615 41.7965 0.786921 41.4168 1.68741L35.4834 15.7222H39.7305L40.5522 13.3831H45.7264L46.226 15.7222H49.9734L46.7042 0.271615H43.2905ZM43.8429 4.44589L45.1018 10.2437H41.7291L43.8429 4.44589Z" fill="#1434CB"/>
</svg>
