<svg width="16" height="16" viewBox="0 0 16 16" fill="none" xmlns="http://www.w3.org/2000/svg">
<path fill-rule="evenodd" clip-rule="evenodd" d="M8 5.75C8.41421 5.75 8.75 6.08579 8.75 6.5V9C8.75 9.41421 8.41421 9.75 8 9.75C7.58579 9.75 7.25 9.41421 7.25 9V6.5C7.25 6.08579 7.58579 5.75 8 5.75Z" fill="#564210"/>
<path fill-rule="evenodd" clip-rule="evenodd" d="M7.12582 1.48397C7.39165 1.33069 7.69312 1.25 7.99998 1.25C8.30684 1.25 8.60831 1.33069 8.87415 1.48397C9.13998 1.63726 9.36084 1.85775 9.51456 2.12333L15.0131 11.6228C15.167 11.8888 15.2482 12.1907 15.2485 12.4981C15.2488 12.8054 15.1681 13.1074 15.0145 13.3737C14.861 13.6399 14.6401 13.8611 14.3739 14.0148C14.1078 14.1686 13.8059 14.2495 13.4985 14.2495H2.50147C2.19411 14.2495 1.89218 14.1686 1.62605 14.0148C1.35991 13.8611 1.13897 13.6399 0.985439 13.3737C0.831909 13.1074 0.751211 12.8054 0.751465 12.4981C0.75172 12.1907 0.832917 11.8889 0.986886 11.6228L6.4854 2.12333C6.63913 1.85775 6.85998 1.63726 7.12582 1.48397ZM7.99998 2.75C7.95615 2.75 7.91308 2.76153 7.8751 2.78342C7.83713 2.80532 7.80557 2.83682 7.78361 2.87476L2.2851 12.3743C2.2631 12.4123 2.2515 12.4554 2.25146 12.4993C2.25143 12.5432 2.26296 12.5864 2.28489 12.6244C2.30682 12.6624 2.33839 12.694 2.37641 12.716C2.41443 12.738 2.45756 12.7495 2.50147 12.7495H13.4985C13.5424 12.7495 13.5855 12.738 13.6236 12.716C13.6616 12.694 13.6931 12.6624 13.7151 12.6244C13.737 12.5864 13.7485 12.5432 13.7485 12.4993C13.7485 12.4554 13.7369 12.4123 13.7149 12.3743L14.364 11.9986L13.7149 12.3743L8.21635 2.87476C8.19439 2.83682 8.16284 2.80532 8.12486 2.78342C8.08689 2.76153 8.04382 2.75 7.99998 2.75Z" fill="#564210"/>
<path d="M8 12C8.41421 12 8.75 11.6642 8.75 11.25C8.75 10.8358 8.41421 10.5 8 10.5C7.58579 10.5 7.25 10.8358 7.25 11.25C7.25 11.6642 7.58579 12 8 12Z" fill="#564210"/>
</svg>
