<svg width="138" height="66" viewBox="0 0 138 66" fill="none" xmlns="http://www.w3.org/2000/svg">
<path d="M127.715 31.2919C127.715 24.2716 123.003 19.334 116.397 19.334C107.987 19.334 102.35 25.6756 102.35 34.7318C102.35 41.7989 107.107 46.6897 113.826 46.6897C119.936 46.6897 124.491 43.6242 126.362 38.7334H119.576C118.674 40.2544 116.757 41.2139 114.412 41.2139C110.805 41.2139 108.55 38.7334 108.347 35.2232H127.332C127.58 33.8894 127.715 32.7427 127.715 31.2919ZM108.866 30.4728C109.475 27.2435 112.496 24.6694 116.149 24.6694C119.305 24.6694 121.695 27.0563 121.695 30.4728H108.866Z" fill="#2E4369"/>
<path d="M84.1104 46.0584L85.3279 39.3189C89.048 40.0911 89.6117 37.9148 90.5812 32.673L91.0546 30.0755C92.4074 22.751 95.1355 19.1005 102.937 20.0833L101.719 26.8228C97.9989 26.0505 97.3451 28.9757 96.5109 33.5154L96.0374 36.113C94.6846 43.5311 91.8663 47.0412 84.1104 46.0584Z" fill="#2E4369"/>
<path d="M75.0015 46.0803L79.6009 19.9648H85.6659L81.089 46.0803H75.0015Z" fill="#2E4369"/>
<path d="M40.2573 19.9648H46.1419L48.0584 38.8494L55.7693 19.9648H61.6088L63.6605 39.0366L71.1008 19.9648H76.9629L66.2984 46.0803H59.6247L57.4602 28.1084L50.0876 46.0803H43.6393L40.2573 19.9648Z" fill="#2E4369"/>
<path d="M18.2745 26.8915L11.2852 33.8182H23.1671L24.4072 30.7995H18.3873L22.1525 26.8915L19.9655 22.9836H30.1791L20.7547 46.0803H24.2944L34.9589 19.9648H14.3515L18.2745 26.8915Z" fill="#00B9FF"/>
</svg>
