<svg width="20" height="20" viewBox="0 0 20 20" fill="none" xmlns="http://www.w3.org/2000/svg">
<path fill-rule="evenodd" clip-rule="evenodd" d="M2.1875 10C2.1875 9.48223 2.60723 9.0625 3.125 9.0625H16.875C17.3928 9.0625 17.8125 9.48223 17.8125 10C17.8125 10.5178 17.3928 10.9375 16.875 10.9375H3.125C2.60723 10.9375 2.1875 10.5178 2.1875 10Z" fill="#1D1A31"/>
<path fill-rule="evenodd" clip-rule="evenodd" d="M9.41291 3.71209C9.77903 4.0782 9.77903 4.6718 9.41291 5.03791L4.45083 10L9.41291 14.9621C9.77903 15.3282 9.77903 15.9218 9.41291 16.2879C9.0468 16.654 8.4532 16.654 8.08709 16.2879L2.46209 10.6629C2.09597 10.2968 2.09597 9.7032 2.46209 9.33709L8.08709 3.71209C8.4532 3.34597 9.0468 3.34597 9.41291 3.71209Z" fill="#1D1A31"/>
</svg>
