<svg width="40" height="40" viewBox="0 0 40 40" fill="none" xmlns="http://www.w3.org/2000/svg">
<path fill-rule="evenodd" clip-rule="evenodd" d="M8.125 8.125V31.875H31.875V8.125H8.125ZM4.375 7.5C4.375 5.77411 5.77411 4.375 7.5 4.375H32.5C34.2259 4.375 35.625 5.77411 35.625 7.5V32.5C35.625 34.2259 34.2259 35.625 32.5 35.625H7.5C5.77411 35.625 4.375 34.2259 4.375 32.5V7.5Z" fill="#5B34EA"/>
<path fill-rule="evenodd" clip-rule="evenodd" d="M27.5 1.875C28.5355 1.875 29.375 2.71447 29.375 3.75V8.75C29.375 9.78553 28.5355 10.625 27.5 10.625C26.4645 10.625 25.625 9.78553 25.625 8.75V3.75C25.625 2.71447 26.4645 1.875 27.5 1.875Z" fill="#5B34EA"/>
<path fill-rule="evenodd" clip-rule="evenodd" d="M12.5 1.875C13.5355 1.875 14.375 2.71447 14.375 3.75V8.75C14.375 9.78553 13.5355 10.625 12.5 10.625C11.4645 10.625 10.625 9.78553 10.625 8.75V3.75C10.625 2.71447 11.4645 1.875 12.5 1.875Z" fill="#5B34EA"/>
<path fill-rule="evenodd" clip-rule="evenodd" d="M4.375 13.75C4.375 12.7145 5.21447 11.875 6.25 11.875H33.75C34.7855 11.875 35.625 12.7145 35.625 13.75C35.625 14.7855 34.7855 15.625 33.75 15.625H6.25C5.21447 15.625 4.375 14.7855 4.375 13.75Z" fill="#5B34EA"/>
<path fill-rule="evenodd" clip-rule="evenodd" d="M12.875 20C12.875 19.1716 13.5466 18.5 14.375 18.5H18.75C19.3266 18.5 19.8522 18.8305 20.102 19.3502C20.3517 19.8699 20.2815 20.4868 19.9213 20.937L18.7003 22.4633C19.0395 22.7262 19.3354 23.043 19.5755 23.4022C19.941 23.949 20.166 24.5775 20.2307 25.232C20.2953 25.8865 20.1975 26.5469 19.946 27.1546C19.6945 27.7623 19.297 28.2986 18.7888 28.7161C18.2805 29.1335 17.6772 29.4192 17.0322 29.5478C16.3872 29.6764 15.7204 29.644 15.0909 29.4534C14.4614 29.2628 13.8886 28.9199 13.4233 28.4551C12.8372 27.8697 12.8366 26.92 13.422 26.3338C14.0074 25.7477 14.9572 25.7471 15.5433 26.3325C15.6597 26.4487 15.8029 26.5344 15.9602 26.5821C16.1176 26.6297 16.2843 26.6378 16.4455 26.6057C16.6068 26.5735 16.7576 26.5021 16.8847 26.3978C17.0118 26.2934 17.1111 26.1593 17.174 26.0074C17.2369 25.8555 17.2613 25.6904 17.2452 25.5268C17.229 25.3631 17.1728 25.206 17.0814 25.0693C16.99 24.9326 16.8663 24.8205 16.7213 24.743C16.5763 24.6655 16.4144 24.625 16.25 24.625C15.6734 24.625 15.1478 24.2945 14.898 23.7748C14.6483 23.2551 14.7185 22.6382 15.0787 22.188L15.6291 21.5H14.375C13.5466 21.5 12.875 20.8284 12.875 20Z" fill="#5B34EA"/>
<path fill-rule="evenodd" clip-rule="evenodd" d="M25.6708 18.6584C26.179 18.9125 26.5 19.4319 26.5 20V28.125C26.5 28.9534 25.8284 29.625 25 29.625C24.1716 29.625 23.5 28.9534 23.5 28.125V23L23.4 23.075C22.7373 23.5721 21.7971 23.4377 21.3 22.775C20.8029 22.1123 20.9373 21.1721 21.6 20.675L24.1 18.8C24.5545 18.4591 25.1626 18.4043 25.6708 18.6584Z" fill="#5B34EA"/>
</svg>
