<svg width="44" height="45" viewBox="0 0 44 45" fill="none" xmlns="http://www.w3.org/2000/svg">
<path fill-rule="evenodd" clip-rule="evenodd" d="M22 9.9375C14.7858 9.9375 8.9375 15.7858 8.9375 23C8.9375 30.2142 14.7858 36.0625 22 36.0625C29.2142 36.0625 35.0625 30.2142 35.0625 23C35.0625 15.7858 29.2142 9.9375 22 9.9375ZM4.8125 23C4.8125 13.5076 12.5076 5.8125 22 5.8125C31.4924 5.8125 39.1875 13.5076 39.1875 23C39.1875 32.4924 31.4924 40.1875 22 40.1875C12.5076 40.1875 4.8125 32.4924 4.8125 23Z" fill="#5B34EA"/>
<path fill-rule="evenodd" clip-rule="evenodd" d="M30.2643 14.735C31.0698 15.5404 31.0698 16.8463 30.2643 17.6518L23.4584 24.4577C22.653 25.2631 21.347 25.2631 20.5416 24.4577C19.7361 23.6522 19.7361 22.3463 20.5416 21.5409L27.3475 14.735C28.153 13.9295 29.4589 13.9295 30.2643 14.735Z" fill="#5B34EA"/>
<path fill-rule="evenodd" clip-rule="evenodd" d="M15.8125 2.375C15.8125 1.23591 16.7359 0.3125 17.875 0.3125H26.125C27.2641 0.3125 28.1875 1.23591 28.1875 2.375C28.1875 3.51409 27.2641 4.4375 26.125 4.4375H17.875C16.7359 4.4375 15.8125 3.51409 15.8125 2.375Z" fill="#5B34EA"/>
</svg>
