<svg width="40" height="40" viewBox="0 0 40 40" fill="none" xmlns="http://www.w3.org/2000/svg">
<path fill-rule="evenodd" clip-rule="evenodd" d="M10 16.25C10 15.2145 10.8395 14.375 11.875 14.375H28.125C29.1605 14.375 30 15.2145 30 16.25C30 17.2855 29.1605 18.125 28.125 18.125H11.875C10.8395 18.125 10 17.2855 10 16.25Z" fill="#5B34EA"/>
<path fill-rule="evenodd" clip-rule="evenodd" d="M10 21.25C10 20.2145 10.8395 19.375 11.875 19.375H28.125C29.1605 19.375 30 20.2145 30 21.25C30 22.2855 29.1605 23.125 28.125 23.125H11.875C10.8395 23.125 10 22.2855 10 21.25Z" fill="#5B34EA"/>
<path fill-rule="evenodd" clip-rule="evenodd" d="M6.875 9.375V29.4662L9.16147 28.323C9.68934 28.059 10.3107 28.059 10.8385 28.323L15 30.4037L19.1615 28.323C19.6893 28.059 20.3107 28.059 20.8385 28.323L25 30.4037L29.1615 28.323C29.6893 28.059 30.3107 28.059 30.8385 28.323L33.125 29.4662V9.375H6.875ZM4.04029 6.54029C4.62634 5.95424 5.4212 5.625 6.25 5.625H33.75C34.5788 5.625 35.3737 5.95424 35.9597 6.54029C36.5458 7.12635 36.875 7.9212 36.875 8.75V32.5C36.875 33.1498 36.5385 33.7533 35.9857 34.095C35.433 34.4366 34.7427 34.4677 34.1615 34.1771L30 32.0963L25.8385 34.1771C25.3107 34.441 24.6893 34.441 24.1615 34.1771L20 32.0963L15.8385 34.1771C15.3107 34.441 14.6893 34.441 14.1615 34.1771L10 32.0963L5.83853 34.1771C5.2573 34.4677 4.56704 34.4366 4.01425 34.095C3.46147 33.7533 3.125 33.1498 3.125 32.5V8.75C3.125 7.9212 3.45424 7.12634 4.04029 6.54029Z" fill="#5B34EA"/>
</svg>
