<svg width="12" height="12" viewBox="0 0 12 12" fill="none" xmlns="http://www.w3.org/2000/svg">
<path fill-rule="evenodd" clip-rule="evenodd" d="M1.87163 1.45885C2.1015 1.24988 2.45725 1.26682 2.66622 1.49669L10.1662 9.74669C10.3752 9.97656 10.3583 10.3323 10.1284 10.5413C9.89851 10.7503 9.54276 10.7333 9.33379 10.5034L1.83379 2.25344C1.62482 2.02357 1.64176 1.66782 1.87163 1.45885Z" fill="#1D1A31"/>
<path fill-rule="evenodd" clip-rule="evenodd" d="M5.1548 4.23426C5.3638 4.46411 5.34689 4.81986 5.11704 5.02886C4.8595 5.26302 4.70553 5.5899 4.68899 5.93759C4.67244 6.28527 4.79469 6.62529 5.02884 6.88285C5.26298 7.14041 5.58984 7.29441 5.93753 7.31098C6.28521 7.32756 6.62524 7.20534 6.88282 6.97122C7.11271 6.76227 7.46846 6.77924 7.67741 7.00913C7.88636 7.23902 7.86939 7.59477 7.6395 7.80372C7.16114 8.23851 6.52966 8.46548 5.88397 8.43471C5.23827 8.40393 4.63124 8.11793 4.1964 7.63961C3.76157 7.16129 3.53454 6.52983 3.56526 5.88413C3.59598 5.23843 3.88192 4.63137 4.36021 4.19649C4.59006 3.9875 4.94581 4.00441 5.1548 4.23426Z" fill="#1D1A31"/>
<path fill-rule="evenodd" clip-rule="evenodd" d="M3.97031 2.96127C4.11066 3.23842 3.99976 3.57687 3.72261 3.71722C2.86408 4.15198 2.2457 4.78212 1.83909 5.31276C1.63673 5.57687 1.48995 5.81228 1.39488 5.9793C1.39088 5.98634 1.38696 5.99325 1.38315 6.00004C1.41977 6.06511 1.46496 6.14186 1.51896 6.22762C1.70119 6.51701 1.98062 6.9038 2.36648 7.28962C3.13494 8.058 4.31205 8.8122 6 8.8122H6.00448V8.81222C6.79377 8.81851 7.57321 8.63671 8.27826 8.28187C8.55576 8.14222 8.89394 8.25396 9.03359 8.53146C9.17325 8.80896 9.06151 9.14713 8.78401 9.28679C7.92002 9.72161 6.96496 9.94455 5.99777 9.9372C3.9369 9.93653 2.48973 9.00376 1.57102 8.08515C1.11313 7.62731 0.783189 7.17044 0.566977 6.82709C0.458596 6.65497 0.377989 6.5101 0.323509 6.4061C0.296248 6.35406 0.275464 6.31213 0.260958 6.28201C0.253703 6.26694 0.248012 6.25482 0.243861 6.24584L0.238783 6.23475L0.237102 6.23103L0.236475 6.22963L0.236215 6.22905C0.2361 6.22879 0.23599 6.22854 0.75 6.00007C0.235972 5.77164 0.236051 5.77146 0.236133 5.77127L0.236314 5.77087L0.236732 5.76993L0.237798 5.76756L0.240851 5.76084L0.250673 5.73971C0.258881 5.72228 0.270434 5.69828 0.285409 5.66836C0.315346 5.60854 0.359049 5.52491 0.41716 5.42281C0.533211 5.21891 0.707728 4.93961 0.946102 4.62852C1.42098 4.00877 2.16184 3.24657 3.21437 2.71357C3.49152 2.57322 3.82997 2.68412 3.97031 2.96127ZM0.75 6.00007L0.235972 5.77164C0.171336 5.91708 0.171343 6.0831 0.23599 6.22854L0.75 6.00007Z" fill="#1D1A31"/>
<path fill-rule="evenodd" clip-rule="evenodd" d="M4.93845 2.14871C5.2894 2.09058 5.64457 2.06165 6.0003 2.0622C8.06215 2.06234 9.50991 2.99561 10.4289 3.91466C10.8867 4.3726 11.2167 4.82956 11.4329 5.17298C11.5413 5.34513 11.6219 5.49004 11.6764 5.59405C11.7036 5.6461 11.7244 5.68803 11.7389 5.71816C11.7462 5.73323 11.7518 5.74536 11.756 5.75434L11.7611 5.76542L11.7628 5.76915L11.7634 5.77055C11.7635 5.77081 11.7639 5.77164 11.2498 6.00007C11.7638 6.22854 11.7638 6.22867 11.7637 6.22881L11.7633 6.22975L11.7626 6.23133L11.7607 6.2356L11.7548 6.24848C11.7499 6.25896 11.7432 6.27319 11.7346 6.2909C11.7174 6.3263 11.6927 6.37567 11.6601 6.43679C11.5951 6.55891 11.4985 6.7286 11.3681 6.92792C11.1083 7.32539 10.7097 7.84758 10.1537 8.34561C9.92229 8.55287 9.56667 8.5333 9.35941 8.30189C9.15214 8.07048 9.17171 7.71486 9.40312 7.5076C9.86904 7.09029 10.2062 6.64921 10.4266 6.31225C10.5052 6.19199 10.5684 6.08588 10.6167 6.00004C10.5801 5.93494 10.5349 5.85815 10.4809 5.77235C10.2986 5.4829 10.0192 5.09602 9.63332 4.71011C8.86484 3.94155 7.68774 3.1872 5.99984 3.1872H5.99892C5.70523 3.18672 5.41201 3.2106 5.12227 3.25859C4.81579 3.30935 4.52618 3.10204 4.47542 2.79556C4.42466 2.48907 4.63196 2.19947 4.93845 2.14871ZM11.2498 6.00007L11.7637 6.22881C11.8284 6.08337 11.8285 5.91708 11.7639 5.77164L11.2498 6.00007Z" fill="#1D1A31"/>
<path fill-rule="evenodd" clip-rule="evenodd" d="M5.80023 4.05217C5.85882 3.74708 6.15363 3.54725 6.45872 3.60584C6.97672 3.70531 7.44851 3.97004 7.80331 4.36034C8.15812 4.75064 8.37681 5.24546 8.42659 5.77057C8.45591 6.07984 8.22896 6.35433 7.91969 6.38364C7.61042 6.41296 7.33593 6.18601 7.30662 5.87674C7.2798 5.59388 7.16199 5.32733 6.97087 5.11709C6.77974 4.90684 6.5256 4.76423 6.24657 4.71065C5.94148 4.65207 5.74165 4.35726 5.80023 4.05217Z" fill="#1D1A31"/>
</svg>
