<svg width="12" height="12" viewBox="0 0 12 12" fill="none" xmlns="http://www.w3.org/2000/svg">
<path fill-rule="evenodd" clip-rule="evenodd" d="M1.57098 3.91496C2.49 2.99584 3.9379 2.0625 6 2.0625C8.0621 2.0625 9.51 2.99584 10.429 3.91496C10.8869 4.37289 11.2168 4.82986 11.4331 5.17328C11.5414 5.34543 11.622 5.49033 11.6765 5.59435C11.7038 5.6464 11.7246 5.68833 11.7391 5.71846C11.7463 5.73353 11.752 5.74566 11.7562 5.75464L11.7612 5.76572L11.7629 5.76945L11.7635 5.77085L11.7638 5.77143C11.7639 5.77169 11.764 5.77193 11.25 6.00037C11.764 6.22884 11.7639 6.22909 11.7638 6.22934L11.7635 6.22993L11.7629 6.23133L11.7612 6.23505L11.7561 6.24614C11.752 6.25511 11.7463 6.26724 11.739 6.28231C11.7245 6.31243 11.7038 6.35436 11.6765 6.4064C11.622 6.51039 11.5414 6.65527 11.433 6.82738C11.2168 7.17074 10.8869 7.62761 10.429 8.08545C9.50994 9.00439 8.06205 9.9375 6 9.9375C3.93795 9.9375 2.49006 9.00439 1.57102 8.08545C1.11313 7.62761 0.783189 7.17074 0.566977 6.82738C0.458596 6.65527 0.377989 6.51039 0.323509 6.4064C0.296248 6.35436 0.275464 6.31243 0.260958 6.28231C0.253703 6.26724 0.248012 6.25511 0.243861 6.24614L0.238783 6.23505L0.237102 6.23133L0.236475 6.22993L0.236215 6.22934C0.2361 6.22909 0.23599 6.22884 0.75 6.00037C0.235972 5.77193 0.236081 5.77169 0.236196 5.77143L0.236457 5.77085L0.237083 5.76945L0.238764 5.76572L0.243841 5.75464C0.247992 5.74566 0.253683 5.73353 0.260937 5.71846C0.275443 5.68833 0.296225 5.6464 0.323485 5.59435C0.377964 5.49033 0.458569 5.34543 0.566948 5.17328C0.783155 4.82986 1.11309 4.37289 1.57098 3.91496ZM0.75 6.00037L0.235972 5.77193C0.171336 5.91738 0.171343 6.0834 0.23599 6.22884L0.75 6.00037ZM1.38315 6.00034C1.41978 5.93524 1.46497 5.85845 1.51899 5.77265C1.70122 5.48319 1.98066 5.09631 2.36652 4.71041C3.135 3.94185 4.3121 3.1875 6 3.1875C7.6879 3.1875 8.865 3.94185 9.63348 4.71041C10.0193 5.09631 10.2988 5.48319 10.481 5.77265C10.535 5.85845 10.5802 5.93524 10.6169 6.00034C10.5802 6.06541 10.535 6.14216 10.481 6.22792C10.2988 6.51731 10.0194 6.9041 9.63352 7.28991C8.86506 8.0583 7.68795 8.8125 6 8.8125C4.31205 8.8125 3.13494 8.0583 2.36648 7.28991C1.98062 6.9041 1.70119 6.51731 1.51896 6.22792C1.46496 6.14216 1.41977 6.06541 1.38315 6.00034ZM11.25 6.00037L11.764 6.22884C11.8287 6.0834 11.8287 5.91738 11.764 5.77193L11.25 6.00037Z" fill="#1D1A31"/>
<path fill-rule="evenodd" clip-rule="evenodd" d="M6 5.0625C5.48223 5.0625 5.0625 5.48223 5.0625 6C5.0625 6.51777 5.48223 6.9375 6 6.9375C6.51777 6.9375 6.9375 6.51777 6.9375 6C6.9375 5.48223 6.51777 5.0625 6 5.0625ZM3.9375 6C3.9375 4.86091 4.86091 3.9375 6 3.9375C7.13909 3.9375 8.0625 4.86091 8.0625 6C8.0625 7.13909 7.13909 8.0625 6 8.0625C4.86091 8.0625 3.9375 7.13909 3.9375 6Z" fill="#1D1A31"/>
</svg>
