<svg width="40" height="40" viewBox="0 0 40 40" fill="none" xmlns="http://www.w3.org/2000/svg">
<path fill-rule="evenodd" clip-rule="evenodd" d="M4.375 11.875V28.125H35.625V11.875H4.375ZM0.625 11.25C0.625 9.52411 2.02411 8.125 3.75 8.125H36.25C37.9759 8.125 39.375 9.52411 39.375 11.25V28.75C39.375 30.4759 37.9759 31.875 36.25 31.875H3.75C2.02411 31.875 0.625 30.4759 0.625 28.75V11.25Z" fill="#5B34EA"/>
<path fill-rule="evenodd" clip-rule="evenodd" d="M20 16.875C18.2741 16.875 16.875 18.2741 16.875 20C16.875 21.7259 18.2741 23.125 20 23.125C21.7259 23.125 23.125 21.7259 23.125 20C23.125 18.2741 21.7259 16.875 20 16.875ZM13.125 20C13.125 16.203 16.203 13.125 20 13.125C23.797 13.125 26.875 16.203 26.875 20C26.875 23.797 23.797 26.875 20 26.875C16.203 26.875 13.125 23.797 13.125 20Z" fill="#5B34EA"/>
<path fill-rule="evenodd" clip-rule="evenodd" d="M26.0889 8.76533C26.7708 7.98601 27.9554 7.90704 28.7347 8.58894L38.7347 17.3389C39.514 18.0208 39.593 19.2054 38.9111 19.9847C38.2292 20.764 37.0447 20.843 36.2653 20.1611L26.2653 11.4111C25.486 10.7292 25.407 9.54465 26.0889 8.76533Z" fill="#5B34EA"/>
<path fill-rule="evenodd" clip-rule="evenodd" d="M38.9111 20.0153C39.593 20.7946 39.514 21.9792 38.7347 22.6611L28.7347 31.4111C27.9554 32.093 26.7708 32.014 26.0889 31.2347C25.407 30.4554 25.486 29.2708 26.2653 28.5889L36.2653 19.8389C37.0447 19.157 38.2292 19.236 38.9111 20.0153Z" fill="#5B34EA"/>
<path fill-rule="evenodd" clip-rule="evenodd" d="M13.9111 8.76533C14.593 9.54465 14.514 10.7292 13.7347 11.4111L3.73472 20.1611C2.9554 20.843 1.77085 20.764 1.08894 19.9847C0.407041 19.2054 0.486011 18.0208 1.26533 17.3389L11.2653 8.58894C12.0446 7.90704 13.2292 7.98601 13.9111 8.76533Z" fill="#5B34EA"/>
<path fill-rule="evenodd" clip-rule="evenodd" d="M1.08894 20.0153C1.77085 19.236 2.9554 19.157 3.73472 19.8389L13.7347 28.5889C14.514 29.2708 14.593 30.4554 13.9111 31.2347C13.2292 32.014 12.0446 32.093 11.2653 31.4111L1.26533 22.6611C0.486011 21.9792 0.407041 20.7946 1.08894 20.0153Z" fill="#5B34EA"/>
</svg>
