<svg width="80" height="80" viewBox="0 0 80 80" fill="none" xmlns="http://www.w3.org/2000/svg">
<path fill-rule="evenodd" clip-rule="evenodd" d="M40 80C17.9086 80 0 62.0914 0 40C0 17.9086 17.9086 0 40 0C62.0914 0 80 17.9086 80 40C80 62.0914 62.0914 80 40 80ZM58.3362 66.8038V14.0977H50.9887V34.6241H47.4927V14.9258H40.2637V64.4377H47.4927V40.7761H50.9887V66.8038H58.3362ZM30.1878 26.6961C30.1878 38.4086 33.9208 44.6198 39.9648 48.4648L35.5207 54.4394C32.3802 52.369 27.6399 47.4592 26.3955 42.6677C25.0919 47.5775 20.8849 53.0197 16.2631 55.6816L11.9375 50.1211C19.048 45.862 22.544 38.7044 22.544 26.8145V19.1836H30.1878V26.6961Z" fill="#2D3037"/>
</svg>
