<svg width="24" height="24" viewBox="0 0 24 24" fill="none" xmlns="http://www.w3.org/2000/svg">
<path fill-rule="evenodd" clip-rule="evenodd" d="M11.25 14.8125C11.7678 14.8125 12.1875 15.2322 12.1875 15.75V19.3125H13.875C14.3928 19.3125 14.8125 19.7322 14.8125 20.25C14.8125 20.7678 14.3928 21.1875 13.875 21.1875H11.25C10.7322 21.1875 10.3125 20.7678 10.3125 20.25V15.75C10.3125 15.2322 10.7322 14.8125 11.25 14.8125Z" fill="#9D85F2"/>
<path fill-rule="evenodd" clip-rule="evenodd" d="M4.31256 15.0001C4.72677 14.6894 5.31439 14.7733 5.62506 15.1876L9.00006 19.6876C9.31072 20.1018 9.22677 20.6894 8.81256 21.0001C8.39834 21.3107 7.81072 21.2268 7.50006 20.8126L4.12506 16.3126C3.8144 15.8983 3.89834 15.3107 4.31256 15.0001Z" fill="#9D85F2"/>
<path fill-rule="evenodd" clip-rule="evenodd" d="M8.81256 15.0001C9.22677 15.3107 9.31072 15.8983 9.00006 16.3126L5.62506 20.8126C5.31439 21.2268 4.72677 21.3107 4.31256 21.0001C3.89834 20.6894 3.8144 20.1018 4.12506 19.6876L7.50006 15.1876C7.81072 14.7733 8.39834 14.6894 8.81256 15.0001Z" fill="#9D85F2"/>
<path fill-rule="evenodd" clip-rule="evenodd" d="M17.4435 16.8002C17.5963 16.8836 17.8332 16.9505 18.2407 17.0588C18.2509 17.0615 18.2611 17.0642 18.2716 17.0669C18.6142 17.1578 19.1125 17.29 19.5192 17.5378C20.0065 17.8348 20.4376 18.3456 20.4376 19.125C20.4376 19.8916 20.1051 20.5043 19.525 20.8756C19.0128 21.2033 18.4038 21.2812 17.9063 21.2812H17.9038V21.2812C17.1958 21.2794 16.5071 21.0498 15.9395 20.6265C15.5245 20.3169 15.439 19.7295 15.7486 19.3145C16.0581 18.8995 16.6455 18.814 17.0606 19.1235C17.3053 19.3061 17.6023 19.4052 17.9076 19.4062C18.253 19.4061 18.4405 19.3435 18.5142 19.2963C18.5377 19.2813 18.5403 19.2742 18.5405 19.2734C18.5406 19.2734 18.5406 19.2734 18.5406 19.2734L18.5406 19.2733C18.542 19.2707 18.5592 19.2381 18.5621 19.1509C18.5568 19.1473 18.5506 19.1433 18.5435 19.1389C18.4 19.0515 18.1663 18.979 17.7594 18.8709C17.7369 18.865 17.7137 18.8588 17.6897 18.8525C17.3588 18.7653 16.8883 18.6412 16.506 18.4242C16.2847 18.2985 16.0423 18.116 15.8559 17.8443C15.6612 17.5605 15.5626 17.2301 15.5626 16.875C15.5626 16.2481 15.8068 15.6753 16.2767 15.2726C16.7312 14.883 17.3172 14.7188 17.9063 14.7188H17.9088V14.7188C18.6168 14.7206 19.3055 14.9502 19.8731 15.3735C20.2881 15.6831 20.3736 16.2705 20.064 16.6855C19.7545 17.1005 19.1671 17.186 18.752 16.8765C18.5073 16.6939 18.2104 16.5948 17.9051 16.5938C17.6513 16.594 17.5345 16.664 17.4969 16.6962C17.4784 16.712 17.4672 16.7277 17.4589 16.7466C17.454 16.7577 17.4479 16.775 17.4435 16.8002Z" fill="#9D85F2"/>
<path fill-rule="evenodd" clip-rule="evenodd" d="M5.625 4.125V12C5.625 12.6213 5.12132 13.125 4.5 13.125C3.87868 13.125 3.375 12.6213 3.375 12V3.75C3.375 3.25272 3.57254 2.77581 3.92417 2.42417C4.27581 2.07254 4.75272 1.875 5.25 1.875H14.25C14.5484 1.875 14.8345 1.99353 15.0455 2.2045L20.2955 7.4545C20.5065 7.66548 20.625 7.95163 20.625 8.25V12C20.625 12.6213 20.1213 13.125 19.5 13.125C18.8787 13.125 18.375 12.6213 18.375 12V8.71599L13.784 4.125H5.625Z" fill="#9D85F2"/>
<path fill-rule="evenodd" clip-rule="evenodd" d="M14.25 1.875C14.8713 1.875 15.375 2.37868 15.375 3V7.125H19.5C20.1213 7.125 20.625 7.62868 20.625 8.25C20.625 8.87132 20.1213 9.375 19.5 9.375H14.25C13.6287 9.375 13.125 8.87132 13.125 8.25V3C13.125 2.37868 13.6287 1.875 14.25 1.875Z" fill="#9D85F2"/>
</svg>
