<svg width="75" height="65" viewBox="0 0 75 65" fill="none" xmlns="http://www.w3.org/2000/svg">
<path fill-rule="evenodd" clip-rule="evenodd" d="M51.997 6.57309e-05C53.18 -0.00446327 54.3522 0.225094 55.4461 0.675528C56.5411 1.12638 57.5359 1.78959 58.3732 2.62689C59.2105 3.46418 59.8737 4.459 60.3245 5.55394C60.775 6.648 61.0046 7.82037 61 9.00352V30.5001C61 31.3285 60.3284 32.0001 59.5 32.0001C58.6716 32.0001 58 31.3285 58 30.5001V9.00007L58 8.99378C58.0033 8.20574 57.8505 7.42486 57.5505 6.69618C57.2505 5.9675 56.8091 5.30544 56.2519 4.74821C55.6946 4.19098 55.0326 3.74961 54.3039 3.44957C53.5752 3.14952 52.7943 2.99675 52.0063 3.00005L52 3.00007H9.5C8.67157 3.00007 8 2.32849 8 1.50007C8 0.671639 8.67157 6.57309e-05 9.5 6.57309e-05H51.997Z" fill="#DED6FB"/>
<path fill-rule="evenodd" clip-rule="evenodd" d="M10.2122 3.0465C9.24684 2.93108 8.26787 3.052 7.35958 3.39884C6.45129 3.74568 5.64089 4.30806 4.99814 5.03756C4.35539 5.76706 3.89955 6.64182 3.66985 7.58656C3.44015 8.5313 3.44348 9.51771 3.67954 10.4609C3.91561 11.404 4.37734 12.2757 5.025 13.0009C5.57684 13.6187 5.52332 14.567 4.90545 15.1188C4.28758 15.6707 3.33934 15.6171 2.7875 14.9993C1.81602 13.9115 1.12342 12.604 0.769316 11.1893C0.415216 9.77453 0.410225 8.29492 0.754772 6.87781C1.09932 5.4607 1.78308 4.14855 2.74721 3.0543C3.71133 1.96005 4.92693 1.11649 6.28937 0.596228C7.65181 0.0759649 9.12027 -0.105412 10.5683 0.0677068C12.0164 0.240826 13.4008 0.763255 14.6022 1.59003C15.8036 2.4168 16.786 3.52314 17.465 4.81383C18.144 6.10451 18.4992 7.54087 18.5 8.99926V48.9993C18.5005 49.9715 18.7373 50.9291 19.19 51.7896C19.6426 52.65 20.2976 53.3876 21.0986 53.9388C21.8995 54.4899 22.8224 54.8382 23.7878 54.9536C24.7531 55.069 25.7321 54.9481 26.6404 54.6013C27.5487 54.2544 28.3591 53.6921 29.0019 52.9626C29.6446 52.2331 30.1004 51.3583 30.3301 50.4136C30.5598 49.4688 30.5565 48.4824 30.3205 47.5392C30.0844 46.5961 29.6227 45.7244 28.975 44.9993C28.5811 44.5582 28.4831 43.9269 28.7247 43.3872C28.9663 42.8475 29.5024 42.5001 30.0937 42.5001H43.5937C44.4222 42.5001 45.0937 43.1716 45.0937 44.0001C45.0937 44.8285 44.4222 45.5001 43.5937 45.5001H32.7933C32.9719 45.9238 33.1183 46.3619 33.2307 46.8108C33.5848 48.2256 33.5898 49.7052 33.2452 51.1223C32.9007 52.5394 32.2169 53.8516 31.2528 54.9458C31.2368 54.964 31.2207 54.9821 31.2046 55.0001H42C42.8284 55.0001 43.5 55.6716 43.5 56.5001C43.5 57.3285 42.8284 58.0001 42 58.0001H24.5C24.4592 58.0001 24.4188 57.9984 24.3789 57.9952C24.0631 57.991 23.7469 57.9701 23.4316 57.9324C21.9836 57.7593 20.5992 57.2369 19.3978 56.4101C18.1964 55.5833 17.214 54.477 16.535 53.1863C15.856 51.8956 15.5008 50.4593 15.5 49.0009V9.00087C15.4995 8.0286 15.2627 7.07103 14.81 6.21058C14.3574 5.35012 13.7024 4.61256 12.9014 4.06138C12.1005 3.51019 11.1776 3.16191 10.2122 3.0465Z" fill="#DED6FB"/>
<path fill-rule="evenodd" clip-rule="evenodd" d="M39.5 7.50006C40.3284 7.50006 41 8.17164 41 9.00006V34.0001C41 34.8285 40.3284 35.5001 39.5 35.5001C38.6716 35.5001 38 34.8285 38 34.0001V9.00006C38 8.17164 38.6716 7.50006 39.5 7.50006Z" fill="#DED6FB"/>
<path fill-rule="evenodd" clip-rule="evenodd" d="M31.6928 11.8957C32.9281 10.6793 34.5988 10.0001 36.3359 10.0001H40.9062C41.7669 10.0001 42.6197 10.1669 43.416 10.4917C44.2124 10.8165 44.9376 11.2932 45.5494 11.8957C46.1613 12.4982 46.648 13.2147 46.9805 14.005C47.3129 14.7953 47.4844 15.6432 47.4844 16.5001C47.4844 17.3285 46.8128 18.0001 45.9844 18.0001C45.1559 18.0001 44.4844 17.3285 44.4844 16.5001C44.4844 16.0437 44.3931 15.5912 44.2152 15.1683C44.0373 14.7453 43.7758 14.3595 43.4446 14.0334C43.1134 13.7072 42.7189 13.4473 42.2831 13.2696C41.8473 13.0918 41.3793 13.0001 40.9062 13.0001H36.3359C35.3795 13.0001 34.4669 13.3744 33.7976 14.0334C33.129 14.6916 32.7578 15.5794 32.7578 16.5001C32.7578 17.4208 33.129 18.3085 33.7976 18.9667C34.4669 19.6258 35.3795 20.0001 36.3359 20.0001H41.9219C43.6591 20.0001 45.3297 20.6793 46.5651 21.8957C47.8012 23.1128 48.5 24.7686 48.5 26.5001C48.5 28.2315 47.8012 29.8873 46.5651 31.1044C45.3297 32.3208 43.6591 33.0001 41.9219 33.0001H35.8281C34.0909 33.0001 32.4203 32.3208 31.1849 31.1044C29.9488 29.8873 29.25 28.2315 29.25 26.5001C29.25 25.6716 29.9216 25.0001 30.75 25.0001C31.5784 25.0001 32.25 25.6716 32.25 26.5001C32.25 27.4208 32.6212 28.3085 33.2898 28.9667C33.9591 29.6258 34.8717 30.0001 35.8281 30.0001H41.9219C42.8783 30.0001 43.7909 29.6258 44.4602 28.9667C45.1288 28.3085 45.5 27.4208 45.5 26.5001C45.5 25.5794 45.1288 24.6916 44.4602 24.0334C43.7909 23.3744 42.8783 23.0001 41.9219 23.0001H36.3359C34.5988 23.0001 32.9281 22.3208 31.6928 21.1044C30.4566 19.8873 29.7578 18.2315 29.7578 16.5001C29.7578 14.7686 30.4566 13.1128 31.6928 11.8957Z" fill="#DED6FB"/>
<path fill-rule="evenodd" clip-rule="evenodd" d="M61.5 40.5001C55.701 40.5001 51 45.2011 51 51.0001C51 56.7991 55.701 61.5001 61.5 61.5001C67.299 61.5001 72 56.7991 72 51.0001C72 45.2011 67.299 40.5001 61.5 40.5001ZM48 51.0001C48 43.5442 54.0442 37.5001 61.5 37.5001C68.9559 37.5001 75 43.5442 75 51.0001C75 58.4559 68.9559 64.5001 61.5 64.5001C54.0442 64.5001 48 58.4559 48 51.0001Z" fill="#DED6FB"/>
<path fill-rule="evenodd" clip-rule="evenodd" d="M62 43.5001C62.8284 43.5001 63.5 44.1716 63.5 45.0001V52.0001C63.5 52.8285 62.8284 53.5001 62 53.5001C61.1716 53.5001 60.5 52.8285 60.5 52.0001V45.0001C60.5 44.1716 61.1716 43.5001 62 43.5001Z" fill="#DED6FB"/>
<path d="M62 59.7496C63.0355 59.7496 63.875 58.9101 63.875 57.8746C63.875 56.839 63.0355 55.9996 62 55.9996C60.9645 55.9996 60.125 56.839 60.125 57.8746C60.125 58.9101 60.9645 59.7496 62 59.7496Z" fill="#DED6FB"/>
</svg>
