<svg width="340" height="125" viewBox="0 0 340 125" fill="none" xmlns="http://www.w3.org/2000/svg">
<path d="M0 125L39.6035 0H70.3965L110 125H88.3664L52.4266 12.8472H57.1372L21.6336 125H0ZM22.0698 97.9167V78.3854H88.0174V97.9167H22.0698Z" fill="#E92D26"/>
<path d="M286.202 125C274.247 125 264.007 122.389 255.484 117.167C246.96 111.889 240.402 104.556 235.808 95.1667C231.269 85.7778 229 74.8889 229 62.5C229 50.1111 231.269 39.2222 235.808 29.8333C240.402 20.4444 246.96 13.1389 255.484 7.91666C264.007 2.63889 274.247 0 286.202 0C299.984 0 311.468 3.47222 320.656 10.4167C329.844 17.3056 336.292 26.6111 340 38.3333L319.826 43.9167C317.501 36.0833 313.544 29.9722 307.954 25.5833C302.363 21.1389 295.113 18.9167 286.202 18.9167C278.177 18.9167 271.479 20.7222 266.111 24.3333C260.797 27.9444 256.785 33.0278 254.073 39.5833C251.416 46.0833 250.06 53.7222 250.004 62.5C250.004 71.2778 251.333 78.9444 253.99 85.5C256.702 92 260.742 97.0556 266.111 100.667C271.479 104.278 278.177 106.083 286.202 106.083C295.113 106.083 302.363 103.861 307.954 99.4167C313.544 94.9722 317.501 88.8611 319.826 81.0833L340 86.6667C336.292 98.3889 329.844 107.722 320.656 114.667C311.468 121.556 299.984 125 286.202 125Z" fill="#E92D26"/>
<path d="M219 27.1542C207.093 25.9486 181.764 31.2776 175.702 62.2389M175.702 62.2389C168.125 100.941 122.662 100.941 120.136 67.3027C117.61 33.6648 150.805 10.8778 175.702 62.2389ZM175.702 62.2389C179.31 76.3451 193.021 103.328 219 98.4087" stroke="#494745" stroke-width="16"/>
</svg>
