<svg width="71" height="67" viewBox="0 0 71 67" fill="none" xmlns="http://www.w3.org/2000/svg">
<g filter="url(#filter0_d_10422_2287)">
<path fill-rule="evenodd" clip-rule="evenodd" d="M4.5 13C3.94772 13 3.5 13.4477 3.5 14V54C3.5 54.5523 3.94772 55 4.5 55H48C48.8284 55 49.5 55.6716 49.5 56.5C49.5 57.3284 48.8284 58 48 58H4.5C2.29086 58 0.500003 56.2091 0.500003 54V14C0.500003 11.7909 2.29086 10 4.5 10H59.5C61.7091 10 63.5 11.7909 63.5 14V37C63.5 37.8284 62.8284 38.5 62 38.5C61.1716 38.5 60.5 37.8284 60.5 37V14C60.5 13.4477 60.0523 13 59.5 13H4.5Z" fill="#DED6FB"/>
<path fill-rule="evenodd" clip-rule="evenodd" d="M19.9038 1.90381C21.1228 0.684819 22.7761 0 24.5 0H39.5C41.2239 0 42.8772 0.684819 44.0962 1.90381C45.3152 3.12279 46 4.77609 46 6.5V11.5C46 12.3284 45.3284 13 44.5 13C43.6716 13 43 12.3284 43 11.5V6.5C43 5.57174 42.6313 4.6815 41.9749 4.02513C41.3185 3.36875 40.4283 3 39.5 3H24.5C23.5717 3 22.6815 3.36875 22.0251 4.02513C21.3688 4.6815 21 5.57174 21 6.5V11.5C21 12.3284 20.3284 13 19.5 13C18.6716 13 18 12.3284 18 11.5V6.5C18 4.77609 18.6848 3.12279 19.9038 1.90381Z" fill="#DED6FB"/>
<path fill-rule="evenodd" clip-rule="evenodd" d="M63.2985 27.7178C63.7132 28.4349 63.4681 29.3525 62.751 29.7672C53.4051 35.1723 42.7971 38.0124 32.0009 38C21.2013 38.0276 10.5883 35.1861 1.24721 29.7662C0.530662 29.3504 0.286826 28.4325 0.702583 27.716C1.11834 26.9994 2.03625 26.7556 2.7528 27.1713C11.6351 32.3251 21.727 35.0267 31.9961 35L32.0018 35C42.2704 35.0122 52.36 32.3112 61.249 27.1703C61.9662 26.7555 62.8837 27.0007 63.2985 27.7178Z" fill="#DED6FB"/>
<path fill-rule="evenodd" clip-rule="evenodd" d="M26.75 26.5C26.75 25.6716 27.4216 25 28.25 25H35.75C36.5784 25 37.25 25.6716 37.25 26.5C37.25 27.3284 36.5784 28 35.75 28H28.25C27.4216 28 26.75 27.3284 26.75 26.5Z" fill="#DED6FB"/>
<path fill-rule="evenodd" clip-rule="evenodd" d="M56.5 46V49L61.9961 53.122L67.5 48.9579V46H56.5ZM54.1956 43.6956C54.641 43.2502 55.2451 43 55.875 43H68.125C68.7549 43 69.359 43.2502 69.8044 43.6956C70.2498 44.141 70.5 44.7451 70.5 45.375V49.278C70.4978 49.6434 70.4116 50.0035 70.2481 50.3303C70.0847 50.6572 69.8484 50.9421 69.5574 51.1632L62.905 56.1962C62.3715 56.5999 61.6352 56.6014 61.1 56.2L54.4426 51.207C54.1516 50.9859 53.9153 50.7009 53.7519 50.3741C53.5884 50.0472 53.5023 49.6872 53.5 49.3217L53.5 49.3125L53.5 45.375C53.5 44.7451 53.7502 44.141 54.1956 43.6956Z" fill="#DED6FB"/>
<path fill-rule="evenodd" clip-rule="evenodd" d="M61.1 53.8C61.6352 53.3986 62.3715 53.4001 62.905 53.8038L69.5574 58.8368C69.8484 59.0579 70.0847 59.3428 70.2481 59.6697C70.4116 59.9965 70.4977 60.3566 70.5 60.722L70.5 60.7313L70.5 64.625C70.5 65.2549 70.2498 65.859 69.8044 66.3044C69.359 66.7498 68.7549 67 68.125 67H55.875C55.2451 67 54.641 66.7498 54.1956 66.3044C53.7502 65.859 53.5 65.2549 53.5 64.625V60.6783C53.5023 60.3128 53.5884 59.9528 53.7519 59.6259C53.9153 59.2991 54.1516 59.0141 54.4426 58.7931L54.45 58.7875L61.1 53.8ZM56.5 61L61.9961 56.878L67.5 61.0421V64H56.5V61Z" fill="#DED6FB"/>
<path fill-rule="evenodd" clip-rule="evenodd" d="M53.5 60.6828C53.5026 59.8544 54.1763 59.1849 55.0047 59.1875L69.0047 59.2313C69.8331 59.2338 70.5026 59.9075 70.5 60.7359C70.4974 61.5644 69.8237 62.2338 68.9953 62.2312L54.9953 62.1875C54.1669 62.1849 53.4974 61.5112 53.5 60.6828Z" fill="#DED6FB"/>
</g>
<defs>
<filter id="filter0_d_10422_2287" x="0" y="0" width="79.5" height="85.5" filterUnits="userSpaceOnUse" color-interpolation-filters="sRGB">
<feFlood flood-opacity="0" result="BackgroundImageFix"/>
<feColorMatrix in="SourceAlpha" type="matrix" values="0 0 0 0 0 0 0 0 0 0 0 0 0 0 0 0 0 0 127 0" result="hardAlpha"/>
<feOffset/>
<feGaussianBlur stdDeviation="4"/>
<feComposite in2="hardAlpha" operator="out"/>
<feColorMatrix type="matrix" values="0 0 0 0 0.765895 0 0 0 0 0.712 0 0 0 0 0.968 0 0 0 1 0"/>
<feBlend mode="normal" in2="BackgroundImageFix" result="effect1_dropShadow_10422_2287"/>
<feBlend mode="normal" in="SourceGraphic" in2="effect1_dropShadow_10422_2287" result="shape"/>
</filter>
</defs>
</svg>
