<svg width="16" height="16" viewBox="0 0 16 16" fill="none" xmlns="http://www.w3.org/2000/svg">
<g id="Icon" clip-path="url(#clip0_17234_21620)">
<path id="Vector" d="M5.75 8.75C6.16421 8.75 6.5 8.41421 6.5 8C6.5 7.58579 6.16421 7.25 5.75 7.25C5.33579 7.25 5 7.58579 5 8C5 8.41421 5.33579 8.75 5.75 8.75Z" fill="#1D1A31"/>
<path id="Vector_2" d="M10.25 8.75C10.6642 8.75 11 8.41421 11 8C11 7.58579 10.6642 7.25 10.25 7.25C9.83579 7.25 9.5 7.58579 9.5 8C9.5 8.41421 9.83579 8.75 10.25 8.75Z" fill="#1D1A31"/>
<path id="Vector (Stroke)" fill-rule="evenodd" clip-rule="evenodd" d="M5.61331 10.1039C5.83214 9.75218 6.29464 9.64448 6.64633 9.86331C7.05262 10.1161 7.52158 10.2501 8.0001 10.2501C8.47862 10.2501 8.94758 10.1161 9.35388 9.86331C9.70557 9.64448 10.1681 9.75218 10.3869 10.1039C10.6057 10.4556 10.498 10.9181 10.1463 11.1369C9.50221 11.5377 8.75873 11.7501 8.0001 11.7501C7.24147 11.7501 6.498 11.5377 5.85388 11.1369C5.50218 10.9181 5.39448 10.4556 5.61331 10.1039Z" fill="#1D1A31"/>
<path id="Vector (Stroke)_2" fill-rule="evenodd" clip-rule="evenodd" d="M8 2.75C5.10051 2.75 2.75 5.10051 2.75 8C2.75 10.8995 5.10051 13.25 8 13.25C10.8995 13.25 13.25 10.8995 13.25 8C13.25 5.10051 10.8995 2.75 8 2.75ZM1.25 8C1.25 4.27208 4.27208 1.25 8 1.25C11.7279 1.25 14.75 4.27208 14.75 8C14.75 11.7279 11.7279 14.75 8 14.75C4.27208 14.75 1.25 11.7279 1.25 8Z" fill="#1D1A31"/>
<path id="Vector (Stroke)_3" fill-rule="evenodd" clip-rule="evenodd" d="M8.46852 1.41438C8.79197 1.67313 8.84441 2.1451 8.58565 2.46855C8.16281 2.9971 7.95346 3.52282 7.84968 3.91202C7.7978 4.10657 7.77277 4.26534 7.76077 4.37034C7.75479 4.42273 7.75209 4.46132 7.75089 4.48382C7.75036 4.49367 7.75013 4.5004 7.75003 4.5038C7.75101 4.56874 7.77723 4.63081 7.82322 4.6768C7.87011 4.72369 7.9337 4.75003 8 4.75003C8.0663 4.75003 8.12989 4.72369 8.17678 4.6768C8.22366 4.62992 8.25 4.56633 8.25 4.50003C8.25 4.08581 8.58579 3.75003 9 3.75003C9.41421 3.75003 9.75 4.08581 9.75 4.50003C9.75 4.96416 9.56562 5.40928 9.23744 5.73746C8.90925 6.06565 8.46413 6.25003 8 6.25003C7.53587 6.25003 7.09075 6.06565 6.76256 5.73746C6.43438 5.40928 6.25 4.96416 6.25 4.50003H7C6.25 4.50003 6.25 4.49973 6.25 4.49943L6.25 4.4988L6.25 4.49745L6.25002 4.49439L6.25009 4.48688L6.25049 4.46634C6.25091 4.45023 6.25166 4.42932 6.25302 4.40393C6.25572 4.35319 6.26084 4.28436 6.27048 4.20002C6.28973 4.03159 6.3272 3.79974 6.40032 3.52553C6.54654 2.97723 6.83719 2.25295 7.41435 1.53151C7.67311 1.20806 8.14507 1.15562 8.46852 1.41438Z" fill="#1D1A31"/>
</g>
<defs>
<clipPath id="clip0_17234_21620">
<rect width="16" height="16" fill="white"/>
</clipPath>
</defs>
</svg>
