<svg width="16" height="16" viewBox="0 0 16 16" fill="none" xmlns="http://www.w3.org/2000/svg">
<g id="Icon">
<path id="Vector" d="M14.75 6.99991C14.75 6.7701 14.7047 6.54254 14.6168 6.33022C14.5288 6.1179 14.3999 5.92498 14.2374 5.76248C14.0749 5.59997 13.882 5.47107 13.6697 5.38312C13.4574 5.29518 13.2298 5.24991 13 5.24991H8.75V5.12116C9.18831 4.96552 9.56775 4.67811 9.8363 4.29834C10.1048 3.91857 10.2493 3.46504 10.25 2.99991C10.25 1.05866 8.41375 0.118037 8.33562 0.0792871C8.23143 0.0271466 8.11652 0 8 0C7.88348 0 7.76857 0.0271466 7.66437 0.0792871C7.58625 0.118037 5.75 1.05866 5.75 2.99991C5.75065 3.46504 5.89516 3.91857 6.1637 4.29834C6.43225 4.67811 6.81169 4.96552 7.25 5.12116V5.24991H3C2.53587 5.24991 2.09075 5.43429 1.76256 5.76248C1.43437 6.09066 1.25 6.53578 1.25 6.99991V8.45804C1.25036 9.02763 1.42483 9.58351 1.75 10.0512V12.4999C1.75 12.964 1.93437 13.4092 2.26256 13.7373C2.59075 14.0655 3.03587 14.2499 3.5 14.2499H12.5C12.9641 14.2499 13.4092 14.0655 13.7374 13.7373C14.0656 13.4092 14.25 12.964 14.25 12.4999V10.0512C14.5752 9.58351 14.7496 9.02763 14.75 8.45804V6.99991ZM7.75 1.87054C7.82855 1.79097 7.91205 1.71645 8 1.64741C8.08808 1.71629 8.17159 1.79082 8.25 1.87054C8.58313 2.21554 8.75 2.59554 8.75 2.99991C8.75 3.19882 8.67098 3.38959 8.53033 3.53024C8.38968 3.67089 8.19891 3.74991 8 3.74991C7.80109 3.74991 7.61032 3.67089 7.46967 3.53024C7.32902 3.38959 7.25 3.19882 7.25 2.99991C7.25 2.59554 7.41937 2.21554 7.75 1.87054ZM2.75 6.99991C2.75 6.93361 2.77634 6.87002 2.82322 6.82314C2.87011 6.77625 2.9337 6.74991 3 6.74991H13C13.0663 6.74991 13.1299 6.77625 13.1768 6.82314C13.2237 6.87002 13.25 6.93361 13.25 6.99991V8.45804C13.25 9.15179 12.705 9.73116 12.0356 9.74929C11.8686 9.75405 11.7022 9.72526 11.5465 9.66462C11.3907 9.60397 11.2487 9.51271 11.1288 9.39623C11.009 9.27974 10.9137 9.1404 10.8486 8.98645C10.7836 8.83249 10.75 8.66705 10.75 8.49991C10.75 8.301 10.671 8.11023 10.5303 7.96958C10.3897 7.82893 10.1989 7.74991 10 7.74991C9.80109 7.74991 9.61032 7.82893 9.46967 7.96958C9.32902 8.11023 9.25 8.301 9.25 8.49991C9.25 8.83143 9.1183 9.14937 8.88388 9.3838C8.64946 9.61822 8.33152 9.74991 8 9.74991C7.66848 9.74991 7.35054 9.61822 7.11612 9.3838C6.8817 9.14937 6.75 8.83143 6.75 8.49991C6.75 8.301 6.67098 8.11023 6.53033 7.96958C6.38968 7.82893 6.19891 7.74991 6 7.74991C5.80109 7.74991 5.61032 7.82893 5.46967 7.96958C5.32902 8.11023 5.25 8.301 5.25 8.49991C5.25007 8.66711 5.21659 8.83261 5.15156 8.98664C5.08653 9.14067 4.99125 9.28008 4.87138 9.39663C4.75151 9.51318 4.60947 9.6045 4.45368 9.66518C4.29788 9.72587 4.1315 9.75468 3.96438 9.74991C3.295 9.73116 2.75 9.15179 2.75 8.45804V6.99991ZM12.5 12.7499H3.5C3.4337 12.7499 3.37011 12.7236 3.32322 12.6767C3.27634 12.6298 3.25 12.5662 3.25 12.4999V11.143C3.46888 11.2073 3.6951 11.2432 3.92313 11.2499C4.29079 11.2614 4.65697 11.1984 4.99969 11.0648C5.34241 10.9312 5.6546 10.7297 5.9175 10.4724C5.94625 10.4449 5.97375 10.4162 6.00063 10.388C6.25769 10.6604 6.56768 10.8774 6.91159 11.0258C7.25551 11.1741 7.62609 11.2506 8.00062 11.2506C8.37516 11.2506 8.74575 11.1741 9.08966 11.0258C9.43357 10.8774 9.74356 10.6604 10.0006 10.388C10.0275 10.4162 10.055 10.4449 10.0837 10.4724C10.5958 10.973 11.284 11.2522 12 11.2499H12.0781C12.3057 11.2431 12.5315 11.2072 12.75 11.143V12.4999C12.75 12.5662 12.7237 12.6298 12.6768 12.6767C12.6299 12.7236 12.5663 12.7499 12.5 12.7499Z" fill="#1D1A31"/>
</g>
</svg>
