<svg width="16" height="16" viewBox="0 0 16 16" fill="none" xmlns="http://www.w3.org/2000/svg">
<g id="Icon">
<path id="Vector (Stroke)" fill-rule="evenodd" clip-rule="evenodd" d="M3.25 3.25V12.75H12.75V3.25H3.25ZM1.75 3C1.75 2.30964 2.30964 1.75 3 1.75H13C13.6904 1.75 14.25 2.30964 14.25 3V13C14.25 13.6904 13.6904 14.25 13 14.25H3C2.30964 14.25 1.75 13.6904 1.75 13V3Z" fill="#1D1A31"/>
<path id="Vector (Stroke)_2" fill-rule="evenodd" clip-rule="evenodd" d="M11 0.75C11.4142 0.75 11.75 1.08579 11.75 1.5V3.5C11.75 3.91421 11.4142 4.25 11 4.25C10.5858 4.25 10.25 3.91421 10.25 3.5V1.5C10.25 1.08579 10.5858 0.75 11 0.75Z" fill="#1D1A31"/>
<path id="Vector (Stroke)_3" fill-rule="evenodd" clip-rule="evenodd" d="M5 0.75C5.41421 0.75 5.75 1.08579 5.75 1.5V3.5C5.75 3.91421 5.41421 4.25 5 4.25C4.58579 4.25 4.25 3.91421 4.25 3.5V1.5C4.25 1.08579 4.58579 0.75 5 0.75Z" fill="#1D1A31"/>
<path id="Vector (Stroke)_4" fill-rule="evenodd" clip-rule="evenodd" d="M1.75 5.5C1.75 5.08579 2.08579 4.75 2.5 4.75H13.5C13.9142 4.75 14.25 5.08579 14.25 5.5C14.25 5.91421 13.9142 6.25 13.5 6.25H2.5C2.08579 6.25 1.75 5.91421 1.75 5.5Z" fill="#1D1A31"/>
<path id="Vector (Stroke)_5" fill-rule="evenodd" clip-rule="evenodd" d="M5.1499 8.00039C5.1499 7.66902 5.41853 7.40039 5.7499 7.40039H7.4999C7.73055 7.40039 7.94077 7.5326 8.04068 7.74048C8.1406 7.94836 8.11251 8.19511 7.96842 8.37521L7.48001 8.98572C7.61571 9.09089 7.73407 9.21757 7.83012 9.36128C7.97631 9.58 8.06632 9.83139 8.09216 10.0932C8.11801 10.355 8.0789 10.6191 7.9783 10.8622C7.87769 11.1053 7.7187 11.3198 7.5154 11.4868C7.3121 11.6538 7.07076 11.7681 6.81276 11.8195C6.55476 11.8709 6.28806 11.858 6.03626 11.7817C5.78447 11.7055 5.55536 11.5684 5.36922 11.3825C5.13476 11.1483 5.13453 10.7684 5.3687 10.5339C5.60288 10.2995 5.98277 10.2992 6.21723 10.5334C6.26377 10.5799 6.32104 10.6142 6.38399 10.6332C6.44694 10.6523 6.51362 10.6555 6.57812 10.6427C6.64262 10.6298 6.70295 10.6012 6.75378 10.5595C6.8046 10.5178 6.84435 10.4641 6.8695 10.4034C6.89465 10.3426 6.90443 10.2765 6.89797 10.2111C6.89151 10.1456 6.869 10.0828 6.83246 10.0281C6.79591 9.97343 6.74644 9.92861 6.68843 9.89761C6.63043 9.86661 6.56567 9.85039 6.4999 9.85039C6.26926 9.85039 6.05903 9.71818 5.95912 9.5103C5.85921 9.30242 5.8873 9.05568 6.03138 8.87557L6.25153 8.60039H5.7499C5.41853 8.60039 5.1499 8.33176 5.1499 8.00039Z" fill="#1D1A31"/>
<path id="Vector (Stroke)_6" fill-rule="evenodd" clip-rule="evenodd" d="M10.2683 7.46374C10.4715 7.56537 10.5999 7.77313 10.5999 8.00039V11.2504C10.5999 11.5818 10.3313 11.8504 9.99994 11.8504C9.66857 11.8504 9.39994 11.5818 9.39994 11.2504V9.20039L9.35994 9.23039C9.09484 9.42922 8.71876 9.37549 8.51994 9.11039C8.32112 8.8453 8.37484 8.46922 8.63994 8.27039L9.63994 7.52039C9.82175 7.38404 10.065 7.3621 10.2683 7.46374Z" fill="#1D1A31"/>
</g>
</svg>
