<svg width="64" height="70" viewBox="0 0 64 70" fill="none" xmlns="http://www.w3.org/2000/svg">
<path fill-rule="evenodd" clip-rule="evenodd" d="M4 8C3.44772 8 3 8.44771 3 9V59C3 59.5523 3.44772 60 4 60H30C30.8284 60 31.5 60.6716 31.5 61.5C31.5 62.3284 30.8284 63 30 63H4C1.79086 63 0 61.2091 0 59V9C0 6.79086 1.79086 5 4 5H54C56.2091 5 58 6.79086 58 9V31C58 31.8284 57.3284 32.5 56.5 32.5C55.6716 32.5 55 31.8284 55 31V9C55 8.44771 54.5523 8 54 8H4Z" fill="#DED6FB"/>
<path fill-rule="evenodd" clip-rule="evenodd" d="M44 0C44.8284 0 45.5 0.671573 45.5 1.5V11.5C45.5 12.3284 44.8284 13 44 13C43.1716 13 42.5 12.3284 42.5 11.5V1.5C42.5 0.671573 43.1716 0 44 0Z" fill="#DED6FB"/>
<path fill-rule="evenodd" clip-rule="evenodd" d="M14 0C14.8284 0 15.5 0.671573 15.5 1.5V11.5C15.5 12.3284 14.8284 13 14 13C13.1716 13 12.5 12.3284 12.5 11.5V1.5C12.5 0.671573 13.1716 0 14 0Z" fill="#DED6FB"/>
<path fill-rule="evenodd" clip-rule="evenodd" d="M0 21.5C0 20.6716 0.671573 20 1.5 20H56.5C57.3284 20 58 20.6716 58 21.5C58 22.3284 57.3284 23 56.5 23H1.5C0.671573 23 0 22.3284 0 21.5Z" fill="#DED6FB"/>
<path fill-rule="evenodd" clip-rule="evenodd" d="M50 45.5C44.201 45.5 39.5 50.201 39.5 56C39.5 61.799 44.201 66.5 50 66.5C55.799 66.5 60.5 61.799 60.5 56C60.5 50.201 55.799 45.5 50 45.5ZM36.5 56C36.5 48.5442 42.5442 42.5 50 42.5C57.4558 42.5 63.5 48.5442 63.5 56C63.5 63.4558 57.4558 69.5 50 69.5C42.5442 69.5 36.5 63.4558 36.5 56Z" fill="#DED6FB"/>
<path fill-rule="evenodd" clip-rule="evenodd" d="M56.0607 49.9393C56.6464 50.5251 56.6464 51.4749 56.0607 52.0607L51.0607 57.0607C50.4749 57.6464 49.5251 57.6464 48.9393 57.0607C48.3536 56.4749 48.3536 55.5251 48.9393 54.9393L53.9393 49.9393C54.5251 49.3536 55.4749 49.3536 56.0607 49.9393Z" fill="#DED6FB"/>
<path fill-rule="evenodd" clip-rule="evenodd" d="M45.5 38C45.5 37.1716 46.1716 36.5 47 36.5H53C53.8284 36.5 54.5 37.1716 54.5 38C54.5 38.8284 53.8284 39.5 53 39.5H47C46.1716 39.5 45.5 38.8284 45.5 38Z" fill="#DED6FB"/>
</svg>
