<svg width="16" height="16" viewBox="0 0 16 16" fill="none" xmlns="http://www.w3.org/2000/svg">
<g id="Icon" clip-path="url(#clip0_17234_21798)">
<path id="Vector (Stroke)" fill-rule="evenodd" clip-rule="evenodd" d="M0.25 7.5C0.25 7.08579 0.585786 6.75 1 6.75H15C15.4142 6.75 15.75 7.08579 15.75 7.5C15.75 7.91421 15.4142 8.25 15 8.25H1C0.585786 8.25 0.25 7.91421 0.25 7.5Z" fill="#1D1A31"/>
<path id="Vector (Stroke)_2" fill-rule="evenodd" clip-rule="evenodd" d="M11.5 10.75C11.9142 10.75 12.25 11.0858 12.25 11.5V12.75H13.25V11.5C13.25 11.0858 13.5858 10.75 14 10.75C14.4142 10.75 14.75 11.0858 14.75 11.5V13C14.75 13.3315 14.6183 13.6495 14.3839 13.8839C14.1495 14.1183 13.8315 14.25 13.5 14.25H12C11.6685 14.25 11.3505 14.1183 11.1161 13.8839C10.8817 13.6495 10.75 13.3315 10.75 13V11.5C10.75 11.0858 11.0858 10.75 11.5 10.75Z" fill="#1D1A31"/>
<path id="Vector (Stroke)_3" fill-rule="evenodd" clip-rule="evenodd" d="M2 10.75C2.41421 10.75 2.75 11.0858 2.75 11.5V12.75H3.75V11.5C3.75 11.0858 4.08579 10.75 4.5 10.75C4.91421 10.75 5.25 11.0858 5.25 11.5V13C5.25 13.3315 5.1183 13.6495 4.88388 13.8839C4.64946 14.1183 4.33152 14.25 4 14.25H2.5C2.16848 14.25 1.85054 14.1183 1.61612 13.8839C1.3817 13.6495 1.25 13.3315 1.25 13V11.5C1.25 11.0858 1.58579 10.75 2 10.75Z" fill="#1D1A31"/>
<path id="Vector (Stroke)_4" fill-rule="evenodd" clip-rule="evenodd" d="M3.25 9.5C3.25 9.08579 3.58579 8.75 4 8.75H5C5.41421 8.75 5.75 9.08579 5.75 9.5C5.75 9.91421 5.41421 10.25 5 10.25H4C3.58579 10.25 3.25 9.91421 3.25 9.5Z" fill="#1D1A31"/>
<path id="Vector (Stroke)_5" fill-rule="evenodd" clip-rule="evenodd" d="M10.25 9.5C10.25 9.08579 10.5858 8.75 11 8.75H12C12.4142 8.75 12.75 9.08579 12.75 9.5C12.75 9.91421 12.4142 10.25 12 10.25H11C10.5858 10.25 10.25 9.91421 10.25 9.5Z" fill="#1D1A31"/>
<path id="Vector (Stroke)_6" fill-rule="evenodd" clip-rule="evenodd" d="M4.325 2.25H11.678C11.9204 2.25098 12.1572 2.32239 12.3597 2.45555C12.5614 2.58814 12.7203 2.77624 12.8174 2.99713L14.6852 7.19511C14.7279 7.29108 14.75 7.39496 14.75 7.5V11.5C14.75 11.9142 14.4142 12.25 14 12.25H2C1.58579 12.25 1.25 11.9142 1.25 11.5V7.5C1.25 7.39496 1.27207 7.29108 1.31477 7.19511L3.18267 2.99702C3.27974 2.77618 3.43865 2.58811 3.64025 2.45555C3.84276 2.32239 4.07962 2.25098 4.32199 2.25001L4.325 2.25ZM4.48942 3.75L2.75 7.65932V10.75H13.25V7.65932L11.5106 3.75H4.48942ZM11.4438 3.6L11.4453 3.60322L11.4438 3.6Z" fill="#1D1A31"/>
</g>
<defs>
<clipPath id="clip0_17234_21798">
<rect width="16" height="16" fill="white"/>
</clipPath>
</defs>
</svg>
