<svg width="16" height="16" viewBox="0 0 16 16" fill="none" xmlns="http://www.w3.org/2000/svg">
<g id="Icons/Deductions" clip-path="url(#clip0_8395_87865)">
<path id="Vector (Stroke)" fill-rule="evenodd" clip-rule="evenodd" d="M11.25 2.5C11.25 2.08579 11.5858 1.75 12 1.75H15C15.4142 1.75 15.75 2.08579 15.75 2.5C15.75 2.91421 15.4142 3.25 15 3.25H12C11.5858 3.25 11.25 2.91421 11.25 2.5ZM4.13526 4.67296C3.16476 5.23909 2.75 5.911 2.75 6.5C2.75 7.089 3.16476 7.76091 4.13526 8.32704C4.1875 8.35751 4.24098 8.38742 4.29566 8.41673C4.33057 8.43172 4.36411 8.44928 4.39605 8.46918C5.32896 8.94427 6.58829 9.25 8 9.25C9.41171 9.25 10.671 8.94427 11.604 8.46918C11.6359 8.44928 11.6694 8.43172 11.7043 8.41673C11.759 8.38742 11.8125 8.35751 11.8647 8.32704C12.8352 7.76091 13.25 7.089 13.25 6.5C13.25 6.08579 13.5858 5.75 14 5.75C14.4142 5.75 14.75 6.08579 14.75 6.5V9.5C14.75 10.8434 13.821 11.9214 12.6201 12.622C11.4006 13.3336 9.76536 13.75 8 13.75C6.23464 13.75 4.59938 13.3336 3.37985 12.622C2.17899 11.9214 1.25 10.8434 1.25 9.5V6.5C1.25 5.15601 2.17838 4.07792 3.37946 3.37729C4.59894 2.66593 6.23423 2.25 8 2.25C8.55475 2.25 9.0946 2.29099 9.61136 2.36858C10.021 2.43008 10.3032 2.812 10.2417 3.22162C10.1802 3.63124 9.79827 3.91345 9.38864 3.85195C8.94654 3.78558 8.48115 3.75 8 3.75C6.45207 3.75 5.08735 4.11758 4.13526 4.67296ZM2.75 9.19968V9.5C2.75 9.86032 2.90581 10.2522 3.25 10.6321V9.54507C3.07621 9.43791 2.90885 9.32266 2.75 9.19968ZM4.75 10.239V11.6338C5.45456 11.9354 6.30765 12.1466 7.25 12.2208V10.7247C6.35742 10.6643 5.51086 10.4968 4.75 10.239ZM8.75 10.7247V12.2208C9.69235 12.1466 10.5454 11.9354 11.25 11.6338V10.239C10.4891 10.4968 9.64258 10.6643 8.75 10.7247ZM12.75 9.54507V10.6321C13.0942 10.2522 13.25 9.86032 13.25 9.5V9.19968C13.0912 9.32266 12.9238 9.43791 12.75 9.54507Z" fill="#1D1A31"/>
</g>
<defs>
<clipPath id="clip0_8395_87865">
<rect width="16" height="16" fill="white"/>
</clipPath>
</defs>
</svg>
