<svg width="16" height="16" viewBox="0 0 16 16" fill="none" xmlns="http://www.w3.org/2000/svg">
<g id="Icon" clip-path="url(#clip0_18447_2484)">
<path id="Vector (Stroke)" fill-rule="evenodd" clip-rule="evenodd" d="M2.52224 6.59295C1.66437 6.97899 1.5 7.35764 1.5 7.5C1.5 7.64236 1.66437 8.02101 2.52224 8.40705C3.30971 8.76141 4.45023 9 5.75 9C7.04977 9 8.19029 8.76141 8.97776 8.40705C9.83563 8.02101 10 7.64236 10 7.5C10 7.35764 9.83563 6.97899 8.97776 6.59295C8.19029 6.23859 7.04977 6 5.75 6C4.45023 6 3.30971 6.23859 2.52224 6.59295ZM1.90669 5.22507C2.92886 4.76509 4.28835 4.5 5.75 4.5C7.21165 4.5 8.57114 4.76509 9.59331 5.22507C10.5451 5.65337 11.5 6.39972 11.5 7.5C11.5 8.60028 10.5451 9.34663 9.59331 9.77493C8.57114 10.2349 7.21165 10.5 5.75 10.5C4.28835 10.5 2.92886 10.2349 1.90669 9.77493C0.954922 9.34663 0 8.60028 0 7.5C0 6.39972 0.954922 5.65337 1.90669 5.22507Z" fill="#4A485A"/>
<path id="Vector (Stroke)_2" fill-rule="evenodd" clip-rule="evenodd" d="M0.75 6.75C1.16421 6.75 1.5 7.08579 1.5 7.5V10C1.5 10.1431 1.66447 10.5217 2.52179 10.9074C3.30904 11.2616 4.44954 11.5 5.75 11.5C7.05047 11.5 8.19096 11.2616 8.97821 10.9074C9.83553 10.5217 10 10.1431 10 10V7.5C10 7.08579 10.3358 6.75 10.75 6.75C11.1642 6.75 11.5 7.08579 11.5 7.5V10C11.5 11.1006 10.5457 11.847 9.59366 12.2754C8.57154 12.7352 7.21204 13 5.75 13C4.28796 13 2.92846 12.7352 1.90634 12.2754C0.954278 11.847 0 11.1006 0 10V7.5C0 7.08579 0.335786 6.75 0.75 6.75Z" fill="#4A485A"/>
<path id="Vector (Stroke)_3" fill-rule="evenodd" clip-rule="evenodd" d="M3.75 8.8125C4.16421 8.8125 4.5 9.14829 4.5 9.5625V12.0625C4.5 12.4767 4.16421 12.8125 3.75 12.8125C3.33579 12.8125 3 12.4767 3 12.0625V9.5625C3 9.14829 3.33579 8.8125 3.75 8.8125Z" fill="#4A485A"/>
<path id="Vector (Stroke)_4" fill-rule="evenodd" clip-rule="evenodd" d="M10.0032 8.22419C10.0416 7.81176 10.4071 7.50857 10.8196 7.54698C12.0303 7.65977 13.1359 7.9593 13.964 8.41C14.7505 8.83808 15.5 9.53132 15.5 10.5C15.5 11.6006 14.5457 12.347 13.5937 12.7754C12.5715 13.2352 11.212 13.5 9.74999 13.5C8.4496 13.5 7.23371 13.2886 6.26845 12.9275C5.8805 12.7823 5.68365 12.3502 5.82879 11.9622C5.97392 11.5743 6.40607 11.3774 6.79403 11.5225C7.56627 11.8114 8.60038 12 9.74999 12C11.0505 12 12.1909 11.7616 12.9782 11.4074C13.8355 11.0217 14 10.6431 14 10.5C14 10.3812 13.8901 10.0775 13.2469 9.7275C12.6453 9.40007 11.7509 9.14023 10.6804 9.04052C10.268 9.0021 9.9648 8.63662 10.0032 8.22419Z" fill="#4A485A"/>
<path id="Vector (Stroke)_5" fill-rule="evenodd" clip-rule="evenodd" d="M14.75 9.75C15.1642 9.75 15.5 10.0858 15.5 10.5V13C15.5 14.1006 14.5457 14.847 13.5937 15.2754C12.5715 15.7352 11.212 16 9.75 16C8.28796 16 6.92846 15.7352 5.90634 15.2754C4.95428 14.847 4 14.1006 4 13V12.2063C4 11.792 4.33579 11.4563 4.75 11.4563C5.16421 11.4563 5.5 11.792 5.5 12.2063V13C5.5 13.1431 5.66447 13.5217 6.52179 13.9074C7.30904 14.2616 8.44954 14.5 9.75 14.5C11.0505 14.5 12.191 14.2616 12.9782 13.9074C13.8355 13.5217 14 13.1431 14 13V10.5C14 10.0858 14.3358 9.75 14.75 9.75Z" fill="#4A485A"/>
<path id="Vector (Stroke)_6" fill-rule="evenodd" clip-rule="evenodd" d="M11.75 11.8125C12.1642 11.8125 12.5 12.1483 12.5 12.5625V15.0625C12.5 15.4767 12.1642 15.8125 11.75 15.8125C11.3358 15.8125 11 15.4767 11 15.0625V12.5625C11 12.1483 11.3358 11.8125 11.75 11.8125Z" fill="#4A485A"/>
<path id="Vector (Stroke)_7" fill-rule="evenodd" clip-rule="evenodd" d="M7.75 8.8125C8.16421 8.8125 8.5 9.14829 8.5 9.5625V15.0625C8.5 15.4767 8.16421 15.8125 7.75 15.8125C7.33579 15.8125 7 15.4767 7 15.0625V9.5625C7 9.14829 7.33579 8.8125 7.75 8.8125Z" fill="#4A485A"/>
<path id="Vector (Stroke)_8" fill-rule="evenodd" clip-rule="evenodd" d="M11.5 0.75C11.5 0.335786 11.8358 0 12.25 0H15.25C15.6642 0 16 0.335786 16 0.75V3.75C16 4.16421 15.6642 4.5 15.25 4.5C14.8358 4.5 14.5 4.16421 14.5 3.75V1.5H12.25C11.8358 1.5 11.5 1.16421 11.5 0.75Z" fill="#4A485A"/>
<path id="Vector (Stroke)_9" fill-rule="evenodd" clip-rule="evenodd" d="M15.7803 0.21967C16.0732 0.512563 16.0732 0.987437 15.7803 1.28033L12.2803 4.78033C11.9874 5.07322 11.5126 5.07322 11.2197 4.78033C10.9268 4.48744 10.9268 4.01256 11.2197 3.71967L14.7197 0.21967C15.0126 -0.0732233 15.4874 -0.0732233 15.7803 0.21967Z" fill="#4A485A"/>
</g>
<defs>
<clipPath id="clip0_18447_2484">
<rect width="16" height="16" fill="white"/>
</clipPath>
</defs>
</svg>
