<svg width="16" height="16" viewBox="0 0 16 16" fill="none" xmlns="http://www.w3.org/2000/svg">
<g id="Icon" clip-path="url(#clip0_17234_21767)">
<path id="Vector (Stroke)" fill-rule="evenodd" clip-rule="evenodd" d="M8 6.75C7.30964 6.75 6.75 7.30964 6.75 8C6.75 8.69036 7.30964 9.25 8 9.25C8.69036 9.25 9.25 8.69036 9.25 8C9.25 7.30964 8.69036 6.75 8 6.75ZM5.25 8C5.25 6.48122 6.48122 5.25 8 5.25C9.51878 5.25 10.75 6.48122 10.75 8C10.75 9.51878 9.51878 10.75 8 10.75C6.48122 10.75 5.25 9.51878 5.25 8Z" fill="#1D1A31"/>
<path id="Vector (Stroke)_2" fill-rule="evenodd" clip-rule="evenodd" d="M8 2.25C7.66848 2.25 7.35054 2.3817 7.11612 2.61612C6.8817 2.85054 6.75 3.16848 6.75 3.5C6.75 3.73212 6.83281 4.09139 7.00725 4.55239C7.17574 4.99771 7.40565 5.47662 7.6444 5.92662C7.83853 6.29252 7.69929 6.74652 7.33338 6.94065C6.96748 7.13478 6.51348 6.99554 6.31935 6.62963C6.06435 6.14901 5.80332 5.60916 5.60432 5.08323C5.41125 4.57298 5.25 4.0085 5.25 3.5C5.25 2.77065 5.53973 2.07118 6.05546 1.55546C6.57118 1.03973 7.27065 0.75 8 0.75C8.72935 0.75 9.42882 1.03973 9.94454 1.55546C10.4603 2.07118 10.75 2.77065 10.75 3.5C10.75 4.0085 10.5888 4.57298 10.3957 5.08323C10.1967 5.60916 9.93565 6.14901 9.68065 6.62963C9.48652 6.99554 9.03252 7.13478 8.66662 6.94065C8.30071 6.74652 8.16146 6.29252 8.3556 5.92662C8.59435 5.47662 8.82425 4.99771 8.99275 4.55239C9.16719 4.09139 9.25 3.73212 9.25 3.5C9.25 3.16848 9.1183 2.85054 8.88388 2.61612C8.64946 2.3817 8.33152 2.25 8 2.25Z" fill="#1D1A31"/>
<path id="Vector (Stroke)_3" fill-rule="evenodd" clip-rule="evenodd" d="M4.25622 4.50055C4.09239 4.47743 3.9256 4.48706 3.76553 4.52889C3.60545 4.57071 3.45527 4.64391 3.3237 4.74421C3.19212 4.84452 3.08177 4.96995 2.99904 5.11323C2.91631 5.25651 2.86284 5.41479 2.84175 5.57889C2.82065 5.74299 2.83234 5.90965 2.87614 6.0692C2.91994 6.22874 2.99498 6.37801 3.0969 6.50833C3.19883 6.63866 3.32561 6.74746 3.4699 6.82842L3.47825 6.8331L3.47822 6.83315C3.67905 6.94923 4.03138 7.05718 4.51776 7.1366C4.98759 7.21331 5.51727 7.25359 6.02648 7.27172C6.44043 7.28646 6.76405 7.63398 6.74931 8.04794C6.73457 8.46189 6.38705 8.78551 5.9731 8.77077C5.42918 8.7514 4.83105 8.70762 4.27603 8.61699C3.73928 8.52934 3.17164 8.38729 2.7318 8.13426C2.41607 7.9564 2.13859 7.71788 1.91533 7.4324C1.6911 7.14568 1.52602 6.8173 1.42966 6.46629C1.3333 6.11529 1.30758 5.74865 1.35399 5.38763C1.4004 5.02661 1.51802 4.67839 1.70003 4.36318C1.88204 4.04796 2.12482 3.77201 2.41428 3.55133C2.70375 3.33065 3.03414 3.16964 3.38631 3.07761C3.73848 2.98559 4.10541 2.9644 4.46583 3.01526C4.8247 3.06591 5.17001 3.18699 5.4819 3.37153C5.92068 3.62588 6.32755 4.04641 6.67191 4.46744C7.02798 4.9028 7.36507 5.39892 7.65374 5.86034C7.87343 6.2115 7.76685 6.67426 7.41569 6.89394C7.06454 7.11363 6.60178 7.00706 6.38209 6.6559C6.11201 6.2242 5.81222 5.78563 5.5108 5.41709C5.19874 5.03554 4.92897 4.78427 4.72809 4.66836L4.71987 4.66362L4.7199 4.66357C4.57765 4.57908 4.42004 4.52367 4.25622 4.50055Z" fill="#1D1A31"/>
<path id="Vector (Stroke)_4" fill-rule="evenodd" clip-rule="evenodd" d="M6.74928 7.95095C6.76451 8.36488 6.4413 8.71279 6.02737 8.72802C5.51749 8.74678 4.98757 8.78707 4.51754 8.86368C4.0309 8.94299 3.67882 9.05068 3.47822 9.16662L3.46993 9.17141L3.4699 9.17136C3.32561 9.25231 3.19883 9.36111 3.0969 9.49144C2.99498 9.62176 2.91994 9.77103 2.87614 9.93058C2.83234 10.0901 2.82065 10.2568 2.84175 10.4209C2.86284 10.585 2.91631 10.7433 2.99904 10.8865C3.08177 11.0298 3.19212 11.1552 3.3237 11.2556C3.45527 11.3559 3.60545 11.4291 3.76553 11.4709C3.9256 11.5127 4.09239 11.5223 4.25622 11.4992C4.42004 11.4761 4.57765 11.4207 4.7199 11.3362L4.72806 11.3314L4.72809 11.3314C4.92897 11.2155 5.19874 10.9642 5.5108 10.5827C5.81222 10.2141 6.11201 9.77557 6.38209 9.34387C6.60178 8.99272 7.06454 8.88614 7.41569 9.10583C7.76685 9.32551 7.87343 9.78827 7.65374 10.1394C7.36507 10.6009 7.02798 11.097 6.67191 11.5323C6.32756 11.9534 5.92069 12.3739 5.48191 12.6282C5.17002 12.8128 4.8247 12.9339 4.46583 12.9845C4.10541 13.0354 3.73848 13.0142 3.38631 12.9222C3.03414 12.8301 2.70375 12.6691 2.41428 12.4484C2.12482 12.2278 1.88204 11.9518 1.70003 11.6366C1.51802 11.3214 1.4004 10.9732 1.35399 10.6121C1.30758 10.2511 1.3333 9.88448 1.42966 9.53348C1.52602 9.18248 1.6911 8.85409 1.91533 8.56737C2.1386 8.28189 2.41608 8.04337 2.73181 7.86551C3.17188 7.61234 3.73976 7.47065 4.27625 7.38321C4.83107 7.29279 5.42896 7.24902 5.97221 7.22903C6.38614 7.2138 6.73405 7.53701 6.74928 7.95095Z" fill="#1D1A31"/>
<path id="Vector (Stroke)_5" fill-rule="evenodd" clip-rule="evenodd" d="M7.33338 9.06028C7.69929 9.25441 7.83853 9.70841 7.6444 10.0743C7.40565 10.5243 7.17574 11.0032 7.00725 11.4485C6.83281 11.9095 6.75 12.2688 6.75 12.5009C6.75 12.8325 6.8817 13.1504 7.11612 13.3848C7.35054 13.6192 7.66848 13.7509 8 13.7509C8.33152 13.7509 8.64946 13.6192 8.88388 13.3848C9.1183 13.1504 9.25 12.8325 9.25 12.5009C9.25 12.2688 9.16719 11.9095 8.99275 11.4485C8.82425 11.0032 8.59435 10.5243 8.3556 10.0743C8.16146 9.70841 8.30071 9.25441 8.66662 9.06028C9.03252 8.86615 9.48652 9.00539 9.68065 9.3713C9.93565 9.85192 10.1967 10.3918 10.3957 10.9177C10.5888 11.4279 10.75 11.9924 10.75 12.5009C10.75 13.2303 10.4603 13.9297 9.94454 14.4455C9.42882 14.9612 8.72935 15.2509 8 15.2509C7.27065 15.2509 6.57118 14.9612 6.05546 14.4455C5.53973 13.9297 5.25 13.2303 5.25 12.5009C5.25 11.9924 5.41125 11.4279 5.60432 10.9177C5.80332 10.3918 6.06435 9.85192 6.31935 9.3713C6.51348 9.00539 6.96748 8.86615 7.33338 9.06028Z" fill="#1D1A31"/>
<path id="Vector (Stroke)_6" fill-rule="evenodd" clip-rule="evenodd" d="M9.25063 7.95184C9.26537 7.53788 9.6129 7.21426 10.0268 7.229C10.5708 7.24837 11.1689 7.29215 11.7239 7.38278C12.2607 7.47043 12.8283 7.61248 13.2681 7.86552C13.5839 8.04338 13.8614 8.2819 14.0846 8.56737C14.3088 8.85409 14.4739 9.18248 14.5703 9.53348C14.6666 9.88448 14.6924 10.2511 14.646 10.6121C14.5995 10.9732 14.4819 11.3214 14.2999 11.6366C14.1179 11.9518 13.8751 12.2278 13.5857 12.4484C13.2962 12.6691 12.9658 12.8301 12.6136 12.9222C12.2615 13.0142 11.8945 13.0354 11.5341 12.9845C11.1752 12.9339 10.8299 12.8128 10.518 12.6282C10.0793 12.3739 9.67239 11.9534 9.32804 11.5323C8.97197 11.097 8.63488 10.6009 8.34621 10.1394C8.12652 9.78827 8.2331 9.32551 8.58425 9.10583C8.93541 8.88614 9.39817 8.99272 9.61786 9.34387C9.88794 9.77557 10.1877 10.2141 10.4891 10.5827C10.8012 10.9642 11.071 11.2155 11.2719 11.3314L11.2801 11.3361L11.28 11.3362C11.4223 11.4207 11.5799 11.4761 11.7437 11.4992C11.9076 11.5223 12.0743 11.5127 12.2344 11.4709C12.3945 11.4291 12.5447 11.3559 12.6762 11.2556C12.8078 11.1552 12.9182 11.0298 13.0009 10.8865C13.0836 10.7433 13.1371 10.585 13.1582 10.4209C13.1793 10.2568 13.1676 10.0901 13.1238 9.93058C13.08 9.77103 13.005 9.62176 12.903 9.49144C12.8011 9.36111 12.6743 9.25231 12.53 9.17136L12.5217 9.16667L12.5217 9.16662C12.3209 9.05054 11.9686 8.94259 11.4822 8.86317C11.0124 8.78646 10.4827 8.74618 9.97347 8.72805C9.55952 8.71331 9.23589 8.36579 9.25063 7.95184Z" fill="#1D1A31"/>
<path id="Vector (Stroke)_7" fill-rule="evenodd" clip-rule="evenodd" d="M12.2344 4.52889C12.0743 4.48706 11.9076 4.47743 11.7437 4.50055C11.5799 4.52367 11.4223 4.57908 11.28 4.66357L11.2719 4.66842L11.2719 4.66836C11.071 4.78427 10.8012 5.03554 10.4891 5.41709C10.1877 5.78563 9.88794 6.2242 9.61786 6.6559C9.39817 7.00706 8.93541 7.11363 8.58425 6.89394C8.2331 6.67426 8.12652 6.2115 8.34621 5.86034C8.63488 5.39892 8.97197 4.9028 9.32804 4.46744C9.67239 4.04641 10.0793 3.62588 10.518 3.37154C10.8299 3.18699 11.1752 3.06591 11.5341 3.01526C11.8945 2.9644 12.2615 2.98559 12.6136 3.07761C12.9658 3.16964 13.2962 3.33065 13.5857 3.55133C13.8751 3.77201 14.1179 4.04796 14.2999 4.36318C14.4819 4.67839 14.5995 5.02661 14.646 5.38763C14.6924 5.74865 14.6666 6.11529 14.5703 6.46629C14.4739 6.8173 14.3088 7.14568 14.0846 7.4324C13.8614 7.71787 13.5839 7.95639 13.2682 8.13425C12.8281 8.38742 12.2602 8.52912 11.7237 8.61656C11.1689 8.70698 10.571 8.75075 10.0277 8.77074C9.6138 8.78597 9.2659 8.46276 9.25067 8.04882C9.23543 7.63489 9.55865 7.28698 9.97258 7.27175C10.4825 7.25299 11.0124 7.2127 11.4824 7.13609C11.969 7.05678 12.3211 6.94909 12.5217 6.83315L12.53 6.82836L12.53 6.82842C12.6743 6.74746 12.8011 6.63866 12.903 6.50833C13.005 6.37801 13.08 6.22874 13.1238 6.0692C13.1676 5.90965 13.1793 5.74299 13.1582 5.57889C13.1371 5.41479 13.0836 5.25652 13.0009 5.11323C12.9182 4.96995 12.8078 4.84452 12.6762 4.74421C12.5447 4.64391 12.3945 4.57072 12.2344 4.52889Z" fill="#1D1A31"/>
</g>
<defs>
<clipPath id="clip0_17234_21767">
<rect width="16" height="16" fill="white"/>
</clipPath>
</defs>
</svg>
