<svg width="62" height="72" viewBox="0 0 62 72" fill="none" xmlns="http://www.w3.org/2000/svg">
<g filter="url(#filter0_d_10422_2287)">
<path fill-rule="evenodd" clip-rule="evenodd" d="M29 13C14.6406 13 3 24.6406 3 39C3 53.3594 14.6406 65 29 65C31.2468 65 33.4248 64.7154 35.5011 64.181C36.3034 63.9745 37.1212 64.4575 37.3277 65.2597C37.5341 66.062 37.0512 66.8798 36.2489 67.0863C33.9304 67.683 31.5011 68 29 68C12.9837 68 0 55.0163 0 39C0 22.9837 12.9837 10 29 10C45.0163 10 58 22.9837 58 39C58 39.8284 57.3284 40.5 56.5 40.5C55.6716 40.5 55 39.8284 55 39C55 24.6406 43.3594 13 29 13Z" fill="#DED6FB"/>
<path fill-rule="evenodd" clip-rule="evenodd" d="M42.4357 25.5643C43.0214 26.1501 43.0214 27.0999 42.4357 27.6857L30.0607 40.0607C29.4749 40.6464 28.5251 40.6464 27.9393 40.0607C27.3536 39.4749 27.3536 38.5251 27.9393 37.9393L40.3143 25.5643C40.9001 24.9786 41.8499 24.9786 42.4357 25.5643Z" fill="#DED6FB"/>
<path fill-rule="evenodd" clip-rule="evenodd" d="M20 1.5C20 0.671573 20.6716 0 21.5 0H36.5C37.3284 0 38 0.671573 38 1.5C38 2.32843 37.3284 3 36.5 3H21.5C20.6716 3 20 2.32843 20 1.5Z" fill="#DED6FB"/>
<path fill-rule="evenodd" clip-rule="evenodd" d="M42.6071 49.6933C42.8348 49.1236 43.3865 48.75 44 48.75H59.625C60.4534 48.75 61.125 49.4216 61.125 50.25V54.462C61.125 55.2904 60.4534 55.962 59.625 55.962C58.7966 55.962 58.125 55.2904 58.125 54.462V51.75H47.7528L55.6589 59.272C55.9647 59.5629 56.1338 59.9692 56.1246 60.3912C56.1155 60.8131 55.929 61.2118 55.6109 61.4892L48.0021 68.125H58.125V65.413C58.125 64.5846 58.7966 63.913 59.625 63.913C60.4534 63.913 61.125 64.5846 61.125 65.413V69.625C61.125 70.4534 60.4534 71.125 59.625 71.125H44C43.3746 71.125 42.8149 70.737 42.5954 70.1514C42.3759 69.5659 42.5428 68.9056 43.0141 68.4945L52.3981 60.3105L42.9661 51.3367C42.5216 50.9139 42.3794 50.2629 42.6071 49.6933Z" fill="#DED6FB"/>
</g>
<defs>
<filter id="filter0_d_10422_2287" x="0" y="0" width="79.5" height="85.5" filterUnits="userSpaceOnUse" color-interpolation-filters="sRGB">
<feFlood flood-opacity="0" result="BackgroundImageFix"/>
<feColorMatrix in="SourceAlpha" type="matrix" values="0 0 0 0 0 0 0 0 0 0 0 0 0 0 0 0 0 0 127 0" result="hardAlpha"/>
<feOffset/>
<feGaussianBlur stdDeviation="4"/>
<feComposite in2="hardAlpha" operator="out"/>
<feColorMatrix type="matrix" values="0 0 0 0 0.765895 0 0 0 0 0.712 0 0 0 0 0.968 0 0 0 1 0"/>
<feBlend mode="normal" in2="BackgroundImageFix" result="effect1_dropShadow_10422_2287"/>
<feBlend mode="normal" in="SourceGraphic" in2="effect1_dropShadow_10422_2287" result="shape"/>
</filter>
</defs>
</svg>
