<svg width="16" height="16" viewBox="0 0 16 16" fill="none" xmlns="http://www.w3.org/2000/svg">
<g id="Icon" clip-path="url(#clip0_17234_21605)">
<path id="Vector (Stroke)" fill-rule="evenodd" clip-rule="evenodd" d="M3.35884 9.70242C2.54728 10.514 2.54728 11.8298 3.35884 12.6413L3.35928 12.6418C4.17084 13.4533 5.48664 13.4533 6.2982 12.6418L12.6418 6.29814C13.4534 5.48658 13.4534 4.17079 12.6418 3.35923L12.6414 3.35879C11.8298 2.54723 10.514 2.54723 9.70247 3.35879L3.35884 9.70242ZM2.29818 13.702C0.900838 12.3046 0.900838 10.0391 2.29818 8.64176L8.64181 2.29813C10.0392 0.900782 12.3047 0.900782 13.702 2.29813L13.7025 2.29857C15.0998 3.69591 15.0998 5.96146 13.7025 7.3588L7.35886 13.7024C5.96151 15.0998 3.69597 15.0998 2.29862 13.7024L2.29818 13.702Z" fill="#1D1A31"/>
<path id="Vector (Stroke)_2" fill-rule="evenodd" clip-rule="evenodd" d="M5.46967 5.46967C5.76256 5.17678 6.23744 5.17678 6.53033 5.46967L10.5303 9.46967C10.8232 9.76256 10.8232 10.2374 10.5303 10.5303C10.2374 10.8232 9.76256 10.8232 9.46967 10.5303L5.46967 6.53033C5.17678 6.23744 5.17678 5.76256 5.46967 5.46967Z" fill="#1D1A31"/>
<path id="Vector (Stroke)_3" fill-rule="evenodd" clip-rule="evenodd" d="M12.0303 4.96967C12.3232 5.26256 12.3232 5.73744 12.0303 6.03033L10.5303 7.53033C10.2374 7.82322 9.76256 7.82322 9.46967 7.53033C9.17678 7.23744 9.17678 6.76256 9.46967 6.46967L10.9697 4.96967C11.2626 4.67678 11.7374 4.67678 12.0303 4.96967Z" fill="#1D1A31"/>
</g>
<defs>
<clipPath id="clip0_17234_21605">
<rect width="16" height="16" fill="white"/>
</clipPath>
</defs>
</svg>
