<svg width="77" height="71" viewBox="0 0 77 71" fill="none" xmlns="http://www.w3.org/2000/svg">
<g filter="url(#filter0_d_10422_2287)">
<path fill-rule="evenodd" clip-rule="evenodd" d="M0.5 59.5C0.5 58.6716 1.17157 58 2 58H41C41.8284 58 42.5 58.6716 42.5 59.5C42.5 60.3284 41.8284 61 41 61H2C1.17157 61 0.5 60.3284 0.5 59.5Z" fill="#DED6FB"/>
<path fill-rule="evenodd" clip-rule="evenodd" d="M6.67157 1.67157C7.42172 0.921429 8.43913 0.5 9.5 0.5H39.5C40.5609 0.5 41.5783 0.921428 42.3284 1.67157C43.0786 2.42172 43.5 3.43914 43.5 4.5V59.5C43.5 60.3284 42.8284 61 42 61C41.1716 61 40.5 60.3284 40.5 59.5V4.5C40.5 4.23478 40.3946 3.98043 40.2071 3.79289C40.0196 3.60536 39.7652 3.5 39.5 3.5H9.5C9.23479 3.5 8.98043 3.60536 8.79289 3.79289C8.60536 3.98043 8.5 4.23478 8.5 4.5V59.5C8.5 60.3284 7.82843 61 7 61C6.17157 61 5.5 60.3284 5.5 59.5V4.5C5.5 3.43913 5.92143 2.42172 6.67157 1.67157Z" fill="#DED6FB"/>
<path fill-rule="evenodd" clip-rule="evenodd" d="M40.5 22C40.5 21.1716 41.1716 20.5 42 20.5H64.5C65.5609 20.5 66.5783 20.9214 67.3284 21.6716C68.0786 22.4217 68.5 23.4391 68.5 24.5V36.5C68.5 37.3284 67.8284 38 67 38C66.1716 38 65.5 37.3284 65.5 36.5V24.5C65.5 24.2348 65.3946 23.9804 65.2071 23.7929C65.0196 23.6054 64.7652 23.5 64.5 23.5H42C41.1716 23.5 40.5 22.8284 40.5 22Z" fill="#DED6FB"/>
<path fill-rule="evenodd" clip-rule="evenodd" d="M15.5 14.5C15.5 13.6716 16.1716 13 17 13H27C27.8284 13 28.5 13.6716 28.5 14.5C28.5 15.3284 27.8284 16 27 16H17C16.1716 16 15.5 15.3284 15.5 14.5Z" fill="#DED6FB"/>
<path fill-rule="evenodd" clip-rule="evenodd" d="M20.5 34.5C20.5 33.6716 21.1716 33 22 33H32C32.8284 33 33.5 33.6716 33.5 34.5C33.5 35.3284 32.8284 36 32 36H22C21.1716 36 20.5 35.3284 20.5 34.5Z" fill="#DED6FB"/>
<path fill-rule="evenodd" clip-rule="evenodd" d="M15.5 47C15.5 46.1716 16.1716 45.5 17 45.5H27C27.8284 45.5 28.5 46.1716 28.5 47C28.5 47.8284 27.8284 48.5 27 48.5H17C16.1716 48.5 15.5 47.8284 15.5 47Z" fill="#DED6FB"/>
<path fill-rule="evenodd" clip-rule="evenodd" d="M50.5 34.5C50.5 33.6716 51.1716 33 52 33H57C57.8284 33 58.5 33.6716 58.5 34.5C58.5 35.3284 57.8284 36 57 36H52C51.1716 36 50.5 35.3284 50.5 34.5Z" fill="#DED6FB"/>
<path fill-rule="evenodd" clip-rule="evenodd" d="M63 47.5C63.8284 47.5 64.5 48.1716 64.5 49V51C64.5 51.8284 63.8284 52.5 63 52.5C62.1716 52.5 61.5 51.8284 61.5 51V49C61.5 48.1716 62.1716 47.5 63 47.5Z" fill="#DED6FB"/>
<path fill-rule="evenodd" clip-rule="evenodd" d="M63 60.5C63.8284 60.5 64.5 61.1716 64.5 62V64C64.5 64.8284 63.8284 65.5 63 65.5C62.1716 65.5 61.5 64.8284 61.5 64V62C61.5 61.1716 62.1716 60.5 63 60.5Z" fill="#DED6FB"/>
<path fill-rule="evenodd" clip-rule="evenodd" d="M62.5 45.5C56.4249 45.5 51.5 50.4249 51.5 56.5C51.5 62.5751 56.4249 67.5 62.5 67.5C68.5751 67.5 73.5 62.5751 73.5 56.5C73.5 50.4249 68.5751 45.5 62.5 45.5ZM48.5 56.5C48.5 48.768 54.768 42.5 62.5 42.5C70.232 42.5 76.5 48.768 76.5 56.5C76.5 64.232 70.232 70.5 62.5 70.5C54.768 70.5 48.5 64.232 48.5 56.5Z" fill="#DED6FB"/>
<path fill-rule="evenodd" clip-rule="evenodd" d="M60.8125 52.5C60.4537 52.5 60.1161 52.6397 59.8724 52.878C59.6299 53.1151 59.5 53.4295 59.5 53.75C59.5 54.0705 59.6299 54.3849 59.8724 54.622C60.1161 54.8603 60.4537 55 60.8125 55H64.1875C65.3205 55 66.4137 55.4398 67.2249 56.2329C68.0373 57.0272 68.5 58.1118 68.5 59.25C68.5 60.3882 68.0373 61.4728 67.2249 62.2671C66.4137 63.0602 65.3205 63.5 64.1875 63.5H59.125C58.2966 63.5 57.625 62.8284 57.625 62C57.625 61.1716 58.2966 60.5 59.125 60.5H64.1875C64.5463 60.5 64.8839 60.3603 65.1276 60.122C65.3701 59.8849 65.5 59.5705 65.5 59.25C65.5 58.9295 65.3701 58.6151 65.1276 58.378C64.8839 58.1397 64.5463 58 64.1875 58H60.8125C59.6795 58 58.5863 57.5602 57.7751 56.7671C56.9627 55.9728 56.5 54.8882 56.5 53.75C56.5 52.6118 56.9627 51.5272 57.7751 50.7329C58.5863 49.9398 59.6795 49.5 60.8125 49.5H65.875C66.7034 49.5 67.375 50.1716 67.375 51C67.375 51.8284 66.7034 52.5 65.875 52.5H60.8125Z" fill="#DED6FB"/>
</g>
<defs>
<filter id="filter0_d_10422_2287" x="0" y="0" width="79.5" height="85.5" filterUnits="userSpaceOnUse" color-interpolation-filters="sRGB">
<feFlood flood-opacity="0" result="BackgroundImageFix"/>
<feColorMatrix in="SourceAlpha" type="matrix" values="0 0 0 0 0 0 0 0 0 0 0 0 0 0 0 0 0 0 127 0" result="hardAlpha"/>
<feOffset/>
<feGaussianBlur stdDeviation="4"/>
<feComposite in2="hardAlpha" operator="out"/>
<feColorMatrix type="matrix" values="0 0 0 0 0.765895 0 0 0 0 0.712 0 0 0 0 0.968 0 0 0 1 0"/>
<feBlend mode="normal" in2="BackgroundImageFix" result="effect1_dropShadow_10422_2287"/>
<feBlend mode="normal" in="SourceGraphic" in2="effect1_dropShadow_10422_2287" result="shape"/>
</filter>
</defs>
</svg>
