<svg width="16" height="16" viewBox="0 0 16 16" fill="none" xmlns="http://www.w3.org/2000/svg">
<g id="Icon">
<path id="Vector (Stroke)" fill-rule="evenodd" clip-rule="evenodd" d="M8 2.75C6.20507 2.75 4.75 4.20507 4.75 6C4.75 7.79493 6.20507 9.25 8 9.25C9.79493 9.25 11.25 7.79493 11.25 6C11.25 4.20507 9.79493 2.75 8 2.75ZM3.25 6C3.25 3.37665 5.37665 1.25 8 1.25C10.6234 1.25 12.75 3.37665 12.75 6C12.75 8.62335 10.6234 10.75 8 10.75C5.37665 10.75 3.25 8.62335 3.25 6Z" fill="#1D1A31"/>
<path id="Vector (Stroke)_2" fill-rule="evenodd" clip-rule="evenodd" d="M7.9999 10.75C6.90268 10.75 5.82478 11.0387 4.87448 11.5872C3.92418 12.1357 3.13494 12.9245 2.58606 13.8746C2.37885 14.2333 1.92012 14.356 1.56146 14.1488C1.2028 13.9416 1.08003 13.4829 1.28724 13.1242C1.9678 11.9462 2.94638 10.9681 4.12467 10.288C5.30296 9.60799 6.63946 9.24999 7.99991 9.25C9.36037 9.25001 10.6969 9.60804 11.8751 10.2881C13.0534 10.9682 14.032 11.9464 14.7125 13.1244C14.9197 13.483 14.7969 13.9418 14.4383 14.149C14.0796 14.3562 13.6209 14.2334 13.4137 13.8747C12.8648 12.9246 12.0756 12.1357 11.1253 11.5873C10.175 11.0388 9.09712 10.75 7.9999 10.75Z" fill="#1D1A31"/>
</g>
</svg>
